%TF.GenerationSoftware,Altium Limited,Altium Designer,26.3.0 (6)*%
G04 Layer_Physical_Order=2*
G04 Layer_Color=32768*
%FSLAX45Y45*%
%MOMM*%
%TF.SameCoordinates,8A8B7967-9E6A-41B8-963D-BB03FE958A55*%
%TF.FilePolarity,Negative*%
%TF.FileFunction,Copper,L2,Inr,Plane*%
%TF.Part,Single*%
G01*
G75*
%TA.AperFunction,NonConductor*%
%ADD92C,1.01600*%
%ADD93C,1.27000*%
%ADD94C,0.76200*%
%TA.AperFunction,ComponentPad*%
%ADD95C,1.90480*%
%ADD96C,3.20480*%
%ADD97C,3.50480*%
%ADD98O,2.30480X1.30480*%
%TA.AperFunction,ViaPad*%
%ADD99C,0.60480*%
G36*
X4161135Y2439988D02*
X4179334Y2432450D01*
X4195712Y2421506D01*
X4209641Y2407577D01*
X4220585Y2391198D01*
X4228123Y2373000D01*
X4231966Y2353680D01*
Y2343831D01*
Y2333981D01*
X4228123Y2314662D01*
X4220585Y2296463D01*
X4209641Y2280084D01*
X4195712Y2266155D01*
X4179334Y2255212D01*
X4161135Y2247673D01*
X4141815Y2243831D01*
X4122117D01*
X4102797Y2247673D01*
X4084598Y2255212D01*
X4068220Y2266155D01*
X4054291Y2280084D01*
X4043347Y2296463D01*
X4035809Y2314662D01*
X4031966Y2333981D01*
Y2343831D01*
Y2353680D01*
X4035809Y2373000D01*
X4043347Y2391198D01*
X4054291Y2407577D01*
X4068220Y2421506D01*
X4084598Y2432450D01*
X4102797Y2439988D01*
X4122117Y2443831D01*
X4141815D01*
X4161135Y2439988D01*
D02*
G37*
G36*
X2928247Y8317372D02*
X2929393D01*
X2930803Y8317196D01*
X2932390Y8317020D01*
X2934152Y8316755D01*
X2936003Y8316403D01*
X2934505Y8307677D01*
X2934329D01*
X2933976Y8307765D01*
X2933359Y8307853D01*
X2932566Y8308030D01*
X2931685Y8308118D01*
X2930715Y8308206D01*
X2928600Y8308294D01*
X2927895D01*
X2927013Y8308206D01*
X2926044Y8308030D01*
X2924986Y8307853D01*
X2923928Y8307501D01*
X2922959Y8306972D01*
X2922166Y8306355D01*
X2922077Y8306267D01*
X2921901Y8306002D01*
X2921549Y8305474D01*
X2921284Y8304769D01*
X2920932Y8303711D01*
X2920579Y8302477D01*
X2920403Y8300979D01*
X2920315Y8299128D01*
Y8293751D01*
X2931773D01*
Y8285995D01*
X2920315D01*
Y8234787D01*
X2910355D01*
Y8285995D01*
X2901541D01*
Y8293751D01*
X2910355D01*
Y8299921D01*
Y8300009D01*
Y8300185D01*
Y8300450D01*
Y8300890D01*
X2910443Y8301948D01*
X2910531Y8303270D01*
X2910620Y8304680D01*
X2910796Y8306091D01*
X2911060Y8307501D01*
X2911413Y8308735D01*
Y8308823D01*
X2911501Y8308911D01*
X2911677Y8309352D01*
X2912030Y8310057D01*
X2912559Y8310938D01*
X2913264Y8311996D01*
X2914145Y8313053D01*
X2915203Y8314023D01*
X2916437Y8314993D01*
X2916613Y8315081D01*
X2917142Y8315345D01*
X2917935Y8315786D01*
X2919081Y8316226D01*
X2920579Y8316667D01*
X2922342Y8317108D01*
X2924369Y8317372D01*
X2926661Y8317460D01*
X2927366D01*
X2928247Y8317372D01*
D02*
G37*
G36*
X2494961Y8304769D02*
X2485001D01*
Y8316138D01*
X2494961D01*
Y8304769D01*
D02*
G37*
G36*
X1876144D02*
X1866184D01*
Y8316138D01*
X1876144D01*
Y8304769D01*
D02*
G37*
G36*
X2842313Y8294985D02*
X2842841D01*
X2844163Y8294809D01*
X2845662Y8294633D01*
X2847336Y8294280D01*
X2849011Y8293751D01*
X2850686Y8293134D01*
X2850774D01*
X2850862Y8293046D01*
X2851391Y8292782D01*
X2852184Y8292341D01*
X2853242Y8291812D01*
X2854299Y8291019D01*
X2855445Y8290226D01*
X2856503Y8289256D01*
X2857384Y8288110D01*
X2857472Y8287934D01*
X2857737Y8287582D01*
X2858089Y8286876D01*
X2858618Y8285995D01*
X2859147Y8284937D01*
X2859588Y8283704D01*
X2860116Y8282293D01*
X2860469Y8280707D01*
Y8280619D01*
X2860557Y8280178D01*
X2860645Y8279473D01*
X2860822Y8278503D01*
X2860910Y8277181D01*
Y8276388D01*
X2860998Y8275507D01*
Y8274537D01*
X2861086Y8273391D01*
Y8272246D01*
Y8271012D01*
Y8234787D01*
X2851126D01*
Y8270659D01*
Y8270747D01*
Y8270924D01*
Y8271276D01*
Y8271629D01*
Y8272157D01*
X2851038Y8272774D01*
X2850950Y8274096D01*
X2850862Y8275595D01*
X2850598Y8277093D01*
X2850333Y8278503D01*
X2849892Y8279737D01*
X2849804Y8279914D01*
X2849628Y8280266D01*
X2849364Y8280795D01*
X2848923Y8281500D01*
X2848394Y8282293D01*
X2847689Y8283087D01*
X2846808Y8283880D01*
X2845750Y8284585D01*
X2845662Y8284673D01*
X2845221Y8284849D01*
X2844604Y8285202D01*
X2843811Y8285554D01*
X2842753Y8285819D01*
X2841607Y8286171D01*
X2840285Y8286348D01*
X2838787Y8286436D01*
X2838170D01*
X2837729Y8286348D01*
X2837201D01*
X2836495Y8286260D01*
X2834997Y8285907D01*
X2833323Y8285466D01*
X2831472Y8284761D01*
X2829621Y8283704D01*
X2828651Y8283087D01*
X2827770Y8282381D01*
X2827682Y8282293D01*
X2827594Y8282205D01*
X2827329Y8281941D01*
X2827065Y8281588D01*
X2826712Y8281059D01*
X2826360Y8280531D01*
X2825919Y8279825D01*
X2825478Y8278944D01*
X2825038Y8277975D01*
X2824597Y8276829D01*
X2824244Y8275595D01*
X2823892Y8274185D01*
X2823627Y8272598D01*
X2823363Y8270924D01*
X2823275Y8268984D01*
X2823187Y8266957D01*
Y8234787D01*
X2813227D01*
Y8293751D01*
X2822217D01*
Y8285290D01*
X2822305Y8285378D01*
X2822482Y8285731D01*
X2822922Y8286171D01*
X2823451Y8286788D01*
X2824068Y8287582D01*
X2824861Y8288375D01*
X2825831Y8289256D01*
X2826977Y8290226D01*
X2828210Y8291107D01*
X2829621Y8291988D01*
X2831119Y8292782D01*
X2832794Y8293575D01*
X2834645Y8294192D01*
X2836584Y8294633D01*
X2838699Y8294985D01*
X2840902Y8295073D01*
X2841784D01*
X2842313Y8294985D01*
D02*
G37*
G36*
X2453271D02*
X2454065Y8294897D01*
X2454858Y8294809D01*
X2455827Y8294633D01*
X2456885Y8294456D01*
X2459000Y8293839D01*
X2461292Y8292958D01*
X2462350Y8292429D01*
X2463407Y8291812D01*
X2464465Y8291019D01*
X2465346Y8290138D01*
X2465434Y8290049D01*
X2465523Y8289873D01*
X2465787Y8289609D01*
X2466051Y8289256D01*
X2466492Y8288727D01*
X2466845Y8288110D01*
X2467285Y8287317D01*
X2467726Y8286436D01*
X2468167Y8285466D01*
X2468607Y8284409D01*
X2469048Y8283175D01*
X2469401Y8281853D01*
X2469665Y8280354D01*
X2469930Y8278768D01*
X2470018Y8277093D01*
X2470106Y8275242D01*
Y8234787D01*
X2460146D01*
Y8271893D01*
Y8271981D01*
Y8272157D01*
Y8272510D01*
Y8272863D01*
X2460058Y8273920D01*
Y8275242D01*
X2459882Y8276652D01*
X2459706Y8278063D01*
X2459529Y8279385D01*
X2459177Y8280531D01*
Y8280619D01*
X2459000Y8280971D01*
X2458736Y8281412D01*
X2458383Y8282029D01*
X2457855Y8282734D01*
X2457326Y8283439D01*
X2456533Y8284144D01*
X2455651Y8284761D01*
X2455563Y8284849D01*
X2455210Y8285026D01*
X2454682Y8285290D01*
X2453977Y8285643D01*
X2453095Y8285907D01*
X2452038Y8286171D01*
X2450892Y8286348D01*
X2449658Y8286436D01*
X2449041D01*
X2448600Y8286348D01*
X2448071D01*
X2447454Y8286260D01*
X2446044Y8285907D01*
X2444370Y8285466D01*
X2442607Y8284673D01*
X2440932Y8283704D01*
X2440051Y8282998D01*
X2439258Y8282293D01*
Y8282205D01*
X2439081Y8282117D01*
X2438905Y8281853D01*
X2438641Y8281500D01*
X2438288Y8281059D01*
X2437935Y8280531D01*
X2437583Y8279825D01*
X2437230Y8279120D01*
X2436790Y8278239D01*
X2436437Y8277269D01*
X2436085Y8276124D01*
X2435732Y8274978D01*
X2435468Y8273656D01*
X2435291Y8272157D01*
X2435203Y8270659D01*
X2435115Y8268984D01*
Y8234787D01*
X2425155D01*
Y8273039D01*
Y8273127D01*
Y8273303D01*
Y8273656D01*
Y8274185D01*
X2425067Y8274713D01*
Y8275330D01*
X2424891Y8276829D01*
X2424538Y8278415D01*
X2424098Y8280090D01*
X2423481Y8281676D01*
X2422688Y8283087D01*
X2422599Y8283263D01*
X2422247Y8283615D01*
X2421630Y8284144D01*
X2420837Y8284761D01*
X2419691Y8285378D01*
X2418369Y8285907D01*
X2416694Y8286260D01*
X2414755Y8286436D01*
X2414050D01*
X2413257Y8286348D01*
X2412199Y8286171D01*
X2410965Y8285907D01*
X2409643Y8285466D01*
X2408321Y8284937D01*
X2406911Y8284144D01*
X2406735Y8284056D01*
X2406294Y8283704D01*
X2405677Y8283263D01*
X2404972Y8282470D01*
X2404090Y8281588D01*
X2403209Y8280442D01*
X2402416Y8279120D01*
X2401711Y8277622D01*
Y8277534D01*
X2401623Y8277446D01*
X2401534Y8277181D01*
X2401446Y8276829D01*
X2401358Y8276388D01*
X2401182Y8275859D01*
X2401094Y8275242D01*
X2400917Y8274537D01*
X2400741Y8273656D01*
X2400653Y8272774D01*
X2400477Y8271805D01*
X2400389Y8270659D01*
X2400301Y8269513D01*
X2400212Y8268191D01*
X2400124Y8266869D01*
Y8265371D01*
Y8234787D01*
X2390165D01*
Y8293751D01*
X2399067D01*
Y8285554D01*
X2399243Y8285643D01*
X2399595Y8286171D01*
X2400212Y8286965D01*
X2401094Y8287934D01*
X2402151Y8289080D01*
X2403385Y8290226D01*
X2404796Y8291372D01*
X2406470Y8292429D01*
X2406558D01*
X2406646Y8292517D01*
X2406911Y8292694D01*
X2407263Y8292870D01*
X2407704Y8293046D01*
X2408233Y8293311D01*
X2409467Y8293751D01*
X2411053Y8294280D01*
X2412816Y8294633D01*
X2414843Y8294985D01*
X2416959Y8295073D01*
X2418016D01*
X2418633Y8294985D01*
X2419250Y8294897D01*
X2420749Y8294721D01*
X2422423Y8294368D01*
X2424186Y8293928D01*
X2425949Y8293222D01*
X2427623Y8292341D01*
X2427711D01*
X2427800Y8292253D01*
X2428328Y8291812D01*
X2429033Y8291195D01*
X2430003Y8290402D01*
X2430973Y8289256D01*
X2431942Y8288022D01*
X2432823Y8286524D01*
X2433617Y8284761D01*
X2433705Y8284849D01*
X2433969Y8285202D01*
X2434322Y8285731D01*
X2434939Y8286348D01*
X2435556Y8287141D01*
X2436437Y8288022D01*
X2437407Y8288992D01*
X2438552Y8289961D01*
X2439786Y8290843D01*
X2441197Y8291812D01*
X2442695Y8292694D01*
X2444281Y8293487D01*
X2446044Y8294104D01*
X2447895Y8294633D01*
X2449834Y8294985D01*
X2451861Y8295073D01*
X2452743D01*
X2453271Y8294985D01*
D02*
G37*
G36*
X2327058D02*
X2327851Y8294897D01*
X2328644Y8294809D01*
X2329614Y8294633D01*
X2330671Y8294456D01*
X2332787Y8293839D01*
X2335078Y8292958D01*
X2336136Y8292429D01*
X2337194Y8291812D01*
X2338251Y8291019D01*
X2339133Y8290138D01*
X2339221Y8290049D01*
X2339309Y8289873D01*
X2339573Y8289609D01*
X2339838Y8289256D01*
X2340279Y8288727D01*
X2340631Y8288110D01*
X2341072Y8287317D01*
X2341512Y8286436D01*
X2341953Y8285466D01*
X2342394Y8284409D01*
X2342835Y8283175D01*
X2343187Y8281853D01*
X2343451Y8280354D01*
X2343716Y8278768D01*
X2343804Y8277093D01*
X2343892Y8275242D01*
Y8234787D01*
X2333933D01*
Y8271893D01*
Y8271981D01*
Y8272157D01*
Y8272510D01*
Y8272863D01*
X2333844Y8273920D01*
Y8275242D01*
X2333668Y8276652D01*
X2333492Y8278063D01*
X2333316Y8279385D01*
X2332963Y8280531D01*
Y8280619D01*
X2332787Y8280971D01*
X2332522Y8281412D01*
X2332170Y8282029D01*
X2331641Y8282734D01*
X2331112Y8283439D01*
X2330319Y8284144D01*
X2329438Y8284761D01*
X2329349Y8284849D01*
X2328997Y8285026D01*
X2328468Y8285290D01*
X2327763Y8285643D01*
X2326882Y8285907D01*
X2325824Y8286171D01*
X2324678Y8286348D01*
X2323444Y8286436D01*
X2322827D01*
X2322387Y8286348D01*
X2321858D01*
X2321241Y8286260D01*
X2319831Y8285907D01*
X2318156Y8285466D01*
X2316393Y8284673D01*
X2314719Y8283704D01*
X2313837Y8282998D01*
X2313044Y8282293D01*
Y8282205D01*
X2312868Y8282117D01*
X2312691Y8281853D01*
X2312427Y8281500D01*
X2312074Y8281059D01*
X2311722Y8280531D01*
X2311369Y8279825D01*
X2311017Y8279120D01*
X2310576Y8278239D01*
X2310223Y8277269D01*
X2309871Y8276124D01*
X2309518Y8274978D01*
X2309254Y8273656D01*
X2309078Y8272157D01*
X2308990Y8270659D01*
X2308901Y8268984D01*
Y8234787D01*
X2298942D01*
Y8273039D01*
Y8273127D01*
Y8273303D01*
Y8273656D01*
Y8274185D01*
X2298854Y8274713D01*
Y8275330D01*
X2298677Y8276829D01*
X2298325Y8278415D01*
X2297884Y8280090D01*
X2297267Y8281676D01*
X2296474Y8283087D01*
X2296386Y8283263D01*
X2296033Y8283615D01*
X2295416Y8284144D01*
X2294623Y8284761D01*
X2293477Y8285378D01*
X2292155Y8285907D01*
X2290481Y8286260D01*
X2288542Y8286436D01*
X2287836D01*
X2287043Y8286348D01*
X2285986Y8286171D01*
X2284752Y8285907D01*
X2283430Y8285466D01*
X2282107Y8284937D01*
X2280697Y8284144D01*
X2280521Y8284056D01*
X2280080Y8283704D01*
X2279463Y8283263D01*
X2278758Y8282470D01*
X2277877Y8281588D01*
X2276995Y8280442D01*
X2276202Y8279120D01*
X2275497Y8277622D01*
Y8277534D01*
X2275409Y8277446D01*
X2275321Y8277181D01*
X2275233Y8276829D01*
X2275145Y8276388D01*
X2274968Y8275859D01*
X2274880Y8275242D01*
X2274704Y8274537D01*
X2274528Y8273656D01*
X2274439Y8272774D01*
X2274263Y8271805D01*
X2274175Y8270659D01*
X2274087Y8269513D01*
X2273999Y8268191D01*
X2273911Y8266869D01*
Y8265371D01*
Y8234787D01*
X2263951D01*
Y8293751D01*
X2272853D01*
Y8285554D01*
X2273029Y8285643D01*
X2273382Y8286171D01*
X2273999Y8286965D01*
X2274880Y8287934D01*
X2275938Y8289080D01*
X2277172Y8290226D01*
X2278582Y8291372D01*
X2280257Y8292429D01*
X2280345D01*
X2280433Y8292517D01*
X2280697Y8292694D01*
X2281050Y8292870D01*
X2281490Y8293046D01*
X2282019Y8293311D01*
X2283253Y8293751D01*
X2284840Y8294280D01*
X2286602Y8294633D01*
X2288630Y8294985D01*
X2290745Y8295073D01*
X2291803D01*
X2292420Y8294985D01*
X2293037Y8294897D01*
X2294535Y8294721D01*
X2296210Y8294368D01*
X2297972Y8293928D01*
X2299735Y8293222D01*
X2301410Y8292341D01*
X2301498D01*
X2301586Y8292253D01*
X2302115Y8291812D01*
X2302820Y8291195D01*
X2303789Y8290402D01*
X2304759Y8289256D01*
X2305728Y8288022D01*
X2306610Y8286524D01*
X2307403Y8284761D01*
X2307491Y8284849D01*
X2307756Y8285202D01*
X2308108Y8285731D01*
X2308725Y8286348D01*
X2309342Y8287141D01*
X2310223Y8288022D01*
X2311193Y8288992D01*
X2312339Y8289961D01*
X2313573Y8290843D01*
X2314983Y8291812D01*
X2316481Y8292694D01*
X2318068Y8293487D01*
X2319831Y8294104D01*
X2321681Y8294633D01*
X2323620Y8294985D01*
X2325648Y8295073D01*
X2326529D01*
X2327058Y8294985D01*
D02*
G37*
G36*
X3028107D02*
X3028901Y8294897D01*
X3029870Y8294809D01*
X3030928Y8294633D01*
X3032074Y8294456D01*
X3034542Y8293839D01*
X3037186Y8292958D01*
X3038508Y8292429D01*
X3039830Y8291812D01*
X3041064Y8291019D01*
X3042210Y8290138D01*
X3042298Y8290049D01*
X3042474Y8289873D01*
X3042827Y8289609D01*
X3043179Y8289256D01*
X3043708Y8288727D01*
X3044237Y8288110D01*
X3044854Y8287405D01*
X3045471Y8286612D01*
X3046176Y8285643D01*
X3046793Y8284673D01*
X3047498Y8283527D01*
X3048115Y8282293D01*
X3048644Y8280971D01*
X3049172Y8279561D01*
X3049701Y8277975D01*
X3050054Y8276388D01*
X3040359Y8274890D01*
Y8274978D01*
X3040271Y8275154D01*
X3040182Y8275419D01*
X3040094Y8275859D01*
X3039742Y8276917D01*
X3039213Y8278239D01*
X3038508Y8279649D01*
X3037715Y8281148D01*
X3036657Y8282558D01*
X3035423Y8283792D01*
X3035247Y8283968D01*
X3034806Y8284320D01*
X3034013Y8284761D01*
X3033043Y8285378D01*
X3031809Y8285907D01*
X3030399Y8286436D01*
X3028724Y8286788D01*
X3026962Y8286876D01*
X3026257D01*
X3025728Y8286788D01*
X3025023Y8286700D01*
X3024318Y8286612D01*
X3022555Y8286171D01*
X3020616Y8285554D01*
X3019646Y8285114D01*
X3018589Y8284585D01*
X3017619Y8283968D01*
X3016561Y8283175D01*
X3015592Y8282381D01*
X3014711Y8281412D01*
X3014622Y8281324D01*
X3014534Y8281148D01*
X3014270Y8280883D01*
X3014005Y8280354D01*
X3013653Y8279825D01*
X3013212Y8279120D01*
X3012771Y8278239D01*
X3012419Y8277269D01*
X3011978Y8276124D01*
X3011538Y8274890D01*
X3011097Y8273480D01*
X3010744Y8271893D01*
X3010480Y8270218D01*
X3010215Y8268456D01*
X3010127Y8266428D01*
X3010039Y8264313D01*
Y8264225D01*
Y8263784D01*
Y8263167D01*
X3010127Y8262374D01*
X3010215Y8261405D01*
X3010304Y8260259D01*
X3010392Y8259025D01*
X3010568Y8257703D01*
X3011097Y8254882D01*
X3011978Y8251974D01*
X3012419Y8250652D01*
X3013036Y8249330D01*
X3013741Y8248096D01*
X3014534Y8247038D01*
X3014622Y8246950D01*
X3014711Y8246774D01*
X3014975Y8246509D01*
X3015327Y8246245D01*
X3015856Y8245804D01*
X3016385Y8245363D01*
X3017002Y8244835D01*
X3017707Y8244394D01*
X3019470Y8243336D01*
X3021497Y8242543D01*
X3022643Y8242191D01*
X3023789Y8241926D01*
X3025111Y8241750D01*
X3026433Y8241662D01*
X3026962D01*
X3027402Y8241750D01*
X3027931D01*
X3028460Y8241838D01*
X3029870Y8242102D01*
X3031369Y8242543D01*
X3033043Y8243160D01*
X3034630Y8244041D01*
X3036216Y8245187D01*
X3036304Y8245275D01*
X3036392Y8245363D01*
X3036833Y8245892D01*
X3037538Y8246774D01*
X3037891Y8247303D01*
X3038331Y8247919D01*
X3038772Y8248713D01*
X3039213Y8249506D01*
X3039565Y8250387D01*
X3040006Y8251445D01*
X3040359Y8252503D01*
X3040711Y8253737D01*
X3040976Y8254971D01*
X3041240Y8256381D01*
X3051023Y8255059D01*
Y8254971D01*
X3050935Y8254618D01*
X3050847Y8254089D01*
X3050671Y8253384D01*
X3050406Y8252503D01*
X3050142Y8251533D01*
X3049789Y8250475D01*
X3049349Y8249242D01*
X3048291Y8246774D01*
X3047586Y8245452D01*
X3046793Y8244130D01*
X3045999Y8242807D01*
X3045030Y8241485D01*
X3043884Y8240340D01*
X3042738Y8239194D01*
X3042650Y8239106D01*
X3042474Y8238929D01*
X3042033Y8238665D01*
X3041593Y8238312D01*
X3040887Y8237872D01*
X3040182Y8237343D01*
X3039213Y8236902D01*
X3038243Y8236373D01*
X3037098Y8235756D01*
X3035864Y8235316D01*
X3034542Y8234787D01*
X3033131Y8234346D01*
X3031545Y8233994D01*
X3029958Y8233729D01*
X3028284Y8233553D01*
X3026521Y8233465D01*
X3025992D01*
X3025375Y8233553D01*
X3024494D01*
X3023524Y8233729D01*
X3022290Y8233906D01*
X3020968Y8234082D01*
X3019558Y8234434D01*
X3018060Y8234875D01*
X3016473Y8235404D01*
X3014887Y8236021D01*
X3013212Y8236814D01*
X3011626Y8237695D01*
X3010039Y8238753D01*
X3008541Y8239899D01*
X3007131Y8241309D01*
X3007043Y8241397D01*
X3006778Y8241662D01*
X3006426Y8242102D01*
X3005985Y8242807D01*
X3005456Y8243601D01*
X3004839Y8244570D01*
X3004134Y8245804D01*
X3003517Y8247126D01*
X3002812Y8248625D01*
X3002107Y8250299D01*
X3001490Y8252150D01*
X3000961Y8254177D01*
X3000520Y8256381D01*
X3000168Y8258760D01*
X2999903Y8261316D01*
X2999815Y8263961D01*
Y8264049D01*
Y8264401D01*
Y8264930D01*
X2999903Y8265547D01*
Y8266428D01*
X2999991Y8267398D01*
X3000080Y8268456D01*
X3000168Y8269690D01*
X3000608Y8272246D01*
X3001137Y8275066D01*
X3001842Y8277975D01*
X3002900Y8280707D01*
Y8280795D01*
X3003076Y8281059D01*
X3003253Y8281412D01*
X3003517Y8281853D01*
X3003870Y8282470D01*
X3004222Y8283175D01*
X3005280Y8284761D01*
X3006602Y8286436D01*
X3008276Y8288287D01*
X3010215Y8289961D01*
X3012507Y8291460D01*
X3012595D01*
X3012771Y8291636D01*
X3013124Y8291812D01*
X3013653Y8291988D01*
X3014270Y8292341D01*
X3014975Y8292605D01*
X3015768Y8292958D01*
X3016650Y8293311D01*
X3017707Y8293575D01*
X3018765Y8293928D01*
X3021145Y8294544D01*
X3023789Y8294897D01*
X3026521Y8295073D01*
X3027491D01*
X3028107Y8294985D01*
D02*
G37*
G36*
X2781762D02*
X2782555Y8294897D01*
X2783525Y8294809D01*
X2784582Y8294633D01*
X2785728Y8294456D01*
X2788196Y8293839D01*
X2790840Y8292958D01*
X2792162Y8292429D01*
X2793484Y8291812D01*
X2794718Y8291019D01*
X2795864Y8290138D01*
X2795952Y8290049D01*
X2796128Y8289873D01*
X2796481Y8289609D01*
X2796833Y8289256D01*
X2797362Y8288727D01*
X2797891Y8288110D01*
X2798508Y8287405D01*
X2799125Y8286612D01*
X2799830Y8285643D01*
X2800447Y8284673D01*
X2801152Y8283527D01*
X2801769Y8282293D01*
X2802298Y8280971D01*
X2802827Y8279561D01*
X2803356Y8277975D01*
X2803708Y8276388D01*
X2794013Y8274890D01*
Y8274978D01*
X2793925Y8275154D01*
X2793837Y8275419D01*
X2793749Y8275859D01*
X2793396Y8276917D01*
X2792867Y8278239D01*
X2792162Y8279649D01*
X2791369Y8281148D01*
X2790311Y8282558D01*
X2789077Y8283792D01*
X2788901Y8283968D01*
X2788460Y8284320D01*
X2787667Y8284761D01*
X2786698Y8285378D01*
X2785464Y8285907D01*
X2784053Y8286436D01*
X2782379Y8286788D01*
X2780616Y8286876D01*
X2779911D01*
X2779382Y8286788D01*
X2778677Y8286700D01*
X2777972Y8286612D01*
X2776209Y8286171D01*
X2774270Y8285554D01*
X2773301Y8285114D01*
X2772243Y8284585D01*
X2771273Y8283968D01*
X2770216Y8283175D01*
X2769246Y8282381D01*
X2768365Y8281412D01*
X2768277Y8281324D01*
X2768189Y8281148D01*
X2767924Y8280883D01*
X2767660Y8280354D01*
X2767307Y8279825D01*
X2766866Y8279120D01*
X2766426Y8278239D01*
X2766073Y8277269D01*
X2765633Y8276124D01*
X2765192Y8274890D01*
X2764751Y8273480D01*
X2764399Y8271893D01*
X2764134Y8270218D01*
X2763870Y8268456D01*
X2763782Y8266428D01*
X2763693Y8264313D01*
Y8264225D01*
Y8263784D01*
Y8263167D01*
X2763782Y8262374D01*
X2763870Y8261405D01*
X2763958Y8260259D01*
X2764046Y8259025D01*
X2764222Y8257703D01*
X2764751Y8254882D01*
X2765633Y8251974D01*
X2766073Y8250652D01*
X2766690Y8249330D01*
X2767395Y8248096D01*
X2768189Y8247038D01*
X2768277Y8246950D01*
X2768365Y8246774D01*
X2768629Y8246509D01*
X2768982Y8246245D01*
X2769511Y8245804D01*
X2770039Y8245363D01*
X2770656Y8244835D01*
X2771361Y8244394D01*
X2773124Y8243336D01*
X2775151Y8242543D01*
X2776297Y8242191D01*
X2777443Y8241926D01*
X2778765Y8241750D01*
X2780087Y8241662D01*
X2780616D01*
X2781057Y8241750D01*
X2781585D01*
X2782114Y8241838D01*
X2783525Y8242102D01*
X2785023Y8242543D01*
X2786698Y8243160D01*
X2788284Y8244041D01*
X2789870Y8245187D01*
X2789959Y8245275D01*
X2790047Y8245363D01*
X2790487Y8245892D01*
X2791193Y8246774D01*
X2791545Y8247303D01*
X2791986Y8247919D01*
X2792426Y8248713D01*
X2792867Y8249506D01*
X2793220Y8250387D01*
X2793660Y8251445D01*
X2794013Y8252503D01*
X2794366Y8253737D01*
X2794630Y8254971D01*
X2794894Y8256381D01*
X2804678Y8255059D01*
Y8254971D01*
X2804590Y8254618D01*
X2804501Y8254089D01*
X2804325Y8253384D01*
X2804061Y8252503D01*
X2803796Y8251533D01*
X2803444Y8250475D01*
X2803003Y8249242D01*
X2801945Y8246774D01*
X2801240Y8245452D01*
X2800447Y8244130D01*
X2799654Y8242807D01*
X2798684Y8241485D01*
X2797538Y8240340D01*
X2796393Y8239194D01*
X2796305Y8239106D01*
X2796128Y8238929D01*
X2795688Y8238665D01*
X2795247Y8238312D01*
X2794542Y8237872D01*
X2793837Y8237343D01*
X2792867Y8236902D01*
X2791898Y8236373D01*
X2790752Y8235756D01*
X2789518Y8235316D01*
X2788196Y8234787D01*
X2786786Y8234346D01*
X2785199Y8233994D01*
X2783613Y8233729D01*
X2781938Y8233553D01*
X2780175Y8233465D01*
X2779646D01*
X2779029Y8233553D01*
X2778148D01*
X2777179Y8233729D01*
X2775945Y8233906D01*
X2774623Y8234082D01*
X2773212Y8234434D01*
X2771714Y8234875D01*
X2770128Y8235404D01*
X2768541Y8236021D01*
X2766866Y8236814D01*
X2765280Y8237695D01*
X2763693Y8238753D01*
X2762195Y8239899D01*
X2760785Y8241309D01*
X2760697Y8241397D01*
X2760432Y8241662D01*
X2760080Y8242102D01*
X2759639Y8242807D01*
X2759110Y8243601D01*
X2758493Y8244570D01*
X2757788Y8245804D01*
X2757171Y8247126D01*
X2756466Y8248625D01*
X2755761Y8250299D01*
X2755144Y8252150D01*
X2754615Y8254177D01*
X2754175Y8256381D01*
X2753822Y8258760D01*
X2753558Y8261316D01*
X2753469Y8263961D01*
Y8264049D01*
Y8264401D01*
Y8264930D01*
X2753558Y8265547D01*
Y8266428D01*
X2753646Y8267398D01*
X2753734Y8268456D01*
X2753822Y8269690D01*
X2754263Y8272246D01*
X2754792Y8275066D01*
X2755497Y8277975D01*
X2756554Y8280707D01*
Y8280795D01*
X2756731Y8281059D01*
X2756907Y8281412D01*
X2757171Y8281853D01*
X2757524Y8282470D01*
X2757876Y8283175D01*
X2758934Y8284761D01*
X2760256Y8286436D01*
X2761931Y8288287D01*
X2763870Y8289961D01*
X2766161Y8291460D01*
X2766249D01*
X2766426Y8291636D01*
X2766778Y8291812D01*
X2767307Y8291988D01*
X2767924Y8292341D01*
X2768629Y8292605D01*
X2769422Y8292958D01*
X2770304Y8293311D01*
X2771361Y8293575D01*
X2772419Y8293928D01*
X2774799Y8294544D01*
X2777443Y8294897D01*
X2780175Y8295073D01*
X2781145D01*
X2781762Y8294985D01*
D02*
G37*
G36*
X2169379D02*
X2170172Y8294897D01*
X2171142Y8294809D01*
X2172199Y8294633D01*
X2173345Y8294456D01*
X2175813Y8293839D01*
X2178457Y8292958D01*
X2179779Y8292429D01*
X2181101Y8291812D01*
X2182335Y8291019D01*
X2183481Y8290138D01*
X2183569Y8290049D01*
X2183745Y8289873D01*
X2184098Y8289609D01*
X2184451Y8289256D01*
X2184979Y8288727D01*
X2185508Y8288110D01*
X2186125Y8287405D01*
X2186742Y8286612D01*
X2187447Y8285643D01*
X2188064Y8284673D01*
X2188769Y8283527D01*
X2189386Y8282293D01*
X2189915Y8280971D01*
X2190444Y8279561D01*
X2190973Y8277975D01*
X2191325Y8276388D01*
X2181630Y8274890D01*
Y8274978D01*
X2181542Y8275154D01*
X2181454Y8275419D01*
X2181366Y8275859D01*
X2181013Y8276917D01*
X2180484Y8278239D01*
X2179779Y8279649D01*
X2178986Y8281148D01*
X2177928Y8282558D01*
X2176694Y8283792D01*
X2176518Y8283968D01*
X2176077Y8284320D01*
X2175284Y8284761D01*
X2174315Y8285378D01*
X2173081Y8285907D01*
X2171671Y8286436D01*
X2169996Y8286788D01*
X2168233Y8286876D01*
X2167528D01*
X2166999Y8286788D01*
X2166294Y8286700D01*
X2165589Y8286612D01*
X2163826Y8286171D01*
X2161887Y8285554D01*
X2160918Y8285114D01*
X2159860Y8284585D01*
X2158891Y8283968D01*
X2157833Y8283175D01*
X2156863Y8282381D01*
X2155982Y8281412D01*
X2155894Y8281324D01*
X2155806Y8281148D01*
X2155541Y8280883D01*
X2155277Y8280354D01*
X2154924Y8279825D01*
X2154484Y8279120D01*
X2154043Y8278239D01*
X2153690Y8277269D01*
X2153250Y8276124D01*
X2152809Y8274890D01*
X2152368Y8273480D01*
X2152016Y8271893D01*
X2151751Y8270218D01*
X2151487Y8268456D01*
X2151399Y8266428D01*
X2151311Y8264313D01*
Y8264225D01*
Y8263784D01*
Y8263167D01*
X2151399Y8262374D01*
X2151487Y8261405D01*
X2151575Y8260259D01*
X2151663Y8259025D01*
X2151839Y8257703D01*
X2152368Y8254882D01*
X2153250Y8251974D01*
X2153690Y8250652D01*
X2154307Y8249330D01*
X2155012Y8248096D01*
X2155806Y8247038D01*
X2155894Y8246950D01*
X2155982Y8246774D01*
X2156246Y8246509D01*
X2156599Y8246245D01*
X2157128Y8245804D01*
X2157657Y8245363D01*
X2158274Y8244835D01*
X2158979Y8244394D01*
X2160741Y8243336D01*
X2162769Y8242543D01*
X2163914Y8242191D01*
X2165060Y8241926D01*
X2166382Y8241750D01*
X2167704Y8241662D01*
X2168233D01*
X2168674Y8241750D01*
X2169203D01*
X2169731Y8241838D01*
X2171142Y8242102D01*
X2172640Y8242543D01*
X2174315Y8243160D01*
X2175901Y8244041D01*
X2177488Y8245187D01*
X2177576Y8245275D01*
X2177664Y8245363D01*
X2178105Y8245892D01*
X2178810Y8246774D01*
X2179162Y8247303D01*
X2179603Y8247919D01*
X2180044Y8248713D01*
X2180484Y8249506D01*
X2180837Y8250387D01*
X2181278Y8251445D01*
X2181630Y8252503D01*
X2181983Y8253737D01*
X2182247Y8254971D01*
X2182512Y8256381D01*
X2192295Y8255059D01*
Y8254971D01*
X2192207Y8254618D01*
X2192119Y8254089D01*
X2191942Y8253384D01*
X2191678Y8252503D01*
X2191413Y8251533D01*
X2191061Y8250475D01*
X2190620Y8249242D01*
X2189563Y8246774D01*
X2188857Y8245452D01*
X2188064Y8244130D01*
X2187271Y8242807D01*
X2186301Y8241485D01*
X2185156Y8240340D01*
X2184010Y8239194D01*
X2183922Y8239106D01*
X2183745Y8238929D01*
X2183305Y8238665D01*
X2182864Y8238312D01*
X2182159Y8237872D01*
X2181454Y8237343D01*
X2180484Y8236902D01*
X2179515Y8236373D01*
X2178369Y8235756D01*
X2177135Y8235316D01*
X2175813Y8234787D01*
X2174403Y8234346D01*
X2172816Y8233994D01*
X2171230Y8233729D01*
X2169555Y8233553D01*
X2167792Y8233465D01*
X2167264D01*
X2166647Y8233553D01*
X2165765D01*
X2164796Y8233729D01*
X2163562Y8233906D01*
X2162240Y8234082D01*
X2160830Y8234434D01*
X2159331Y8234875D01*
X2157745Y8235404D01*
X2156158Y8236021D01*
X2154484Y8236814D01*
X2152897Y8237695D01*
X2151311Y8238753D01*
X2149812Y8239899D01*
X2148402Y8241309D01*
X2148314Y8241397D01*
X2148050Y8241662D01*
X2147697Y8242102D01*
X2147256Y8242807D01*
X2146727Y8243601D01*
X2146111Y8244570D01*
X2145405Y8245804D01*
X2144788Y8247126D01*
X2144083Y8248625D01*
X2143378Y8250299D01*
X2142761Y8252150D01*
X2142232Y8254177D01*
X2141792Y8256381D01*
X2141439Y8258760D01*
X2141175Y8261316D01*
X2141087Y8263961D01*
Y8264049D01*
Y8264401D01*
Y8264930D01*
X2141175Y8265547D01*
Y8266428D01*
X2141263Y8267398D01*
X2141351Y8268456D01*
X2141439Y8269690D01*
X2141880Y8272246D01*
X2142409Y8275066D01*
X2143114Y8277975D01*
X2144171Y8280707D01*
Y8280795D01*
X2144348Y8281059D01*
X2144524Y8281412D01*
X2144788Y8281853D01*
X2145141Y8282470D01*
X2145494Y8283175D01*
X2146551Y8284761D01*
X2147873Y8286436D01*
X2149548Y8288287D01*
X2151487Y8289961D01*
X2153779Y8291460D01*
X2153867D01*
X2154043Y8291636D01*
X2154395Y8291812D01*
X2154924Y8291988D01*
X2155541Y8292341D01*
X2156246Y8292605D01*
X2157040Y8292958D01*
X2157921Y8293311D01*
X2158979Y8293575D01*
X2160036Y8293928D01*
X2162416Y8294544D01*
X2165060Y8294897D01*
X2167792Y8295073D01*
X2168762D01*
X2169379Y8294985D01*
D02*
G37*
G36*
X3086367Y8259201D02*
X3055607D01*
Y8269249D01*
X3086367D01*
Y8259201D01*
D02*
G37*
G36*
X2745361D02*
X2714601D01*
Y8269249D01*
X2745361D01*
Y8259201D01*
D02*
G37*
G36*
X3215753Y8234787D02*
X3205441D01*
X3196010Y8270042D01*
X3193719Y8280090D01*
X3181644Y8234787D01*
X3171155D01*
X3153352Y8293751D01*
X3163752D01*
X3173094Y8259642D01*
X3176532Y8247038D01*
Y8247126D01*
X3176620Y8247391D01*
X3176708Y8247567D01*
Y8247919D01*
X3176884Y8248360D01*
X3176973Y8248889D01*
X3177149Y8249594D01*
X3177325Y8250387D01*
X3177590Y8251357D01*
X3177942Y8252503D01*
X3178295Y8253825D01*
X3178647Y8255411D01*
X3179088Y8257174D01*
X3179617Y8259113D01*
X3189047Y8293751D01*
X3199183D01*
X3208085Y8259466D01*
X3210994Y8248272D01*
X3214343Y8259642D01*
X3224567Y8293751D01*
X3234262D01*
X3215753Y8234787D01*
D02*
G37*
G36*
X2691685D02*
X2681373D01*
X2671942Y8270042D01*
X2669650Y8280090D01*
X2657575Y8234787D01*
X2647087D01*
X2629283Y8293751D01*
X2639683D01*
X2649026Y8259642D01*
X2652463Y8247038D01*
Y8247126D01*
X2652551Y8247391D01*
X2652640Y8247567D01*
Y8247919D01*
X2652816Y8248360D01*
X2652904Y8248889D01*
X2653080Y8249594D01*
X2653257Y8250387D01*
X2653521Y8251357D01*
X2653874Y8252503D01*
X2654226Y8253825D01*
X2654579Y8255411D01*
X2655019Y8257174D01*
X2655548Y8259113D01*
X2664979Y8293751D01*
X2675115D01*
X2684017Y8259466D01*
X2686925Y8248272D01*
X2690275Y8259642D01*
X2700499Y8293751D01*
X2710194D01*
X2691685Y8234787D01*
D02*
G37*
G36*
X2033558D02*
X2024656D01*
Y8243424D01*
X2024568Y8243336D01*
X2024304Y8242984D01*
X2023951Y8242543D01*
X2023422Y8241838D01*
X2022717Y8241133D01*
X2021836Y8240251D01*
X2020866Y8239370D01*
X2019721Y8238489D01*
X2018399Y8237519D01*
X2016988Y8236638D01*
X2015490Y8235756D01*
X2013815Y8235051D01*
X2011964Y8234346D01*
X2010114Y8233906D01*
X2008086Y8233553D01*
X2005883Y8233465D01*
X2005002D01*
X2004032Y8233553D01*
X2002710Y8233729D01*
X2001212Y8233906D01*
X1999537Y8234258D01*
X1997862Y8234787D01*
X1996100Y8235404D01*
X1996012D01*
X1995923Y8235492D01*
X1995395Y8235756D01*
X1994601Y8236197D01*
X1993544Y8236814D01*
X1992486Y8237519D01*
X1991340Y8238401D01*
X1990283Y8239370D01*
X1989401Y8240428D01*
X1989313Y8240604D01*
X1989049Y8240957D01*
X1988696Y8241662D01*
X1988255Y8242543D01*
X1987727Y8243601D01*
X1987198Y8244835D01*
X1986757Y8246245D01*
X1986316Y8247831D01*
Y8248008D01*
X1986228Y8248360D01*
X1986140Y8249153D01*
X1986052Y8250123D01*
X1985964Y8251445D01*
X1985876Y8253032D01*
X1985787Y8254971D01*
Y8257174D01*
Y8293751D01*
X1995747D01*
Y8261052D01*
Y8260964D01*
Y8260700D01*
Y8260347D01*
Y8259818D01*
Y8259113D01*
Y8258408D01*
X1995835Y8256821D01*
Y8255059D01*
X1996012Y8253296D01*
X1996100Y8251709D01*
X1996188Y8251004D01*
X1996276Y8250475D01*
X1996364Y8250299D01*
X1996452Y8249859D01*
X1996717Y8249065D01*
X1997157Y8248184D01*
X1997686Y8247214D01*
X1998391Y8246245D01*
X1999273Y8245187D01*
X2000330Y8244306D01*
X2000507Y8244218D01*
X2000859Y8243953D01*
X2001564Y8243601D01*
X2002446Y8243248D01*
X2003503Y8242807D01*
X2004825Y8242455D01*
X2006324Y8242191D01*
X2007910Y8242102D01*
X2008703D01*
X2009497Y8242191D01*
X2010642Y8242367D01*
X2011964Y8242631D01*
X2013375Y8243072D01*
X2014785Y8243601D01*
X2016283Y8244394D01*
X2016371D01*
X2016460Y8244482D01*
X2016900Y8244835D01*
X2017605Y8245363D01*
X2018487Y8246069D01*
X2019368Y8246950D01*
X2020338Y8248008D01*
X2021219Y8249242D01*
X2021924Y8250652D01*
Y8250740D01*
X2022012Y8250828D01*
X2022100Y8251092D01*
X2022188Y8251357D01*
X2022277Y8251798D01*
X2022453Y8252326D01*
X2022629Y8252855D01*
X2022805Y8253560D01*
X2023070Y8255235D01*
X2023334Y8257174D01*
X2023511Y8259466D01*
X2023599Y8262110D01*
Y8293751D01*
X2033558D01*
Y8234787D01*
D02*
G37*
G36*
X3107344Y8286876D02*
X3107432Y8286965D01*
X3107696Y8287229D01*
X3108049Y8287670D01*
X3108577Y8288199D01*
X3109283Y8288816D01*
X3110076Y8289432D01*
X3111045Y8290226D01*
X3112191Y8291019D01*
X3113337Y8291724D01*
X3114659Y8292517D01*
X3116157Y8293134D01*
X3117656Y8293839D01*
X3119330Y8294280D01*
X3121093Y8294721D01*
X3122944Y8294985D01*
X3124883Y8295073D01*
X3125941D01*
X3126558Y8294985D01*
X3127175Y8294897D01*
X3128761Y8294721D01*
X3130524Y8294456D01*
X3132375Y8293928D01*
X3134314Y8293311D01*
X3136165Y8292429D01*
X3136253D01*
X3136341Y8292341D01*
X3136605Y8292165D01*
X3136958Y8291988D01*
X3137839Y8291372D01*
X3138897Y8290578D01*
X3139955Y8289609D01*
X3141189Y8288375D01*
X3142246Y8286876D01*
X3143128Y8285290D01*
Y8285202D01*
X3143216Y8285114D01*
X3143304Y8284849D01*
X3143480Y8284497D01*
X3143656Y8283968D01*
X3143833Y8283439D01*
X3144009Y8282734D01*
X3144185Y8281941D01*
X3144362Y8281059D01*
X3144538Y8280090D01*
X3144714Y8279032D01*
X3144890Y8277798D01*
X3145067Y8276564D01*
X3145155Y8275154D01*
X3145243Y8273656D01*
Y8272069D01*
Y8234787D01*
X3135283D01*
Y8272069D01*
Y8272157D01*
Y8272422D01*
Y8272774D01*
X3135195Y8273303D01*
Y8273920D01*
X3135107Y8274625D01*
X3134843Y8276212D01*
X3134490Y8278063D01*
X3133873Y8279825D01*
X3133080Y8281588D01*
X3132639Y8282293D01*
X3132022Y8282998D01*
X3131846Y8283175D01*
X3131405Y8283527D01*
X3130700Y8284056D01*
X3129642Y8284761D01*
X3128320Y8285378D01*
X3126822Y8285907D01*
X3124971Y8286260D01*
X3122856Y8286436D01*
X3122151D01*
X3121269Y8286348D01*
X3120124Y8286171D01*
X3118890Y8285819D01*
X3117479Y8285466D01*
X3115981Y8284849D01*
X3114483Y8284056D01*
X3114306Y8283968D01*
X3113866Y8283615D01*
X3113161Y8283087D01*
X3112367Y8282381D01*
X3111398Y8281500D01*
X3110517Y8280442D01*
X3109635Y8279208D01*
X3108930Y8277798D01*
X3108842Y8277622D01*
X3108754Y8277358D01*
X3108666Y8277093D01*
X3108401Y8276212D01*
X3108137Y8274978D01*
X3107872Y8273480D01*
X3107608Y8271629D01*
X3107432Y8269425D01*
X3107344Y8266957D01*
Y8234787D01*
X3097384D01*
Y8316138D01*
X3107344D01*
Y8286876D01*
D02*
G37*
G36*
X2536914Y8294985D02*
X2537708D01*
X2539382Y8294809D01*
X2541321Y8294633D01*
X2543348Y8294280D01*
X2545376Y8293839D01*
X2547227Y8293222D01*
X2547315D01*
X2547403Y8293134D01*
X2547667Y8293046D01*
X2548020Y8292870D01*
X2548813Y8292517D01*
X2549871Y8291988D01*
X2551016Y8291372D01*
X2552162Y8290578D01*
X2553220Y8289697D01*
X2554189Y8288727D01*
X2554278Y8288639D01*
X2554542Y8288287D01*
X2554983Y8287670D01*
X2555423Y8286876D01*
X2555952Y8285907D01*
X2556481Y8284761D01*
X2557010Y8283439D01*
X2557362Y8281941D01*
Y8281853D01*
X2557451Y8281412D01*
X2557539Y8280795D01*
X2557627Y8279825D01*
X2557715Y8278592D01*
X2557803Y8277005D01*
Y8276036D01*
X2557891Y8275066D01*
Y8274008D01*
Y8272774D01*
Y8259466D01*
Y8259289D01*
Y8258849D01*
Y8258144D01*
Y8257262D01*
Y8256116D01*
Y8254882D01*
X2557979Y8253472D01*
Y8252062D01*
X2558068Y8249065D01*
Y8247567D01*
X2558156Y8246157D01*
X2558244Y8244835D01*
X2558332Y8243689D01*
X2558420Y8242631D01*
X2558508Y8241838D01*
Y8241662D01*
X2558596Y8241221D01*
X2558773Y8240516D01*
X2559037Y8239546D01*
X2559390Y8238489D01*
X2559830Y8237343D01*
X2560359Y8236021D01*
X2560976Y8234787D01*
X2550576D01*
X2550488Y8234963D01*
X2550311Y8235316D01*
X2550047Y8236021D01*
X2549783Y8236902D01*
X2549430Y8237960D01*
X2549077Y8239194D01*
X2548813Y8240604D01*
X2548637Y8242191D01*
X2548549Y8242102D01*
X2548372Y8242014D01*
X2548108Y8241750D01*
X2547667Y8241397D01*
X2547138Y8241045D01*
X2546610Y8240516D01*
X2545199Y8239546D01*
X2543525Y8238401D01*
X2541762Y8237255D01*
X2539823Y8236285D01*
X2537884Y8235404D01*
X2537796D01*
X2537620Y8235316D01*
X2537355Y8235228D01*
X2537003Y8235139D01*
X2536562Y8234963D01*
X2535945Y8234787D01*
X2534623Y8234434D01*
X2532948Y8234082D01*
X2531097Y8233729D01*
X2529070Y8233553D01*
X2526867Y8233465D01*
X2525897D01*
X2525280Y8233553D01*
X2524487Y8233641D01*
X2523517Y8233729D01*
X2522460Y8233817D01*
X2521402Y8234082D01*
X2518934Y8234611D01*
X2516466Y8235404D01*
X2515321Y8235933D01*
X2514087Y8236638D01*
X2513029Y8237343D01*
X2511971Y8238136D01*
X2511883Y8238224D01*
X2511707Y8238401D01*
X2511531Y8238665D01*
X2511178Y8239018D01*
X2510737Y8239458D01*
X2510297Y8240075D01*
X2509856Y8240692D01*
X2509415Y8241485D01*
X2508446Y8243160D01*
X2507564Y8245275D01*
X2507212Y8246421D01*
X2507036Y8247655D01*
X2506859Y8248977D01*
X2506771Y8250299D01*
Y8250387D01*
Y8250475D01*
Y8251004D01*
X2506859Y8251886D01*
X2507036Y8252943D01*
X2507212Y8254177D01*
X2507564Y8255499D01*
X2508093Y8256821D01*
X2508710Y8258232D01*
X2508798Y8258408D01*
X2509063Y8258849D01*
X2509503Y8259466D01*
X2510120Y8260347D01*
X2510826Y8261228D01*
X2511707Y8262198D01*
X2512676Y8263079D01*
X2513822Y8263961D01*
X2513999Y8264049D01*
X2514439Y8264313D01*
X2515056Y8264754D01*
X2515938Y8265195D01*
X2516995Y8265723D01*
X2518229Y8266252D01*
X2519639Y8266781D01*
X2521050Y8267222D01*
X2521226D01*
X2521578Y8267398D01*
X2522283Y8267486D01*
X2523253Y8267751D01*
X2524487Y8267927D01*
X2526073Y8268191D01*
X2527836Y8268456D01*
X2529952Y8268720D01*
X2530128D01*
X2530480Y8268808D01*
X2531097Y8268896D01*
X2531891Y8268984D01*
X2532948Y8269161D01*
X2534094Y8269337D01*
X2535328Y8269513D01*
X2536738Y8269690D01*
X2539647Y8270218D01*
X2542555Y8270835D01*
X2543965Y8271188D01*
X2545376Y8271540D01*
X2546610Y8271893D01*
X2547755Y8272246D01*
Y8272334D01*
Y8272598D01*
Y8272951D01*
X2547844Y8273303D01*
Y8274185D01*
Y8274537D01*
Y8274802D01*
Y8274890D01*
Y8275066D01*
Y8275419D01*
Y8275771D01*
X2547667Y8276829D01*
X2547491Y8278151D01*
X2547138Y8279561D01*
X2546610Y8280971D01*
X2545904Y8282293D01*
X2544935Y8283351D01*
X2544759Y8283527D01*
X2544582Y8283704D01*
X2544230Y8283880D01*
X2543789Y8284144D01*
X2543348Y8284409D01*
X2542115Y8285114D01*
X2540528Y8285731D01*
X2538589Y8286260D01*
X2536297Y8286612D01*
X2533653Y8286788D01*
X2532508D01*
X2531891Y8286700D01*
X2531274D01*
X2529687Y8286524D01*
X2528012Y8286171D01*
X2526338Y8285731D01*
X2524663Y8285114D01*
X2523253Y8284320D01*
X2523077Y8284232D01*
X2522724Y8283880D01*
X2522107Y8283175D01*
X2521402Y8282293D01*
X2520609Y8281148D01*
X2519727Y8279561D01*
X2519022Y8277798D01*
X2518670Y8276741D01*
X2518317Y8275595D01*
X2508534Y8276917D01*
Y8277005D01*
X2508622Y8277181D01*
X2508710Y8277534D01*
X2508798Y8277975D01*
X2508975Y8278503D01*
X2509151Y8279120D01*
X2509592Y8280531D01*
X2510209Y8282117D01*
X2510914Y8283792D01*
X2511795Y8285466D01*
X2512853Y8286965D01*
Y8287053D01*
X2513029Y8287141D01*
X2513470Y8287582D01*
X2514175Y8288287D01*
X2515144Y8289168D01*
X2516378Y8290138D01*
X2517877Y8291107D01*
X2519639Y8292077D01*
X2521667Y8292958D01*
X2521755D01*
X2521931Y8293046D01*
X2522283Y8293134D01*
X2522724Y8293311D01*
X2523253Y8293487D01*
X2523870Y8293663D01*
X2524663Y8293839D01*
X2525545Y8294016D01*
X2526426Y8294192D01*
X2527484Y8294368D01*
X2529775Y8294721D01*
X2532331Y8294985D01*
X2535064Y8295073D01*
X2536297D01*
X2536914Y8294985D01*
D02*
G37*
G36*
X2494961Y8234787D02*
X2485001D01*
Y8293751D01*
X2494961D01*
Y8234787D01*
D02*
G37*
G36*
X2126632D02*
X2115262D01*
Y8246157D01*
X2126632D01*
Y8234787D01*
D02*
G37*
G36*
X1932817Y8286876D02*
X1932905Y8286965D01*
X1933169Y8287229D01*
X1933522Y8287670D01*
X1934050Y8288199D01*
X1934756Y8288816D01*
X1935549Y8289432D01*
X1936518Y8290226D01*
X1937664Y8291019D01*
X1938810Y8291724D01*
X1940132Y8292517D01*
X1941630Y8293134D01*
X1943129Y8293839D01*
X1944803Y8294280D01*
X1946566Y8294721D01*
X1948417Y8294985D01*
X1950356Y8295073D01*
X1951414D01*
X1952031Y8294985D01*
X1952648Y8294897D01*
X1954234Y8294721D01*
X1955997Y8294456D01*
X1957848Y8293928D01*
X1959787Y8293311D01*
X1961638Y8292429D01*
X1961726D01*
X1961814Y8292341D01*
X1962078Y8292165D01*
X1962431Y8291988D01*
X1963312Y8291372D01*
X1964370Y8290578D01*
X1965428Y8289609D01*
X1966662Y8288375D01*
X1967719Y8286876D01*
X1968601Y8285290D01*
Y8285202D01*
X1968689Y8285114D01*
X1968777Y8284849D01*
X1968953Y8284497D01*
X1969129Y8283968D01*
X1969306Y8283439D01*
X1969482Y8282734D01*
X1969658Y8281941D01*
X1969835Y8281059D01*
X1970011Y8280090D01*
X1970187Y8279032D01*
X1970363Y8277798D01*
X1970540Y8276564D01*
X1970628Y8275154D01*
X1970716Y8273656D01*
Y8272069D01*
Y8234787D01*
X1960756D01*
Y8272069D01*
Y8272157D01*
Y8272422D01*
Y8272774D01*
X1960668Y8273303D01*
Y8273920D01*
X1960580Y8274625D01*
X1960316Y8276212D01*
X1959963Y8278063D01*
X1959346Y8279825D01*
X1958553Y8281588D01*
X1958112Y8282293D01*
X1957495Y8282998D01*
X1957319Y8283175D01*
X1956878Y8283527D01*
X1956173Y8284056D01*
X1955115Y8284761D01*
X1953793Y8285378D01*
X1952295Y8285907D01*
X1950444Y8286260D01*
X1948329Y8286436D01*
X1947624D01*
X1946742Y8286348D01*
X1945597Y8286171D01*
X1944363Y8285819D01*
X1942952Y8285466D01*
X1941454Y8284849D01*
X1939956Y8284056D01*
X1939779Y8283968D01*
X1939339Y8283615D01*
X1938634Y8283087D01*
X1937840Y8282381D01*
X1936871Y8281500D01*
X1935990Y8280442D01*
X1935108Y8279208D01*
X1934403Y8277798D01*
X1934315Y8277622D01*
X1934227Y8277358D01*
X1934139Y8277093D01*
X1933874Y8276212D01*
X1933610Y8274978D01*
X1933345Y8273480D01*
X1933081Y8271629D01*
X1932905Y8269425D01*
X1932817Y8266957D01*
Y8234787D01*
X1922857D01*
Y8316138D01*
X1932817D01*
Y8286876D01*
D02*
G37*
G36*
X1876144Y8234787D02*
X1866184D01*
Y8293751D01*
X1876144D01*
Y8234787D01*
D02*
G37*
G36*
X1902938Y8293751D02*
X1913074D01*
Y8285995D01*
X1902938D01*
Y8251445D01*
Y8251357D01*
Y8251269D01*
Y8250740D01*
Y8250035D01*
X1903026Y8249153D01*
Y8248272D01*
X1903202Y8247391D01*
X1903290Y8246597D01*
X1903467Y8245980D01*
Y8245892D01*
X1903555Y8245804D01*
X1903907Y8245275D01*
X1904436Y8244658D01*
X1905141Y8244041D01*
X1905229D01*
X1905406Y8243953D01*
X1905670Y8243865D01*
X1906023Y8243689D01*
X1906551Y8243601D01*
X1907080Y8243424D01*
X1907785Y8243336D01*
X1909284D01*
X1909813Y8243424D01*
X1910430D01*
X1911223Y8243513D01*
X1912104Y8243601D01*
X1913074Y8243689D01*
X1914396Y8234875D01*
X1914219D01*
X1913691Y8234699D01*
X1912897Y8234611D01*
X1911840Y8234434D01*
X1910694Y8234258D01*
X1909460Y8234170D01*
X1906816Y8233994D01*
X1905934D01*
X1904965Y8234082D01*
X1903731Y8234170D01*
X1902321Y8234434D01*
X1900911Y8234699D01*
X1899589Y8235139D01*
X1898355Y8235668D01*
X1898266Y8235756D01*
X1897914Y8236021D01*
X1897385Y8236373D01*
X1896680Y8236902D01*
X1895975Y8237519D01*
X1895270Y8238312D01*
X1894653Y8239194D01*
X1894124Y8240163D01*
X1894036Y8240340D01*
X1893948Y8240780D01*
X1893860Y8241133D01*
X1893771Y8241574D01*
X1893683Y8242102D01*
X1893595Y8242719D01*
X1893419Y8243424D01*
X1893331Y8244306D01*
X1893243Y8245275D01*
X1893154Y8246333D01*
X1893066Y8247567D01*
Y8248889D01*
X1892978Y8250387D01*
Y8251974D01*
Y8285995D01*
X1885575D01*
Y8293751D01*
X1892978D01*
Y8308294D01*
X1902938Y8314287D01*
Y8293751D01*
D02*
G37*
G36*
X2964560Y8294985D02*
X2965441D01*
X2966499Y8294809D01*
X2967645Y8294633D01*
X2968967Y8294368D01*
X2970465Y8294104D01*
X2971964Y8293663D01*
X2973638Y8293134D01*
X2975225Y8292429D01*
X2976899Y8291724D01*
X2978574Y8290755D01*
X2980160Y8289697D01*
X2981747Y8288463D01*
X2983245Y8287053D01*
X2983333Y8286965D01*
X2983598Y8286700D01*
X2983950Y8286260D01*
X2984479Y8285554D01*
X2985008Y8284761D01*
X2985713Y8283792D01*
X2986418Y8282646D01*
X2987123Y8281324D01*
X2987828Y8279825D01*
X2988534Y8278151D01*
X2989239Y8276388D01*
X2989767Y8274449D01*
X2990296Y8272334D01*
X2990649Y8270042D01*
X2990913Y8267574D01*
X2991001Y8265018D01*
Y8264930D01*
Y8264489D01*
Y8263961D01*
X2990913Y8263167D01*
Y8262198D01*
X2990825Y8261052D01*
X2990737Y8259818D01*
X2990561Y8258496D01*
X2990208Y8255676D01*
X2989591Y8252679D01*
X2988710Y8249770D01*
X2988181Y8248448D01*
X2987564Y8247126D01*
Y8247038D01*
X2987388Y8246862D01*
X2987211Y8246509D01*
X2986947Y8246069D01*
X2986594Y8245540D01*
X2986154Y8244835D01*
X2985008Y8243424D01*
X2983598Y8241750D01*
X2981923Y8240075D01*
X2979896Y8238489D01*
X2977604Y8236990D01*
X2977516D01*
X2977340Y8236814D01*
X2976987Y8236638D01*
X2976459Y8236462D01*
X2975842Y8236197D01*
X2975137Y8235845D01*
X2974343Y8235580D01*
X2973374Y8235228D01*
X2972404Y8234875D01*
X2971258Y8234611D01*
X2968879Y8233994D01*
X2966235Y8233641D01*
X2963414Y8233465D01*
X2962885D01*
X2962268Y8233553D01*
X2961387D01*
X2960329Y8233729D01*
X2959095Y8233906D01*
X2957773Y8234170D01*
X2956275Y8234434D01*
X2954689Y8234875D01*
X2953102Y8235404D01*
X2951427Y8236021D01*
X2949753Y8236814D01*
X2948078Y8237695D01*
X2946492Y8238753D01*
X2944905Y8239987D01*
X2943407Y8241397D01*
X2943319Y8241485D01*
X2943054Y8241750D01*
X2942702Y8242191D01*
X2942261Y8242896D01*
X2941644Y8243689D01*
X2941027Y8244658D01*
X2940322Y8245892D01*
X2939617Y8247214D01*
X2938912Y8248801D01*
X2938207Y8250475D01*
X2937590Y8252326D01*
X2936973Y8254354D01*
X2936532Y8256557D01*
X2936180Y8258937D01*
X2935915Y8261493D01*
X2935827Y8264225D01*
Y8264313D01*
Y8264401D01*
Y8264930D01*
X2935915Y8265812D01*
X2936003Y8266869D01*
X2936091Y8268279D01*
X2936268Y8269866D01*
X2936620Y8271540D01*
X2936973Y8273391D01*
X2937413Y8275330D01*
X2938030Y8277358D01*
X2938824Y8279385D01*
X2939617Y8281412D01*
X2940675Y8283351D01*
X2941909Y8285202D01*
X2943319Y8286876D01*
X2944905Y8288463D01*
X2944993Y8288551D01*
X2945258Y8288727D01*
X2945698Y8289080D01*
X2946227Y8289521D01*
X2947021Y8289961D01*
X2947902Y8290578D01*
X2948871Y8291195D01*
X2950105Y8291812D01*
X2951339Y8292429D01*
X2952749Y8292958D01*
X2954248Y8293575D01*
X2955922Y8294016D01*
X2957685Y8294456D01*
X2959448Y8294809D01*
X2961387Y8294985D01*
X2963414Y8295073D01*
X2963943D01*
X2964560Y8294985D01*
D02*
G37*
G36*
X2598347D02*
X2599228D01*
X2600286Y8294809D01*
X2601431Y8294633D01*
X2602753Y8294368D01*
X2604252Y8294104D01*
X2605750Y8293663D01*
X2607425Y8293134D01*
X2609011Y8292429D01*
X2610686Y8291724D01*
X2612361Y8290755D01*
X2613947Y8289697D01*
X2615534Y8288463D01*
X2617032Y8287053D01*
X2617120Y8286965D01*
X2617384Y8286700D01*
X2617737Y8286260D01*
X2618266Y8285554D01*
X2618795Y8284761D01*
X2619500Y8283792D01*
X2620205Y8282646D01*
X2620910Y8281324D01*
X2621615Y8279825D01*
X2622320Y8278151D01*
X2623025Y8276388D01*
X2623554Y8274449D01*
X2624083Y8272334D01*
X2624435Y8270042D01*
X2624700Y8267574D01*
X2624788Y8265018D01*
Y8264930D01*
Y8264489D01*
Y8263961D01*
X2624700Y8263167D01*
Y8262198D01*
X2624612Y8261052D01*
X2624524Y8259818D01*
X2624347Y8258496D01*
X2623995Y8255676D01*
X2623378Y8252679D01*
X2622496Y8249770D01*
X2621968Y8248448D01*
X2621351Y8247126D01*
Y8247038D01*
X2621174Y8246862D01*
X2620998Y8246509D01*
X2620734Y8246069D01*
X2620381Y8245540D01*
X2619940Y8244835D01*
X2618795Y8243424D01*
X2617384Y8241750D01*
X2615710Y8240075D01*
X2613683Y8238489D01*
X2611391Y8236990D01*
X2611303D01*
X2611127Y8236814D01*
X2610774Y8236638D01*
X2610245Y8236462D01*
X2609628Y8236197D01*
X2608923Y8235845D01*
X2608130Y8235580D01*
X2607160Y8235228D01*
X2606191Y8234875D01*
X2605045Y8234611D01*
X2602665Y8233994D01*
X2600021Y8233641D01*
X2597201Y8233465D01*
X2596672D01*
X2596055Y8233553D01*
X2595174D01*
X2594116Y8233729D01*
X2592882Y8233906D01*
X2591560Y8234170D01*
X2590062Y8234434D01*
X2588475Y8234875D01*
X2586889Y8235404D01*
X2585214Y8236021D01*
X2583539Y8236814D01*
X2581865Y8237695D01*
X2580278Y8238753D01*
X2578692Y8239987D01*
X2577193Y8241397D01*
X2577105Y8241485D01*
X2576841Y8241750D01*
X2576488Y8242191D01*
X2576048Y8242896D01*
X2575431Y8243689D01*
X2574814Y8244658D01*
X2574109Y8245892D01*
X2573404Y8247214D01*
X2572698Y8248801D01*
X2571993Y8250475D01*
X2571376Y8252326D01*
X2570759Y8254354D01*
X2570319Y8256557D01*
X2569966Y8258937D01*
X2569702Y8261493D01*
X2569614Y8264225D01*
Y8264313D01*
Y8264401D01*
Y8264930D01*
X2569702Y8265812D01*
X2569790Y8266869D01*
X2569878Y8268279D01*
X2570054Y8269866D01*
X2570407Y8271540D01*
X2570759Y8273391D01*
X2571200Y8275330D01*
X2571817Y8277358D01*
X2572610Y8279385D01*
X2573404Y8281412D01*
X2574461Y8283351D01*
X2575695Y8285202D01*
X2577105Y8286876D01*
X2578692Y8288463D01*
X2578780Y8288551D01*
X2579044Y8288727D01*
X2579485Y8289080D01*
X2580014Y8289521D01*
X2580807Y8289961D01*
X2581689Y8290578D01*
X2582658Y8291195D01*
X2583892Y8291812D01*
X2585126Y8292429D01*
X2586536Y8292958D01*
X2588034Y8293575D01*
X2589709Y8294016D01*
X2591472Y8294456D01*
X2593235Y8294809D01*
X2595174Y8294985D01*
X2597201Y8295073D01*
X2597730D01*
X2598347Y8294985D01*
D02*
G37*
G36*
X2225875D02*
X2226757D01*
X2227814Y8294809D01*
X2228960Y8294633D01*
X2230282Y8294368D01*
X2231781Y8294104D01*
X2233279Y8293663D01*
X2234954Y8293134D01*
X2236540Y8292429D01*
X2238215Y8291724D01*
X2239889Y8290755D01*
X2241476Y8289697D01*
X2243062Y8288463D01*
X2244561Y8287053D01*
X2244649Y8286965D01*
X2244913Y8286700D01*
X2245266Y8286260D01*
X2245795Y8285554D01*
X2246323Y8284761D01*
X2247029Y8283792D01*
X2247734Y8282646D01*
X2248439Y8281324D01*
X2249144Y8279825D01*
X2249849Y8278151D01*
X2250554Y8276388D01*
X2251083Y8274449D01*
X2251612Y8272334D01*
X2251964Y8270042D01*
X2252229Y8267574D01*
X2252317Y8265018D01*
Y8264930D01*
Y8264489D01*
Y8263961D01*
X2252229Y8263167D01*
Y8262198D01*
X2252141Y8261052D01*
X2252052Y8259818D01*
X2251876Y8258496D01*
X2251524Y8255676D01*
X2250907Y8252679D01*
X2250025Y8249770D01*
X2249496Y8248448D01*
X2248879Y8247126D01*
Y8247038D01*
X2248703Y8246862D01*
X2248527Y8246509D01*
X2248262Y8246069D01*
X2247910Y8245540D01*
X2247469Y8244835D01*
X2246323Y8243424D01*
X2244913Y8241750D01*
X2243239Y8240075D01*
X2241211Y8238489D01*
X2238920Y8236990D01*
X2238832D01*
X2238655Y8236814D01*
X2238303Y8236638D01*
X2237774Y8236462D01*
X2237157Y8236197D01*
X2236452Y8235845D01*
X2235659Y8235580D01*
X2234689Y8235228D01*
X2233720Y8234875D01*
X2232574Y8234611D01*
X2230194Y8233994D01*
X2227550Y8233641D01*
X2224730Y8233465D01*
X2224201D01*
X2223584Y8233553D01*
X2222702D01*
X2221645Y8233729D01*
X2220411Y8233906D01*
X2219089Y8234170D01*
X2217590Y8234434D01*
X2216004Y8234875D01*
X2214417Y8235404D01*
X2212743Y8236021D01*
X2211068Y8236814D01*
X2209394Y8237695D01*
X2207807Y8238753D01*
X2206221Y8239987D01*
X2204722Y8241397D01*
X2204634Y8241485D01*
X2204370Y8241750D01*
X2204017Y8242191D01*
X2203576Y8242896D01*
X2202960Y8243689D01*
X2202343Y8244658D01*
X2201637Y8245892D01*
X2200932Y8247214D01*
X2200227Y8248801D01*
X2199522Y8250475D01*
X2198905Y8252326D01*
X2198288Y8254354D01*
X2197848Y8256557D01*
X2197495Y8258937D01*
X2197231Y8261493D01*
X2197142Y8264225D01*
Y8264313D01*
Y8264401D01*
Y8264930D01*
X2197231Y8265812D01*
X2197319Y8266869D01*
X2197407Y8268279D01*
X2197583Y8269866D01*
X2197936Y8271540D01*
X2198288Y8273391D01*
X2198729Y8275330D01*
X2199346Y8277358D01*
X2200139Y8279385D01*
X2200932Y8281412D01*
X2201990Y8283351D01*
X2203224Y8285202D01*
X2204634Y8286876D01*
X2206221Y8288463D01*
X2206309Y8288551D01*
X2206573Y8288727D01*
X2207014Y8289080D01*
X2207543Y8289521D01*
X2208336Y8289961D01*
X2209217Y8290578D01*
X2210187Y8291195D01*
X2211421Y8291812D01*
X2212655Y8292429D01*
X2214065Y8292958D01*
X2215563Y8293575D01*
X2217238Y8294016D01*
X2219001Y8294456D01*
X2220763Y8294809D01*
X2222702Y8294985D01*
X2224730Y8295073D01*
X2225258D01*
X2225875Y8294985D01*
D02*
G37*
G36*
X2059118Y8287141D02*
X2059206Y8287229D01*
X2059383Y8287493D01*
X2059735Y8287846D01*
X2060264Y8288375D01*
X2060881Y8288992D01*
X2061586Y8289697D01*
X2062468Y8290402D01*
X2063525Y8291107D01*
X2064583Y8291812D01*
X2065817Y8292605D01*
X2067139Y8293222D01*
X2068549Y8293839D01*
X2070136Y8294368D01*
X2071722Y8294721D01*
X2073485Y8294985D01*
X2075248Y8295073D01*
X2076217D01*
X2076658Y8294985D01*
X2077275D01*
X2078597Y8294809D01*
X2080183Y8294544D01*
X2081946Y8294104D01*
X2083709Y8293575D01*
X2085560Y8292870D01*
X2085648D01*
X2085736Y8292782D01*
X2086000Y8292605D01*
X2086353Y8292429D01*
X2087234Y8291988D01*
X2088380Y8291283D01*
X2089614Y8290402D01*
X2090936Y8289344D01*
X2092258Y8288110D01*
X2093492Y8286700D01*
X2093668Y8286524D01*
X2094021Y8285995D01*
X2094550Y8285114D01*
X2095343Y8284056D01*
X2096136Y8282646D01*
X2096930Y8280971D01*
X2097723Y8279120D01*
X2098428Y8277093D01*
Y8277005D01*
X2098516Y8276829D01*
X2098604Y8276564D01*
X2098692Y8276124D01*
X2098869Y8275595D01*
X2099045Y8274978D01*
X2099221Y8274273D01*
X2099397Y8273480D01*
X2099662Y8271717D01*
X2100014Y8269690D01*
X2100191Y8267486D01*
X2100279Y8265106D01*
Y8264930D01*
Y8264401D01*
X2100191Y8263696D01*
Y8262639D01*
X2100014Y8261316D01*
X2099838Y8259906D01*
X2099662Y8258232D01*
X2099309Y8256469D01*
X2098957Y8254618D01*
X2098428Y8252767D01*
X2097811Y8250740D01*
X2097106Y8248801D01*
X2096224Y8246862D01*
X2095167Y8245011D01*
X2094021Y8243336D01*
X2092699Y8241662D01*
X2092611Y8241574D01*
X2092346Y8241309D01*
X2091906Y8240868D01*
X2091377Y8240428D01*
X2090672Y8239723D01*
X2089790Y8239106D01*
X2088733Y8238312D01*
X2087675Y8237607D01*
X2086353Y8236814D01*
X2085031Y8236021D01*
X2083533Y8235404D01*
X2081946Y8234787D01*
X2080271Y8234258D01*
X2078509Y8233817D01*
X2076658Y8233553D01*
X2074719Y8233465D01*
X2074278D01*
X2073749Y8233553D01*
X2073044Y8233641D01*
X2072163Y8233729D01*
X2071105Y8233906D01*
X2069959Y8234170D01*
X2068813Y8234523D01*
X2067491Y8234963D01*
X2066169Y8235580D01*
X2064847Y8236285D01*
X2063437Y8237079D01*
X2062115Y8238136D01*
X2060793Y8239282D01*
X2059559Y8240604D01*
X2058413Y8242102D01*
Y8234787D01*
X2049159D01*
Y8316138D01*
X2059118D01*
Y8287141D01*
D02*
G37*
G36*
X2876951Y8233377D02*
X2868930D01*
X2892551Y8317460D01*
X2900572D01*
X2876951Y8233377D01*
D02*
G37*
G36*
X2359228D02*
X2351208D01*
X2374829Y8317460D01*
X2382849D01*
X2359228Y8233377D01*
D02*
G37*
G36*
X1825553Y8294985D02*
X1826258D01*
X1827139Y8294809D01*
X1828197Y8294633D01*
X1829343Y8294368D01*
X1830576Y8294016D01*
X1831899Y8293575D01*
X1833309Y8292958D01*
X1834719Y8292341D01*
X1836217Y8291460D01*
X1837628Y8290490D01*
X1839126Y8289344D01*
X1840448Y8288022D01*
X1841770Y8286524D01*
Y8293751D01*
X1850936D01*
Y8242807D01*
Y8242631D01*
Y8242191D01*
Y8241485D01*
Y8240604D01*
X1850848Y8239458D01*
X1850760Y8238136D01*
X1850672Y8236726D01*
X1850584Y8235228D01*
X1850231Y8232055D01*
X1849791Y8228794D01*
X1849438Y8227295D01*
X1849085Y8225797D01*
X1848645Y8224475D01*
X1848116Y8223329D01*
Y8223241D01*
X1848028Y8223065D01*
X1847852Y8222800D01*
X1847587Y8222359D01*
X1846882Y8221302D01*
X1845912Y8220068D01*
X1844679Y8218570D01*
X1843180Y8217071D01*
X1841329Y8215573D01*
X1839214Y8214251D01*
X1839126D01*
X1838950Y8214075D01*
X1838597Y8213986D01*
X1838156Y8213722D01*
X1837539Y8213458D01*
X1836834Y8213193D01*
X1836041Y8212929D01*
X1835072Y8212576D01*
X1834014Y8212224D01*
X1832868Y8211959D01*
X1831722Y8211695D01*
X1830400Y8211430D01*
X1827492Y8211078D01*
X1824319Y8210902D01*
X1823261D01*
X1822556Y8210990D01*
X1821675Y8211078D01*
X1820617Y8211166D01*
X1819471Y8211342D01*
X1818237Y8211519D01*
X1815505Y8212047D01*
X1812684Y8212929D01*
X1811186Y8213458D01*
X1809864Y8214075D01*
X1808454Y8214868D01*
X1807220Y8215661D01*
X1807132Y8215749D01*
X1806955Y8215925D01*
X1806603Y8216190D01*
X1806250Y8216542D01*
X1805722Y8217071D01*
X1805193Y8217688D01*
X1804664Y8218393D01*
X1804047Y8219275D01*
X1803430Y8220156D01*
X1802901Y8221214D01*
X1802372Y8222448D01*
X1801932Y8223682D01*
X1801491Y8225092D01*
X1801227Y8226590D01*
X1801050Y8228177D01*
Y8229939D01*
X1810745Y8228617D01*
Y8228529D01*
Y8228441D01*
X1810922Y8227912D01*
X1811098Y8227119D01*
X1811362Y8226149D01*
X1811803Y8225004D01*
X1812420Y8223946D01*
X1813125Y8222888D01*
X1814095Y8222007D01*
X1814271Y8221919D01*
X1814800Y8221566D01*
X1815593Y8221126D01*
X1816739Y8220597D01*
X1818237Y8220068D01*
X1819912Y8219627D01*
X1821939Y8219275D01*
X1824231Y8219187D01*
X1824936D01*
X1825376Y8219275D01*
X1825993D01*
X1826610Y8219363D01*
X1828197Y8219539D01*
X1829871Y8219892D01*
X1831634Y8220420D01*
X1833397Y8221037D01*
X1834895Y8222007D01*
X1834983D01*
X1835072Y8222095D01*
X1835512Y8222536D01*
X1836129Y8223153D01*
X1837011Y8224034D01*
X1837804Y8225092D01*
X1838685Y8226414D01*
X1839478Y8228000D01*
X1840095Y8229763D01*
Y8229939D01*
X1840184Y8230116D01*
Y8230380D01*
X1840272Y8230733D01*
X1840360Y8231261D01*
Y8231790D01*
X1840448Y8232495D01*
X1840536Y8233289D01*
X1840624Y8234170D01*
Y8235228D01*
X1840712Y8236373D01*
Y8237695D01*
X1840800Y8239106D01*
Y8240692D01*
Y8242455D01*
X1840712Y8242367D01*
X1840536Y8242102D01*
X1840095Y8241750D01*
X1839655Y8241221D01*
X1838950Y8240692D01*
X1838244Y8240075D01*
X1837275Y8239370D01*
X1836305Y8238665D01*
X1835160Y8237872D01*
X1833926Y8237255D01*
X1832604Y8236550D01*
X1831105Y8236021D01*
X1829607Y8235492D01*
X1828020Y8235139D01*
X1826258Y8234875D01*
X1824495Y8234787D01*
X1823966D01*
X1823349Y8234875D01*
X1822468Y8234963D01*
X1821498Y8235051D01*
X1820264Y8235228D01*
X1819030Y8235492D01*
X1817620Y8235845D01*
X1816122Y8236373D01*
X1814535Y8236902D01*
X1812949Y8237607D01*
X1811451Y8238489D01*
X1809864Y8239458D01*
X1808366Y8240604D01*
X1806955Y8242014D01*
X1805633Y8243513D01*
X1805545Y8243601D01*
X1805369Y8243953D01*
X1805016Y8244394D01*
X1804576Y8245099D01*
X1804135Y8245892D01*
X1803518Y8246950D01*
X1802989Y8248096D01*
X1802372Y8249418D01*
X1801755Y8250916D01*
X1801138Y8252503D01*
X1800521Y8254265D01*
X1800081Y8256116D01*
X1799640Y8258055D01*
X1799287Y8260171D01*
X1799111Y8262286D01*
X1799023Y8264578D01*
Y8264666D01*
Y8264930D01*
Y8265371D01*
X1799111Y8265988D01*
Y8266781D01*
X1799199Y8267574D01*
X1799287Y8268544D01*
X1799376Y8269690D01*
X1799728Y8272069D01*
X1800257Y8274625D01*
X1801050Y8277358D01*
X1802020Y8280090D01*
Y8280178D01*
X1802196Y8280442D01*
X1802372Y8280795D01*
X1802637Y8281236D01*
X1802901Y8281853D01*
X1803342Y8282558D01*
X1804311Y8284144D01*
X1805545Y8285907D01*
X1807044Y8287758D01*
X1808895Y8289521D01*
X1810922Y8291107D01*
X1811010Y8291195D01*
X1811186Y8291283D01*
X1811539Y8291460D01*
X1811979Y8291724D01*
X1812508Y8291988D01*
X1813213Y8292341D01*
X1813918Y8292694D01*
X1814800Y8293134D01*
X1815769Y8293487D01*
X1816827Y8293839D01*
X1819119Y8294456D01*
X1821675Y8294897D01*
X1823085Y8295073D01*
X1824936D01*
X1825553Y8294985D01*
D02*
G37*
%LPC*%
G36*
X2547844Y8264401D02*
X2547755D01*
X2547579Y8264313D01*
X2547227Y8264225D01*
X2546786Y8264049D01*
X2546257Y8263784D01*
X2545552Y8263608D01*
X2544671Y8263344D01*
X2543789Y8263079D01*
X2542643Y8262815D01*
X2541409Y8262462D01*
X2540087Y8262198D01*
X2538589Y8261845D01*
X2537003Y8261493D01*
X2535328Y8261228D01*
X2533477Y8260876D01*
X2531450Y8260611D01*
X2531185D01*
X2530833Y8260523D01*
X2530480Y8260435D01*
X2529335Y8260259D01*
X2528012Y8259994D01*
X2526602Y8259730D01*
X2525192Y8259377D01*
X2523870Y8259025D01*
X2522724Y8258584D01*
X2522636Y8258496D01*
X2522283Y8258408D01*
X2521843Y8258144D01*
X2521314Y8257791D01*
X2520609Y8257262D01*
X2519992Y8256733D01*
X2519375Y8256116D01*
X2518758Y8255323D01*
X2518670Y8255235D01*
X2518582Y8254971D01*
X2518317Y8254530D01*
X2518141Y8253913D01*
X2517877Y8253208D01*
X2517612Y8252415D01*
X2517524Y8251533D01*
X2517436Y8250564D01*
Y8250387D01*
X2517524Y8249947D01*
X2517612Y8249153D01*
X2517788Y8248272D01*
X2518141Y8247214D01*
X2518670Y8246069D01*
X2519463Y8245011D01*
X2520433Y8243953D01*
X2520609Y8243865D01*
X2520961Y8243513D01*
X2521667Y8243160D01*
X2522636Y8242631D01*
X2523870Y8242191D01*
X2525456Y8241750D01*
X2527219Y8241397D01*
X2529246Y8241309D01*
X2530216D01*
X2530745Y8241397D01*
X2531362Y8241485D01*
X2532684Y8241662D01*
X2534358Y8241926D01*
X2536033Y8242367D01*
X2537796Y8242984D01*
X2539559Y8243777D01*
X2539647D01*
X2539735Y8243865D01*
X2540264Y8244218D01*
X2541057Y8244835D01*
X2542115Y8245628D01*
X2543172Y8246597D01*
X2544230Y8247831D01*
X2545288Y8249153D01*
X2546169Y8250740D01*
X2546257Y8250916D01*
X2546433Y8251357D01*
X2546698Y8252150D01*
X2546962Y8253208D01*
X2547227Y8254618D01*
X2547491Y8256381D01*
X2547667Y8258408D01*
X2547755Y8260700D01*
X2547844Y8264401D01*
D02*
G37*
G36*
X2963414Y8286788D02*
X2962709D01*
X2962180Y8286700D01*
X2961563Y8286612D01*
X2960770Y8286524D01*
X2959095Y8286083D01*
X2957068Y8285378D01*
X2956099Y8284937D01*
X2955041Y8284409D01*
X2953983Y8283792D01*
X2952926Y8282998D01*
X2951956Y8282117D01*
X2950987Y8281148D01*
X2950899Y8281059D01*
X2950810Y8280883D01*
X2950546Y8280531D01*
X2950193Y8280090D01*
X2949841Y8279473D01*
X2949400Y8278768D01*
X2948960Y8277886D01*
X2948519Y8276917D01*
X2948078Y8275771D01*
X2947637Y8274537D01*
X2947197Y8273127D01*
X2946844Y8271629D01*
X2946492Y8269954D01*
X2946227Y8268191D01*
X2946139Y8266252D01*
X2946051Y8264225D01*
Y8264137D01*
Y8263696D01*
Y8263167D01*
X2946139Y8262374D01*
X2946227Y8261405D01*
X2946315Y8260347D01*
X2946492Y8259113D01*
X2946668Y8257879D01*
X2947285Y8255059D01*
X2948166Y8252238D01*
X2948695Y8250916D01*
X2949400Y8249594D01*
X2950105Y8248360D01*
X2950987Y8247214D01*
X2951075Y8247126D01*
X2951251Y8246950D01*
X2951516Y8246686D01*
X2951868Y8246333D01*
X2952397Y8245892D01*
X2952926Y8245452D01*
X2953631Y8244923D01*
X2954424Y8244482D01*
X2956187Y8243424D01*
X2958302Y8242543D01*
X2959448Y8242191D01*
X2960770Y8241926D01*
X2962004Y8241750D01*
X2963414Y8241662D01*
X2964119D01*
X2964648Y8241750D01*
X2965265Y8241838D01*
X2966058Y8241926D01*
X2967733Y8242367D01*
X2969672Y8243072D01*
X2970730Y8243513D01*
X2971787Y8244041D01*
X2972757Y8244658D01*
X2973814Y8245452D01*
X2974784Y8246333D01*
X2975754Y8247303D01*
X2975842Y8247391D01*
X2975930Y8247567D01*
X2976194Y8247919D01*
X2976547Y8248360D01*
X2976899Y8248977D01*
X2977340Y8249682D01*
X2977781Y8250564D01*
X2978310Y8251621D01*
X2978750Y8252679D01*
X2979191Y8254001D01*
X2979632Y8255411D01*
X2979984Y8256998D01*
X2980337Y8258672D01*
X2980601Y8260523D01*
X2980689Y8262462D01*
X2980777Y8264578D01*
Y8264666D01*
Y8265018D01*
Y8265635D01*
X2980689Y8266340D01*
X2980601Y8267310D01*
X2980513Y8268368D01*
X2980337Y8269513D01*
X2980160Y8270747D01*
X2979543Y8273391D01*
X2979191Y8274802D01*
X2978662Y8276212D01*
X2978045Y8277534D01*
X2977428Y8278856D01*
X2976635Y8280002D01*
X2975754Y8281148D01*
X2975665Y8281236D01*
X2975489Y8281412D01*
X2975225Y8281676D01*
X2974872Y8282029D01*
X2974343Y8282470D01*
X2973814Y8282910D01*
X2973109Y8283439D01*
X2972404Y8283968D01*
X2970553Y8285026D01*
X2968438Y8285907D01*
X2967292Y8286260D01*
X2966058Y8286524D01*
X2964736Y8286700D01*
X2963414Y8286788D01*
D02*
G37*
G36*
X2597201D02*
X2596496D01*
X2595967Y8286700D01*
X2595350Y8286612D01*
X2594557Y8286524D01*
X2592882Y8286083D01*
X2590855Y8285378D01*
X2589885Y8284937D01*
X2588828Y8284409D01*
X2587770Y8283792D01*
X2586712Y8282998D01*
X2585743Y8282117D01*
X2584773Y8281148D01*
X2584685Y8281059D01*
X2584597Y8280883D01*
X2584333Y8280531D01*
X2583980Y8280090D01*
X2583628Y8279473D01*
X2583187Y8278768D01*
X2582746Y8277886D01*
X2582305Y8276917D01*
X2581865Y8275771D01*
X2581424Y8274537D01*
X2580983Y8273127D01*
X2580631Y8271629D01*
X2580278Y8269954D01*
X2580014Y8268191D01*
X2579926Y8266252D01*
X2579838Y8264225D01*
Y8264137D01*
Y8263696D01*
Y8263167D01*
X2579926Y8262374D01*
X2580014Y8261405D01*
X2580102Y8260347D01*
X2580278Y8259113D01*
X2580455Y8257879D01*
X2581072Y8255059D01*
X2581953Y8252238D01*
X2582482Y8250916D01*
X2583187Y8249594D01*
X2583892Y8248360D01*
X2584773Y8247214D01*
X2584861Y8247126D01*
X2585038Y8246950D01*
X2585302Y8246686D01*
X2585655Y8246333D01*
X2586184Y8245892D01*
X2586712Y8245452D01*
X2587417Y8244923D01*
X2588211Y8244482D01*
X2589973Y8243424D01*
X2592089Y8242543D01*
X2593235Y8242191D01*
X2594557Y8241926D01*
X2595791Y8241750D01*
X2597201Y8241662D01*
X2597906D01*
X2598435Y8241750D01*
X2599052Y8241838D01*
X2599845Y8241926D01*
X2601520Y8242367D01*
X2603459Y8243072D01*
X2604516Y8243513D01*
X2605574Y8244041D01*
X2606543Y8244658D01*
X2607601Y8245452D01*
X2608571Y8246333D01*
X2609540Y8247303D01*
X2609628Y8247391D01*
X2609716Y8247567D01*
X2609981Y8247919D01*
X2610333Y8248360D01*
X2610686Y8248977D01*
X2611127Y8249682D01*
X2611567Y8250564D01*
X2612096Y8251621D01*
X2612537Y8252679D01*
X2612978Y8254001D01*
X2613418Y8255411D01*
X2613771Y8256998D01*
X2614123Y8258672D01*
X2614388Y8260523D01*
X2614476Y8262462D01*
X2614564Y8264578D01*
Y8264666D01*
Y8265018D01*
Y8265635D01*
X2614476Y8266340D01*
X2614388Y8267310D01*
X2614300Y8268368D01*
X2614123Y8269513D01*
X2613947Y8270747D01*
X2613330Y8273391D01*
X2612978Y8274802D01*
X2612449Y8276212D01*
X2611832Y8277534D01*
X2611215Y8278856D01*
X2610421Y8280002D01*
X2609540Y8281148D01*
X2609452Y8281236D01*
X2609276Y8281412D01*
X2609011Y8281676D01*
X2608659Y8282029D01*
X2608130Y8282470D01*
X2607601Y8282910D01*
X2606896Y8283439D01*
X2606191Y8283968D01*
X2604340Y8285026D01*
X2602225Y8285907D01*
X2601079Y8286260D01*
X2599845Y8286524D01*
X2598523Y8286700D01*
X2597201Y8286788D01*
D02*
G37*
G36*
X2224730D02*
X2224025D01*
X2223496Y8286700D01*
X2222879Y8286612D01*
X2222085Y8286524D01*
X2220411Y8286083D01*
X2218384Y8285378D01*
X2217414Y8284937D01*
X2216357Y8284409D01*
X2215299Y8283792D01*
X2214241Y8282998D01*
X2213272Y8282117D01*
X2212302Y8281148D01*
X2212214Y8281059D01*
X2212126Y8280883D01*
X2211861Y8280531D01*
X2211509Y8280090D01*
X2211156Y8279473D01*
X2210716Y8278768D01*
X2210275Y8277886D01*
X2209834Y8276917D01*
X2209394Y8275771D01*
X2208953Y8274537D01*
X2208512Y8273127D01*
X2208160Y8271629D01*
X2207807Y8269954D01*
X2207543Y8268191D01*
X2207455Y8266252D01*
X2207366Y8264225D01*
Y8264137D01*
Y8263696D01*
Y8263167D01*
X2207455Y8262374D01*
X2207543Y8261405D01*
X2207631Y8260347D01*
X2207807Y8259113D01*
X2207983Y8257879D01*
X2208600Y8255059D01*
X2209482Y8252238D01*
X2210011Y8250916D01*
X2210716Y8249594D01*
X2211421Y8248360D01*
X2212302Y8247214D01*
X2212390Y8247126D01*
X2212567Y8246950D01*
X2212831Y8246686D01*
X2213184Y8246333D01*
X2213712Y8245892D01*
X2214241Y8245452D01*
X2214946Y8244923D01*
X2215740Y8244482D01*
X2217502Y8243424D01*
X2219618Y8242543D01*
X2220763Y8242191D01*
X2222085Y8241926D01*
X2223319Y8241750D01*
X2224730Y8241662D01*
X2225435D01*
X2225964Y8241750D01*
X2226581Y8241838D01*
X2227374Y8241926D01*
X2229048Y8242367D01*
X2230987Y8243072D01*
X2232045Y8243513D01*
X2233103Y8244041D01*
X2234072Y8244658D01*
X2235130Y8245452D01*
X2236099Y8246333D01*
X2237069Y8247303D01*
X2237157Y8247391D01*
X2237245Y8247567D01*
X2237510Y8247919D01*
X2237862Y8248360D01*
X2238215Y8248977D01*
X2238655Y8249682D01*
X2239096Y8250564D01*
X2239625Y8251621D01*
X2240066Y8252679D01*
X2240506Y8254001D01*
X2240947Y8255411D01*
X2241300Y8256998D01*
X2241652Y8258672D01*
X2241917Y8260523D01*
X2242005Y8262462D01*
X2242093Y8264578D01*
Y8264666D01*
Y8265018D01*
Y8265635D01*
X2242005Y8266340D01*
X2241917Y8267310D01*
X2241828Y8268368D01*
X2241652Y8269513D01*
X2241476Y8270747D01*
X2240859Y8273391D01*
X2240506Y8274802D01*
X2239977Y8276212D01*
X2239361Y8277534D01*
X2238744Y8278856D01*
X2237950Y8280002D01*
X2237069Y8281148D01*
X2236981Y8281236D01*
X2236805Y8281412D01*
X2236540Y8281676D01*
X2236188Y8282029D01*
X2235659Y8282470D01*
X2235130Y8282910D01*
X2234425Y8283439D01*
X2233720Y8283968D01*
X2231869Y8285026D01*
X2229753Y8285907D01*
X2228608Y8286260D01*
X2227374Y8286524D01*
X2226052Y8286700D01*
X2224730Y8286788D01*
D02*
G37*
G36*
X2074366Y8286876D02*
X2073749D01*
X2073309Y8286788D01*
X2072692Y8286700D01*
X2072075Y8286612D01*
X2070488Y8286171D01*
X2068725Y8285466D01*
X2067844Y8285026D01*
X2066874Y8284497D01*
X2065905Y8283792D01*
X2064935Y8282998D01*
X2063966Y8282117D01*
X2063085Y8281148D01*
X2062996Y8281059D01*
X2062908Y8280883D01*
X2062644Y8280531D01*
X2062379Y8280090D01*
X2062027Y8279473D01*
X2061586Y8278768D01*
X2061145Y8277886D01*
X2060705Y8276917D01*
X2060264Y8275859D01*
X2059823Y8274625D01*
X2059471Y8273215D01*
X2059030Y8271805D01*
X2058766Y8270218D01*
X2058501Y8268456D01*
X2058413Y8266605D01*
X2058325Y8264666D01*
Y8264578D01*
Y8264225D01*
Y8263696D01*
X2058413Y8262903D01*
Y8262110D01*
X2058501Y8261052D01*
X2058589Y8259994D01*
X2058678Y8258760D01*
X2059030Y8256293D01*
X2059559Y8253737D01*
X2059823Y8252503D01*
X2060176Y8251357D01*
X2060617Y8250299D01*
X2061145Y8249330D01*
X2061234Y8249242D01*
X2061410Y8248977D01*
X2061674Y8248625D01*
X2062027Y8248096D01*
X2062468Y8247567D01*
X2063085Y8246950D01*
X2063790Y8246245D01*
X2064495Y8245540D01*
X2065376Y8244747D01*
X2066346Y8244130D01*
X2067403Y8243424D01*
X2068549Y8242896D01*
X2069783Y8242367D01*
X2071105Y8242014D01*
X2072427Y8241750D01*
X2073925Y8241662D01*
X2074542D01*
X2074983Y8241750D01*
X2075600Y8241838D01*
X2076217Y8241926D01*
X2077804Y8242367D01*
X2079566Y8243072D01*
X2080448Y8243513D01*
X2081417Y8244041D01*
X2082387Y8244658D01*
X2083356Y8245452D01*
X2084326Y8246333D01*
X2085207Y8247303D01*
X2085295Y8247391D01*
X2085383Y8247567D01*
X2085648Y8247919D01*
X2086000Y8248360D01*
X2086353Y8248977D01*
X2086706Y8249682D01*
X2087146Y8250564D01*
X2087675Y8251621D01*
X2088116Y8252679D01*
X2088556Y8254001D01*
X2088909Y8255411D01*
X2089262Y8256910D01*
X2089614Y8258584D01*
X2089878Y8260347D01*
X2089967Y8262286D01*
X2090055Y8264313D01*
Y8264489D01*
Y8264842D01*
Y8265459D01*
X2089967Y8266164D01*
X2089878Y8267134D01*
X2089790Y8268279D01*
X2089702Y8269513D01*
X2089526Y8270747D01*
X2088909Y8273568D01*
X2088116Y8276388D01*
X2087587Y8277710D01*
X2086970Y8279032D01*
X2086265Y8280266D01*
X2085472Y8281324D01*
X2085383Y8281412D01*
X2085295Y8281588D01*
X2085031Y8281853D01*
X2084678Y8282205D01*
X2084238Y8282646D01*
X2083709Y8283087D01*
X2082387Y8284144D01*
X2080712Y8285114D01*
X2078861Y8285995D01*
X2077804Y8286348D01*
X2076746Y8286612D01*
X2075600Y8286788D01*
X2074366Y8286876D01*
D02*
G37*
G36*
X1825200Y8286788D02*
X1824583D01*
X1824054Y8286700D01*
X1823525Y8286612D01*
X1822820Y8286524D01*
X1821234Y8286083D01*
X1819471Y8285466D01*
X1818502Y8285026D01*
X1817620Y8284497D01*
X1816651Y8283880D01*
X1815681Y8283087D01*
X1814712Y8282293D01*
X1813830Y8281324D01*
X1813742Y8281236D01*
X1813654Y8281059D01*
X1813390Y8280795D01*
X1813125Y8280354D01*
X1812773Y8279737D01*
X1812420Y8279032D01*
X1811979Y8278239D01*
X1811539Y8277269D01*
X1811098Y8276212D01*
X1810657Y8275066D01*
X1810305Y8273744D01*
X1809952Y8272334D01*
X1809688Y8270747D01*
X1809423Y8269073D01*
X1809335Y8267222D01*
X1809247Y8265283D01*
Y8265195D01*
Y8264754D01*
Y8264137D01*
X1809335Y8263344D01*
X1809423Y8262462D01*
X1809511Y8261316D01*
X1809600Y8260083D01*
X1809864Y8258849D01*
X1810393Y8256028D01*
X1811186Y8253208D01*
X1811715Y8251886D01*
X1812332Y8250652D01*
X1813037Y8249418D01*
X1813830Y8248360D01*
X1813918Y8248272D01*
X1814007Y8248096D01*
X1814271Y8247831D01*
X1814623Y8247567D01*
X1815152Y8247126D01*
X1815681Y8246686D01*
X1817003Y8245716D01*
X1818678Y8244747D01*
X1820617Y8243865D01*
X1821763Y8243601D01*
X1822908Y8243336D01*
X1824142Y8243160D01*
X1825376Y8243072D01*
X1826081D01*
X1826522Y8243160D01*
X1827139Y8243248D01*
X1827844Y8243336D01*
X1829431Y8243777D01*
X1831193Y8244394D01*
X1832163Y8244835D01*
X1833132Y8245275D01*
X1834102Y8245892D01*
X1835072Y8246597D01*
X1836041Y8247391D01*
X1836922Y8248360D01*
X1837011Y8248448D01*
X1837099Y8248625D01*
X1837363Y8248889D01*
X1837628Y8249330D01*
X1837980Y8249947D01*
X1838421Y8250652D01*
X1838861Y8251445D01*
X1839302Y8252415D01*
X1839655Y8253472D01*
X1840095Y8254706D01*
X1840536Y8256116D01*
X1840889Y8257615D01*
X1841153Y8259201D01*
X1841417Y8260964D01*
X1841506Y8262903D01*
X1841594Y8264930D01*
Y8265018D01*
Y8265371D01*
Y8265988D01*
X1841506Y8266693D01*
X1841417Y8267574D01*
X1841329Y8268632D01*
X1841153Y8269778D01*
X1840977Y8271012D01*
X1840448Y8273656D01*
X1839567Y8276388D01*
X1839038Y8277710D01*
X1838333Y8278944D01*
X1837628Y8280178D01*
X1836746Y8281236D01*
X1836658Y8281324D01*
X1836570Y8281500D01*
X1836305Y8281764D01*
X1835865Y8282117D01*
X1835424Y8282558D01*
X1834895Y8282998D01*
X1833485Y8284056D01*
X1831810Y8285026D01*
X1829871Y8285907D01*
X1828814Y8286260D01*
X1827668Y8286524D01*
X1826434Y8286700D01*
X1825200Y8286788D01*
D02*
G37*
%LPD*%
D92*
X4141815Y2443831D02*
X4161135Y2439988D01*
X4179334Y2432450D01*
X4195712Y2421506D01*
X4209641Y2407577D01*
X4220585Y2391198D01*
X4228123Y2373000D01*
X4231966Y2353680D01*
Y2343831D02*
Y2353680D01*
Y2333981D02*
Y2343831D01*
X4228123Y2314662D02*
X4231966Y2333981D01*
X4220585Y2296463D02*
X4228123Y2314662D01*
X4209641Y2280084D02*
X4220585Y2296463D01*
X4195712Y2266155D02*
X4209641Y2280084D01*
X4179334Y2255212D02*
X4195712Y2266155D01*
X4161135Y2247673D02*
X4179334Y2255212D01*
X4141815Y2243831D02*
X4161135Y2247673D01*
X4122117Y2243831D02*
X4141815D01*
X4102797Y2247673D02*
X4122117Y2243831D01*
X4084598Y2255212D02*
X4102797Y2247673D01*
X4068220Y2266155D02*
X4084598Y2255212D01*
X4054291Y2280084D02*
X4068220Y2266155D01*
X4043347Y2296463D02*
X4054291Y2280084D01*
X4035809Y2314662D02*
X4043347Y2296463D01*
X4031966Y2333981D02*
X4035809Y2314662D01*
X4031966Y2333981D02*
Y2343831D01*
Y2353680D01*
X4035809Y2373000D01*
X4043347Y2391198D01*
X4054291Y2407577D01*
X4068220Y2421506D01*
X4084598Y2432450D01*
X4102797Y2439988D01*
X4122117Y2443831D01*
X4141815D01*
X6963365Y8406719D02*
Y8556718D01*
X4012772Y8406720D02*
X6963365Y8406719D01*
X4011808Y8387116D02*
X4012772Y8406720D01*
X4004160Y8348663D02*
X4011808Y8387116D01*
X3989156Y8312440D02*
X4004160Y8348663D01*
X3967374Y8279841D02*
X3989156Y8312440D01*
X3939650Y8252117D02*
X3967374Y8279841D01*
X3907051Y8230335D02*
X3939650Y8252117D01*
X3870829Y8215331D02*
X3907051Y8230335D01*
X3832375Y8207682D02*
X3870829Y8215331D01*
X3793169Y8207682D02*
X3832375D01*
X3754715Y8215331D02*
X3793169Y8207682D01*
X3718492Y8230334D02*
X3754715Y8215331D01*
X3685893Y8252116D02*
X3718492Y8230334D01*
X3658169Y8279840D02*
X3685893Y8252116D01*
X3636387Y8312439D02*
X3658169Y8279840D01*
X3621383Y8348661D02*
X3636387Y8312439D01*
X3613734Y8387115D02*
X3621383Y8348661D01*
X3612771Y8406718D02*
X3613734Y8387115D01*
X1862770Y8406718D02*
X3612771Y8406718D01*
X1862770Y8406718D02*
Y8556718D01*
X7445543D02*
X7510526Y8548163D01*
X6963365Y8556718D02*
X7445543D01*
X1380000D02*
X1862770D01*
X1315017Y8548163D02*
X1380000Y8556718D01*
X1251707Y8531199D02*
X1315017Y8548163D01*
X1191152Y8506117D02*
X1251707Y8531199D01*
X1134390Y8473345D02*
X1191152Y8506117D01*
X1082391Y8433445D02*
X1134390Y8473345D01*
X1036045Y8387099D02*
X1082391Y8433445D01*
X996144Y8335099D02*
X1036045Y8387099D01*
X963373Y8278337D02*
X996144Y8335099D01*
X938290Y8217783D02*
X963373Y8278337D01*
X921326Y8154473D02*
X938290Y8217783D01*
X912771Y8089490D02*
X921326Y8154473D01*
X912771Y8056718D02*
Y8089490D01*
X912770Y4256716D02*
X912771Y8056718D01*
X912770Y4256716D02*
X932373Y4255753D01*
X970827Y4248105D01*
X1007049Y4233101D01*
X1039649Y4211319D01*
X1067373Y4183596D01*
X1089155Y4150996D01*
X1104159Y4114774D01*
X1111808Y4076321D01*
Y4037114D02*
Y4076321D01*
X1104160Y3998660D02*
X1111808Y4037114D01*
X1089156Y3962438D02*
X1104160Y3998660D01*
X1067374Y3929838D02*
X1089156Y3962438D01*
X1039651Y3902114D02*
X1067374Y3929838D01*
X1007051Y3880332D02*
X1039651Y3902114D01*
X970829Y3865328D02*
X1007051Y3880332D01*
X932376Y3857679D02*
X970829Y3865328D01*
X912772Y3856716D02*
X932376Y3857679D01*
X912771Y1056716D02*
X912772Y3856716D01*
X912771Y1023944D02*
Y1056716D01*
Y1023944D02*
X921327Y958962D01*
X938290Y895651D01*
X963373Y835097D01*
X996145Y778335D01*
X1036045Y726336D01*
X1082391Y679990D01*
X1134390Y640090D01*
X1191153Y607318D01*
X1251707Y582236D01*
X1315017Y565272D01*
X1380000Y556717D01*
X1412771Y556717D01*
X1712770D01*
X3112769Y556717D02*
X7412771Y556716D01*
X7445543D01*
X7510526Y565271D01*
X7573836Y582235D01*
X7634390Y607317D01*
X7691152Y640089D01*
X7743151Y679989D01*
X7789498Y726336D01*
X7829398Y778335D01*
X7862170Y835097D01*
X7887252Y895651D01*
X7904216Y958961D01*
X7912771Y1023944D01*
Y1056716D01*
Y8056718D01*
Y8089490D01*
X7904216Y8154473D02*
X7912771Y8089490D01*
X7887252Y8217783D02*
X7904216Y8154473D01*
X7862170Y8278337D02*
X7887252Y8217783D01*
X7829398Y8335099D02*
X7862170Y8278337D01*
X7789498Y8387099D02*
X7829398Y8335099D01*
X7743151Y8433445D02*
X7789498Y8387099D01*
X7691152Y8473345D02*
X7743151Y8433445D01*
X7634390Y8506117D02*
X7691152Y8473345D01*
X7573836Y8531199D02*
X7634390Y8506117D01*
X7510526Y8548163D02*
X7573836Y8531199D01*
X2912771Y756715D02*
X3112769Y556717D01*
X1912768Y756715D02*
X2912771D01*
X1712770Y556717D02*
X1912768Y756715D01*
D93*
X5852912Y867388D02*
X7132962D01*
X7132962Y4200311D01*
X5852911Y4200038D02*
X5852912Y867388D01*
X2482587Y2890870D02*
X4646079D01*
X1795377Y3578079D02*
X2482587Y2890870D01*
X4646079D02*
Y4200311D01*
X7132962D01*
X1795377Y3578079D02*
Y3972158D01*
X7132962Y2318545D02*
X7913055D01*
X1089154Y3972158D02*
X1795377D01*
D94*
X6556455Y3360542D02*
X7132962D01*
X5870326Y2029192D02*
X6090384D01*
X6436096Y2374904D01*
X7132962D01*
X5871964Y3157606D02*
X6353519D01*
X6556455Y3360542D01*
D95*
X7664229Y4212419D02*
D03*
Y1652419D02*
D03*
D96*
X1873048Y3188020D02*
D03*
D97*
X7413364Y4766511D02*
D03*
X1413364D02*
D03*
X1412771Y8056718D02*
D03*
X7413364Y8056715D02*
D03*
Y1056715D02*
D03*
X1413364D02*
D03*
D98*
X1273048Y2153020D02*
D03*
Y3503020D02*
D03*
D99*
X1881859Y6674526D02*
D03*
X4287285Y6048713D02*
D03*
X4360705Y5606991D02*
D03*
X2748909Y2931430D02*
D03*
X2548909D02*
D03*
X1702517Y3700925D02*
D03*
X1619951D02*
D03*
X1748909Y3531430D02*
D03*
X2843234Y3135715D02*
D03*
X2843233Y3235715D02*
D03*
Y3335715D02*
D03*
X2843234Y3435716D02*
D03*
X2743233D02*
D03*
Y3335715D02*
D03*
Y3235715D02*
D03*
X2643233Y3435716D02*
D03*
Y3335715D02*
D03*
Y3235715D02*
D03*
X2743233Y3135715D02*
D03*
X2643233D02*
D03*
X2543233D02*
D03*
Y3235715D02*
D03*
Y3335715D02*
D03*
Y3435716D02*
D03*
X3203510Y1426513D02*
D03*
Y1526513D02*
D03*
Y1626513D02*
D03*
Y1726513D02*
D03*
X3103510D02*
D03*
X3003510D02*
D03*
X3103510Y1626513D02*
D03*
Y1526513D02*
D03*
Y1426513D02*
D03*
X3003510Y1626513D02*
D03*
Y1526513D02*
D03*
Y1426513D02*
D03*
X2903510D02*
D03*
Y1526513D02*
D03*
Y1626513D02*
D03*
Y1726513D02*
D03*
X2348909Y1718729D02*
D03*
X2248909Y1818729D02*
D03*
Y1918729D02*
D03*
X2648909D02*
D03*
Y1818729D02*
D03*
X2548909D02*
D03*
X2448909Y1918729D02*
D03*
Y1818729D02*
D03*
X2348909D02*
D03*
X2448909Y1618729D02*
D03*
Y1718729D02*
D03*
X2648909Y1518729D02*
D03*
Y1618729D02*
D03*
Y1718729D02*
D03*
X2548909D02*
D03*
Y1518729D02*
D03*
Y1618729D02*
D03*
X5564929Y1321042D02*
D03*
X5664929D02*
D03*
X5564929Y1221042D02*
D03*
Y1121042D02*
D03*
Y1021042D02*
D03*
X5664929Y1221042D02*
D03*
Y1121042D02*
D03*
Y1021042D02*
D03*
X5764929D02*
D03*
Y1121042D02*
D03*
Y1221042D02*
D03*
Y1321042D02*
D03*
X5535867Y2998582D02*
D03*
X5635867D02*
D03*
X5535867Y2898582D02*
D03*
Y2798582D02*
D03*
Y2698582D02*
D03*
X5635867Y2898582D02*
D03*
Y2798582D02*
D03*
Y2698582D02*
D03*
X5735867D02*
D03*
Y2798582D02*
D03*
Y2898582D02*
D03*
Y2998582D02*
D03*
Y3568570D02*
D03*
Y3468570D02*
D03*
Y3368570D02*
D03*
Y3268570D02*
D03*
X5635867D02*
D03*
Y3368570D02*
D03*
Y3468570D02*
D03*
X5535867Y3268570D02*
D03*
Y3368570D02*
D03*
Y3468570D02*
D03*
X5635867Y3568570D02*
D03*
X3416936Y977419D02*
D03*
Y1177419D02*
D03*
Y1377419D02*
D03*
Y777419D02*
D03*
X4221799Y2908993D02*
D03*
X4271799D02*
D03*
X4225504Y2768819D02*
D03*
X3754226Y2503278D02*
D03*
X3616936Y1177419D02*
D03*
X3216935D02*
D03*
X3616936Y1377419D02*
D03*
X3816936Y1177419D02*
D03*
X3416936Y1577419D02*
D03*
X3016935Y1177419D02*
D03*
X3216935Y977419D02*
D03*
X3016935D02*
D03*
X3216935Y777419D02*
D03*
X5816937D02*
D03*
X3909136Y1533402D02*
D03*
X4016936Y977419D02*
D03*
X3616936Y777419D02*
D03*
X4016936D02*
D03*
X3816936Y977419D02*
D03*
Y777419D02*
D03*
X3616936Y977419D02*
D03*
X5616937Y777419D02*
D03*
X5416937D02*
D03*
X5216936D02*
D03*
X5016936D02*
D03*
X4416936D02*
D03*
X4816936D02*
D03*
X4216936Y977419D02*
D03*
X4616936Y777419D02*
D03*
Y977419D02*
D03*
X5216936D02*
D03*
X4816936D02*
D03*
X4416936D02*
D03*
X4216936Y777419D02*
D03*
X5416937Y977419D02*
D03*
X5016936D02*
D03*
X5535867Y3568570D02*
D03*
X3080592Y8353967D02*
D03*
X2880592D02*
D03*
X2680592D02*
D03*
X2480592D02*
D03*
X2280592D02*
D03*
X1880592D02*
D03*
X2080592D02*
D03*
X2148909Y1918729D02*
D03*
X2748909D02*
D03*
X2548909D02*
D03*
X2348909D02*
D03*
X1748909Y2931430D02*
D03*
X1948909D02*
D03*
X2948910Y2731430D02*
D03*
X2748909D02*
D03*
X2548909D02*
D03*
X2148909Y2931430D02*
D03*
Y3131430D02*
D03*
Y2731430D02*
D03*
X2348909D02*
D03*
Y2931430D02*
D03*
X3624400Y6977235D02*
D03*
X3616324Y6654794D02*
D03*
X4304123Y7259218D02*
D03*
X6546177Y6261214D02*
D03*
X6319463Y6059347D02*
D03*
X6437092Y6167087D02*
D03*
Y6067869D02*
D03*
X5890837Y7091391D02*
D03*
X5363474Y7593222D02*
D03*
X3324905Y7108643D02*
D03*
X6982249Y5518185D02*
D03*
Y5581567D02*
D03*
X4223803Y7259218D02*
D03*
X4374553Y7341848D02*
D03*
X4901286Y6581656D02*
D03*
X5794268Y6343693D02*
D03*
X1560072Y7399926D02*
D03*
X1622995Y7449338D02*
D03*
X2032516Y7222199D02*
D03*
X1992181Y7121437D02*
D03*
X1954162Y6943068D02*
D03*
X2114885Y6491313D02*
D03*
X1361515Y5747060D02*
D03*
X1661131Y5729714D02*
D03*
X2336170Y7049154D02*
D03*
X3632361Y7435456D02*
D03*
X1305973Y5697445D02*
D03*
X1661131Y5670841D02*
D03*
Y6157895D02*
D03*
X1078907Y6047527D02*
D03*
X6360294Y7591903D02*
D03*
X5410934Y6578749D02*
D03*
X1071376Y6704604D02*
D03*
X1297859Y6996038D02*
D03*
X1305973Y6197445D02*
D03*
X1661131Y6379640D02*
D03*
X1954162Y7010237D02*
D03*
X1661131Y6997314D02*
D03*
X1336888Y6648715D02*
D03*
X3198774Y5664149D02*
D03*
X2454083Y5664228D02*
D03*
X3199565Y5271238D02*
D03*
X5490934Y6498749D02*
D03*
X2264546Y6760598D02*
D03*
X7029383Y7860739D02*
D03*
X3572761Y6346672D02*
D03*
X2890223Y6249509D02*
D03*
X4880180Y5064618D02*
D03*
X3371567Y5514368D02*
D03*
X3321876Y5463847D02*
D03*
X6507464Y7097410D02*
D03*
X2222281Y7312225D02*
D03*
X2164397Y7351528D02*
D03*
X1305973Y6097445D02*
D03*
X1661131Y6229641D02*
D03*
Y6288514D02*
D03*
X1361515Y6147060D02*
D03*
Y6297060D02*
D03*
X1305973Y6347445D02*
D03*
X1661131Y6567914D02*
D03*
Y6509041D02*
D03*
X1361515Y6747060D02*
D03*
X1305973Y6697445D02*
D03*
X1660235Y7126714D02*
D03*
Y7067841D02*
D03*
X1662200Y7210064D02*
D03*
X2434946Y4803246D02*
D03*
X2527928Y4804504D02*
D03*
X2528118Y4896345D02*
D03*
X2048471Y4898152D02*
D03*
X1912292Y4940568D02*
D03*
X4738023Y4625588D02*
D03*
X5854887Y5377172D02*
D03*
X3687320Y4565276D02*
D03*
X6245397Y6025563D02*
D03*
X4960949Y7590551D02*
D03*
X5994288Y6235197D02*
D03*
X4917567Y5131121D02*
D03*
X6435378Y5141192D02*
D03*
X6338460Y5041384D02*
D03*
X1361921Y6947423D02*
D03*
X1662005Y7500733D02*
D03*
X3003024Y6428025D02*
D03*
X3091302Y5417023D02*
D03*
X2347096Y5292895D02*
D03*
X4634658Y6991657D02*
D03*
X4557396D02*
D03*
X3818957Y6015301D02*
D03*
X3816628Y5941625D02*
D03*
X5001297Y8260323D02*
D03*
X5446235Y8152343D02*
D03*
X3631489Y7309279D02*
D03*
X4400935Y8073222D02*
D03*
X4320935Y8153222D02*
D03*
X4400935D02*
D03*
X4481051Y7913106D02*
D03*
X3672917Y5809264D02*
D03*
X6277295Y6499395D02*
D03*
X5330934Y6258749D02*
D03*
X4625401Y7259218D02*
D03*
X1610567Y7346215D02*
D03*
X7463321Y5513848D02*
D03*
X1560219Y7347445D02*
D03*
X7463951Y5440920D02*
D03*
X5770128Y4419331D02*
D03*
X4406222Y4181136D02*
D03*
X5227345Y6211065D02*
D03*
X3193452Y4580284D02*
D03*
Y4497718D02*
D03*
X3286190Y4580284D02*
D03*
X3378928D02*
D03*
Y4497717D02*
D03*
X3286190D02*
D03*
X2421432Y4395750D02*
D03*
X2514170D02*
D03*
Y4478316D02*
D03*
X2421432D02*
D03*
X2328693Y4395750D02*
D03*
Y4478317D02*
D03*
X1662005Y7271333D02*
D03*
X4837221Y5131121D02*
D03*
X3566900Y6998510D02*
D03*
Y7175392D02*
D03*
Y7352273D02*
D03*
Y7536775D02*
D03*
Y7717342D02*
D03*
X5415358Y5551708D02*
D03*
X4863988Y4625588D02*
D03*
X2527928Y4708504D02*
D03*
X5701700Y5682213D02*
D03*
X5170935Y5858749D02*
D03*
X5170934Y5938749D02*
D03*
X5330934Y5778749D02*
D03*
Y5858749D02*
D03*
X7208930Y7242355D02*
D03*
Y7333481D02*
D03*
Y7392355D02*
D03*
Y7183482D02*
D03*
X6971215Y7160898D02*
D03*
Y7239282D02*
D03*
Y7333481D02*
D03*
Y7392355D02*
D03*
X7026063Y7429106D02*
D03*
X6516969Y6983748D02*
D03*
X6560454Y5711639D02*
D03*
X6649419D02*
D03*
X3942194Y5849601D02*
D03*
X4037194Y5686440D02*
D03*
X2136806Y5476679D02*
D03*
X3453104Y5656978D02*
D03*
Y5707324D02*
D03*
X4130190Y6363210D02*
D03*
X1842053Y6468661D02*
D03*
X1879446Y7072002D02*
D03*
X1944425Y6287479D02*
D03*
X3550018Y6049516D02*
D03*
X4235966Y6453105D02*
D03*
X4037929Y6012298D02*
D03*
X4370935Y6098749D02*
D03*
X6513513Y7323924D02*
D03*
X5283432Y5222870D02*
D03*
X5198201Y5400146D02*
D03*
X3824861Y6474051D02*
D03*
X3582269Y6561244D02*
D03*
X4125460Y6567818D02*
D03*
X4175524Y6524835D02*
D03*
X4071228D02*
D03*
X3826211Y6394501D02*
D03*
X3006039Y5418048D02*
D03*
X4530935Y6258749D02*
D03*
X2474708Y3757335D02*
D03*
X4471799Y2936493D02*
D03*
X3612193Y3400805D02*
D03*
X3971799Y3591493D02*
D03*
X4471799D02*
D03*
X3840541Y4181136D02*
D03*
X4276222D02*
D03*
X1619951Y3793664D02*
D03*
X1702517D02*
D03*
X1619951Y3886402D02*
D03*
X1702517D02*
D03*
X6352358Y8074067D02*
D03*
X5968555Y8078976D02*
D03*
X6092358Y7884067D02*
D03*
X1493260Y4271402D02*
D03*
X6107916Y4642553D02*
D03*
X5983597Y4519363D02*
D03*
X6367373Y4482381D02*
D03*
X6367690Y4569549D02*
D03*
X1717978Y1509512D02*
D03*
X2111427Y1665423D02*
D03*
X2190382D02*
D03*
X1855980Y1655848D02*
D03*
X1777025D02*
D03*
X3016127Y3213451D02*
D03*
X3016060Y3399497D02*
D03*
X3016127Y3288795D02*
D03*
X3071454Y3288794D02*
D03*
X3071454Y3213451D02*
D03*
X3071387Y3399497D02*
D03*
X3016060Y3474840D02*
D03*
X3071387Y3474840D02*
D03*
X5702698Y4327038D02*
D03*
X6243597Y4329363D02*
D03*
X6243597Y4519363D02*
D03*
X5859329Y4328863D02*
D03*
X6193109Y4880352D02*
D03*
X5986925Y5913987D02*
D03*
X2433117Y4896345D02*
D03*
X1915791Y4663094D02*
D03*
X2048471Y4708152D02*
D03*
X2151199Y4155499D02*
D03*
Y4338083D02*
D03*
X2151198Y4262740D02*
D03*
X3042719Y2882929D02*
D03*
X2040545Y4080156D02*
D03*
Y4155499D02*
D03*
X2095872Y4080156D02*
D03*
X2095872Y4155499D02*
D03*
X2040545Y4262740D02*
D03*
Y4338083D02*
D03*
X2095872Y4262740D02*
D03*
X2095872Y4338083D02*
D03*
X1902838Y3650219D02*
D03*
X2269977Y3476200D02*
D03*
X2345320D02*
D03*
X2269977Y3420874D02*
D03*
X2345320Y3420873D02*
D03*
X3455814Y3851530D02*
D03*
X3444053Y3765255D02*
D03*
X3385670Y3706872D02*
D03*
X2650557Y3544661D02*
D03*
X2567991D02*
D03*
X2485425D02*
D03*
X2402858D02*
D03*
X2320292D02*
D03*
X3193582Y3596502D02*
D03*
X2616411Y3652782D02*
D03*
X2846490Y3764565D02*
D03*
X2947258Y4304020D02*
D03*
X3000045D02*
D03*
X2947258Y4366663D02*
D03*
X3000045D02*
D03*
X2944718Y4491950D02*
D03*
X2947258Y4554594D02*
D03*
Y4429307D02*
D03*
X3000045Y4491950D02*
D03*
Y4554594D02*
D03*
Y4429307D02*
D03*
X3052832D02*
D03*
Y4491950D02*
D03*
Y4554594D02*
D03*
X4678883Y2531401D02*
D03*
X4651756Y2641917D02*
D03*
X5451320Y1539170D02*
D03*
X5383719D02*
D03*
X5451320Y1916305D02*
D03*
X5385175Y1916305D02*
D03*
Y2473593D02*
D03*
X5451320Y2473593D02*
D03*
X5383719Y2096458D02*
D03*
X5451320D02*
D03*
X5978852Y1362879D02*
D03*
X6051532D02*
D03*
X6052170Y3034743D02*
D03*
X5979489D02*
D03*
Y3604731D02*
D03*
X6052170D02*
D03*
X5986925Y5863539D02*
D03*
X5750969Y7090114D02*
D03*
X5792037Y6260917D02*
D03*
X5794435Y6112793D02*
D03*
X5811378Y6031190D02*
D03*
X5793305Y6187476D02*
D03*
X5592024Y6427172D02*
D03*
X6125830Y5610242D02*
D03*
X5532571Y5562826D02*
D03*
X6774156Y5347169D02*
D03*
X3398032Y7108692D02*
D03*
X3397297Y7175979D02*
D03*
X5111829Y5493768D02*
D03*
X3792594Y3897872D02*
D03*
X3647814Y4395496D02*
D03*
X3784153Y4492267D02*
D03*
X3843658Y4528349D02*
D03*
X6910954Y7737214D02*
D03*
X6815617D02*
D03*
X6621239Y7756994D02*
D03*
X5360935Y7993222D02*
D03*
X6523313Y7756994D02*
D03*
X5440935Y7993222D02*
D03*
X6809691Y7447165D02*
D03*
X6807822Y7180523D02*
D03*
Y7089079D02*
D03*
X6708238Y7084946D02*
D03*
X6419771Y7604725D02*
D03*
X6618297Y7169617D02*
D03*
X7464028Y5697060D02*
D03*
X7608641D02*
D03*
X7473627Y2807919D02*
D03*
X7388011D02*
D03*
X6708238Y6992201D02*
D03*
X6649419Y5806842D02*
D03*
X6700454Y5587931D02*
D03*
X5570935Y6578749D02*
D03*
X5330934Y6898749D02*
D03*
X6560454Y5806842D02*
D03*
X5330934Y6178749D02*
D03*
X6480454Y5587931D02*
D03*
X6916037Y5154391D02*
D03*
X6816929Y5155302D02*
D03*
X6965481Y5056681D02*
D03*
X6636906Y5067576D02*
D03*
X6636886Y4977891D02*
D03*
X6424255Y5343670D02*
D03*
X6344554D02*
D03*
X6454532Y4977892D02*
D03*
X6368178D02*
D03*
X5280935Y8153222D02*
D03*
X5200935D02*
D03*
X5200934Y7913222D02*
D03*
X5120934Y7513222D02*
D03*
X5090934Y6658749D02*
D03*
X4850934Y6898749D02*
D03*
X4720935Y8073222D02*
D03*
X4640935Y7513222D02*
D03*
X4480935Y8153222D02*
D03*
X4560935Y8073222D02*
D03*
X4770934Y6898749D02*
D03*
X4443634Y6992623D02*
D03*
X5170935Y6633349D02*
D03*
X5262222Y6570879D02*
D03*
Y6487488D02*
D03*
X5081613Y6582460D02*
D03*
X4981952Y6581185D02*
D03*
X4822377Y6582460D02*
D03*
X4400935Y7913222D02*
D03*
X3145048Y7926183D02*
D03*
X3045228D02*
D03*
X4297211Y7915762D02*
D03*
X4400935Y7513222D02*
D03*
X2947891Y7926183D02*
D03*
X2711184Y7724945D02*
D03*
X2990812Y7654910D02*
D03*
X2644908Y7654353D02*
D03*
X3194430Y7315681D02*
D03*
X3476833Y6817390D02*
D03*
X3194921Y7223058D02*
D03*
X2971693Y6720842D02*
D03*
X3152510D02*
D03*
X2895255Y7466558D02*
D03*
Y7367302D02*
D03*
X2816909Y7466558D02*
D03*
X2610059Y6720842D02*
D03*
X2790876D02*
D03*
X1361515Y7147830D02*
D03*
X1287552Y7145775D02*
D03*
X5262222Y6404096D02*
D03*
X5028559Y6013835D02*
D03*
X4921575D02*
D03*
X5211030D02*
D03*
X5119795D02*
D03*
X4853972Y6338749D02*
D03*
X4709327Y6418749D02*
D03*
X4749772Y6013835D02*
D03*
X4846087D02*
D03*
X4819205Y5476825D02*
D03*
X4400647Y5468319D02*
D03*
X4494476Y5365240D02*
D03*
X4398718Y5374961D02*
D03*
X4064318Y5364354D02*
D03*
X3960594Y5468319D02*
D03*
X3960979Y5374075D02*
D03*
X2805558Y6441005D02*
D03*
X2709160Y5636618D02*
D03*
Y5689584D02*
D03*
X2705844Y5511268D02*
D03*
X3679915Y3118551D02*
D03*
X3667752Y3579929D02*
D03*
Y3496280D02*
D03*
X5330934Y6978749D02*
D03*
X6771738Y6973910D02*
D03*
X6989984Y7783480D02*
D03*
X5410935Y6978749D02*
D03*
X6771738Y6915653D02*
D03*
X6989984Y7714366D02*
D03*
X6615152Y6847218D02*
D03*
X7067954Y7714744D02*
D03*
X6656568Y7474615D02*
D03*
X7089863Y7429106D02*
D03*
X6893032Y6699492D02*
D03*
X6696991Y6746839D02*
D03*
Y6557963D02*
D03*
X7081037Y5204391D02*
D03*
X6604397Y6650839D02*
D03*
Y6557033D02*
D03*
X6904602Y6098520D02*
D03*
X6972412Y7058196D02*
D03*
X5490934Y6818749D02*
D03*
X6893174Y6604427D02*
D03*
X6737291Y7323884D02*
D03*
X6681780D02*
D03*
X6626270D02*
D03*
X6644741Y7404384D02*
D03*
X6634508Y6923906D02*
D03*
X6972412Y6996628D02*
D03*
X6893032Y6816409D02*
D03*
X6897039Y5519070D02*
D03*
X6874337Y4924089D02*
D03*
X6700454Y5522931D02*
D03*
X5250934Y6658749D02*
D03*
X6970280Y6616582D02*
D03*
X7047728Y6877914D02*
D03*
X6694217Y7263884D02*
D03*
X6700349Y6811329D02*
D03*
X6783694Y6816409D02*
D03*
X6624139Y7613678D02*
D03*
X6240722Y6898179D02*
D03*
X6303895Y7591903D02*
D03*
X6360294Y7535658D02*
D03*
Y7479284D02*
D03*
X6518603Y6576101D02*
D03*
Y6522211D02*
D03*
X6712870Y7641247D02*
D03*
X4774529Y7035109D02*
D03*
X5172163Y7024949D02*
D03*
X5250538D02*
D03*
X6278956Y6958348D02*
D03*
X5410934Y6898749D02*
D03*
X6672787Y6306267D02*
D03*
X6328721Y6334034D02*
D03*
X6363241Y6015082D02*
D03*
X6441834Y6770463D02*
D03*
X6328184Y6498660D02*
D03*
X4690934Y5938749D02*
D03*
X6521993Y7263884D02*
D03*
X5570934Y6738749D02*
D03*
X4822546Y5385621D02*
D03*
X6328184Y6414947D02*
D03*
X6200262Y5610242D02*
D03*
Y5534578D02*
D03*
Y5458913D02*
D03*
Y5357849D02*
D03*
Y5292344D02*
D03*
X5570934Y6661289D02*
D03*
X5330934Y6498749D02*
D03*
Y6414939D02*
D03*
X4783072Y7873126D02*
D03*
X4781138Y7802567D02*
D03*
X4960934Y7993222D02*
D03*
X5200935Y7593222D02*
D03*
X4770934Y5938749D02*
D03*
X3681456Y4054137D02*
D03*
X3680740Y4119839D02*
D03*
X4052548Y7334077D02*
D03*
X4705721Y7259218D02*
D03*
X4384443Y7164218D02*
D03*
X4317091Y7089818D02*
D03*
X4290935Y6418749D02*
D03*
X5532571Y5464336D02*
D03*
X4676051Y3748747D02*
D03*
X5385175Y4145458D02*
D03*
X5451320Y4145457D02*
D03*
X5383719Y3768323D02*
D03*
X5451320D02*
D03*
X1661131Y6717914D02*
D03*
X2065435Y5302951D02*
D03*
Y5359141D02*
D03*
Y5471521D02*
D03*
Y5415331D02*
D03*
X1848491Y6197428D02*
D03*
X2064085Y5726253D02*
D03*
Y5954677D02*
D03*
X1895913Y7551392D02*
D03*
Y7480267D02*
D03*
X2237390Y6649033D02*
D03*
X1944726Y5543832D02*
D03*
X2193190Y6603923D02*
D03*
X2301655Y6984833D02*
D03*
X2421408Y7041173D02*
D03*
X2148755Y7272277D02*
D03*
X2310266Y6718469D02*
D03*
X2111715Y6842877D02*
D03*
X2072075Y7401677D02*
D03*
X2421408Y7288288D02*
D03*
X1912937Y5874045D02*
D03*
X4930934Y5778749D02*
D03*
Y5618749D02*
D03*
X1661131Y6659040D02*
D03*
Y6938440D02*
D03*
Y6788441D02*
D03*
Y6847314D02*
D03*
X1361515Y6547060D02*
D03*
X4370935Y6418749D02*
D03*
X4450934Y6258749D02*
D03*
X4039116Y6210446D02*
D03*
X1216902Y6547060D02*
D03*
X4610935Y6738749D02*
D03*
X1289208Y6547060D02*
D03*
X4212047Y6210446D02*
D03*
X1361515Y6397060D02*
D03*
Y6847060D02*
D03*
X3056892Y5155956D02*
D03*
X3135604Y5207882D02*
D03*
X5276066Y4625588D02*
D03*
X5070027D02*
D03*
X5138707D02*
D03*
X5207386D02*
D03*
X5001347D02*
D03*
X4932668D02*
D03*
X4997914Y5226121D02*
D03*
X4917567D02*
D03*
X5410934Y5858749D02*
D03*
X4341222Y4406136D02*
D03*
X4406222D02*
D03*
X5490934Y6178749D02*
D03*
X5410934Y6018749D02*
D03*
X6125830Y5292344D02*
D03*
Y5357849D02*
D03*
X5893704Y4908485D02*
D03*
X6107916Y4809054D02*
D03*
X5708257Y5194118D02*
D03*
X5683928Y5118213D02*
D03*
X6125830Y5534578D02*
D03*
Y5458913D02*
D03*
X5764582Y5145567D02*
D03*
X5814545Y5092377D02*
D03*
X5918883Y4986963D02*
D03*
X5865014Y5037970D02*
D03*
X5736372Y5065781D02*
D03*
X5788816Y5013349D02*
D03*
X5841260Y4960917D02*
D03*
X3942194Y6712593D02*
D03*
X4096760Y6210446D02*
D03*
X3118978Y6520574D02*
D03*
X2888594Y6441005D02*
D03*
X4610935Y6258749D02*
D03*
X4745740Y6198380D02*
D03*
X4711257Y6296046D02*
D03*
X4530935Y6338749D02*
D03*
X2887842Y6831608D02*
D03*
X2791984Y6830198D02*
D03*
X3319211Y6813790D02*
D03*
X4273846Y6734594D02*
D03*
X4108663Y6638906D02*
D03*
X2705059Y6811290D02*
D03*
X3247510D02*
D03*
X3981472Y6210446D02*
D03*
X4610934Y6418749D02*
D03*
X4530935D02*
D03*
X3513738Y6407230D02*
D03*
X3391290Y6475221D02*
D03*
X3552708Y6156538D02*
D03*
X4370935Y6338749D02*
D03*
X2707889Y6441005D02*
D03*
X3923829Y6210446D02*
D03*
X4530934Y5938749D02*
D03*
X4468043Y7803937D02*
D03*
X4373043D02*
D03*
X4720935Y7993222D02*
D03*
X4029738Y7838949D02*
D03*
X4096913Y7906125D02*
D03*
X4154404Y6210446D02*
D03*
X4269691D02*
D03*
X4287285Y6137223D02*
D03*
X3475980Y7622342D02*
D03*
X3385913Y6722390D02*
D03*
X3631436Y7133243D02*
D03*
X4264408Y7088539D02*
D03*
X4625401Y7164218D02*
D03*
X4545082D02*
D03*
X3569562Y7804229D02*
D03*
X3475980Y7441775D02*
D03*
X4172058Y5880517D02*
D03*
X3612193Y3250806D02*
D03*
X3882534Y3897652D02*
D03*
X4252281Y4059652D02*
D03*
X2888949Y5956672D02*
D03*
X4850934Y6818749D02*
D03*
X4699394Y7106252D02*
D03*
Y7036339D02*
D03*
X5010934Y6818749D02*
D03*
X4774529Y7104982D02*
D03*
X4705721Y7164218D02*
D03*
X4786041D02*
D03*
X4690934Y6498749D02*
D03*
X4711082Y6549591D02*
D03*
X4850934Y6738749D02*
D03*
X4930934Y6818749D02*
D03*
X4610935Y6498749D02*
D03*
Y6338749D02*
D03*
X4770935Y6658749D02*
D03*
X4450934D02*
D03*
X4690934D02*
D03*
Y6738749D02*
D03*
X4450934Y6418749D02*
D03*
X3475980Y7717342D02*
D03*
X2920622Y7725079D02*
D03*
X2987129D02*
D03*
X2851575D02*
D03*
X3475980Y7536775D02*
D03*
X3474562Y7804229D02*
D03*
X2945689Y7366325D02*
D03*
X2996355Y7559406D02*
D03*
X4574299Y3038993D02*
D03*
Y3388993D02*
D03*
X3762752Y3496280D02*
D03*
X3841289Y3351081D02*
D03*
X6537208Y7447231D02*
D03*
X6728911Y5069698D02*
D03*
X7186485Y5498084D02*
D03*
X7081037Y5274243D02*
D03*
X5330934Y6018749D02*
D03*
Y6098749D02*
D03*
X5250935Y5938749D02*
D03*
X5903098Y6888017D02*
D03*
Y5990389D02*
D03*
Y6071991D02*
D03*
X5994288Y5990389D02*
D03*
Y6071991D02*
D03*
Y6153594D02*
D03*
X5903098D02*
D03*
Y6235197D02*
D03*
Y6316799D02*
D03*
Y6398402D02*
D03*
X7429117Y2932419D02*
D03*
Y3057419D02*
D03*
Y3182419D02*
D03*
X6487839Y5897579D02*
D03*
X5027144Y5316395D02*
D03*
X5167799Y5226288D02*
D03*
X5010935Y5858749D02*
D03*
X5010934Y5938749D02*
D03*
X5207659Y5622598D02*
D03*
X5121268Y5615326D02*
D03*
X4837221Y5226121D02*
D03*
X5378432Y5222870D02*
D03*
Y5311908D02*
D03*
X5379702Y5386163D02*
D03*
X6730561Y5250302D02*
D03*
X5080800Y5147631D02*
D03*
Y5226121D02*
D03*
X5275856Y5506102D02*
D03*
X3942194Y7029088D02*
D03*
X4169627Y5775163D02*
D03*
Y5695569D02*
D03*
X5669557Y7164218D02*
D03*
X5508917Y7259218D02*
D03*
X5428598D02*
D03*
X5107319Y7164218D02*
D03*
Y7259218D02*
D03*
X5026457Y7259227D02*
D03*
X5027000Y7164218D02*
D03*
X4866360D02*
D03*
X4946680D02*
D03*
Y7259218D02*
D03*
X4866360D02*
D03*
X4786041D02*
D03*
X4545082D02*
D03*
X4143484D02*
D03*
X4537915Y5611352D02*
D03*
X4610934Y5778749D02*
D03*
Y5858749D02*
D03*
X4450934Y6018749D02*
D03*
X4530934D02*
D03*
X4610934D02*
D03*
X4610935Y5938749D02*
D03*
Y5698749D02*
D03*
X4530935Y5778749D02*
D03*
X4535016Y5696571D02*
D03*
X2903943Y5513007D02*
D03*
X4770935Y5698749D02*
D03*
X4850934Y5778749D02*
D03*
X4930934Y5858749D02*
D03*
X4936464Y5946733D02*
D03*
X4770935Y5858749D02*
D03*
X4530935Y6098749D02*
D03*
Y6178749D02*
D03*
X6774981Y6408404D02*
D03*
X7208930Y7613847D02*
D03*
X7464028Y7347060D02*
D03*
X7608641Y7197060D02*
D03*
X7208930Y7463847D02*
D03*
X6536806Y7505420D02*
D03*
X6535595Y7559568D02*
D03*
X6699906Y5894726D02*
D03*
X6700454Y5648031D02*
D03*
X6570590Y5188777D02*
D03*
X6693455Y5347169D02*
D03*
X6893032Y6757950D02*
D03*
X7536334Y7347060D02*
D03*
X7208930Y7522721D02*
D03*
Y7058196D02*
D03*
X7608641Y6897060D02*
D03*
X6834230Y6370466D02*
D03*
X6555078Y5250302D02*
D03*
X6972412Y6502546D02*
D03*
Y6561419D02*
D03*
Y6352546D02*
D03*
Y6411420D02*
D03*
Y6224721D02*
D03*
Y6283594D02*
D03*
X7608641Y6747060D02*
D03*
X7536334D02*
D03*
X7608641Y6597059D02*
D03*
X7536334D02*
D03*
X7608641Y6447060D02*
D03*
X7536334D02*
D03*
X7608641Y6297060D02*
D03*
X7536334D02*
D03*
X7608641Y6147060D02*
D03*
X7536334D02*
D03*
X7208930Y5946895D02*
D03*
Y6005769D02*
D03*
Y5796896D02*
D03*
Y5855769D02*
D03*
Y5669070D02*
D03*
Y5727944D02*
D03*
Y5577944D02*
D03*
Y7672720D02*
D03*
Y6908196D02*
D03*
Y6967070D02*
D03*
Y6630371D02*
D03*
Y6689245D02*
D03*
Y6502546D02*
D03*
Y6561419D02*
D03*
Y6352546D02*
D03*
Y6411420D02*
D03*
Y6224721D02*
D03*
Y6283594D02*
D03*
Y6133595D02*
D03*
Y6074721D02*
D03*
X7608641Y7347060D02*
D03*
X7536334Y7197060D02*
D03*
X7464028Y7047060D02*
D03*
X7536334D02*
D03*
X7608641D02*
D03*
X7464028Y6897060D02*
D03*
X7536334D02*
D03*
X7464028Y6747060D02*
D03*
Y6597060D02*
D03*
Y6447060D02*
D03*
Y6147060D02*
D03*
X7536334Y5997060D02*
D03*
X7608641D02*
D03*
Y5847060D02*
D03*
X7464028D02*
D03*
X3942194Y6633469D02*
D03*
X5040935Y8153222D02*
D03*
X5001252Y7433222D02*
D03*
X4037194Y5604860D02*
D03*
Y7029088D02*
D03*
X4450934Y5938749D02*
D03*
X4320935Y7993222D02*
D03*
X4899233Y8212848D02*
D03*
X4560935Y7993222D02*
D03*
X4560934Y7913222D02*
D03*
X4640935D02*
D03*
X5040935Y7593222D02*
D03*
X4880935Y7433222D02*
D03*
X4720935Y7913222D02*
D03*
X5120935Y7913222D02*
D03*
X4770935Y6738749D02*
D03*
X4690934Y6818749D02*
D03*
X5200934Y7993222D02*
D03*
X4800935Y8073222D02*
D03*
Y7993222D02*
D03*
X5520935D02*
D03*
X4960934Y8153222D02*
D03*
X5520935Y8073222D02*
D03*
X4963605Y7513237D02*
D03*
X4800935Y7593222D02*
D03*
X4800935Y7673222D02*
D03*
X4880935Y7593222D02*
D03*
X5360935Y7913222D02*
D03*
X5903098Y6969622D02*
D03*
X6277295Y6415682D02*
D03*
Y6331534D02*
D03*
Y6750365D02*
D03*
Y6666709D02*
D03*
Y6583052D02*
D03*
Y6834022D02*
D03*
X5490934Y6258749D02*
D03*
X5410934Y6418749D02*
D03*
X5280935Y7993222D02*
D03*
X5490934Y6661289D02*
D03*
X5410935D02*
D03*
X5330934D02*
D03*
X5280935Y8073222D02*
D03*
X4880935Y7513222D02*
D03*
X5280935Y7913222D02*
D03*
X5410934Y6338749D02*
D03*
X5330934D02*
D03*
X4640935Y7993222D02*
D03*
X5650934Y6818749D02*
D03*
X5570934D02*
D03*
X4450934D02*
D03*
X5410934D02*
D03*
X4530935D02*
D03*
X5490934Y6738749D02*
D03*
X5410934Y5778749D02*
D03*
X4610935Y6818749D02*
D03*
X5410934Y6738749D02*
D03*
X4530935D02*
D03*
X4690934Y5778749D02*
D03*
X4450934Y6098749D02*
D03*
X5090934Y5778749D02*
D03*
X5330934Y5938749D02*
D03*
X5410934Y6098749D02*
D03*
X4850934Y5858749D02*
D03*
%TF.MD5,eae040d3f4794744c6ca47c64a67f15f*%
M02*
