%TF.GenerationSoftware,Altium Limited,Altium Designer,26.3.0 (6)*%
G04 Layer_Color=8388736*
%FSLAX45Y45*%
%MOMM*%
%TF.SameCoordinates,04BD6D11-A395-4E8B-9722-6B45B0B9ED9E*%
%TF.FilePolarity,Negative*%
%TF.FileFunction,Soldermask,Top*%
%TF.Part,Single*%
G01*
G75*
%TA.AperFunction,Conductor*%
%ADD10C,0.63500*%
%TA.AperFunction,SMDPad,CuDef*%
%ADD15R,1.45000X1.05000*%
G04:AMPARAMS|DCode=16|XSize=0.35mm|YSize=0.55mm|CornerRadius=0.0875mm|HoleSize=0mm|Usage=FLASHONLY|Rotation=180.000|XOffset=0mm|YOffset=0mm|HoleType=Round|Shape=RoundedRectangle|*
%AMROUNDEDRECTD16*
21,1,0.35000,0.37500,0,0,180.0*
21,1,0.17500,0.55000,0,0,180.0*
1,1,0.17500,-0.08750,0.18750*
1,1,0.17500,0.08750,0.18750*
1,1,0.17500,0.08750,-0.18750*
1,1,0.17500,-0.08750,-0.18750*
%
%ADD16ROUNDEDRECTD16*%
%ADD17R,0.75000X0.90000*%
%ADD18R,0.58000X0.62000*%
%ADD19R,0.80000X0.95000*%
%ADD20R,1.55000X0.60000*%
G04:AMPARAMS|DCode=21|XSize=0.6mm|YSize=1.1mm|CornerRadius=0.15mm|HoleSize=0mm|Usage=FLASHONLY|Rotation=90.000|XOffset=0mm|YOffset=0mm|HoleType=Round|Shape=RoundedRectangle|*
%AMROUNDEDRECTD21*
21,1,0.60000,0.80000,0,0,90.0*
21,1,0.30000,1.10000,0,0,90.0*
1,1,0.30000,0.40000,0.15000*
1,1,0.30000,0.40000,-0.15000*
1,1,0.30000,-0.40000,-0.15000*
1,1,0.30000,-0.40000,0.15000*
%
%ADD21ROUNDEDRECTD21*%
%ADD22R,0.95000X0.80000*%
G04:AMPARAMS|DCode=23|XSize=0.95mm|YSize=0.8mm|CornerRadius=0mm|HoleSize=0mm|Usage=FLASHONLY|Rotation=315.000|XOffset=0mm|YOffset=0mm|HoleType=Round|Shape=Rectangle|*
%AMROTATEDRECTD23*
4,1,4,-0.61872,0.05303,-0.05303,0.61872,0.61872,-0.05303,0.05303,-0.61872,-0.61872,0.05303,0.0*
%
%ADD23ROTATEDRECTD23*%

G04:AMPARAMS|DCode=24|XSize=10.2mm|YSize=3.2mm|CornerRadius=0.16mm|HoleSize=0mm|Usage=FLASHONLY|Rotation=90.000|XOffset=0mm|YOffset=0mm|HoleType=Round|Shape=RoundedRectangle|*
%AMROUNDEDRECTD24*
21,1,10.20000,2.88000,0,0,90.0*
21,1,9.88000,3.20000,0,0,90.0*
1,1,0.32000,1.44000,4.94000*
1,1,0.32000,1.44000,-4.94000*
1,1,0.32000,-1.44000,-4.94000*
1,1,0.32000,-1.44000,4.94000*
%
%ADD24ROUNDEDRECTD24*%
%ADD25R,0.65000X0.75000*%
%ADD26R,4.51000X4.29500*%
%ADD27R,0.65000X0.65500*%
%ADD28R,0.55000X0.55000*%
%ADD29R,0.55000X0.55000*%
G04:AMPARAMS|DCode=30|XSize=0.2mm|YSize=0.7mm|CornerRadius=0.05mm|HoleSize=0mm|Usage=FLASHONLY|Rotation=90.000|XOffset=0mm|YOffset=0mm|HoleType=Round|Shape=RoundedRectangle|*
%AMROUNDEDRECTD30*
21,1,0.20000,0.60000,0,0,90.0*
21,1,0.10000,0.70000,0,0,90.0*
1,1,0.10000,0.30000,0.05000*
1,1,0.10000,0.30000,-0.05000*
1,1,0.10000,-0.30000,-0.05000*
1,1,0.10000,-0.30000,0.05000*
%
%ADD30ROUNDEDRECTD30*%
G04:AMPARAMS|DCode=31|XSize=0.2mm|YSize=0.6mm|CornerRadius=0.05mm|HoleSize=0mm|Usage=FLASHONLY|Rotation=90.000|XOffset=0mm|YOffset=0mm|HoleType=Round|Shape=RoundedRectangle|*
%AMROUNDEDRECTD31*
21,1,0.20000,0.50000,0,0,90.0*
21,1,0.10000,0.60000,0,0,90.0*
1,1,0.10000,0.25000,0.05000*
1,1,0.10000,0.25000,-0.05000*
1,1,0.10000,-0.25000,-0.05000*
1,1,0.10000,-0.25000,0.05000*
%
%ADD31ROUNDEDRECTD31*%
G04:AMPARAMS|DCode=32|XSize=0.2mm|YSize=0.6mm|CornerRadius=0.05mm|HoleSize=0mm|Usage=FLASHONLY|Rotation=0.000|XOffset=0mm|YOffset=0mm|HoleType=Round|Shape=RoundedRectangle|*
%AMROUNDEDRECTD32*
21,1,0.20000,0.50000,0,0,0.0*
21,1,0.10000,0.60000,0,0,0.0*
1,1,0.10000,0.05000,-0.25000*
1,1,0.10000,-0.05000,-0.25000*
1,1,0.10000,-0.05000,0.25000*
1,1,0.10000,0.05000,0.25000*
%
%ADD32ROUNDEDRECTD32*%
%TA.AperFunction,BGAPad,CuDef*%
%ADD33C,0.30000*%
%TA.AperFunction,SMDPad,CuDef*%
G04:AMPARAMS|DCode=34|XSize=0.675mm|YSize=0.2mm|CornerRadius=0.045mm|HoleSize=0mm|Usage=FLASHONLY|Rotation=180.000|XOffset=0mm|YOffset=0mm|HoleType=Round|Shape=RoundedRectangle|*
%AMROUNDEDRECTD34*
21,1,0.67500,0.11000,0,0,180.0*
21,1,0.58500,0.20000,0,0,180.0*
1,1,0.09000,-0.29250,0.05500*
1,1,0.09000,0.29250,0.05500*
1,1,0.09000,0.29250,-0.05500*
1,1,0.09000,-0.29250,-0.05500*
%
%ADD34ROUNDEDRECTD34*%
G04:AMPARAMS|DCode=35|XSize=0.675mm|YSize=0.4mm|CornerRadius=0.09mm|HoleSize=0mm|Usage=FLASHONLY|Rotation=180.000|XOffset=0mm|YOffset=0mm|HoleType=Round|Shape=RoundedRectangle|*
%AMROUNDEDRECTD35*
21,1,0.67500,0.22000,0,0,180.0*
21,1,0.49500,0.40000,0,0,180.0*
1,1,0.18000,-0.24750,0.11000*
1,1,0.18000,0.24750,0.11000*
1,1,0.18000,0.24750,-0.11000*
1,1,0.18000,-0.24750,-0.11000*
%
%ADD35ROUNDEDRECTD35*%
G04:AMPARAMS|DCode=36|XSize=0.45mm|YSize=0.95mm|CornerRadius=0.1125mm|HoleSize=0mm|Usage=FLASHONLY|Rotation=0.000|XOffset=0mm|YOffset=0mm|HoleType=Round|Shape=RoundedRectangle|*
%AMROUNDEDRECTD36*
21,1,0.45000,0.72500,0,0,0.0*
21,1,0.22500,0.95000,0,0,0.0*
1,1,0.22500,0.11250,-0.36250*
1,1,0.22500,-0.11250,-0.36250*
1,1,0.22500,-0.11250,0.36250*
1,1,0.22500,0.11250,0.36250*
%
%ADD36ROUNDEDRECTD36*%
G04:AMPARAMS|DCode=37|XSize=4.6mm|YSize=4.7mm|CornerRadius=0.115mm|HoleSize=0mm|Usage=FLASHONLY|Rotation=0.000|XOffset=0mm|YOffset=0mm|HoleType=Round|Shape=RoundedRectangle|*
%AMROUNDEDRECTD37*
21,1,4.60000,4.47000,0,0,0.0*
21,1,4.37000,4.70000,0,0,0.0*
1,1,0.23000,2.18500,-2.23500*
1,1,0.23000,-2.18500,-2.23500*
1,1,0.23000,-2.18500,2.23500*
1,1,0.23000,2.18500,2.23500*
%
%ADD37ROUNDEDRECTD37*%
%TA.AperFunction,BGAPad,CuDef*%
%ADD38C,0.36000*%
%TA.AperFunction,SMDPad,CuDef*%
%ADD39R,0.62000X0.58000*%
%ADD40C,0.80000*%
%ADD41R,0.40000X0.50000*%
%ADD42R,1.05000X1.45000*%
%ADD43R,0.90000X0.75000*%
G04:AMPARAMS|DCode=44|XSize=0.24mm|YSize=0.6mm|CornerRadius=0.06mm|HoleSize=0mm|Usage=FLASHONLY|Rotation=270.000|XOffset=0mm|YOffset=0mm|HoleType=Round|Shape=RoundedRectangle|*
%AMROUNDEDRECTD44*
21,1,0.24000,0.48000,0,0,270.0*
21,1,0.12000,0.60000,0,0,270.0*
1,1,0.12000,-0.24000,-0.06000*
1,1,0.12000,-0.24000,0.06000*
1,1,0.12000,0.24000,0.06000*
1,1,0.12000,0.24000,-0.06000*
%
%ADD44ROUNDEDRECTD44*%
G04:AMPARAMS|DCode=45|XSize=0.24mm|YSize=0.6mm|CornerRadius=0.06mm|HoleSize=0mm|Usage=FLASHONLY|Rotation=0.000|XOffset=0mm|YOffset=0mm|HoleType=Round|Shape=RoundedRectangle|*
%AMROUNDEDRECTD45*
21,1,0.24000,0.48000,0,0,0.0*
21,1,0.12000,0.60000,0,0,0.0*
1,1,0.12000,0.06000,-0.24000*
1,1,0.12000,-0.06000,-0.24000*
1,1,0.12000,-0.06000,0.24000*
1,1,0.12000,0.06000,0.24000*
%
%ADD45ROUNDEDRECTD45*%
G04:AMPARAMS|DCode=46|XSize=1.68mm|YSize=1.68mm|CornerRadius=0.084mm|HoleSize=0mm|Usage=FLASHONLY|Rotation=270.000|XOffset=0mm|YOffset=0mm|HoleType=Round|Shape=RoundedRectangle|*
%AMROUNDEDRECTD46*
21,1,1.68000,1.51200,0,0,270.0*
21,1,1.51200,1.68000,0,0,270.0*
1,1,0.16800,-0.75600,-0.75600*
1,1,0.16800,-0.75600,0.75600*
1,1,0.16800,0.75600,0.75600*
1,1,0.16800,0.75600,-0.75600*
%
%ADD46ROUNDEDRECTD46*%
%ADD47R,1.60000X2.40000*%
G04:AMPARAMS|DCode=48|XSize=1.5mm|YSize=2.5mm|CornerRadius=0.075mm|HoleSize=0mm|Usage=FLASHONLY|Rotation=90.000|XOffset=0mm|YOffset=0mm|HoleType=Round|Shape=RoundedRectangle|*
%AMROUNDEDRECTD48*
21,1,1.50000,2.35000,0,0,90.0*
21,1,1.35000,2.50000,0,0,90.0*
1,1,0.15000,1.17500,0.67500*
1,1,0.15000,1.17500,-0.67500*
1,1,0.15000,-1.17500,-0.67500*
1,1,0.15000,-1.17500,0.67500*
%
%ADD48ROUNDEDRECTD48*%
%ADD49R,3.40000X1.15000*%
G04:AMPARAMS|DCode=50|XSize=0.175mm|YSize=0.5mm|CornerRadius=0.04375mm|HoleSize=0mm|Usage=FLASHONLY|Rotation=90.000|XOffset=0mm|YOffset=0mm|HoleType=Round|Shape=RoundedRectangle|*
%AMROUNDEDRECTD50*
21,1,0.17500,0.41250,0,0,90.0*
21,1,0.08750,0.50000,0,0,90.0*
1,1,0.08750,0.20625,0.04375*
1,1,0.08750,0.20625,-0.04375*
1,1,0.08750,-0.20625,-0.04375*
1,1,0.08750,-0.20625,0.04375*
%
%ADD50ROUNDEDRECTD50*%
%ADD51R,1.30000X0.30000*%
G04:AMPARAMS|DCode=52|XSize=0.175mm|YSize=0.6mm|CornerRadius=0.04375mm|HoleSize=0mm|Usage=FLASHONLY|Rotation=90.000|XOffset=0mm|YOffset=0mm|HoleType=Round|Shape=RoundedRectangle|*
%AMROUNDEDRECTD52*
21,1,0.17500,0.51250,0,0,90.0*
21,1,0.08750,0.60000,0,0,90.0*
1,1,0.08750,0.25625,0.04375*
1,1,0.08750,0.25625,-0.04375*
1,1,0.08750,-0.25625,-0.04375*
1,1,0.08750,-0.25625,0.04375*
%
%ADD52ROUNDEDRECTD52*%
G04:AMPARAMS|DCode=53|XSize=0.4mm|YSize=0.9mm|CornerRadius=0.05mm|HoleSize=0mm|Usage=FLASHONLY|Rotation=90.000|XOffset=0mm|YOffset=0mm|HoleType=Round|Shape=RoundedRectangle|*
%AMROUNDEDRECTD53*
21,1,0.40000,0.80000,0,0,90.0*
21,1,0.30000,0.90000,0,0,90.0*
1,1,0.10000,0.40000,0.15000*
1,1,0.10000,0.40000,-0.15000*
1,1,0.10000,-0.40000,-0.15000*
1,1,0.10000,-0.40000,0.15000*
%
%ADD53ROUNDEDRECTD53*%
G04:AMPARAMS|DCode=54|XSize=0.45mm|YSize=0.75mm|CornerRadius=0.1125mm|HoleSize=0mm|Usage=FLASHONLY|Rotation=90.000|XOffset=0mm|YOffset=0mm|HoleType=Round|Shape=RoundedRectangle|*
%AMROUNDEDRECTD54*
21,1,0.45000,0.52500,0,0,90.0*
21,1,0.22500,0.75000,0,0,90.0*
1,1,0.22500,0.26250,0.11250*
1,1,0.22500,0.26250,-0.11250*
1,1,0.22500,-0.26250,-0.11250*
1,1,0.22500,-0.26250,0.11250*
%
%ADD54ROUNDEDRECTD54*%
G04:AMPARAMS|DCode=55|XSize=0.16mm|YSize=0.31mm|CornerRadius=0.04mm|HoleSize=0mm|Usage=FLASHONLY|Rotation=270.000|XOffset=0mm|YOffset=0mm|HoleType=Round|Shape=RoundedRectangle|*
%AMROUNDEDRECTD55*
21,1,0.16000,0.23000,0,0,270.0*
21,1,0.08000,0.31000,0,0,270.0*
1,1,0.08000,-0.11500,-0.04000*
1,1,0.08000,-0.11500,0.04000*
1,1,0.08000,0.11500,0.04000*
1,1,0.08000,0.11500,-0.04000*
%
%ADD55ROUNDEDRECTD55*%
G04:AMPARAMS|DCode=56|XSize=0.2mm|YSize=0.3mm|CornerRadius=0.05mm|HoleSize=0mm|Usage=FLASHONLY|Rotation=90.000|XOffset=0mm|YOffset=0mm|HoleType=Round|Shape=RoundedRectangle|*
%AMROUNDEDRECTD56*
21,1,0.20000,0.20000,0,0,90.0*
21,1,0.10000,0.30000,0,0,90.0*
1,1,0.10000,0.10000,0.05000*
1,1,0.10000,0.10000,-0.05000*
1,1,0.10000,-0.10000,-0.05000*
1,1,0.10000,-0.10000,0.05000*
%
%ADD56ROUNDEDRECTD56*%
G04:AMPARAMS|DCode=57|XSize=0.16mm|YSize=0.36mm|CornerRadius=0.04mm|HoleSize=0mm|Usage=FLASHONLY|Rotation=270.000|XOffset=0mm|YOffset=0mm|HoleType=Round|Shape=RoundedRectangle|*
%AMROUNDEDRECTD57*
21,1,0.16000,0.28000,0,0,270.0*
21,1,0.08000,0.36000,0,0,270.0*
1,1,0.08000,-0.14000,-0.04000*
1,1,0.08000,-0.14000,0.04000*
1,1,0.08000,0.14000,0.04000*
1,1,0.08000,0.14000,-0.04000*
%
%ADD57ROUNDEDRECTD57*%
G04:AMPARAMS|DCode=58|XSize=0.2mm|YSize=0.7mm|CornerRadius=0.05mm|HoleSize=0mm|Usage=FLASHONLY|Rotation=180.000|XOffset=0mm|YOffset=0mm|HoleType=Round|Shape=RoundedRectangle|*
%AMROUNDEDRECTD58*
21,1,0.20000,0.60000,0,0,180.0*
21,1,0.10000,0.70000,0,0,180.0*
1,1,0.10000,-0.05000,0.30000*
1,1,0.10000,0.05000,0.30000*
1,1,0.10000,0.05000,-0.30000*
1,1,0.10000,-0.05000,-0.30000*
%
%ADD58ROUNDEDRECTD58*%
%TA.AperFunction,BGAPad,CuDef*%
%ADD59C,0.25000*%
%TA.AperFunction,SMDPad,CuDef*%
%ADD60R,0.56000X0.62000*%
G04:AMPARAMS|DCode=61|XSize=0.9mm|YSize=0.8mm|CornerRadius=0.2mm|HoleSize=0mm|Usage=FLASHONLY|Rotation=0.000|XOffset=0mm|YOffset=0mm|HoleType=Round|Shape=RoundedRectangle|*
%AMROUNDEDRECTD61*
21,1,0.90000,0.40000,0,0,0.0*
21,1,0.50000,0.80000,0,0,0.0*
1,1,0.40000,0.25000,-0.20000*
1,1,0.40000,-0.25000,-0.20000*
1,1,0.40000,-0.25000,0.20000*
1,1,0.40000,0.25000,0.20000*
%
%ADD61ROUNDEDRECTD61*%
G04:AMPARAMS|DCode=62|XSize=0.4mm|YSize=0.85mm|CornerRadius=0.1mm|HoleSize=0mm|Usage=FLASHONLY|Rotation=0.000|XOffset=0mm|YOffset=0mm|HoleType=Round|Shape=RoundedRectangle|*
%AMROUNDEDRECTD62*
21,1,0.40000,0.65000,0,0,0.0*
21,1,0.20000,0.85000,0,0,0.0*
1,1,0.20000,0.10000,-0.32500*
1,1,0.20000,-0.10000,-0.32500*
1,1,0.20000,-0.10000,0.32500*
1,1,0.20000,0.10000,0.32500*
%
%ADD62ROUNDEDRECTD62*%
G04:AMPARAMS|DCode=63|XSize=0.25mm|YSize=0.35mm|CornerRadius=0.0625mm|HoleSize=0mm|Usage=FLASHONLY|Rotation=90.000|XOffset=0mm|YOffset=0mm|HoleType=Round|Shape=RoundedRectangle|*
%AMROUNDEDRECTD63*
21,1,0.25000,0.22500,0,0,90.0*
21,1,0.12500,0.35000,0,0,90.0*
1,1,0.12500,0.11250,0.06250*
1,1,0.12500,0.11250,-0.06250*
1,1,0.12500,-0.11250,-0.06250*
1,1,0.12500,-0.11250,0.06250*
%
%ADD63ROUNDEDRECTD63*%
G04:AMPARAMS|DCode=64|XSize=0.25mm|YSize=0.4mm|CornerRadius=0.0625mm|HoleSize=0mm|Usage=FLASHONLY|Rotation=90.000|XOffset=0mm|YOffset=0mm|HoleType=Round|Shape=RoundedRectangle|*
%AMROUNDEDRECTD64*
21,1,0.25000,0.27500,0,0,90.0*
21,1,0.12500,0.40000,0,0,90.0*
1,1,0.12500,0.13750,0.06250*
1,1,0.12500,0.13750,-0.06250*
1,1,0.12500,-0.13750,-0.06250*
1,1,0.12500,-0.13750,0.06250*
%
%ADD64ROUNDEDRECTD64*%
%ADD65R,0.35000X0.25000*%
%ADD66R,0.25000X0.35000*%
G04:AMPARAMS|DCode=67|XSize=1mm|YSize=2mm|CornerRadius=0.05mm|HoleSize=0mm|Usage=FLASHONLY|Rotation=180.000|XOffset=0mm|YOffset=0mm|HoleType=Round|Shape=RoundedRectangle|*
%AMROUNDEDRECTD67*
21,1,1.00000,1.90000,0,0,180.0*
21,1,0.90000,2.00000,0,0,180.0*
1,1,0.10000,-0.45000,0.95000*
1,1,0.10000,0.45000,0.95000*
1,1,0.10000,0.45000,-0.95000*
1,1,0.10000,-0.45000,-0.95000*
%
%ADD67ROUNDEDRECTD67*%
G04:AMPARAMS|DCode=68|XSize=0.675mm|YSize=0.4mm|CornerRadius=0.09mm|HoleSize=0mm|Usage=FLASHONLY|Rotation=270.000|XOffset=0mm|YOffset=0mm|HoleType=Round|Shape=RoundedRectangle|*
%AMROUNDEDRECTD68*
21,1,0.67500,0.22000,0,0,270.0*
21,1,0.49500,0.40000,0,0,270.0*
1,1,0.18000,-0.11000,-0.24750*
1,1,0.18000,-0.11000,0.24750*
1,1,0.18000,0.11000,0.24750*
1,1,0.18000,0.11000,-0.24750*
%
%ADD68ROUNDEDRECTD68*%
G04:AMPARAMS|DCode=69|XSize=5.15mm|YSize=5.15mm|CornerRadius=0.12875mm|HoleSize=0mm|Usage=FLASHONLY|Rotation=90.000|XOffset=0mm|YOffset=0mm|HoleType=Round|Shape=RoundedRectangle|*
%AMROUNDEDRECTD69*
21,1,5.15000,4.89250,0,0,90.0*
21,1,4.89250,5.15000,0,0,90.0*
1,1,0.25750,2.44625,2.44625*
1,1,0.25750,2.44625,-2.44625*
1,1,0.25750,-2.44625,-2.44625*
1,1,0.25750,-2.44625,2.44625*
%
%ADD69ROUNDEDRECTD69*%
G04:AMPARAMS|DCode=70|XSize=0.35mm|YSize=0.55mm|CornerRadius=0.0875mm|HoleSize=0mm|Usage=FLASHONLY|Rotation=90.000|XOffset=0mm|YOffset=0mm|HoleType=Round|Shape=RoundedRectangle|*
%AMROUNDEDRECTD70*
21,1,0.35000,0.37500,0,0,90.0*
21,1,0.17500,0.55000,0,0,90.0*
1,1,0.17500,0.18750,0.08750*
1,1,0.17500,0.18750,-0.08750*
1,1,0.17500,-0.18750,-0.08750*
1,1,0.17500,-0.18750,0.08750*
%
%ADD70ROUNDEDRECTD70*%
%ADD71R,1.70000X1.15000*%
%ADD72R,2.40000X1.60000*%
G04:AMPARAMS|DCode=73|XSize=0.675mm|YSize=0.2mm|CornerRadius=0.045mm|HoleSize=0mm|Usage=FLASHONLY|Rotation=270.000|XOffset=0mm|YOffset=0mm|HoleType=Round|Shape=RoundedRectangle|*
%AMROUNDEDRECTD73*
21,1,0.67500,0.11000,0,0,270.0*
21,1,0.58500,0.20000,0,0,270.0*
1,1,0.09000,-0.05500,-0.29250*
1,1,0.09000,-0.05500,0.29250*
1,1,0.09000,0.05500,0.29250*
1,1,0.09000,0.05500,-0.29250*
%
%ADD73ROUNDEDRECTD73*%
%ADD74P,0.77782X4X180.0*%
G04:AMPARAMS|DCode=75|XSize=0.2mm|YSize=0.35mm|CornerRadius=0.05mm|HoleSize=0mm|Usage=FLASHONLY|Rotation=90.000|XOffset=0mm|YOffset=0mm|HoleType=Round|Shape=RoundedRectangle|*
%AMROUNDEDRECTD75*
21,1,0.20000,0.25000,0,0,90.0*
21,1,0.10000,0.35000,0,0,90.0*
1,1,0.10000,0.12500,0.05000*
1,1,0.10000,0.12500,-0.05000*
1,1,0.10000,-0.12500,-0.05000*
1,1,0.10000,-0.12500,0.05000*
%
%ADD75ROUNDEDRECTD75*%
%TA.AperFunction,BGAPad,CuDef*%
%ADD76C,0.76200*%
%TA.AperFunction,SMDPad,CuDef*%
%ADD77R,1.60000X2.00000*%
%ADD78C,1.00000*%
%TA.AperFunction,ComponentPad*%
%ADD85C,2.50000*%
%ADD86C,6.00000*%
%ADD87C,4.25000*%
%ADD88O,3.00000X1.75000*%
%TA.AperFunction,OtherPad,Free Pad (69.228mm,8.789mm)*%
%ADD113C,3.00000*%
%TA.AperFunction,OtherPad,Free Pad (18.961mm,78.092mm)*%
%ADD114C,3.00000*%
G36*
X5475374Y4180538D02*
X5475373Y3866538D01*
X5413873Y3866538D01*
X5413874Y4180539D01*
X5475374Y4180538D01*
D02*
G37*
G36*
X5939874Y4180535D02*
X5939873Y3739535D01*
X5584873Y3739538D01*
X5584875Y4180538D01*
X5939874Y4180535D01*
D02*
G37*
G36*
X5810376Y3635946D02*
X5810374Y3194946D01*
X5455374Y3194950D01*
X5455376Y3635950D01*
X5810376Y3635946D01*
D02*
G37*
G36*
X5981375Y3508946D02*
X5981374Y3194946D01*
X5919874Y3194946D01*
X5919875Y3508946D01*
X5981375Y3508946D01*
D02*
G37*
G36*
X5810376Y3065958D02*
X5810374Y2624958D01*
X5455374Y2624961D01*
X5455376Y3065961D01*
X5810376Y3065958D01*
D02*
G37*
G36*
X5981375Y2938958D02*
X5981374Y2624958D01*
X5919874Y2624958D01*
X5919875Y2938958D01*
X5981375Y2938958D01*
D02*
G37*
G36*
X5475374Y2508673D02*
X5475373Y2194673D01*
X5413873Y2194674D01*
X5413874Y2508674D01*
X5475374Y2508673D01*
D02*
G37*
G36*
X5939874Y2508670D02*
X5939873Y2067670D01*
X5584873Y2067674D01*
X5584875Y2508673D01*
X5939874Y2508670D01*
D02*
G37*
G36*
X5475374Y1951385D02*
X5475373Y1637385D01*
X5413873Y1637386D01*
X5413874Y1951386D01*
X5475374Y1951385D01*
D02*
G37*
G36*
X5939874Y1951382D02*
X5939873Y1510382D01*
X5584873Y1510385D01*
X5584875Y1951385D01*
X5939874Y1951382D01*
D02*
G37*
G36*
X2719503Y1793890D02*
X2719502Y1479890D01*
X2658002Y1479890D01*
X2658003Y1793890D01*
X2719503Y1793890D01*
D02*
G37*
G36*
X3184003Y1793887D02*
X3184001Y1352887D01*
X2829001Y1352890D01*
X2829003Y1793890D01*
X3184003Y1793887D01*
D02*
G37*
G36*
X5810376Y1394093D02*
X5810374Y953094D01*
X5455374Y953097D01*
X5455376Y1394097D01*
X5810376Y1394093D01*
D02*
G37*
G36*
X5981375Y1267093D02*
X5981374Y953093D01*
X5919874Y953094D01*
X5919875Y1267094D01*
X5981375Y1267093D01*
D02*
G37*
D10*
X1165522Y4056313D02*
G03*
X965875Y4303829I-252753J405D01*
G01*
X965877Y3809603D02*
G03*
X1091496Y3877992I-53105J247111D01*
G01*
X3565658Y8353613D02*
G03*
X4060009Y8354217I247111J53105D01*
G01*
X7413364Y609675D02*
G03*
X7860404Y1056715I0J447040D01*
G01*
X966324D02*
G03*
X1413364Y609675I447040J0D01*
G01*
X1412771Y8503758D02*
G03*
X965731Y8056718I0J-447040D01*
G01*
X7860404Y8056715D02*
G03*
X7413364Y8503755I-447040J0D01*
G01*
X7017674D02*
X7413364D01*
X7017674Y8353967D02*
Y8503755D01*
X7012594Y8353967D02*
X7017674D01*
X4212592Y8353966D02*
X6812593D01*
Y8353967D02*
X7012594D01*
X2743100Y811004D02*
X2932940D01*
X3134269Y609675D01*
X3213362D01*
X5813363D02*
X6013363D01*
X6213363D01*
X3813362D02*
X4013362D01*
X5613363D02*
X5813363D01*
X3613362D02*
X3813362D01*
X4213362D02*
X4413363D01*
X4613363D01*
X4813363D01*
X5013363D01*
X5213363D01*
X5413363D01*
X5613363D01*
X3413362D02*
X3613362D01*
X4013362D02*
X4213362D01*
X6213363D02*
X6413364D01*
X6613364D01*
X6813364D01*
X7013364D01*
X7213364D01*
X7413364D01*
X3213362D02*
X3413362D01*
X965731Y3708794D02*
Y3809603D01*
Y4503221D02*
Y4703221D01*
X7861023Y2057334D02*
Y2213493D01*
X7860404Y2056715D02*
X7861023Y2057334D01*
X1675088Y609675D02*
X1692544D01*
X1791939Y709069D01*
X965731Y4303972D02*
X965875Y4303829D01*
X965731Y3508794D02*
Y3708794D01*
X4059615Y8352392D02*
X4061189Y8353967D01*
X4212592D01*
X3565305D02*
X3565658Y8353613D01*
X3480592Y8353967D02*
X3565305D01*
X965731Y7879820D02*
Y8056718D01*
Y5103221D02*
Y5303221D01*
Y7303222D02*
Y7503222D01*
Y7703223D01*
Y7879820D01*
Y4903221D02*
Y5103221D01*
Y5303221D02*
Y5503221D01*
Y6503222D02*
Y6703222D01*
Y6903222D02*
Y7103222D01*
Y7303222D01*
Y4703221D02*
Y4903221D01*
Y5503221D02*
Y5703222D01*
Y5903222D01*
Y6103222D01*
Y6303222D01*
Y6503222D01*
Y6703222D02*
Y6903222D01*
X7860404Y1856716D02*
Y2056715D01*
Y1656715D02*
Y1856716D01*
Y1456715D02*
Y1656715D01*
Y1256715D02*
Y1456715D01*
Y1056715D02*
Y1256715D01*
X2543100Y811004D02*
X2743100D01*
X2343100D02*
X2543100D01*
X1943099D02*
X2143100D01*
X2343100D01*
X1791939Y709069D02*
X1891333Y808464D01*
Y811004D02*
X1943099D01*
X1413364Y609675D02*
X1675088D01*
X965731Y1508793D02*
Y1708793D01*
Y1908793D01*
Y2908794D02*
Y3108794D01*
Y3308794D01*
Y3508794D01*
Y1308793D02*
Y1508793D01*
Y1908793D02*
Y2108793D01*
Y2308793D01*
Y2508793D01*
Y2708793D01*
Y2908794D01*
Y1056715D02*
Y1308793D01*
Y1056715D02*
X966324D01*
X965731Y4303972D02*
Y4503221D01*
X1681366Y8503755D02*
X1811022D01*
X1880592Y8353967D02*
X2080592D01*
X1811022D02*
Y8503755D01*
Y8353967D02*
X1880592D01*
X3080592D02*
X3280592D01*
X2880592D02*
X3080592D01*
X2680592D02*
X2880592D01*
X2280592D02*
X2480592D01*
X2680592D01*
X2080592D02*
X2280592D01*
X3280592D02*
X3480592D01*
X1412771Y8503755D02*
X1681366D01*
X7859284Y2402895D02*
Y2602895D01*
Y3402895D02*
Y3602896D01*
Y3802896D01*
Y4602896D02*
Y4802896D01*
Y5002896D01*
Y5202896D01*
Y5402896D01*
Y6802897D02*
Y7002897D01*
Y3202895D02*
Y3402895D01*
Y4002896D02*
Y4202896D01*
Y4402896D01*
Y4602896D01*
Y6002897D02*
Y6202897D01*
Y6402897D01*
Y6602897D02*
Y6802897D01*
Y7202897D02*
Y7402898D01*
Y2802895D02*
Y3002895D01*
Y3202895D01*
Y3802896D02*
Y4002896D01*
Y5402896D02*
Y5602896D01*
Y5802897D01*
Y6002897D01*
Y6402897D02*
Y6602897D01*
Y7002897D02*
Y7202897D01*
Y7402898D02*
Y7602898D01*
Y7802898D01*
Y8056715D01*
Y2602895D02*
Y2802895D01*
D15*
X3403076Y2103208D02*
D03*
X3398581Y3245125D02*
D03*
Y3430125D02*
D03*
X2307649Y3448537D02*
D03*
X2307649Y3263537D02*
D03*
X3403076Y2288208D02*
D03*
D16*
X4271799Y2936493D02*
D03*
X4221799D02*
D03*
X4471799Y3591493D02*
D03*
X3971799D02*
D03*
X4421799D02*
D03*
X4021799D02*
D03*
X3971799Y2936493D02*
D03*
X4021799D02*
D03*
X4071799D02*
D03*
X4121799D02*
D03*
X4171799D02*
D03*
X4321799D02*
D03*
X4371799D02*
D03*
X4421799D02*
D03*
X4471799D02*
D03*
X4521799D02*
D03*
Y3591493D02*
D03*
X4371799D02*
D03*
X4321799D02*
D03*
X4271799D02*
D03*
X4221799D02*
D03*
X4171799D02*
D03*
X4121799D02*
D03*
X4071799D02*
D03*
D17*
X3754226Y2503278D02*
D03*
X2846490Y3896218D02*
D03*
X3011490D02*
D03*
X1902838Y3650219D02*
D03*
X2067838D02*
D03*
Y3787887D02*
D03*
X1902838D02*
D03*
X3011490Y3764565D02*
D03*
X2846490D02*
D03*
X5279864Y5489765D02*
D03*
X5114864D02*
D03*
X3589227Y2503278D02*
D03*
D18*
X4221004Y2768819D02*
D03*
X6464454Y5711639D02*
D03*
X6560454D02*
D03*
X6745419D02*
D03*
X6649419D02*
D03*
X6463690Y4569549D02*
D03*
X6367690D02*
D03*
X2118417Y1332846D02*
D03*
X2022417D02*
D03*
X2982829Y3648505D02*
D03*
X2886828D02*
D03*
X6621239Y7756994D02*
D03*
X6523313D02*
D03*
X6807822Y7089079D02*
D03*
Y7180523D02*
D03*
X6649419Y5806842D02*
D03*
X6560454D02*
D03*
X6636886Y4977891D02*
D03*
X6424255Y5343670D02*
D03*
X6454532Y4977892D02*
D03*
X6368178D02*
D03*
X4400647Y5468319D02*
D03*
X3960594D02*
D03*
X2705844Y5511268D02*
D03*
X6717239Y7756994D02*
D03*
X6427313D02*
D03*
X6903822Y7180523D02*
D03*
Y7089079D02*
D03*
X6745419Y5806842D02*
D03*
X6464454D02*
D03*
X6520255Y5343670D02*
D03*
X6732886Y4977891D02*
D03*
X6550532Y4977892D02*
D03*
X6272178D02*
D03*
X4496647Y5468319D02*
D03*
X4056594D02*
D03*
X2609844Y5511268D02*
D03*
X4125004Y2768819D02*
D03*
X4020207D02*
D03*
X3924207D02*
D03*
D19*
X5146906Y3019580D02*
D03*
X5149182Y3241483D02*
D03*
X3750012Y2361627D02*
D03*
X4161256Y2627604D02*
D03*
X3996257D02*
D03*
X3585012Y2361627D02*
D03*
X3193582Y3596502D02*
D03*
X3358582D02*
D03*
X4984182Y3241483D02*
D03*
X4981906Y3019580D02*
D03*
D20*
X5397874Y983094D02*
D03*
Y1110094D02*
D03*
Y1237094D02*
D03*
Y1364094D02*
D03*
Y983094D02*
D03*
Y1110094D02*
D03*
Y1237094D02*
D03*
Y1364094D02*
D03*
D03*
Y1237094D02*
D03*
Y1110094D02*
D03*
Y983094D02*
D03*
Y2654958D02*
D03*
Y2781958D02*
D03*
Y2908958D02*
D03*
Y3035958D02*
D03*
D03*
Y2908958D02*
D03*
Y2781958D02*
D03*
Y2654958D02*
D03*
Y3035958D02*
D03*
Y2908958D02*
D03*
Y2781958D02*
D03*
Y2654958D02*
D03*
Y3224947D02*
D03*
Y3351947D02*
D03*
Y3478947D02*
D03*
Y3605947D02*
D03*
D03*
Y3478947D02*
D03*
Y3351947D02*
D03*
Y3224947D02*
D03*
Y3605947D02*
D03*
Y3478947D02*
D03*
Y3351947D02*
D03*
Y3224947D02*
D03*
X3241503Y1763890D02*
D03*
Y1636890D02*
D03*
Y1509890D02*
D03*
Y1382890D02*
D03*
D03*
Y1509890D02*
D03*
Y1636890D02*
D03*
Y1763890D02*
D03*
Y1382890D02*
D03*
Y1509890D02*
D03*
Y1636890D02*
D03*
Y1763890D02*
D03*
X5997374Y4150538D02*
D03*
Y4023538D02*
D03*
Y3896538D02*
D03*
Y3769538D02*
D03*
X5397875D02*
D03*
Y3896538D02*
D03*
Y4023538D02*
D03*
Y4150538D02*
D03*
X5997374D02*
D03*
Y4023538D02*
D03*
Y3896538D02*
D03*
Y3769538D02*
D03*
X5397875D02*
D03*
Y3896538D02*
D03*
Y4023538D02*
D03*
Y4150538D02*
D03*
D03*
Y4023538D02*
D03*
Y3896538D02*
D03*
Y3769538D02*
D03*
X5997374D02*
D03*
Y3896538D02*
D03*
Y4023538D02*
D03*
Y4150538D02*
D03*
X2642003Y1382890D02*
D03*
D03*
D03*
Y1509890D02*
D03*
Y1636890D02*
D03*
Y1763890D02*
D03*
D03*
Y1636890D02*
D03*
Y1509890D02*
D03*
Y1763890D02*
D03*
Y1636890D02*
D03*
Y1509890D02*
D03*
X5997374Y3605947D02*
D03*
Y3478947D02*
D03*
Y3351947D02*
D03*
Y3224947D02*
D03*
Y3605947D02*
D03*
Y3478947D02*
D03*
Y3351947D02*
D03*
Y3224947D02*
D03*
D03*
Y3351947D02*
D03*
Y3478947D02*
D03*
Y3605947D02*
D03*
Y3035958D02*
D03*
D03*
D03*
Y2908958D02*
D03*
Y2781958D02*
D03*
Y2654958D02*
D03*
D03*
Y2781958D02*
D03*
Y2908958D02*
D03*
Y2654958D02*
D03*
Y2781958D02*
D03*
Y2908958D02*
D03*
X5397875Y2097673D02*
D03*
Y2224673D02*
D03*
Y2351673D02*
D03*
Y2478673D02*
D03*
Y2097673D02*
D03*
Y2224673D02*
D03*
Y2351673D02*
D03*
Y2478673D02*
D03*
D03*
Y2351673D02*
D03*
Y2224673D02*
D03*
Y2097673D02*
D03*
X5997374Y2478673D02*
D03*
Y2351673D02*
D03*
Y2224673D02*
D03*
Y2097673D02*
D03*
D03*
Y2224673D02*
D03*
Y2351673D02*
D03*
Y2478673D02*
D03*
Y2097673D02*
D03*
Y2224673D02*
D03*
Y2351673D02*
D03*
Y2478673D02*
D03*
X5997374Y1364094D02*
D03*
Y1237094D02*
D03*
Y1110094D02*
D03*
Y983094D02*
D03*
D03*
Y1110094D02*
D03*
Y1237094D02*
D03*
Y1364094D02*
D03*
Y983094D02*
D03*
Y1110094D02*
D03*
Y1237094D02*
D03*
Y1364094D02*
D03*
X5997374Y1921385D02*
D03*
Y1794385D02*
D03*
Y1667385D02*
D03*
Y1540385D02*
D03*
X5397875D02*
D03*
Y1667385D02*
D03*
Y1794385D02*
D03*
Y1921385D02*
D03*
X5997374D02*
D03*
Y1794385D02*
D03*
Y1667385D02*
D03*
Y1540385D02*
D03*
X5397875D02*
D03*
Y1667385D02*
D03*
Y1794385D02*
D03*
Y1921385D02*
D03*
D03*
Y1794385D02*
D03*
Y1667385D02*
D03*
Y1540385D02*
D03*
X5997374D02*
D03*
Y1667385D02*
D03*
Y1794385D02*
D03*
Y1921385D02*
D03*
D21*
X3190932Y1958295D02*
D03*
X6352358Y8074067D02*
D03*
X6092358Y7979067D02*
D03*
Y8074066D02*
D03*
Y7884067D02*
D03*
X6352358Y7884067D02*
D03*
X5983597Y4519363D02*
D03*
Y4329363D02*
D03*
X6243597D02*
D03*
X5983597Y4424363D02*
D03*
X6243597Y4519363D02*
D03*
X1851427Y1760423D02*
D03*
X2111427D02*
D03*
X2111427Y1570423D02*
D03*
X2111427Y1665423D02*
D03*
X1851427Y1570423D02*
D03*
X3302719Y2977929D02*
D03*
X3042719Y2882929D02*
D03*
X3302719Y3072929D02*
D03*
Y2882929D02*
D03*
X3042719Y3072929D02*
D03*
Y2977929D02*
D03*
X2048471Y4898152D02*
D03*
X2308471D02*
D03*
Y4708152D02*
D03*
Y4803152D02*
D03*
X2048471Y4708152D02*
D03*
X3190932Y2053295D02*
D03*
X2930932D02*
D03*
X2930931Y2148295D02*
D03*
Y1958295D02*
D03*
X3190931Y2148295D02*
D03*
D22*
X5188597Y1010602D02*
D03*
X4655634D02*
D03*
Y1175602D02*
D03*
X5188597Y1175602D02*
D03*
X2616411Y3652782D02*
D03*
Y3817782D02*
D03*
X3746863Y2777924D02*
D03*
Y2612924D02*
D03*
D23*
X4157617Y1286767D02*
D03*
X3909136Y1533402D02*
D03*
X4025808Y1650074D02*
D03*
X4274289Y1403439D02*
D03*
D24*
X2398203Y2340450D02*
D03*
D25*
X2495241Y2924016D02*
D03*
X2623907D02*
D03*
X2752574D02*
D03*
X2881241D02*
D03*
D26*
X2688241Y3233101D02*
D03*
D27*
X2881241Y3479339D02*
D03*
X2752574D02*
D03*
X2623907D02*
D03*
X2495241D02*
D03*
D28*
X4304123Y7164218D02*
D03*
Y7259218D02*
D03*
X4223803Y7164218D02*
D03*
Y7259218D02*
D03*
X3566684Y6721441D02*
D03*
Y6816442D02*
D03*
X3566900Y7080392D02*
D03*
Y7175392D02*
D03*
Y7622342D02*
D03*
Y7717342D02*
D03*
Y7257273D02*
D03*
Y7352273D02*
D03*
Y7441775D02*
D03*
Y7536775D02*
D03*
Y6903510D02*
D03*
Y6998510D02*
D03*
X5464556Y5398211D02*
D03*
Y5303211D02*
D03*
X3091318Y5418048D02*
D03*
Y5513048D02*
D03*
X3261876Y5418048D02*
D03*
Y5513048D02*
D03*
X3006039Y5418048D02*
D03*
Y5513048D02*
D03*
X3176597Y5418048D02*
D03*
Y5513048D02*
D03*
X5972026Y7878444D02*
D03*
Y7973445D02*
D03*
X5830196Y7163438D02*
D03*
Y7258438D02*
D03*
X5910515Y7163438D02*
D03*
Y7258438D02*
D03*
X6550441Y4574374D02*
D03*
X6550440Y4479373D02*
D03*
X1714478Y1802425D02*
D03*
Y1707425D02*
D03*
X5860134Y4514831D02*
D03*
Y4419831D02*
D03*
X2434946Y4803246D02*
D03*
X2434947Y4708245D02*
D03*
X1912292Y4940568D02*
D03*
Y4845568D02*
D03*
X2830690Y4010989D02*
D03*
Y4105990D02*
D03*
X6816929Y5155302D02*
D03*
X3476833Y6817390D02*
D03*
X4855984Y5479004D02*
D03*
X4398718Y5374961D02*
D03*
X3960979Y5374075D02*
D03*
X2888949Y6346005D02*
D03*
X4027200Y3824439D02*
D03*
X6122156Y5185343D02*
D03*
Y5090342D02*
D03*
X4724205Y3543414D02*
D03*
Y3638414D02*
D03*
X1944726Y5361944D02*
D03*
Y5266944D02*
D03*
X3476833Y6722390D02*
D03*
X2888949Y6441005D02*
D03*
X4464762Y7164218D02*
D03*
Y7259218D02*
D03*
X2888949Y6249514D02*
D03*
Y6154513D02*
D03*
X4027200Y3729439D02*
D03*
X4630019Y4287496D02*
D03*
Y4192496D02*
D03*
X4718324Y4287496D02*
D03*
Y4192496D02*
D03*
X6816929Y5250302D02*
D03*
X5167799Y5226288D02*
D03*
Y5131288D02*
D03*
X4855984Y5384003D02*
D03*
X3475980Y7622342D02*
D03*
X5080800Y5226121D02*
D03*
Y5131121D02*
D03*
X4837221Y5226121D02*
D03*
Y5131121D02*
D03*
X4997914D02*
D03*
Y5226121D02*
D03*
X4917567D02*
D03*
Y5131121D02*
D03*
X4545082Y7164218D02*
D03*
Y7259218D02*
D03*
X4143484D02*
D03*
Y7164218D02*
D03*
X2888949Y6051672D02*
D03*
Y5956672D02*
D03*
X2146678Y6193414D02*
D03*
Y6098414D02*
D03*
Y6373665D02*
D03*
Y6278665D02*
D03*
X6834230Y6189214D02*
D03*
Y5826710D02*
D03*
Y6275466D02*
D03*
Y6007962D02*
D03*
X4384443Y7164218D02*
D03*
Y7259218D02*
D03*
X4625401D02*
D03*
Y7164218D02*
D03*
X5187639D02*
D03*
Y7259218D02*
D03*
X5267958D02*
D03*
Y7164218D02*
D03*
X5348278Y7259218D02*
D03*
Y7164218D02*
D03*
X4705721D02*
D03*
Y7259218D02*
D03*
X5589237D02*
D03*
Y7164218D02*
D03*
X5107319D02*
D03*
Y7259218D02*
D03*
X5508917D02*
D03*
Y7164218D02*
D03*
X5669557D02*
D03*
Y7259218D02*
D03*
X4946680Y7164218D02*
D03*
Y7259218D02*
D03*
X4866360Y7164218D02*
D03*
Y7259218D02*
D03*
X5027000Y7164218D02*
D03*
Y7259218D02*
D03*
X5428598Y7164218D02*
D03*
Y7259218D02*
D03*
X4786041Y7164218D02*
D03*
Y7259218D02*
D03*
X5749876Y7258438D02*
D03*
Y7163438D02*
D03*
X3475980Y7352273D02*
D03*
Y7257273D02*
D03*
Y7175392D02*
D03*
Y7080392D02*
D03*
X3960979Y5279075D02*
D03*
X4398718Y5279961D02*
D03*
X3475980Y7536775D02*
D03*
Y7441775D02*
D03*
Y6998510D02*
D03*
Y6903510D02*
D03*
X3385913Y6817390D02*
D03*
Y6722390D02*
D03*
X3475980Y7717342D02*
D03*
X4469819Y2754843D02*
D03*
Y2659843D02*
D03*
X4333021Y2754843D02*
D03*
Y2659843D02*
D03*
X5708332Y5303211D02*
D03*
Y5398211D02*
D03*
X5545815Y5303211D02*
D03*
Y5398211D02*
D03*
X5028509Y5380003D02*
D03*
Y5475003D02*
D03*
X3924273Y4340563D02*
D03*
Y4435563D02*
D03*
X5789591Y5303211D02*
D03*
Y5398211D02*
D03*
X5627073Y5303211D02*
D03*
Y5398211D02*
D03*
X4037820Y4340563D02*
D03*
Y4435563D02*
D03*
X4151368Y4340563D02*
D03*
Y4435563D02*
D03*
X6834230Y5645458D02*
D03*
Y5550458D02*
D03*
Y5731710D02*
D03*
Y6094214D02*
D03*
Y5912962D02*
D03*
Y6370466D02*
D03*
X1944726Y5543832D02*
D03*
Y5448832D02*
D03*
X4755685Y2824419D02*
D03*
Y2919419D02*
D03*
X4252281Y3964651D02*
D03*
Y4059652D02*
D03*
X3923883Y4161540D02*
D03*
Y4256540D02*
D03*
X4037788Y4161540D02*
D03*
Y4256540D02*
D03*
X4151693Y4161540D02*
D03*
Y4256540D02*
D03*
X4339990Y3963713D02*
D03*
Y4058713D02*
D03*
D29*
X4469553Y7341848D02*
D03*
X4374553D02*
D03*
X5282659Y5131288D02*
D03*
X5998098Y6235197D02*
D03*
X3942929Y6094341D02*
D03*
X4037929D02*
D03*
X5873555Y8078976D02*
D03*
X6336695Y7765800D02*
D03*
X6241695D02*
D03*
X6158840D02*
D03*
X6063840D02*
D03*
X5968555Y8078976D02*
D03*
X6367373Y4482381D02*
D03*
X6462374D02*
D03*
X2756904Y1191065D02*
D03*
X2661904D02*
D03*
X2020815Y1433495D02*
D03*
X2115815D02*
D03*
X1934390D02*
D03*
X1839390D02*
D03*
X5764329Y4328863D02*
D03*
X5859329D02*
D03*
X6635386Y4612782D02*
D03*
X6730386D02*
D03*
X6203062Y4724683D02*
D03*
X6108062D02*
D03*
X2528118Y4896345D02*
D03*
X2433117D02*
D03*
X1975982Y3967663D02*
D03*
X2070982D02*
D03*
X3010481Y4106473D02*
D03*
X2915481D02*
D03*
X5998131Y7078464D02*
D03*
X5903130D02*
D03*
X3152510Y6720842D02*
D03*
X2971693D02*
D03*
X2790876D02*
D03*
X2610059D02*
D03*
X3667752Y3579929D02*
D03*
Y3496280D02*
D03*
X3679915Y3118551D02*
D03*
X6621349Y6369036D02*
D03*
X6598455Y5347169D02*
D03*
X6592092Y6847287D02*
D03*
X6497092D02*
D03*
X6521993Y7266424D02*
D03*
X6426992D02*
D03*
X6694217Y7264993D02*
D03*
X6599217D02*
D03*
X1827268Y5277811D02*
D03*
X1732268D02*
D03*
X4037194Y7266459D02*
D03*
X3942194D02*
D03*
X2705059Y6720842D02*
D03*
X2885876D02*
D03*
X3066693D02*
D03*
X2705059Y6811290D02*
D03*
X2610059D02*
D03*
X3247510D02*
D03*
X3152510D02*
D03*
X2885876D02*
D03*
X2790876D02*
D03*
X3066693D02*
D03*
X2971693D02*
D03*
X3247510Y6720842D02*
D03*
X3942194Y5931181D02*
D03*
X4037194D02*
D03*
X3942194Y6791717D02*
D03*
X3942929Y6012761D02*
D03*
X4037929D02*
D03*
X4037194Y6791717D02*
D03*
X6774156Y5347169D02*
D03*
X6693455D02*
D03*
X6869156D02*
D03*
X5903098Y6153594D02*
D03*
X5998098D02*
D03*
X5377660Y5131288D02*
D03*
X6730561Y5250302D02*
D03*
X3942194Y5686440D02*
D03*
X4037194D02*
D03*
X2808943Y5513047D02*
D03*
X2903943D02*
D03*
X6716349Y6369036D02*
D03*
X6824956Y5443984D02*
D03*
X4037194Y5768020D02*
D03*
X3942194D02*
D03*
X4037194Y6393371D02*
D03*
X3942194D02*
D03*
X4037194Y6712593D02*
D03*
X3942194D02*
D03*
X4037194Y6633469D02*
D03*
X3942194D02*
D03*
Y6870840D02*
D03*
X4037194D02*
D03*
X3942194Y7029088D02*
D03*
X4037194D02*
D03*
X3942194Y7187336D02*
D03*
X4037194D02*
D03*
X3942194Y7108212D02*
D03*
X4037194D02*
D03*
Y5604860D02*
D03*
X3942194D02*
D03*
X4037194Y5849601D02*
D03*
X3942194D02*
D03*
X5903098Y6316799D02*
D03*
X5998098D02*
D03*
X5903098Y6235197D02*
D03*
X5998098Y6071991D02*
D03*
X5903098D02*
D03*
X5998098Y5990389D02*
D03*
X5903098D02*
D03*
X5283432Y5220330D02*
D03*
X5378432D02*
D03*
X5903098Y6806415D02*
D03*
X5998098D02*
D03*
X5903098Y6724812D02*
D03*
X5998098D02*
D03*
X5903098Y6561607D02*
D03*
X5998098D02*
D03*
X5903098Y6643209D02*
D03*
X5998098D02*
D03*
X5903098Y6480004D02*
D03*
X5998098D02*
D03*
X6635386Y4703421D02*
D03*
X6730386D02*
D03*
X6635386Y4793744D02*
D03*
X6730386D02*
D03*
Y4884068D02*
D03*
X6635386D02*
D03*
X6108062Y4807511D02*
D03*
X6203062D02*
D03*
X6460078Y5250302D02*
D03*
X6555078D02*
D03*
X6635561D02*
D03*
X3474562Y7804229D02*
D03*
X3569562D02*
D03*
X5378432Y5309368D02*
D03*
X5283432D02*
D03*
X5998098Y6888017D02*
D03*
X5903098D02*
D03*
X5378432Y5392513D02*
D03*
X5283432D02*
D03*
X5998098Y6969620D02*
D03*
X5903098D02*
D03*
X5998098Y6398402D02*
D03*
X5903098D02*
D03*
X4171854Y5464819D02*
D03*
X4266854D02*
D03*
X4696320D02*
D03*
X4601320D02*
D03*
X6919956Y5443984D02*
D03*
X4851258Y3244092D02*
D03*
X4756258D02*
D03*
X4850965Y3161812D02*
D03*
X4755965D02*
D03*
X3762752Y3579929D02*
D03*
Y3496280D02*
D03*
X3774915Y3118551D02*
D03*
D30*
X6446639Y7562225D02*
D03*
X6609152Y6985151D02*
D03*
X6752191Y7562225D02*
D03*
D31*
X6441639Y7522225D02*
D03*
Y7482225D02*
D03*
Y7442225D02*
D03*
X6601639D02*
D03*
Y7482225D02*
D03*
Y7522225D02*
D03*
Y7562225D02*
D03*
X6614152Y7065151D02*
D03*
Y7025151D02*
D03*
X6454152Y7105151D02*
D03*
Y6985151D02*
D03*
Y7065151D02*
D03*
Y7025151D02*
D03*
X6614152Y7105151D02*
D03*
X6535780Y4838870D02*
D03*
X6211454Y5122845D02*
D03*
X6371454D02*
D03*
X6295780Y4838870D02*
D03*
X6211454Y5162845D02*
D03*
Y5202845D02*
D03*
X6371454D02*
D03*
Y5162845D02*
D03*
X6907191Y7562225D02*
D03*
Y7522225D02*
D03*
Y7482225D02*
D03*
Y7442225D02*
D03*
X6747191D02*
D03*
Y7482225D02*
D03*
Y7522225D02*
D03*
X6535780Y4798870D02*
D03*
Y4758870D02*
D03*
Y4718870D02*
D03*
X6295780D02*
D03*
Y4758870D02*
D03*
Y4798870D02*
D03*
D32*
X6541639Y7382225D02*
D03*
X6461639D02*
D03*
X6581639D02*
D03*
X6501639Y7622225D02*
D03*
Y7382225D02*
D03*
X6581639Y7622225D02*
D03*
X6541639D02*
D03*
X6461639D02*
D03*
X6887191D02*
D03*
X6847191D02*
D03*
X6807191Y7382225D02*
D03*
X6767191Y7622225D02*
D03*
X6594152Y7165151D02*
D03*
X6395780Y4858870D02*
D03*
X6435780D02*
D03*
X6271454Y5222845D02*
D03*
X6311454D02*
D03*
X6554152Y7165151D02*
D03*
X6474152D02*
D03*
Y6925151D02*
D03*
X6514152D02*
D03*
X6554152D02*
D03*
X6594152D02*
D03*
X6514152Y7165151D02*
D03*
X6807191Y7622225D02*
D03*
X6887191Y7382225D02*
D03*
X6767191D02*
D03*
X6475780Y4698870D02*
D03*
X6355780Y4858870D02*
D03*
X6395780Y4698870D02*
D03*
X6435780D02*
D03*
X6311454Y5102845D02*
D03*
X6847191Y7382225D02*
D03*
X6355780Y4698870D02*
D03*
D33*
X5370934Y6538749D02*
D03*
X4570934Y6218749D02*
D03*
X5290935Y5818749D02*
D03*
X5370934Y6938749D02*
D03*
X5610934Y6538749D02*
D03*
X5290935D02*
D03*
Y6378749D02*
D03*
Y6218749D02*
D03*
Y6458749D02*
D03*
Y6138749D02*
D03*
X4810934Y6938749D02*
D03*
X4730934D02*
D03*
X4490934D02*
D03*
X5210934Y6618749D02*
D03*
X5130934D02*
D03*
X5050935D02*
D03*
X4970934D02*
D03*
X4890934D02*
D03*
X4810934D02*
D03*
X4650935Y6458749D02*
D03*
Y6298749D02*
D03*
Y6058749D02*
D03*
X5210934Y5978749D02*
D03*
X5130934D02*
D03*
X5050935D02*
D03*
X4890934D02*
D03*
X4810934D02*
D03*
X4730934D02*
D03*
X4410935Y5658749D02*
D03*
X4330934Y6058749D02*
D03*
X5450934Y6938749D02*
D03*
Y6858749D02*
D03*
Y6778749D02*
D03*
X5610934Y6938749D02*
D03*
X5290935Y6858749D02*
D03*
X5130934Y6778749D02*
D03*
X5210934D02*
D03*
X5530934Y6538749D02*
D03*
X5450934Y5898749D02*
D03*
X5130934Y6458749D02*
D03*
Y6378749D02*
D03*
X5450934Y6218749D02*
D03*
X5130934D02*
D03*
Y6298749D02*
D03*
Y6138749D02*
D03*
X5610934Y5658749D02*
D03*
X5370934D02*
D03*
X5290935D02*
D03*
X5050935Y6778749D02*
D03*
X4970934Y6938749D02*
D03*
X4810934Y6858749D02*
D03*
X4970934D02*
D03*
X4490934D02*
D03*
Y6618749D02*
D03*
X5050935Y6378749D02*
D03*
Y6458749D02*
D03*
Y6298749D02*
D03*
X4970934Y6218749D02*
D03*
Y6378749D02*
D03*
Y6458749D02*
D03*
Y6298749D02*
D03*
X5050935Y6218749D02*
D03*
Y6138749D02*
D03*
X4970934D02*
D03*
X4890934Y6378749D02*
D03*
Y6298749D02*
D03*
Y6458749D02*
D03*
X4810934D02*
D03*
X4490934Y6378749D02*
D03*
X4810934D02*
D03*
Y6298749D02*
D03*
X4890934Y6138749D02*
D03*
Y6218749D02*
D03*
X4810934Y6138749D02*
D03*
Y6218749D02*
D03*
X4410935Y6058749D02*
D03*
X4330934Y6938749D02*
D03*
X4970934Y5818749D02*
D03*
X4810934Y5738749D02*
D03*
X4730934D02*
D03*
Y5658749D02*
D03*
X4410935Y5738749D02*
D03*
X4330934Y5658749D02*
D03*
X5130934Y6698749D02*
D03*
X4650935Y5898749D02*
D03*
X4490934Y6538749D02*
D03*
X5610934Y5738749D02*
D03*
X4890934D02*
D03*
Y5658749D02*
D03*
X4410935Y6378749D02*
D03*
X4490934Y6298749D02*
D03*
X4650935Y6698749D02*
D03*
X4490934Y6218749D02*
D03*
Y5898749D02*
D03*
X4330934D02*
D03*
X4410935Y6618749D02*
D03*
X5050935Y5658749D02*
D03*
X4730934Y6778749D02*
D03*
X4810934Y6698749D02*
D03*
X4890934D02*
D03*
X5370934Y6218749D02*
D03*
X5450934Y6298749D02*
D03*
Y6138749D02*
D03*
X5610934Y6378749D02*
D03*
X4330934Y5738749D02*
D03*
Y5818749D02*
D03*
Y5978749D02*
D03*
Y6138749D02*
D03*
Y6218749D02*
D03*
Y6298749D02*
D03*
Y6378749D02*
D03*
Y6458749D02*
D03*
Y6538749D02*
D03*
Y6618749D02*
D03*
Y6698749D02*
D03*
Y6778749D02*
D03*
Y6858749D02*
D03*
X4410935Y5818749D02*
D03*
Y5898749D02*
D03*
Y5978749D02*
D03*
Y6138749D02*
D03*
Y6218749D02*
D03*
Y6298749D02*
D03*
Y6458749D02*
D03*
Y6538749D02*
D03*
Y6698749D02*
D03*
Y6778749D02*
D03*
Y6858749D02*
D03*
Y6938749D02*
D03*
X4490934Y5658749D02*
D03*
Y5738749D02*
D03*
Y5818749D02*
D03*
Y5978749D02*
D03*
Y6058749D02*
D03*
Y6138749D02*
D03*
Y6458749D02*
D03*
Y6698749D02*
D03*
Y6778749D02*
D03*
X4570934Y5658749D02*
D03*
Y5738749D02*
D03*
Y5818749D02*
D03*
Y5898749D02*
D03*
Y5978749D02*
D03*
Y6058749D02*
D03*
Y6138749D02*
D03*
Y6298749D02*
D03*
Y6378749D02*
D03*
Y6458749D02*
D03*
Y6538749D02*
D03*
Y6618749D02*
D03*
Y6698749D02*
D03*
Y6778749D02*
D03*
Y6858749D02*
D03*
Y6938749D02*
D03*
X4650935Y5658749D02*
D03*
Y5738749D02*
D03*
Y5818749D02*
D03*
Y5978749D02*
D03*
Y6138749D02*
D03*
Y6218749D02*
D03*
Y6378749D02*
D03*
Y6538749D02*
D03*
Y6618749D02*
D03*
Y6778749D02*
D03*
Y6858749D02*
D03*
Y6938749D02*
D03*
X4730934Y5818749D02*
D03*
Y5898749D02*
D03*
Y6618749D02*
D03*
Y6698749D02*
D03*
Y6858749D02*
D03*
X4810934Y5658749D02*
D03*
Y5818749D02*
D03*
Y5898749D02*
D03*
Y6778749D02*
D03*
X4890934Y5818749D02*
D03*
Y5898749D02*
D03*
Y6778749D02*
D03*
Y6858749D02*
D03*
Y6938749D02*
D03*
X4970934Y5658749D02*
D03*
Y5738749D02*
D03*
Y5898749D02*
D03*
Y5978749D02*
D03*
Y6698749D02*
D03*
Y6778749D02*
D03*
X5050935Y5738749D02*
D03*
Y5818749D02*
D03*
Y5898749D02*
D03*
Y6698749D02*
D03*
Y6858749D02*
D03*
Y6938749D02*
D03*
X5130934Y5658749D02*
D03*
Y5738749D02*
D03*
Y5818749D02*
D03*
Y5898749D02*
D03*
Y6858749D02*
D03*
Y6938749D02*
D03*
X5210934Y5658749D02*
D03*
Y5738749D02*
D03*
Y5818749D02*
D03*
Y5898749D02*
D03*
Y6698749D02*
D03*
Y6858749D02*
D03*
Y6938749D02*
D03*
X5290935Y5738749D02*
D03*
Y5898749D02*
D03*
Y5978749D02*
D03*
Y6058749D02*
D03*
Y6298749D02*
D03*
Y6618749D02*
D03*
Y6698749D02*
D03*
Y6778749D02*
D03*
Y6938749D02*
D03*
X5370934Y5738749D02*
D03*
Y5818749D02*
D03*
Y5898749D02*
D03*
Y5978749D02*
D03*
Y6058749D02*
D03*
Y6138749D02*
D03*
Y6298749D02*
D03*
Y6378749D02*
D03*
Y6458749D02*
D03*
Y6618749D02*
D03*
Y6698749D02*
D03*
Y6778749D02*
D03*
Y6858749D02*
D03*
X5450934Y5658749D02*
D03*
Y5738749D02*
D03*
Y5818749D02*
D03*
Y5978749D02*
D03*
Y6058749D02*
D03*
Y6378749D02*
D03*
Y6458749D02*
D03*
Y6538749D02*
D03*
Y6618749D02*
D03*
Y6698749D02*
D03*
X5530934Y5658749D02*
D03*
Y5738749D02*
D03*
Y5818749D02*
D03*
Y5898749D02*
D03*
Y5978749D02*
D03*
Y6058749D02*
D03*
Y6138749D02*
D03*
Y6218749D02*
D03*
Y6298749D02*
D03*
Y6378749D02*
D03*
Y6458749D02*
D03*
Y6618749D02*
D03*
Y6698749D02*
D03*
Y6778749D02*
D03*
Y6858749D02*
D03*
Y6938749D02*
D03*
X5610934Y5818749D02*
D03*
Y5898749D02*
D03*
Y5978749D02*
D03*
Y6058749D02*
D03*
Y6138749D02*
D03*
Y6218749D02*
D03*
Y6298749D02*
D03*
Y6458749D02*
D03*
Y6618749D02*
D03*
Y6698749D02*
D03*
Y6778749D02*
D03*
Y6858749D02*
D03*
D34*
X7046921Y7670823D02*
D03*
X7134421D02*
D03*
X7046921Y7520824D02*
D03*
X7134421D02*
D03*
X7046921Y7470824D02*
D03*
X7134421D02*
D03*
X7046921Y7620823D02*
D03*
X7134421D02*
D03*
X7046921Y7237918D02*
D03*
Y7187919D02*
D03*
Y7337918D02*
D03*
Y7387918D02*
D03*
X7134421D02*
D03*
Y7337918D02*
D03*
Y7187919D02*
D03*
Y7237918D02*
D03*
X1735640Y7401677D02*
D03*
Y7351677D02*
D03*
Y7501677D02*
D03*
Y7551677D02*
D03*
X1823140D02*
D03*
Y7501677D02*
D03*
Y7351677D02*
D03*
Y7401677D02*
D03*
Y6942877D02*
D03*
Y6992877D02*
D03*
Y6842877D02*
D03*
Y6792877D02*
D03*
X1735640D02*
D03*
Y6842877D02*
D03*
Y6992877D02*
D03*
Y6942877D02*
D03*
X3774202Y3350806D02*
D03*
Y3400805D02*
D03*
Y3250806D02*
D03*
Y3200806D02*
D03*
X3686702D02*
D03*
Y3250806D02*
D03*
Y3400805D02*
D03*
Y3350806D02*
D03*
X7134421Y7062633D02*
D03*
X7046921D02*
D03*
X6822145Y4824359D02*
D03*
Y4874359D02*
D03*
Y4724359D02*
D03*
Y4674359D02*
D03*
X6909645D02*
D03*
Y4724359D02*
D03*
Y4874359D02*
D03*
Y4824359D02*
D03*
X7134421Y5851332D02*
D03*
Y5801333D02*
D03*
Y5951332D02*
D03*
Y6001332D02*
D03*
X7046921D02*
D03*
Y5951332D02*
D03*
Y5801333D02*
D03*
Y5851332D02*
D03*
X7134421Y6962633D02*
D03*
Y6912633D02*
D03*
Y7112633D02*
D03*
X7046921D02*
D03*
Y6912633D02*
D03*
Y6962633D02*
D03*
X7134421Y6684808D02*
D03*
Y6634808D02*
D03*
Y6784808D02*
D03*
Y6834808D02*
D03*
X7046921D02*
D03*
Y6784808D02*
D03*
Y6634808D02*
D03*
Y6684808D02*
D03*
X7134421Y6406983D02*
D03*
Y6356983D02*
D03*
Y6506983D02*
D03*
Y6556983D02*
D03*
X7046921D02*
D03*
Y6506983D02*
D03*
Y6356983D02*
D03*
Y6406983D02*
D03*
X7134421Y6129158D02*
D03*
Y6079158D02*
D03*
Y6229157D02*
D03*
Y6279157D02*
D03*
X7046921D02*
D03*
Y6229157D02*
D03*
Y6079158D02*
D03*
Y6129158D02*
D03*
X7134421Y5573507D02*
D03*
Y5523507D02*
D03*
Y5673507D02*
D03*
Y5723507D02*
D03*
X7046921D02*
D03*
Y5673507D02*
D03*
Y5523507D02*
D03*
Y5573507D02*
D03*
X1735640Y6104677D02*
D03*
Y6154677D02*
D03*
Y6004677D02*
D03*
Y5954677D02*
D03*
X1823140D02*
D03*
Y6004677D02*
D03*
Y6154677D02*
D03*
Y6104677D02*
D03*
X1735640Y6384077D02*
D03*
Y6434077D02*
D03*
Y6284077D02*
D03*
Y6234077D02*
D03*
X1823140D02*
D03*
Y6284077D02*
D03*
Y6434077D02*
D03*
Y6384077D02*
D03*
X1735640Y5545877D02*
D03*
Y5595877D02*
D03*
Y5445877D02*
D03*
Y5395877D02*
D03*
X1823140D02*
D03*
Y5445877D02*
D03*
Y5595877D02*
D03*
Y5545877D02*
D03*
X1735640Y5825277D02*
D03*
Y5875277D02*
D03*
Y5725277D02*
D03*
Y5675277D02*
D03*
X1823140D02*
D03*
Y5725277D02*
D03*
Y5875277D02*
D03*
Y5825277D02*
D03*
X1735640Y7222277D02*
D03*
Y7272277D02*
D03*
Y7122277D02*
D03*
Y7072277D02*
D03*
X1823140D02*
D03*
Y7122277D02*
D03*
Y7272277D02*
D03*
Y7222277D02*
D03*
X1735640Y6663477D02*
D03*
Y6713477D02*
D03*
Y6563477D02*
D03*
Y6513477D02*
D03*
X1823140D02*
D03*
Y6563477D02*
D03*
Y6713477D02*
D03*
Y6663477D02*
D03*
D35*
X7046921Y7570824D02*
D03*
X7134421D02*
D03*
X7046921Y7287918D02*
D03*
X7134421D02*
D03*
Y7012633D02*
D03*
X7046921D02*
D03*
X7134421Y6734808D02*
D03*
X7046921D02*
D03*
X7134421Y6456983D02*
D03*
Y6179158D02*
D03*
Y5901332D02*
D03*
Y5623507D02*
D03*
X7046921Y6456983D02*
D03*
Y6179158D02*
D03*
Y5901332D02*
D03*
Y5623507D02*
D03*
X6909645Y4774359D02*
D03*
X6822145D02*
D03*
X1735640Y7451677D02*
D03*
X1823140D02*
D03*
Y7172277D02*
D03*
Y6892877D02*
D03*
X1735640Y7172277D02*
D03*
Y6892877D02*
D03*
X1823140Y6613477D02*
D03*
X1735640D02*
D03*
X1823140Y6334077D02*
D03*
X1735640D02*
D03*
X1823140Y6054677D02*
D03*
X1735640D02*
D03*
X3774202Y3300806D02*
D03*
X1823140Y5495877D02*
D03*
Y5775277D02*
D03*
X1735640D02*
D03*
Y5495877D02*
D03*
X3686702Y3300806D02*
D03*
D36*
X2707889Y5664149D02*
D03*
X2326889Y6438149D02*
D03*
X2707889D02*
D03*
X2326889Y5664149D02*
D03*
X2580889D02*
D03*
X2453889Y6438149D02*
D03*
X2580889D02*
D03*
X2453889Y5664149D02*
D03*
X3198774D02*
D03*
X3071774Y6438149D02*
D03*
X3452774Y5664149D02*
D03*
Y6438149D02*
D03*
X3325774D02*
D03*
X3198774D02*
D03*
X3325774Y5664149D02*
D03*
X3071774D02*
D03*
D37*
X2517389Y6051149D02*
D03*
X3262274D02*
D03*
D38*
X5000935Y7633222D02*
D03*
X5320935Y8113222D02*
D03*
X5480935Y7953222D02*
D03*
X5400935D02*
D03*
Y7553222D02*
D03*
X5240935Y8113222D02*
D03*
X5160935Y7953222D02*
D03*
Y7473222D02*
D03*
X4760935Y8113222D02*
D03*
X4600935D02*
D03*
X4520935D02*
D03*
X4680935Y7473222D02*
D03*
X4440935Y7953222D02*
D03*
X4360935D02*
D03*
X4440935Y7553222D02*
D03*
X5160935Y8113222D02*
D03*
X5400935Y7633222D02*
D03*
Y8033222D02*
D03*
X5480935Y7633222D02*
D03*
X5160935D02*
D03*
X5320935Y7473222D02*
D03*
X5240935D02*
D03*
X4680935Y8113222D02*
D03*
X4440935Y8033222D02*
D03*
Y7633222D02*
D03*
X4760935Y7473222D02*
D03*
X4600935D02*
D03*
X4520935D02*
D03*
X4360935Y7633222D02*
D03*
X4760935Y8033222D02*
D03*
X4600935Y7633222D02*
D03*
X4920935Y8033222D02*
D03*
X5000935Y7473222D02*
D03*
X4920935Y7553222D02*
D03*
X4840935Y7633222D02*
D03*
X4920935Y7473222D02*
D03*
X4360935D02*
D03*
Y7553222D02*
D03*
Y8033222D02*
D03*
Y8113222D02*
D03*
X4440935Y7473222D02*
D03*
Y8113222D02*
D03*
X4520935Y7553222D02*
D03*
Y7633222D02*
D03*
Y7953222D02*
D03*
Y8033222D02*
D03*
X4600935Y7553222D02*
D03*
Y7953222D02*
D03*
Y8033222D02*
D03*
X4680935Y7553222D02*
D03*
Y7633222D02*
D03*
Y7953222D02*
D03*
Y8033222D02*
D03*
X4760935Y7553222D02*
D03*
Y7633222D02*
D03*
Y7953222D02*
D03*
X4840935Y7473222D02*
D03*
Y7553222D02*
D03*
Y7953222D02*
D03*
Y8033222D02*
D03*
Y8113222D02*
D03*
X4920935Y7633222D02*
D03*
Y7953222D02*
D03*
Y8113222D02*
D03*
X5000935Y7553222D02*
D03*
Y7953222D02*
D03*
Y8033222D02*
D03*
Y8113222D02*
D03*
X5080935Y7473222D02*
D03*
Y7553222D02*
D03*
Y7633222D02*
D03*
Y7953222D02*
D03*
Y8033222D02*
D03*
Y8113222D02*
D03*
X5160935Y7553222D02*
D03*
Y8033222D02*
D03*
X5240935Y7553222D02*
D03*
Y7633222D02*
D03*
Y7953222D02*
D03*
Y8033222D02*
D03*
X5320935Y7553222D02*
D03*
Y7633222D02*
D03*
Y7953222D02*
D03*
Y8033222D02*
D03*
X5400935Y7473222D02*
D03*
Y8113222D02*
D03*
X5480935Y7473222D02*
D03*
Y7553222D02*
D03*
Y8033222D02*
D03*
Y8113222D02*
D03*
D39*
X5880526Y7879944D02*
D03*
X5880525Y7975945D02*
D03*
X6481629Y7979750D02*
D03*
Y8075750D02*
D03*
X1717978Y1605512D02*
D03*
Y1509512D02*
D03*
X5770128Y4515332D02*
D03*
Y4419331D02*
D03*
X2527928Y4708504D02*
D03*
Y4804504D02*
D03*
X1915791Y4759094D02*
D03*
Y4663094D02*
D03*
X2784771Y2112439D02*
D03*
Y2016439D02*
D03*
X3440081Y2977518D02*
D03*
Y3073518D02*
D03*
X2133803Y3478608D02*
D03*
Y3382608D02*
D03*
X3386639Y5513548D02*
D03*
Y5417548D02*
D03*
X6910954Y7737214D02*
D03*
X6815617D02*
D03*
X6708238Y7084946D02*
D03*
X6965481Y5056681D02*
D03*
X6708238Y6992201D02*
D03*
X6636906Y5067576D02*
D03*
X6342018Y5340864D02*
D03*
X4545214Y4189995D02*
D03*
X6696991Y6650839D02*
D03*
Y6746839D02*
D03*
Y6557963D02*
D03*
X6604397Y6650839D02*
D03*
Y6557033D02*
D03*
X6815617Y7833214D02*
D03*
X6910954D02*
D03*
X6708238Y7180946D02*
D03*
Y6896201D02*
D03*
X6604397Y6746839D02*
D03*
X6696991Y6461963D02*
D03*
X6604397Y6461033D02*
D03*
X6728911Y5165698D02*
D03*
X6636906Y5163576D02*
D03*
X6965481Y4960681D02*
D03*
X6342018Y5436864D02*
D03*
X4948287Y5381503D02*
D03*
X4545214Y4285995D02*
D03*
X6728911Y5069698D02*
D03*
X4948287Y5477503D02*
D03*
D40*
X6730268Y4511426D02*
D03*
X2227243Y1219192D02*
D03*
X6481629Y7872537D02*
D03*
D41*
X2755841Y1107720D02*
D03*
X2665681D02*
D03*
X3010666Y4013241D02*
D03*
X2920506D02*
D03*
D42*
X3228790Y3251123D02*
D03*
X3043790D02*
D03*
X3228723Y3437169D02*
D03*
X3043723D02*
D03*
X2068208Y4300411D02*
D03*
X1883208D02*
D03*
X2068208Y4117828D02*
D03*
X1883208D02*
D03*
X2787830Y4333728D02*
D03*
X2972830D02*
D03*
X2787830Y4516311D02*
D03*
X2972830D02*
D03*
X2030179Y1990071D02*
D03*
X1845179D02*
D03*
D43*
X3441867Y2617143D02*
D03*
X3441866Y2452144D02*
D03*
X3599363Y2615447D02*
D03*
Y2780447D02*
D03*
D44*
X3407330Y3801865D02*
D03*
X3127330Y3951865D02*
D03*
Y3801865D02*
D03*
Y3851865D02*
D03*
Y3901865D02*
D03*
X3407330D02*
D03*
Y3951865D02*
D03*
Y3851865D02*
D03*
X2194708Y3857335D02*
D03*
X2474708Y3707335D02*
D03*
Y3757335D02*
D03*
X2194708Y3707335D02*
D03*
Y3757335D02*
D03*
Y3807335D02*
D03*
X2474708D02*
D03*
Y3857335D02*
D03*
X6487174Y5966544D02*
D03*
Y6016544D02*
D03*
Y6066544D02*
D03*
Y6116544D02*
D03*
Y6166544D02*
D03*
Y6216544D02*
D03*
X6717174D02*
D03*
Y6166544D02*
D03*
Y6116544D02*
D03*
Y6066544D02*
D03*
Y6016544D02*
D03*
Y5966544D02*
D03*
D45*
X3342330Y3736865D02*
D03*
X3292330D02*
D03*
X3242330D02*
D03*
X3192330D02*
D03*
Y4016865D02*
D03*
X3242330D02*
D03*
X3292330D02*
D03*
X3342330D02*
D03*
X2409708Y3922335D02*
D03*
X2359708D02*
D03*
X2309708D02*
D03*
X2259708D02*
D03*
Y3642335D02*
D03*
X2309708D02*
D03*
X2359708D02*
D03*
X2409708D02*
D03*
X6627174Y5926544D02*
D03*
X6577174D02*
D03*
X6627174Y6256544D02*
D03*
X6577174D02*
D03*
D46*
X3267330Y3876865D02*
D03*
X2334708Y3782335D02*
D03*
D47*
X1661716Y3792374D02*
D03*
Y4177374D02*
D03*
D48*
X2422721Y4067515D02*
D03*
Y4437515D02*
D03*
X3287479Y4169483D02*
D03*
Y4539482D02*
D03*
D49*
X5066097Y3435076D02*
D03*
Y4035076D02*
D03*
Y2256821D02*
D03*
Y2856821D02*
D03*
Y1894466D02*
D03*
Y1294466D02*
D03*
D50*
X6913968Y6997281D02*
D03*
X6823968Y6927281D02*
D03*
Y6962281D02*
D03*
Y6892281D02*
D03*
X6913968D02*
D03*
Y6927281D02*
D03*
Y6962281D02*
D03*
D51*
X7354141Y5697445D02*
D03*
Y5747444D02*
D03*
X1471402Y7097445D02*
D03*
Y7147445D02*
D03*
X7354141Y7197445D02*
D03*
Y5997444D02*
D03*
Y5647445D02*
D03*
Y6297445D02*
D03*
Y5597444D02*
D03*
X1471402Y7247445D02*
D03*
Y7197445D02*
D03*
Y5647445D02*
D03*
Y6947445D02*
D03*
Y6897445D02*
D03*
Y6547445D02*
D03*
Y6647445D02*
D03*
Y6497445D02*
D03*
Y6597445D02*
D03*
X7354141Y5797445D02*
D03*
Y7347445D02*
D03*
Y7247444D02*
D03*
Y7297444D02*
D03*
Y6947445D02*
D03*
X1471402Y7397445D02*
D03*
Y5447445D02*
D03*
Y5497445D02*
D03*
Y5547445D02*
D03*
Y5597445D02*
D03*
Y5697445D02*
D03*
Y5747445D02*
D03*
Y5797445D02*
D03*
Y5847445D02*
D03*
Y5897445D02*
D03*
Y5947445D02*
D03*
Y5997445D02*
D03*
Y6047445D02*
D03*
Y6097445D02*
D03*
Y6147445D02*
D03*
Y6197445D02*
D03*
Y6247445D02*
D03*
Y6297445D02*
D03*
Y6347445D02*
D03*
Y6397445D02*
D03*
Y6447445D02*
D03*
Y6697445D02*
D03*
Y6747445D02*
D03*
Y6797445D02*
D03*
Y6847445D02*
D03*
Y6997445D02*
D03*
Y7047445D02*
D03*
Y7297445D02*
D03*
Y7347445D02*
D03*
X7354141Y5447445D02*
D03*
Y7397445D02*
D03*
Y7147445D02*
D03*
Y7097445D02*
D03*
Y7047444D02*
D03*
Y6997444D02*
D03*
Y6897445D02*
D03*
Y6847445D02*
D03*
Y6797444D02*
D03*
Y6747444D02*
D03*
Y6697445D02*
D03*
Y6647445D02*
D03*
Y6597445D02*
D03*
Y6547444D02*
D03*
Y6497444D02*
D03*
Y6447445D02*
D03*
Y6397445D02*
D03*
Y6347445D02*
D03*
Y6247444D02*
D03*
Y6197445D02*
D03*
Y6147445D02*
D03*
Y6097444D02*
D03*
Y6047445D02*
D03*
Y5947445D02*
D03*
Y5897445D02*
D03*
Y5847444D02*
D03*
Y5547445D02*
D03*
Y5497444D02*
D03*
D52*
X6828968Y6997281D02*
D03*
D53*
X6700454Y5587931D02*
D03*
X6480454D02*
D03*
Y5522931D02*
D03*
Y5457931D02*
D03*
X6700454D02*
D03*
Y5522931D02*
D03*
D54*
X6916037Y5154391D02*
D03*
X7081037Y5204391D02*
D03*
X6916037Y5254391D02*
D03*
D55*
X6482939Y5115836D02*
D03*
Y5080836D02*
D03*
X6537939Y5115836D02*
D03*
Y5150837D02*
D03*
X6482939D02*
D03*
D56*
X6874414Y5062525D02*
D03*
X6814414Y4962525D02*
D03*
X6874414D02*
D03*
X6814414Y5012525D02*
D03*
X6874414D02*
D03*
D57*
X6535439Y5080836D02*
D03*
D58*
X6271454Y5107845D02*
D03*
X6475780Y4853870D02*
D03*
D59*
X3045289Y7868222D02*
D03*
X2945289D02*
D03*
X2995289Y7768222D02*
D03*
Y7818222D02*
D03*
X2745289Y7668222D02*
D03*
X2695289Y7618222D02*
D03*
X3095289Y7318222D02*
D03*
X3145289Y7268222D02*
D03*
X2945289Y7468222D02*
D03*
X2895289Y7418222D02*
D03*
Y7318222D02*
D03*
X3145289Y7818222D02*
D03*
X2995289Y7868222D02*
D03*
X3095289Y7818222D02*
D03*
X2945289D02*
D03*
X3095289Y7418222D02*
D03*
X3145289D02*
D03*
X3045289Y7368222D02*
D03*
X2945289Y7618222D02*
D03*
Y7518222D02*
D03*
X2995289Y7318222D02*
D03*
X2895289Y7868222D02*
D03*
X2795289Y7668222D02*
D03*
X2845289Y7418222D02*
D03*
X2695289Y7568222D02*
D03*
X2895289Y7218222D02*
D03*
X3145289D02*
D03*
X3095289D02*
D03*
X3045289D02*
D03*
X2995289D02*
D03*
X2945289D02*
D03*
X2845289D02*
D03*
X2795289D02*
D03*
X2745289D02*
D03*
X2695289D02*
D03*
X2645289D02*
D03*
X2595289D02*
D03*
X2545289D02*
D03*
X2495289D02*
D03*
X3095289Y7268222D02*
D03*
X3045289D02*
D03*
X2995289D02*
D03*
X2945289D02*
D03*
X2895289D02*
D03*
X2845289D02*
D03*
X2795289D02*
D03*
X2745289D02*
D03*
X2695289D02*
D03*
X2645289D02*
D03*
X2595289D02*
D03*
X2545289D02*
D03*
X2495289D02*
D03*
X3145289Y7318222D02*
D03*
X3045289D02*
D03*
X2945289D02*
D03*
X2845289D02*
D03*
X2795289D02*
D03*
X2745289D02*
D03*
X2695289D02*
D03*
X2645289D02*
D03*
X2595289D02*
D03*
X2545289D02*
D03*
X2495289D02*
D03*
X3145289Y7368222D02*
D03*
X3095289D02*
D03*
X2995289D02*
D03*
X2595289D02*
D03*
X2545289D02*
D03*
X2495289D02*
D03*
X3045289Y7418222D02*
D03*
X2945289D02*
D03*
X2795289D02*
D03*
X2745289D02*
D03*
X2695289D02*
D03*
X2595289D02*
D03*
X2545289D02*
D03*
X2495289D02*
D03*
X3145289Y7468222D02*
D03*
X3095289D02*
D03*
X3045289D02*
D03*
X2695289D02*
D03*
X2595289D02*
D03*
X2545289D02*
D03*
X2495289D02*
D03*
X3145289Y7518222D02*
D03*
X3095289D02*
D03*
X3045289D02*
D03*
X2695289D02*
D03*
X2595289D02*
D03*
X2545289D02*
D03*
X2495289D02*
D03*
X3145289Y7568222D02*
D03*
X3095289D02*
D03*
X3045289D02*
D03*
X2945289D02*
D03*
X2595289D02*
D03*
X2545289D02*
D03*
X2495289D02*
D03*
X3145289Y7618222D02*
D03*
X3095289D02*
D03*
X3045289D02*
D03*
X2595289D02*
D03*
X2545289D02*
D03*
X2495289D02*
D03*
X3145289Y7668222D02*
D03*
X3095289D02*
D03*
X3045289D02*
D03*
X2945289D02*
D03*
X2895289D02*
D03*
X2845289D02*
D03*
X2695289D02*
D03*
X2595289D02*
D03*
X2545289D02*
D03*
X2495289D02*
D03*
X3145289Y7718222D02*
D03*
X3095289D02*
D03*
X3045289D02*
D03*
X2595289D02*
D03*
X2545289D02*
D03*
X2495289D02*
D03*
X3145289Y7768222D02*
D03*
X3095289D02*
D03*
X3045289D02*
D03*
X2945289D02*
D03*
X2895289D02*
D03*
X2845289D02*
D03*
X2795289D02*
D03*
X2745289D02*
D03*
X2695289D02*
D03*
X2645289D02*
D03*
X2595289D02*
D03*
X2545289D02*
D03*
X2495289D02*
D03*
X3045289Y7818222D02*
D03*
X2895289D02*
D03*
X2845289D02*
D03*
X2795289D02*
D03*
X2745289D02*
D03*
X2695289D02*
D03*
X2645289D02*
D03*
X2595289D02*
D03*
X2545289D02*
D03*
X2495289D02*
D03*
X3145289Y7868222D02*
D03*
X3095289D02*
D03*
X2845289D02*
D03*
X2795289D02*
D03*
X2745289D02*
D03*
X2695289D02*
D03*
X2645289D02*
D03*
X2595289D02*
D03*
X2545289D02*
D03*
X2495289D02*
D03*
D60*
X5198201Y5384906D02*
D03*
X5104201D02*
D03*
D61*
X4494476Y5364354D02*
D03*
X4064318D02*
D03*
X4679476Y5219354D02*
D03*
X4249318D02*
D03*
X4494476D02*
D03*
X4679476Y5364354D02*
D03*
X4064318Y5219354D02*
D03*
X4249318Y5364354D02*
D03*
D62*
X4406222Y4181136D02*
D03*
X4276222Y4406136D02*
D03*
X4406222D02*
D03*
X4276222Y4181136D02*
D03*
X4341222Y4406136D02*
D03*
D63*
X6841328Y6698289D02*
D03*
Y6508988D02*
D03*
X6460828Y6672051D02*
D03*
X6461216Y6424107D02*
D03*
X6841328Y6448988D02*
D03*
Y6568988D02*
D03*
X6781329Y6448988D02*
D03*
Y6508988D02*
D03*
Y6698289D02*
D03*
X6520828Y6672051D02*
D03*
X6521216Y6424107D02*
D03*
X6841328Y6638289D02*
D03*
Y6758289D02*
D03*
X6781329Y6638289D02*
D03*
X6460828Y6732051D02*
D03*
Y6612051D02*
D03*
X6520828Y6732051D02*
D03*
X6521216Y6484107D02*
D03*
X6461216Y6364107D02*
D03*
Y6484107D02*
D03*
D64*
X6783829Y6568988D02*
D03*
Y6758289D02*
D03*
X6518328Y6612051D02*
D03*
X6518716Y6364107D02*
D03*
D65*
X7127744Y5414309D02*
D03*
X1596624Y7246778D02*
D03*
X7127744Y5454309D02*
D03*
X1596624Y7286778D02*
D03*
D66*
X7077549Y5349293D02*
D03*
X7117549D02*
D03*
D67*
X6602174Y6091544D02*
D03*
D68*
X4528796Y4056731D02*
D03*
Y3969231D02*
D03*
X4398048Y3722738D02*
D03*
Y3810238D02*
D03*
X4060659Y4055500D02*
D03*
Y3968000D02*
D03*
X3830791Y3818949D02*
D03*
Y3731449D02*
D03*
X3673266Y2892296D02*
D03*
Y2979796D02*
D03*
D69*
X4246799Y3263993D02*
D03*
D70*
X3919299Y3238994D02*
D03*
Y2988994D02*
D03*
Y3038993D02*
D03*
X4574299Y3138993D02*
D03*
X3919299Y3338994D02*
D03*
X4574299Y2988994D02*
D03*
Y3038993D02*
D03*
Y3088994D02*
D03*
Y3188993D02*
D03*
Y3238994D02*
D03*
Y3288993D02*
D03*
Y3338994D02*
D03*
Y3388993D02*
D03*
Y3438993D02*
D03*
Y3488994D02*
D03*
Y3538993D02*
D03*
X3919299D02*
D03*
Y3488994D02*
D03*
Y3438993D02*
D03*
Y3388993D02*
D03*
Y3288993D02*
D03*
Y3188993D02*
D03*
Y3138993D02*
D03*
Y3088994D02*
D03*
D71*
X1360428Y4107370D02*
D03*
Y3827370D02*
D03*
D72*
X2768561Y2374750D02*
D03*
X3153561D02*
D03*
D73*
X4448047Y3722738D02*
D03*
X4498047D02*
D03*
X4348048D02*
D03*
X4298048D02*
D03*
Y3810238D02*
D03*
X4348048D02*
D03*
X4498047D02*
D03*
X4448047D02*
D03*
X3880791Y3731449D02*
D03*
X3930791D02*
D03*
X3780791D02*
D03*
X3730791D02*
D03*
Y3818949D02*
D03*
X3780791D02*
D03*
X3930791D02*
D03*
X3880791D02*
D03*
X3573266Y2979796D02*
D03*
X3623266D02*
D03*
X3723266D02*
D03*
X3773266D02*
D03*
Y2892296D02*
D03*
X3723266D02*
D03*
X3623266D02*
D03*
X3573266D02*
D03*
X4578796Y3969231D02*
D03*
X4628795D02*
D03*
X4478796D02*
D03*
X4428796D02*
D03*
Y4056731D02*
D03*
X4478796D02*
D03*
X4628795D02*
D03*
X4578796D02*
D03*
X4110659Y4055500D02*
D03*
X4160659D02*
D03*
X4010659D02*
D03*
X3960659D02*
D03*
Y3968000D02*
D03*
X4010659D02*
D03*
X4160659D02*
D03*
X4110659D02*
D03*
D74*
X4029738Y7838949D02*
D03*
X4096913Y7906125D02*
D03*
D75*
X6816914Y5062525D02*
D03*
D76*
X7413364Y4512511D02*
D03*
X7233759Y4946116D02*
D03*
X7413364Y5020511D02*
D03*
X7592969Y4946116D02*
D03*
X7667364Y4766511D02*
D03*
X7592969Y4586906D02*
D03*
X7233759D02*
D03*
X7159364Y4766511D02*
D03*
X1413364Y4512511D02*
D03*
X1233759Y4946116D02*
D03*
X1413364Y5020511D02*
D03*
X1592969Y4946116D02*
D03*
X1667364Y4766511D02*
D03*
X1592969Y4586906D02*
D03*
X1233759D02*
D03*
X1159364Y4766511D02*
D03*
X1158771Y8056718D02*
D03*
X1233166Y7877113D02*
D03*
X1592377D02*
D03*
X1666771Y8056718D02*
D03*
X1592377Y8236324D02*
D03*
X1412771Y8310718D02*
D03*
X1233166Y8236324D02*
D03*
X1412771Y7802718D02*
D03*
X7159364Y8056715D02*
D03*
X7233759Y7877110D02*
D03*
X7592969D02*
D03*
X7667364Y8056715D02*
D03*
X7592969Y8236320D02*
D03*
X7413364Y8310715D02*
D03*
X7233759Y8236320D02*
D03*
X7413364Y7802715D02*
D03*
Y802715D02*
D03*
X7233759Y1236320D02*
D03*
X7413364Y1310715D02*
D03*
X7592969Y1236320D02*
D03*
X7667364Y1056715D02*
D03*
X7592969Y877110D02*
D03*
X7233759D02*
D03*
X7159364Y1056715D02*
D03*
X1413364Y802715D02*
D03*
X1233759Y1236320D02*
D03*
X1413364Y1310715D02*
D03*
X1592969Y1236320D02*
D03*
X1667364Y1056715D02*
D03*
X1592969Y877110D02*
D03*
X1233759D02*
D03*
X1159364Y1056715D02*
D03*
D77*
X1203402Y7568715D02*
D03*
Y5276175D02*
D03*
X7622141D02*
D03*
Y7568715D02*
D03*
D78*
X6922829Y878938D02*
D03*
X1896108Y7809159D02*
D03*
D85*
X7664229Y4212419D02*
D03*
Y1652419D02*
D03*
D86*
X6689229Y2052419D02*
D03*
Y3812419D02*
D03*
Y2932419D02*
D03*
D87*
X1873048Y3188020D02*
D03*
Y2468020D02*
D03*
D88*
X1273048Y2153020D02*
D03*
Y3503020D02*
D03*
D113*
X6922829Y878938D02*
D03*
D114*
X1896108Y7809159D02*
D03*
%TF.MD5,ecd58345a31e6bce2985582442fcf952*%
M02*
