%TF.GenerationSoftware,Altium Limited,Altium Designer,26.3.0 (6)*%
G04 Layer_Color=128*
%FSLAX45Y45*%
%MOMM*%
%TF.SameCoordinates,04BD6D11-A395-4E8B-9722-6B45B0B9ED9E*%
%TF.FilePolarity,Positive*%
%TF.FileFunction,Paste,Bot*%
%TF.Part,Single*%
G01*
G75*
%TA.AperFunction,SMDPad,CuDef*%
%ADD15R,1.45000X1.05000*%
%ADD18R,0.58000X0.62000*%
%ADD19R,0.80000X0.95000*%
%ADD22R,0.95000X0.80000*%
%ADD28R,0.55000X0.55000*%
%ADD29R,0.55000X0.55000*%
%ADD39R,0.62000X0.58000*%
%ADD41R,0.40000X0.50000*%
%ADD43R,0.90000X0.75000*%
%TA.AperFunction,BGAPad,CuDef*%
%ADD76C,0.76200*%
%TA.AperFunction,SMDPad,CuDef*%
%ADD78C,1.00000*%
%ADD106R,1.20000X1.20000*%
G04:AMPARAMS|DCode=107|XSize=0.8mm|YSize=1.6mm|CornerRadius=0.2mm|HoleSize=0mm|Usage=FLASHONLY|Rotation=90.000|XOffset=0mm|YOffset=0mm|HoleType=Round|Shape=RoundedRectangle|*
%AMROUNDEDRECTD107*
21,1,0.80000,1.20000,0,0,90.0*
21,1,0.40000,1.60000,0,0,90.0*
1,1,0.40000,0.60000,0.20000*
1,1,0.40000,0.60000,-0.20000*
1,1,0.40000,-0.60000,-0.20000*
1,1,0.40000,-0.60000,0.20000*
%
%ADD107ROUNDEDRECTD107*%
G04:AMPARAMS|DCode=108|XSize=0.62mm|YSize=0.58mm|CornerRadius=0mm|HoleSize=0mm|Usage=FLASHONLY|Rotation=225.000|XOffset=0mm|YOffset=0mm|HoleType=Round|Shape=Rectangle|*
%AMROTATEDRECTD108*
4,1,4,0.01414,0.42426,0.42426,0.01414,-0.01414,-0.42426,-0.42426,-0.01414,0.01414,0.42426,0.0*
%
%ADD108ROTATEDRECTD108*%

G04:AMPARAMS|DCode=109|XSize=2.1mm|YSize=3mm|CornerRadius=0.21mm|HoleSize=0mm|Usage=FLASHONLY|Rotation=90.000|XOffset=0mm|YOffset=0mm|HoleType=Round|Shape=RoundedRectangle|*
%AMROUNDEDRECTD109*
21,1,2.10000,2.58000,0,0,90.0*
21,1,1.68000,3.00000,0,0,90.0*
1,1,0.42000,1.29000,0.84000*
1,1,0.42000,1.29000,-0.84000*
1,1,0.42000,-1.29000,-0.84000*
1,1,0.42000,-1.29000,0.84000*
%
%ADD109ROUNDEDRECTD109*%
%TA.AperFunction,NonConductor*%
%ADD120R,1.00000X1.00000*%
D15*
X5263859Y5314048D02*
D03*
Y5499048D02*
D03*
D18*
X5285630Y8161127D02*
D03*
X5352434Y7602947D02*
D03*
X5583310Y6579567D02*
D03*
X5324153Y6173618D02*
D03*
X5199913Y8161127D02*
D03*
X4484689Y8163667D02*
D03*
X4540569Y8066265D02*
D03*
X4637191Y7511448D02*
D03*
X5262222Y6487488D02*
D03*
Y6570879D02*
D03*
X2990812Y7654910D02*
D03*
X2704799Y7654911D02*
D03*
X2705303Y7555655D02*
D03*
X3194430Y7315681D02*
D03*
X3194921Y7223058D02*
D03*
X2885826Y7367687D02*
D03*
X2801669Y7456398D02*
D03*
X5262222Y6404096D02*
D03*
Y6325784D02*
D03*
X4709327Y6398536D02*
D03*
X4807257Y6296046D02*
D03*
X4351947Y5602772D02*
D03*
X4287285Y6041093D02*
D03*
X5381630Y8161127D02*
D03*
X5448434Y7602947D02*
D03*
X5487310Y6579567D02*
D03*
X5494113Y6416501D02*
D03*
X5166222Y6404096D02*
D03*
Y6487488D02*
D03*
Y6570879D02*
D03*
Y6325784D02*
D03*
X5420153Y6173618D02*
D03*
X5323979Y5625138D02*
D03*
X5103913Y8161127D02*
D03*
X4580689Y8163667D02*
D03*
X4636569Y8066265D02*
D03*
X4541191Y7511448D02*
D03*
X4805327Y6398536D02*
D03*
X4841740Y6198380D02*
D03*
X3290430Y7315681D02*
D03*
X2894812Y7654910D02*
D03*
X2800799Y7654911D02*
D03*
X2801303Y7555655D02*
D03*
X2789826Y7367687D02*
D03*
X2705669Y7456398D02*
D03*
X3290922Y7223058D02*
D03*
X4191284Y6041093D02*
D03*
Y6137223D02*
D03*
X5019089Y5622598D02*
D03*
X4255947Y5602772D02*
D03*
X4711257Y6296046D02*
D03*
X5115089Y5622598D02*
D03*
X5227979Y5625138D02*
D03*
X5590114Y6416501D02*
D03*
X4745740Y6198380D02*
D03*
X4287285Y6137223D02*
D03*
X4473799Y2936493D02*
D03*
X4569799D02*
D03*
D19*
X4888597Y6901019D02*
D03*
X5227345Y6211066D02*
D03*
X5053597Y6901019D02*
D03*
X5062345Y6211066D02*
D03*
D22*
X5111829Y5328768D02*
D03*
Y5493768D02*
D03*
D28*
X4668658Y6076135D02*
D03*
X4590024Y6174988D02*
D03*
X2996355Y7464406D02*
D03*
X4668658Y6171135D02*
D03*
X4590024Y6269988D02*
D03*
X4621953Y7081683D02*
D03*
Y6986682D02*
D03*
X2996355Y7559406D02*
D03*
D29*
X4468043Y7803937D02*
D03*
X4373043D02*
D03*
X4268163Y5881961D02*
D03*
X4173163D02*
D03*
X4169627Y5775163D02*
D03*
X4264627D02*
D03*
X4169627Y5695569D02*
D03*
X4264627D02*
D03*
X4537915Y5611352D02*
D03*
X4632915D02*
D03*
D39*
X5445089Y7984965D02*
D03*
X5357709D02*
D03*
X5177585Y6921580D02*
D03*
X5121607Y7509448D02*
D03*
X5090237Y6658313D02*
D03*
X5179011D02*
D03*
X5001675Y6658270D02*
D03*
X4722624Y8064265D02*
D03*
X4788489Y6896775D02*
D03*
X4440774Y6987459D02*
D03*
X5081612Y6580788D02*
D03*
X4910431D02*
D03*
X4996022D02*
D03*
X4824840D02*
D03*
X4293401Y7903639D02*
D03*
X3046470Y7926183D02*
D03*
X3145048D02*
D03*
X4404291Y7888445D02*
D03*
X4401097Y7504639D02*
D03*
X2947891Y7926183D02*
D03*
X2899123Y7460762D02*
D03*
X5211030Y6013835D02*
D03*
X4846087D02*
D03*
X4754852D02*
D03*
X4937323D02*
D03*
X5119795D02*
D03*
X5028559D02*
D03*
X4472030Y3592060D02*
D03*
X3969817D02*
D03*
X5445089Y8080965D02*
D03*
X5357709D02*
D03*
X5121607Y7605448D02*
D03*
X5177585Y6825579D02*
D03*
X5179011Y6754313D02*
D03*
X5211030Y6109835D02*
D03*
X5119795D02*
D03*
X5090237Y6754313D02*
D03*
X5001675Y6754270D02*
D03*
X4996022Y6484788D02*
D03*
X5081612D02*
D03*
X4910431D02*
D03*
X4824840D02*
D03*
X4722624Y8160265D02*
D03*
X4404291Y7984445D02*
D03*
X4401097Y7600639D02*
D03*
X4788489Y6800775D02*
D03*
X4533737Y7083459D02*
D03*
X4440774D02*
D03*
X5028559Y6109835D02*
D03*
X4937323D02*
D03*
X4846087D02*
D03*
X4754852D02*
D03*
X3145048Y8022183D02*
D03*
X4293401Y7807639D02*
D03*
X3046470Y8022183D02*
D03*
X2947891D02*
D03*
X2899123Y7556762D02*
D03*
X4472030Y3496060D02*
D03*
X3969817D02*
D03*
X4533737Y6987459D02*
D03*
X4570122Y3384764D02*
D03*
Y3288764D02*
D03*
Y3042908D02*
D03*
Y3138908D02*
D03*
D41*
X5230866Y7792724D02*
D03*
X5321026D02*
D03*
X5792454Y3960038D02*
D03*
X5702294Y3960038D02*
D03*
D43*
X5246502Y2154872D02*
D03*
Y2319872D02*
D03*
Y3991736D02*
D03*
Y3826736D02*
D03*
X6186192Y2922880D02*
D03*
Y2757880D02*
D03*
Y3501758D02*
D03*
Y3336758D02*
D03*
Y1251015D02*
D03*
Y1086015D02*
D03*
X5246502Y1762583D02*
D03*
Y1597584D02*
D03*
D76*
X7413364Y4512511D02*
D03*
X7233759Y4946116D02*
D03*
X7413364Y5020511D02*
D03*
X7592969Y4946116D02*
D03*
X7667364Y4766511D02*
D03*
X7592969Y4586906D02*
D03*
X7233759D02*
D03*
X7159364Y4766511D02*
D03*
X1413364Y4512511D02*
D03*
X1233759Y4946116D02*
D03*
X1413364Y5020511D02*
D03*
X1592969Y4946116D02*
D03*
X1667364Y4766511D02*
D03*
X1592969Y4586906D02*
D03*
X1233759D02*
D03*
X1159364Y4766511D02*
D03*
X1158771Y8056718D02*
D03*
X1233166Y7877113D02*
D03*
X1592377D02*
D03*
X1666771Y8056718D02*
D03*
X1592377Y8236324D02*
D03*
X1412771Y8310718D02*
D03*
X1233166Y8236324D02*
D03*
X1412771Y7802718D02*
D03*
X7159364Y8056715D02*
D03*
X7233759Y7877110D02*
D03*
X7592969D02*
D03*
X7667364Y8056715D02*
D03*
X7592969Y8236320D02*
D03*
X7413364Y8310715D02*
D03*
X7233759Y8236320D02*
D03*
X7413364Y7802715D02*
D03*
Y802715D02*
D03*
X7233759Y1236320D02*
D03*
X7413364Y1310715D02*
D03*
X7592969Y1236320D02*
D03*
X7667364Y1056715D02*
D03*
X7592969Y877110D02*
D03*
X7233759D02*
D03*
X7159364Y1056715D02*
D03*
X1413364Y802715D02*
D03*
X1233759Y1236320D02*
D03*
X1413364Y1310715D02*
D03*
X1592969Y1236320D02*
D03*
X1667364Y1056715D02*
D03*
X1592969Y877110D02*
D03*
X1233759D02*
D03*
X1159364Y1056715D02*
D03*
D78*
X7601033Y7601549D02*
D03*
X1214896Y1608295D02*
D03*
D106*
X5415646Y1880924D02*
D03*
Y1575764D02*
D03*
Y2133052D02*
D03*
Y2438212D02*
D03*
X6016789Y1021015D02*
D03*
Y1326175D02*
D03*
Y3568028D02*
D03*
Y3262868D02*
D03*
Y2998040D02*
D03*
Y2692880D02*
D03*
X5415646Y4110076D02*
D03*
Y3804916D02*
D03*
D107*
X7429117Y2807419D02*
D03*
Y2682419D02*
D03*
Y3182419D02*
D03*
Y2932419D02*
D03*
Y3057419D02*
D03*
D108*
X5194876Y7919281D02*
D03*
X5126994Y7987163D02*
D03*
D109*
X7719118Y3434759D02*
D03*
Y2430078D02*
D03*
D120*
X3337651Y1196629D02*
D03*
Y1036636D02*
D03*
X3497642Y1196627D02*
D03*
Y1036638D02*
D03*
X3337652Y1356619D02*
D03*
X3497642D02*
D03*
X3337651Y876629D02*
D03*
X3497644D02*
D03*
X2940125Y1537774D02*
D03*
X2940127Y1377773D02*
D03*
X3100123Y1537773D02*
D03*
X3100125Y1377771D02*
D03*
X2940127Y1697773D02*
D03*
X3100125Y1697771D02*
D03*
X2940125Y1217775D02*
D03*
X3100123Y1217773D02*
D03*
X5793844Y1036629D02*
D03*
X5793842Y1196619D02*
D03*
X5633851Y1036629D02*
D03*
X5633853Y1196619D02*
D03*
X5793843Y876637D02*
D03*
X5633852Y876638D02*
D03*
X5793844Y1356629D02*
D03*
X5633853Y1356627D02*
D03*
X5633843Y2687159D02*
D03*
X5633845Y2527157D02*
D03*
X5793843Y2687158D02*
D03*
X5793844Y2527156D02*
D03*
X5633843Y2847157D02*
D03*
X5793845D02*
D03*
X5633845Y2367157D02*
D03*
X5793845D02*
D03*
X5633844Y3007159D02*
D03*
X5793843Y3007157D02*
D03*
X5633842Y2207157D02*
D03*
X5793844Y2207156D02*
D03*
X5633845Y3167157D02*
D03*
X5793844Y3167155D02*
D03*
X5633844Y2047159D02*
D03*
X5793845Y2047158D02*
D03*
X5633844Y3327159D02*
D03*
X5793842Y3327157D02*
D03*
X5633842Y1887158D02*
D03*
X5793843D02*
D03*
X5633845Y3487157D02*
D03*
X5793844Y3487155D02*
D03*
X5633844Y1727159D02*
D03*
X5793842Y1727158D02*
D03*
X4638079Y946629D02*
D03*
X4478087D02*
D03*
X4638079Y786636D02*
D03*
X4478087D02*
D03*
X4798070Y946629D02*
D03*
Y786636D02*
D03*
X4318079Y946629D02*
D03*
Y786636D02*
D03*
X4958078Y946629D02*
D03*
Y786636D02*
D03*
X4158087Y946629D02*
D03*
Y786636D02*
D03*
X5118070Y946629D02*
D03*
Y786636D02*
D03*
X3998079Y946629D02*
D03*
Y786636D02*
D03*
X5278078Y946629D02*
D03*
Y786636D02*
D03*
X3838087Y946629D02*
D03*
Y786636D02*
D03*
X4517386Y1280692D02*
D03*
X4677376D02*
D03*
X4517386Y1440682D02*
D03*
X4677376D02*
D03*
X4357397Y1280692D02*
D03*
Y1440682D02*
D03*
X4837386Y1280692D02*
D03*
Y1440682D02*
D03*
X4197387Y1280692D02*
D03*
Y1440682D02*
D03*
X4997376Y1280692D02*
D03*
Y1440682D02*
D03*
X4059744Y1723718D02*
D03*
X4219745D02*
D03*
X4059744Y1883719D02*
D03*
X4219745D02*
D03*
X3899746Y1723718D02*
D03*
X3899744Y1883719D02*
D03*
X4379745Y1723718D02*
D03*
X4379743Y1883719D02*
D03*
X3739745Y1723718D02*
D03*
Y1883719D02*
D03*
X4539745Y1723718D02*
D03*
X4539746Y1883718D02*
D03*
X5027414Y2573718D02*
D03*
X5027387Y2733692D02*
D03*
X4867386Y2573746D02*
D03*
X4867359Y2733719D02*
D03*
X5027387Y2413693D02*
D03*
X4867386Y2413746D02*
D03*
X5027387Y2893692D02*
D03*
X4867386Y2893745D02*
D03*
X5027360Y2253719D02*
D03*
X4867413D02*
D03*
X5027360Y3053719D02*
D03*
X4867387Y3053692D02*
D03*
X5027386Y2093692D02*
D03*
X4867359Y2093719D02*
D03*
X5027414Y3213719D02*
D03*
X4867387Y3213746D02*
D03*
X5027414Y1933719D02*
D03*
X4867387Y1933747D02*
D03*
X5027387Y3373747D02*
D03*
X4867386Y3373746D02*
D03*
X5027387Y1773747D02*
D03*
X4867414Y1773720D02*
D03*
X5027414Y3533719D02*
D03*
X4867387Y3533746D02*
D03*
X3101530Y2273150D02*
D03*
X2941523Y2273141D02*
D03*
X3101523Y2113158D02*
D03*
X2941515Y2113150D02*
D03*
X3261523Y2273142D02*
D03*
X3261515Y2113149D02*
D03*
X2781530Y2273150D02*
D03*
X2781523Y2113158D02*
D03*
X3421530Y2273149D02*
D03*
X3421523Y2113158D02*
D03*
X2621523Y2273142D02*
D03*
X2621515Y2113149D02*
D03*
X3581522Y2273142D02*
D03*
X3581515Y2113149D02*
D03*
X2461531Y2273149D02*
D03*
X2461523Y2113158D02*
D03*
X3741530Y2273150D02*
D03*
X3741523Y2113158D02*
D03*
X2301523Y2273142D02*
D03*
X2301516Y2113149D02*
D03*
%TF.MD5,a98be686b7944ef817a43602ea2d8b0a*%
M02*
