%TF.GenerationSoftware,Altium Limited,Altium Designer,26.3.0 (6)*%
G04 Layer_Physical_Order=3*
G04 Layer_Color=36540*
%FSLAX45Y45*%
%MOMM*%
%TF.SameCoordinates,04BD6D11-A395-4E8B-9722-6B45B0B9ED9E*%
%TF.FilePolarity,Positive*%
%TF.FileFunction,Copper,L3,Inr,Signal*%
%TF.Part,Single*%
G01*
G75*
%TA.AperFunction,Conductor*%
%ADD10C,0.63500*%
%ADD11C,0.15240*%
%ADD12C,0.13970*%
%ADD13C,0.10160*%
%ADD14C,0.12700*%
%ADD79C,0.20320*%
%ADD80C,0.30480*%
%ADD82C,0.25400*%
%TA.AperFunction,ComponentPad*%
%ADD85C,2.50000*%
%ADD86C,6.00000*%
%ADD87C,4.25000*%
%ADD88O,3.00000X1.75000*%
%TA.AperFunction,ViaPad*%
%ADD89C,0.40000*%
%ADD90C,0.45000*%
%ADD91C,0.44999*%
%TA.AperFunction,Conductor*%
%ADD100C,0.11430*%
G36*
X3404979Y4464482D02*
X3202092Y4261595D01*
X2920330D01*
Y4588811D01*
X2946001Y4614482D01*
X3404979Y4614483D01*
Y4464482D01*
D02*
G37*
G36*
X2540221Y4362515D02*
X2223034Y4045328D01*
X2015708D01*
X2015708Y4425684D01*
X2102538Y4512514D01*
X2540221Y4512515D01*
Y4362515D01*
D02*
G37*
G36*
X3481409Y3787692D02*
X3481410Y3743340D01*
X3406095Y3668024D01*
X3334199D01*
X3136224Y3470049D01*
X3136223Y3090220D01*
X3064353Y3018350D01*
X2462741Y3018351D01*
Y3243570D01*
X2334161Y3372149D01*
X2231924D01*
Y3548063D01*
X2326197Y3642335D01*
X2365199Y3681338D01*
X2663570Y3681338D01*
X2747646Y3597262D01*
X3033409Y3597262D01*
X3128139Y3691990D01*
X3197016Y3760865D01*
X3362482D01*
X3413728Y3812107D01*
X3456994D01*
X3481409Y3787692D01*
D02*
G37*
G36*
X7065621Y3860293D02*
X7065622Y3483153D01*
X6866136Y3283667D01*
X6425054D01*
X6336333Y3194947D01*
X5956788D01*
Y3508946D01*
X6074874D01*
X6140895Y3574967D01*
Y3673867D01*
X6074237Y3740526D01*
X5919944D01*
Y4180538D01*
X6745372D01*
X7065621Y3860293D01*
D02*
G37*
G36*
X6694008Y3232418D02*
X6900772Y3145139D01*
X7060842Y2985070D01*
Y2593981D01*
X6861104Y2394244D01*
X6401443Y2394244D01*
X6075312Y2068111D01*
X5956788Y2068111D01*
X5956788Y2938478D01*
X6188093D01*
X6482034Y3232419D01*
X6694008Y3232418D01*
D02*
G37*
G36*
X1808219Y3564574D02*
X2411902Y2961516D01*
X3095849Y2961512D01*
Y2699236D01*
X2891086Y2494471D01*
Y1965473D01*
X2720187Y1794574D01*
X2720187Y1479890D01*
X2539402Y1479889D01*
X2119360Y1899902D01*
Y2573511D01*
X1581717Y3111154D01*
X1581715Y3912374D01*
X1808220Y3912375D01*
X1808219Y3564574D01*
D02*
G37*
G36*
X5918550Y683768D02*
X3178522Y683768D01*
X2829001Y1033290D01*
Y1793890D01*
X3760529Y1793889D01*
X4474326Y1080094D01*
X5320374D01*
X5502156Y1261875D01*
Y3628028D01*
X5918550D01*
Y683768D01*
D02*
G37*
G36*
X7047655Y2118257D02*
Y1296115D01*
X6662709Y911169D01*
X5956788D01*
Y1267094D01*
X6074874D01*
X6116995Y1309214D01*
Y1468265D01*
X6074874Y1510385D01*
X5956788D01*
Y1951385D01*
X6163931D01*
X6469663Y2257117D01*
X6908794Y2257117D01*
X7047655Y2118257D01*
D02*
G37*
D10*
X965877Y3809603D02*
G03*
X1091496Y3877992I-53105J247111D01*
G01*
X966324Y1056715D02*
G03*
X1413364Y609675I447040J0D01*
G01*
X7413364D02*
G03*
X7860404Y1056715I0J447040D01*
G01*
Y8056715D02*
G03*
X7413364Y8503755I-447040J0D01*
G01*
X1412771Y8503758D02*
G03*
X965731Y8056718I0J-447040D01*
G01*
X3565658Y8353613D02*
G03*
X4060009Y8354217I247111J53105D01*
G01*
X1165522Y4056313D02*
G03*
X965875Y4303829I-252753J405D01*
G01*
X1675088Y609675D02*
X1692544D01*
X1791939Y709069D01*
X965731Y3508794D02*
Y3708794D01*
X2543100Y811004D02*
X2743100D01*
X2343100D02*
X2543100D01*
X1943099D02*
X2143100D01*
X2343100D01*
X1791939Y709069D02*
X1891333Y808464D01*
Y811004D02*
X1943099D01*
X1413364Y609675D02*
X1675088D01*
X965731Y1508793D02*
Y1708793D01*
Y1908793D01*
Y2908794D02*
Y3108794D01*
Y3308794D01*
Y3508794D01*
Y1308793D02*
Y1508793D01*
Y1908793D02*
Y2108793D01*
Y2308793D01*
Y2508793D01*
Y2708793D01*
Y2908794D01*
Y1056715D02*
Y1308793D01*
Y1056715D02*
X966324D01*
X7860404Y1856716D02*
Y2056715D01*
Y1656715D02*
Y1856716D01*
Y1456715D02*
Y1656715D01*
Y1256715D02*
Y1456715D01*
Y1056715D02*
Y1256715D01*
Y2056715D02*
X7861023Y2057334D01*
Y2213493D01*
X965731Y3708794D02*
Y3809603D01*
X7213364Y609675D02*
X7413364D01*
X7013364D02*
X7213364D01*
X6613364D02*
X6813364D01*
X7013364D01*
X6213363D02*
X6413364D01*
X5813363D02*
X6013363D01*
X5613363D02*
X5813363D01*
X5413363D02*
X5613363D01*
X6013363D02*
X6213363D01*
X6413364D02*
X6613364D01*
X5213363D02*
X5413363D01*
X5013363D02*
X5213363D01*
X4813363D02*
X5013363D01*
X4613363D02*
X4813363D01*
X4013362D02*
X4213362D01*
X4413363D01*
X3813362D02*
X4013362D01*
X3613362D02*
X3813362D01*
X3413362D02*
X3613362D01*
X4413363D02*
X4613363D01*
X3213362D02*
X3413362D01*
X3134269D02*
X3213362D01*
X2932940Y811004D02*
X3134269Y609675D01*
X2743100Y811004D02*
X2932940D01*
X7859284Y2602895D02*
Y2802895D01*
Y7802898D02*
Y8056715D01*
Y7602898D02*
Y7802898D01*
Y7402898D02*
Y7602898D01*
Y7002897D02*
Y7202897D01*
Y6402897D02*
Y6602897D01*
Y5802897D02*
Y6002897D01*
Y5602896D02*
Y5802897D01*
Y5402896D02*
Y5602896D01*
Y3802896D02*
Y4002896D01*
Y3002895D02*
Y3202895D01*
Y2802895D02*
Y3002895D01*
Y7202897D02*
Y7402898D01*
Y6602897D02*
Y6802897D01*
Y6202897D02*
Y6402897D01*
Y6002897D02*
Y6202897D01*
Y4402896D02*
Y4602896D01*
Y4202896D02*
Y4402896D01*
Y4002896D02*
Y4202896D01*
Y3202895D02*
Y3402895D01*
Y6802897D02*
Y7002897D01*
Y5202896D02*
Y5402896D01*
Y5002896D02*
Y5202896D01*
Y4802896D02*
Y5002896D01*
Y4602896D02*
Y4802896D01*
Y3602896D02*
Y3802896D01*
Y3402895D02*
Y3602896D01*
Y2402895D02*
Y2602895D01*
X1412771Y8503755D02*
X1681366D01*
X3280592Y8353967D02*
X3480592D01*
X2080592D02*
X2280592D01*
X2480592D02*
X2680592D01*
X2280592D02*
X2480592D01*
X2680592D02*
X2880592D01*
X3080592D01*
X3280592D01*
X1811022D02*
X1880592D01*
X1811022D02*
Y8503755D01*
X1880592Y8353967D02*
X2080592D01*
X1681366Y8503755D02*
X1811022D01*
X965731Y4303972D02*
Y4503221D01*
Y6703222D02*
Y6903222D01*
Y6303222D02*
Y6503222D01*
Y6103222D02*
Y6303222D01*
Y5903222D02*
Y6103222D01*
Y5703222D02*
Y5903222D01*
Y5503221D02*
Y5703222D01*
Y4703221D02*
Y4903221D01*
Y7103222D02*
Y7303222D01*
Y6903222D02*
Y7103222D01*
Y6503222D02*
Y6703222D01*
Y5303221D02*
Y5503221D01*
Y4903221D02*
Y5103221D01*
Y7703223D02*
Y7879820D01*
Y7503222D02*
Y7703223D01*
Y7303222D02*
Y7503222D01*
Y5103221D02*
Y5303221D01*
Y7879820D02*
Y8056718D01*
X3480592Y8353967D02*
X3565305D01*
X3565658Y8353613D01*
X4061189Y8353967D02*
X4212592D01*
X4059615Y8352392D02*
X4061189Y8353967D01*
X965731Y4303972D02*
X965875Y4303829D01*
X965731Y4503221D02*
Y4703221D01*
X6812593Y8353967D02*
X7012594D01*
X4212592Y8353966D02*
X6812593D01*
X7012594Y8353967D02*
X7017674D01*
Y8503755D01*
X7413364D01*
D11*
X6482942Y6240251D02*
X6482943Y6240251D01*
X6454644Y6211437D02*
X6454645Y6211437D01*
X5419168Y5551708D02*
Y5595243D01*
X5331097Y5683315D02*
X5419168Y5595243D01*
X5264573Y5683315D02*
X5331097D01*
X5170935Y5776953D02*
X5264573Y5683315D01*
X5170935Y5776953D02*
Y5858749D01*
X5370935Y5898749D02*
X5961737D01*
X5976975Y5913987D02*
X5998355D01*
X5961737Y5898749D02*
X5976975Y5913987D01*
X5330934Y5858749D02*
X5370935Y5898749D01*
X5865175Y5089707D02*
X6061667Y5286200D01*
Y5351922D01*
X6121437Y5411691D01*
X6153040D01*
X6200262Y5458913D01*
D12*
X1592091Y5790939D02*
G03*
X1622739Y5760293I15324J-15323D01*
G01*
X1811358Y5798484D02*
G03*
X1839197Y5826324I14001J13838D01*
G01*
X1929869Y5969184D02*
G03*
X1901580Y5969184I-14145J-14145D01*
G01*
X1812211Y5879816D02*
G03*
X1812210Y5853310I13252J-13253D01*
G01*
X1962148Y6580300D02*
G03*
X1962148Y6540939I0J-19681D01*
G01*
X1927968Y6095760D02*
G03*
X1955123Y6124282I13926J13929D01*
G01*
X1955124Y6152122D02*
G03*
X1955124Y6124282I13920J-13920D01*
G01*
X2121016Y6112104D02*
G03*
X2148854Y6139943I13963J13875D01*
G01*
X2063334Y6058430D02*
G03*
X2091173Y6086269I13963J13875D01*
G01*
X2008057Y6002352D02*
G03*
X2035896Y6030191I13963J13875D01*
G01*
X1952645Y5946408D02*
G03*
X1980484Y5974247I13978J13861D01*
G01*
X2046847Y6074917D02*
G03*
X2019008Y6047078I-13861J-13978D01*
G01*
X1990232Y6020177D02*
G03*
X1962394Y5992338I-13861J-13978D01*
G01*
X1875229Y6037144D02*
G03*
X1903068Y6064984I13978J13861D01*
G01*
X1820220Y5980798D02*
G03*
X1848059Y6008637I13978J13861D01*
G01*
X1765343Y5924320D02*
G03*
X1793182Y5952159I13963J13875D01*
G01*
X1746535Y5943128D02*
G03*
X1720701Y5917294I-12889J-12945D01*
G01*
X1795908Y6005111D02*
G03*
X1768069Y5977272I-13861J-13978D01*
G01*
X1849753Y6062621D02*
G03*
X1821914Y6034782I-13861J-13978D01*
G01*
X1906503Y6117226D02*
G03*
X1878664Y6089387I-13861J-13978D01*
G01*
X2138012Y6178624D02*
G03*
X2138012Y6150785I13919J-13919D01*
G01*
X2070144Y6135137D02*
G03*
X2070144Y6107298I13919J-13920D01*
G01*
X2097983Y6135137D02*
G03*
X2070144Y6135137I-13919J-13919D01*
G01*
X1049607Y6413591D02*
G03*
X1077446Y6385752I13906J-13933D01*
G01*
X1338050Y6452098D02*
G03*
X1310211Y6479936I-13906J13932D01*
G01*
X1578124Y7061997D02*
G03*
X1538754Y7061997I-19685J0D01*
G01*
X1217372Y6644278D02*
G03*
X1193869Y6644278I-11752J-11752D01*
G01*
X1231227Y6630422D02*
G03*
X1259066Y6658261I13919J13919D01*
G01*
X1491261Y6886306D02*
G03*
X1491260Y6913336I-13517J13514D01*
G01*
X1408576Y6820065D02*
G03*
X1448885Y6820065I20154J-72D01*
G01*
X1555916Y7228915D02*
G03*
X1528077Y7256754I-13919J13919D01*
G01*
X1149662Y6430043D02*
G03*
X1121737Y6430044I-13962J-13962D01*
G01*
X1094496Y6458480D02*
G03*
X1094495Y6486002I-13762J13761D01*
G01*
X1161593Y6418112D02*
G03*
X1192794Y6418197I15558J15627D01*
G01*
X1445313Y7205211D02*
G03*
X1476535Y7205212I15611J15610D01*
G01*
X1431610Y7218914D02*
G03*
X1403692Y7190996I-13886J-14032D01*
G01*
X1424481Y7114530D02*
G03*
X1396643Y7086691I-13875J-13964D01*
G01*
X1220108Y6975961D02*
G03*
X1239793Y6956276I19685J0D01*
G01*
X1141368Y6969219D02*
G03*
X1180738Y6969219I19685J0D01*
G01*
X1345340Y7082316D02*
G03*
X1317502Y7054477I-13875J-13964D01*
G01*
X1351022Y6993118D02*
G03*
X1351022Y7020957I-13919J13919D01*
G01*
X1220108Y6989293D02*
G03*
X1180738Y6989293I-19685J0D01*
G01*
X1141368D02*
G03*
X1101998Y6989293I-19685J0D01*
G01*
X1416051Y7011604D02*
G03*
X1443890Y7039443I13978J13861D01*
G01*
X1473477Y7065534D02*
G03*
X1501316Y7093373I13978J13861D01*
G01*
X1502603Y7175602D02*
G03*
X1502603Y7147763I13919J-13919D01*
G01*
X1108128Y6558538D02*
G03*
X1137028Y6529463I14482J-14505D01*
G01*
X1611453Y6140500D02*
G03*
X1572083Y6140500I-19685J0D01*
G01*
X1525297Y6966520D02*
G03*
X1553136Y6938681I13933J-13906D01*
G01*
X1267471Y6902876D02*
G03*
X1228101Y6902876I-19685J0D01*
G01*
X1188731Y6898349D02*
G03*
X1149361Y6898349I-19685J0D01*
G01*
X1263676Y6755505D02*
G03*
X1303046Y6755505I19685J0D01*
G01*
X1336650Y6771925D02*
G03*
X1303046Y6758006I-13919J-13919D01*
G01*
X1220633Y6473786D02*
G03*
X1193214Y6473786I-13710J-13623D01*
G01*
X1165121Y6501879D02*
G03*
X1193214Y6473785I14046J-14046D01*
G01*
X1169192Y6505950D02*
G03*
X1141353Y6533788I-13906J13933D01*
G01*
X1587094Y6863498D02*
G03*
X1614933Y6891337I13978J13861D01*
G01*
X1573533Y6877059D02*
G03*
X1545695Y6849220I-13875J-13964D01*
G01*
X1562624Y6776613D02*
G03*
X1590463Y6804452I13978J13861D01*
G01*
X1518914Y6820323D02*
G03*
X1491076Y6792484I-13875J-13964D01*
G01*
X1461083Y6766799D02*
G03*
X1433244Y6738960I-13861J-13978D01*
G01*
X1454103Y6662424D02*
G03*
X1481942Y6690262I13919J13919D01*
G01*
X1822723Y6286048D02*
G03*
X1862093Y6286048I19685J0D01*
G01*
X2073029Y6306444D02*
G03*
X2073029Y6345814I0J19685D01*
G01*
X1985898Y6231775D02*
G03*
X2027416Y6233292I20787J1D01*
G01*
X2142825Y5873257D02*
G03*
X2103455Y5873257I-19685J0D01*
G01*
X1985345Y5817291D02*
G03*
X2024715Y5817291I19685J0D01*
G01*
X1242515Y6321569D02*
G03*
X1203145Y6321569I-19685J0D01*
G01*
X1163775Y6307036D02*
G03*
X1124405Y6307036I-19685J0D01*
G01*
X1103808Y6113470D02*
G03*
X1143178Y6113470I19685J0D01*
G01*
X1182548Y6110349D02*
G03*
X1221918Y6110349I19685J0D01*
G01*
X3456295Y7310926D02*
G03*
X3475980Y7330611I0J19685D01*
G01*
Y7251871D02*
G03*
X3456295Y7271556I-19685J0D01*
G01*
X3454476Y7310926D02*
G03*
X3454476Y7271556I0J-19685D01*
G01*
X1611010Y6996555D02*
G03*
X1617494Y7012277I-15821J15722D01*
G01*
X1570912Y7012135D02*
G03*
X1578124Y7029622I-17599J17488D01*
G01*
X1531125Y7028025D02*
G03*
X1538754Y7046525I-18617J18500D01*
G01*
X1512581Y6715301D02*
G03*
X1540420Y6743140I13978J13861D01*
G01*
X3019485Y5544359D02*
G03*
X3019485Y5504989I0J-19685D01*
G01*
X3018315Y5623099D02*
G03*
X3018315Y5583729I0J-19685D01*
G01*
X3020655Y5701839D02*
G03*
X3020655Y5662469I0J-19685D01*
G01*
X2595823Y6421251D02*
G03*
X2556453Y6421251I-19685J0D01*
G01*
X2595823Y6316703D02*
G03*
X2635193Y6316703I19685J0D01*
G01*
X2674563Y6314574D02*
G03*
X2713933Y6314574I19685J0D01*
G01*
X2506408Y6627515D02*
G03*
X2464462Y6627515I-20973J-103D01*
G01*
X2932946Y5763718D02*
G03*
X2956015Y5784300I2353J20582D01*
G01*
X2956735Y5703124D02*
G03*
X2932947Y5724348I-21362J-0D01*
G01*
Y5763718D02*
G03*
X2932947Y5724348I0J-19685D01*
G01*
X3058619Y5485304D02*
G03*
X3038934Y5504989I-19685J0D01*
G01*
Y5701839D02*
G03*
X3058619Y5721524I0J19685D01*
G01*
X3039592Y5623099D02*
G03*
X3039592Y5662469I0J19685D01*
G01*
Y5544359D02*
G03*
X3039592Y5583729I0J19685D01*
G01*
X3138396Y5607219D02*
G03*
X3138396Y5646589I0J19685D01*
G01*
X3140965Y5528479D02*
G03*
X3140965Y5567849I0J19685D01*
G01*
X3184877Y5370999D02*
G03*
X3184877Y5410369I0J19685D01*
G01*
X3135604Y5311944D02*
G03*
X3115919Y5331629I-19685J0D01*
G01*
Y5685959D02*
G03*
X3135604Y5705644I0J19685D01*
G01*
X3108223Y5607219D02*
G03*
X3108223Y5567849I0J-19685D01*
G01*
Y5370999D02*
G03*
X3108223Y5331629I0J-19685D01*
G01*
X3135604Y5469424D02*
G03*
X3115919Y5489109I-19685J0D01*
G01*
X3135604Y5430054D02*
G03*
X3155289Y5410369I19685J0D01*
G01*
X3108223Y5528479D02*
G03*
X3108223Y5489109I0J-19685D01*
G01*
Y5685959D02*
G03*
X3108223Y5646589I0J-19685D01*
G01*
X3220341Y5177958D02*
G03*
X3220341Y5217328I0J19685D01*
G01*
X3186644Y5099218D02*
G03*
X3186644Y5059848I0J-19685D01*
G01*
Y5177958D02*
G03*
X3186644Y5138588I0J-19685D01*
G01*
X3199565Y5237013D02*
G03*
X3219250Y5217328I19685J0D01*
G01*
Y5020478D02*
G03*
X3199565Y5000793I0J-19685D01*
G01*
X3220341Y5020478D02*
G03*
X3220341Y5059848I0J19685D01*
G01*
Y5099218D02*
G03*
X3220341Y5138588I0J19685D01*
G01*
X3207974Y5508667D02*
G03*
X3207974Y5469297I0J-19685D01*
G01*
X3267859Y5508667D02*
G03*
X3267859Y5548037I0J19685D01*
G01*
X3207974Y5587407D02*
G03*
X3207974Y5548037I0J-19685D01*
G01*
X3274844Y5449612D02*
G03*
X3255159Y5469297I-19685J0D01*
G01*
X3227993Y5587407D02*
G03*
X3241912Y5621011I0J19685D01*
G01*
X3291868Y5186865D02*
G03*
X3291868Y5147495I0J-19685D01*
G01*
Y5265605D02*
G03*
X3291868Y5226235I0J-19685D01*
G01*
X3311947Y5186865D02*
G03*
X3311947Y5226235I0J19685D01*
G01*
Y5029385D02*
G03*
X3311947Y5068755I0J19685D01*
G01*
Y5344345D02*
G03*
X3311947Y5383715I0J19685D01*
G01*
Y5265605D02*
G03*
X3311947Y5304975I0J19685D01*
G01*
X3294529Y5029385D02*
G03*
X3274844Y5009700I0J-19685D01*
G01*
X3291868Y5108125D02*
G03*
X3291868Y5068755I0J-19685D01*
G01*
X3311947Y5108125D02*
G03*
X3311947Y5147495I0J19685D01*
G01*
X3291868Y5344345D02*
G03*
X3291868Y5304975I0J-19685D01*
G01*
X3274844Y5403400D02*
G03*
X3294529Y5383715I19685J0D01*
G01*
X3996160Y7087646D02*
G03*
X3979029Y7103022I-15466J0D01*
G01*
X4464092Y8058523D02*
G03*
X4503462Y8058523I19685J-62D01*
G01*
X4523147Y8113235D02*
G03*
X4503462Y8093550I0J-19685D01*
G01*
X4464092D02*
G03*
X4444407Y8113235I-19685J0D01*
G01*
X3847028Y7553057D02*
G03*
X3847028Y7592427I0J19685D01*
G01*
X3823464Y7690852D02*
G03*
X3843149Y7671167I19685J0D01*
G01*
X3847028Y7631797D02*
G03*
X3847028Y7671167I0J19685D01*
G01*
Y7474317D02*
G03*
X3847028Y7513687I0J19685D01*
G01*
X3843149Y7474317D02*
G03*
X3823464Y7454632I0J-19685D01*
G01*
X3827316Y7553057D02*
G03*
X3827316Y7513687I0J-19685D01*
G01*
Y7631797D02*
G03*
X3827316Y7592427I0J-19685D01*
G01*
X4075593Y8003546D02*
G03*
X4047754Y8003546I-13919J-13919D01*
G01*
X4142974Y8047520D02*
G03*
X4115136Y8047520I-13919J-13919D01*
G01*
X4244629Y8140737D02*
G03*
X4244629Y8112898I13919J-13919D01*
G01*
X4245971Y8083717D02*
G03*
X4245971Y8111556I-13919J13919D01*
G01*
X4047754Y8003546D02*
G03*
X4047754Y7975707I13919J-13920D01*
G01*
X4115136Y8047520D02*
G03*
X4115135Y8019681I13919J-13920D01*
G01*
X4106777Y7972362D02*
G03*
X4134616Y7972362I13919J13919D01*
G01*
X4218132Y8083717D02*
G03*
X4245971Y8083717I13919J13919D01*
G01*
X4190293Y8028040D02*
G03*
X4190293Y8055878I-13919J13919D01*
G01*
X4066070Y7929552D02*
G03*
X4066070Y7957391I-13919J13919D01*
G01*
X3992077Y7947869D02*
G03*
X3992076Y7920029I13919J-13920D01*
G01*
X4038231Y7929552D02*
G03*
X4066070Y7929552I13919J13919D01*
G01*
X3994080Y7890188D02*
G03*
X3994080Y7918027I-13919J13919D01*
G01*
X4019915Y7947868D02*
G03*
X3992076Y7947868I-13919J-13919D01*
G01*
X4198652Y8103197D02*
G03*
X4170813Y8103197I-13919J-13919D01*
G01*
X4134616Y7972362D02*
G03*
X4134616Y8000201I-13919J13919D01*
G01*
X4162454Y8028040D02*
G03*
X4190293Y8028040I13919J13919D01*
G01*
X4170813Y8103197D02*
G03*
X4170813Y8075358I13919J-13920D01*
G01*
X3928927Y7939971D02*
G03*
X3951634Y7939755I11459J11032D01*
G01*
X4049643Y8037764D02*
G03*
X4049322Y8060617I-11271J11271D01*
G01*
X3953261Y7668290D02*
G03*
X3953261Y7707660I0J19685D01*
G01*
X3918325Y7668290D02*
G03*
X3918325Y7628920I0J-19685D01*
G01*
X3953261Y7510810D02*
G03*
X3953261Y7550180I0J19685D01*
G01*
X3918325Y7589550D02*
G03*
X3918325Y7550180I0J-19685D01*
G01*
X3911340Y7727345D02*
G03*
X3931025Y7707660I19685J0D01*
G01*
Y7510810D02*
G03*
X3911340Y7491125I0J-19685D01*
G01*
X3953261Y7589550D02*
G03*
X3953261Y7628920I0J19685D01*
G01*
X3890911Y6952989D02*
G03*
X3890911Y6992359I0J19685D01*
G01*
Y6874249D02*
G03*
X3890911Y6913619I0J19685D01*
G01*
X3888548Y6874249D02*
G03*
X3868863Y6854564I0J-19685D01*
G01*
X3905968Y7110469D02*
G03*
X3905968Y7149839I0J19685D01*
G01*
Y7189209D02*
G03*
X3905968Y7228579I0J19685D01*
G01*
Y7267949D02*
G03*
X3905968Y7307319I0J19685D01*
G01*
Y7346689D02*
G03*
X3905968Y7386059I0J19685D01*
G01*
X3890911Y7425429D02*
G03*
X3910510Y7443270I0J19685D01*
G01*
X3718079Y7710950D02*
G03*
X3718079Y7671580I0J-19685D01*
G01*
Y7474730D02*
G03*
X3718079Y7435360I0J-19685D01*
G01*
Y7789690D02*
G03*
X3718079Y7750320I0J-19685D01*
G01*
Y7632210D02*
G03*
X3718079Y7592840I0J-19685D01*
G01*
Y7553470D02*
G03*
X3718079Y7514100I0J-19685D01*
G01*
X3754032Y7553470D02*
G03*
X3754032Y7592840I0J19685D01*
G01*
Y7710950D02*
G03*
X3754032Y7750320I0J19685D01*
G01*
Y7632210D02*
G03*
X3754032Y7671580I0J19685D01*
G01*
Y7474730D02*
G03*
X3754032Y7514100I0J19685D01*
G01*
X5177535Y8100033D02*
G03*
X5138165Y8100033I-19685J0D01*
G01*
X5098795Y8101292D02*
G03*
X5059425Y8101292I-19685J0D01*
G01*
X5177535Y8093390D02*
G03*
X5197220Y8073705I19685J0D01*
G01*
X5039740D02*
G03*
X5059425Y8093390I0J19685D01*
G01*
X5098795Y8078524D02*
G03*
X5138165Y8078524I19685J0D01*
G01*
X3928927Y7939971D02*
G03*
X3901088Y7939971I-13919J-13919D01*
G01*
X3873250Y7884293D02*
G03*
X3845411Y7884293I-13919J-13919D01*
G01*
X3901088Y7939971D02*
G03*
X3901088Y7912132I13919J-13920D01*
G01*
X3889623Y7867920D02*
G03*
X3917462Y7867920I13919J13919D01*
G01*
X3845676Y7828351D02*
G03*
X3845676Y7856190I-13919J13919D01*
G01*
X3845411Y7884293D02*
G03*
X3845411Y7856454I13919J-13920D01*
G01*
X3917462Y7867920D02*
G03*
X3917462Y7895759I-13919J13919D01*
G01*
X3826303Y6633615D02*
G03*
X3854142Y6633614I13920J13919D01*
G01*
X3912015Y6663648D02*
G03*
X3884176Y6663648I-13919J-13919D01*
G01*
X3826303Y6661454D02*
G03*
X3826303Y6633615I13919J-13919D01*
G01*
X3856337Y6691487D02*
G03*
X3856337Y6719326I-13919J13919D01*
G01*
X4828849Y7361880D02*
G03*
X4828849Y7401250I0J19685D01*
G01*
X4591875Y7440620D02*
G03*
X4591875Y7401250I0J-19685D01*
G01*
X4613252Y7361880D02*
G03*
X4613252Y7322510I0J-19685D01*
G01*
X4791680Y7447348D02*
G03*
X4752310Y7447348I-19685J100D01*
G01*
X4696495Y7519360D02*
G03*
X4696495Y7479990I0J-19685D01*
G01*
X4700374Y7519360D02*
G03*
X4700374Y7558730I0J19685D01*
G01*
X4726997Y7598100D02*
G03*
X4726997Y7637470I0J19685D01*
G01*
X4731957Y7401250D02*
G03*
X4752310Y7421603I0J20352D01*
G01*
X4791680D02*
G03*
X4812032Y7401250I20352J0D01*
G01*
X4700374Y7440620D02*
G03*
X4700374Y7479990I0J19685D01*
G01*
X4684410Y7676840D02*
G03*
X4684410Y7637470I0J-19685D01*
G01*
X4686036Y7676840D02*
G03*
X4705721Y7696525I0J19685D01*
G01*
Y7302825D02*
G03*
X4686036Y7322510I-19685J0D01*
G01*
X4616212Y7598100D02*
G03*
X4616212Y7558730I0J-19685D01*
G01*
X4416460Y7313796D02*
G03*
X4438956Y7290959I22839J-1D01*
G01*
D02*
G03*
X4466343Y7318345I1J27386D01*
G01*
X4505713Y7317300D02*
G03*
X4526804Y7296209I21091J0D01*
G01*
X4636039Y7669942D02*
G03*
X4608097Y7697884I-13904J14038D01*
G01*
X4200533Y7382791D02*
G03*
X4179418Y7361676I0J-21115D01*
G01*
X4235924Y7382791D02*
G03*
X4235924Y7422161I0J19685D01*
G01*
X4337720Y7444371D02*
G03*
X4298350Y7444371I-19685J0D01*
G01*
X4505713Y7461212D02*
G03*
X4466343Y7461212I-19685J0D01*
G01*
X4447386Y7543231D02*
G03*
X4478357Y7512259I15416J-15556D01*
G01*
X4477604Y7573450D02*
G03*
X4477604Y7608635I-17593J17593D01*
G01*
X4510635Y7656101D02*
G03*
X4538474Y7628262I13919J-13919D01*
G01*
X4595772Y7805868D02*
G03*
X4555342Y7805868I-20215J-72D01*
G01*
X4536717Y7749398D02*
G03*
X4555342Y7768023I0J18625D01*
G01*
X4536913Y7682379D02*
G03*
X4509075Y7710217I-13875J13963D01*
G01*
X4456468Y7685449D02*
G03*
X4484306Y7685449I13919J13919D01*
G01*
X4426415Y7771180D02*
G03*
X4398576Y7743341I-13875J-13964D01*
G01*
X4288425Y7686459D02*
G03*
X4260587Y7658620I-13875J-13964D01*
G01*
X4356130Y7730110D02*
G03*
X4328292Y7702270I-13875J-13964D01*
G01*
X4346363Y7628521D02*
G03*
X4374202Y7656361I13978J13861D01*
G01*
X4289394Y7488473D02*
G03*
X4289393Y7518459I-14994J14993D01*
G01*
X4263702Y7488472D02*
G03*
X4289394Y7488473I12846J12845D01*
G01*
X4322743Y7540787D02*
G03*
X4350582Y7568626I13978J13861D01*
G01*
X4208697Y7654833D02*
G03*
X4180859Y7626994I-13875J-13964D01*
G01*
X4196673Y7441846D02*
G03*
X4216358Y7422161I19685J0D01*
G01*
X4337720Y7399908D02*
G03*
X4377090Y7399908I19685J0D01*
G01*
X4416460Y7446586D02*
G03*
X4377090Y7446586I-19685J0D01*
G01*
X4442432Y7755163D02*
G03*
X4456351Y7749398I13919J13919D01*
G01*
X4197419Y7554756D02*
G03*
X4169580Y7554756I-13919J-13919D01*
G01*
D02*
G03*
X4169580Y7526916I13919J-13920D01*
G01*
X4595772Y7769083D02*
G03*
X4615457Y7749398I19685J0D01*
G01*
X4683205Y7772861D02*
G03*
X4683205Y7800700I-13919J13919D01*
G01*
X4646541Y7865203D02*
G03*
X4646541Y7837364I13919J-13920D01*
G01*
X4711044Y7828539D02*
G03*
X4738883Y7828539I13919J13919D01*
G01*
X4674380Y7865203D02*
G03*
X4646541Y7865203I-13919J-13919D01*
G01*
X4117853Y7540794D02*
G03*
X4117853Y7580164I0J19685D01*
G01*
X4095898Y7599849D02*
G03*
X4115583Y7580164I19685J0D01*
G01*
X4054266Y7462054D02*
G03*
X4054266Y7422684I0J-19685D01*
G01*
Y7540794D02*
G03*
X4054266Y7501424I0J-19685D01*
G01*
X4117853Y7462054D02*
G03*
X4117853Y7501424I0J19685D01*
G01*
Y7383314D02*
G03*
X4117853Y7422684I0J19685D01*
G01*
X4115583Y7383314D02*
G03*
X4095898Y7363629I0J-19685D01*
G01*
X4143205Y7891887D02*
G03*
X4143205Y7865003I13442J-13442D01*
G01*
X4137346Y7815183D02*
G03*
X4165185Y7843022I13978J13861D01*
G01*
X4115366Y7837164D02*
G03*
X4087527Y7837164I-13919J-13919D01*
G01*
X3923829Y6433887D02*
G03*
X3943514Y6414202I19685J0D01*
G01*
Y6296092D02*
G03*
X3923829Y6276407I0J-19685D01*
G01*
X3941234Y6374832D02*
G03*
X3941234Y6335462I0J-19685D01*
G01*
X3970781Y6374832D02*
G03*
X3970781Y6414202I0J19685D01*
G01*
Y6296092D02*
G03*
X3970781Y6335462I0J19685D01*
G01*
X4050149Y6866689D02*
G03*
X4050149Y6827319I0J-19685D01*
G01*
X4095898Y7240704D02*
G03*
X4115583Y7221019I19685J0D01*
G01*
X4050149Y6945429D02*
G03*
X4050149Y6906059I0J-19685D01*
G01*
X4073163Y7102909D02*
G03*
X4073163Y7063539I0J-19685D01*
G01*
X4142381Y6866689D02*
G03*
X4142381Y6906059I0J19685D01*
G01*
X4050149Y7181649D02*
G03*
X4050149Y7142279I0J-19685D01*
G01*
X4147176Y7102909D02*
G03*
X4147176Y7142279I0J19685D01*
G01*
X4142381Y6945429D02*
G03*
X4142381Y6984799I0J19685D01*
G01*
Y7024169D02*
G03*
X4142381Y7063539I0J19685D01*
G01*
X4092754Y7024169D02*
G03*
X4092754Y6984799I0J-19685D01*
G01*
X4115583Y6787949D02*
G03*
X4095898Y6768264I0J-19685D01*
G01*
X4142381Y6787949D02*
G03*
X4142381Y6827319I0J19685D01*
G01*
X4225744Y7181649D02*
G03*
X4225744Y7221019I0J19685D01*
G01*
X3984078Y7142392D02*
G03*
X3984078Y7181762I0J19685D01*
G01*
X3979029Y7299872D02*
G03*
X3979029Y7260502I0J-19685D01*
G01*
X3984078Y7299872D02*
G03*
X3984078Y7339242I0J19685D01*
G01*
Y7221132D02*
G03*
X3984078Y7260502I0J19685D01*
G01*
X3981160Y7378612D02*
G03*
X4000845Y7398297I0J19685D01*
G01*
X3979029Y7142392D02*
G03*
X3979029Y7103022I0J-19685D01*
G01*
Y7378612D02*
G03*
X3979029Y7339242I0J-19685D01*
G01*
Y7221132D02*
G03*
X3979029Y7181762I0J-19685D01*
G01*
X3882298Y7189209D02*
G03*
X3882298Y7149839I0J-19685D01*
G01*
Y7425429D02*
G03*
X3882298Y7386059I0J-19685D01*
G01*
X3886634Y7031729D02*
G03*
X3886634Y7071099I0J19685D01*
G01*
X3882298Y7346689D02*
G03*
X3882298Y7307319I0J-19685D01*
G01*
Y7267949D02*
G03*
X3882298Y7228579I0J-19685D01*
G01*
Y7031729D02*
G03*
X3882298Y6992359I0J-19685D01*
G01*
Y7110469D02*
G03*
X3882298Y7071099I0J-19685D01*
G01*
Y6952989D02*
G03*
X3882298Y6913619I0J-19685D01*
G01*
X4077161Y8088456D02*
G03*
X4049322Y8088456I-13919J-13919D01*
G01*
X4132838Y8144134D02*
G03*
X4104999Y8144134I-13919J-13919D01*
G01*
X4170048Y8134762D02*
G03*
X4170048Y8162601I-13919J13919D01*
G01*
X4188516Y8199811D02*
G03*
X4160677Y8199811I-13919J-13919D01*
G01*
X4188907Y8199421D02*
G03*
X4216745Y8199421I13919J13919D01*
G01*
X4142209Y8134762D02*
G03*
X4170048Y8134762I13919J13919D01*
G01*
X4049322Y8088456D02*
G03*
X4049322Y8060617I13919J-13920D01*
G01*
X4104999Y8144134D02*
G03*
X4104999Y8116295I13919J-13920D01*
G01*
X4160677Y8199811D02*
G03*
X4160677Y8171972I13919J-13920D01*
G01*
X4114371Y8079085D02*
G03*
X4114371Y8106924I-13919J13919D01*
G01*
X4086532Y8079084D02*
G03*
X4114371Y8079085I13919J13919D01*
G01*
X3758530Y7789690D02*
G03*
X3778215Y7809375I0J19685D01*
G01*
Y7415675D02*
G03*
X3758530Y7435360I-19685J0D01*
G01*
X4921415Y4959592D02*
G03*
X4941374Y4981777I0J20070D01*
G01*
X6570443Y5335907D02*
G03*
X6606322Y5321045I21017J1D01*
G01*
X6525966Y5323591D02*
G03*
X6531074Y5335921I-12329J12330D01*
G01*
X6570444Y5348691D02*
G03*
X6531074Y5348691I-19685J0D01*
G01*
X6555838Y5532258D02*
G03*
X6569326Y5545747I0J13488D01*
G01*
X6540635Y5532258D02*
G03*
X6540635Y5492888I0J-19685D01*
G01*
X6555870Y5618785D02*
G03*
X6569358Y5632273I0J13488D01*
G01*
Y5565620D02*
G03*
X6555563Y5579415I-13795J0D01*
G01*
X6540667Y5618785D02*
G03*
X6540667Y5579415I0J-19685D01*
G01*
X6263412Y5657160D02*
G03*
X6263412Y5617790I0J-19685D01*
G01*
X5138224Y4976578D02*
G03*
X5177594Y4976578I19685J0D01*
G01*
X5295704D02*
G03*
X5335074Y4976578I19685J0D01*
G01*
X5216964D02*
G03*
X5256334Y4976578I19685J0D01*
G01*
X5453184Y4979691D02*
G03*
X5472869Y4960006I19685J0D01*
G01*
X5059484Y4976578D02*
G03*
X5098854Y4976578I19685J0D01*
G01*
X5295704Y4981778D02*
G03*
X5256334Y4981778I-19685J0D01*
G01*
X5453184D02*
G03*
X5413814Y4981778I-19685J0D01*
G01*
X5374444D02*
G03*
X5335074Y4981778I-19685J0D01*
G01*
X5374444Y4976578D02*
G03*
X5413814Y4976578I19685J0D01*
G01*
X5216964Y4981778D02*
G03*
X5177594Y4981778I-19685J0D01*
G01*
X4980744Y4976578D02*
G03*
X5020114Y4976578I19685J0D01*
G01*
X5059484Y4981778D02*
G03*
X5020114Y4981778I-19685J0D01*
G01*
X4980744D02*
G03*
X4941374Y4981778I-19685J0D01*
G01*
X5138224D02*
G03*
X5098854Y4981778I-19685J0D01*
G01*
X5550212Y5043567D02*
G03*
X5515755Y5057840I-20184J0D01*
G01*
X4470389Y5704207D02*
G03*
X4490927Y5724745I0J20538D01*
G01*
X4436994Y5704207D02*
G03*
X4436994Y5664837I0J-19685D01*
G01*
X4437344Y5830945D02*
G03*
X4449056Y5802668I39988J-1D01*
G01*
X4437345Y5863064D02*
G03*
X4397975Y5863064I-19685J0D01*
G01*
X4381342Y5801283D02*
G03*
X4397975Y5817915I0J16633D01*
G01*
X4311050Y5721510D02*
G03*
X4338889Y5749349I13978J13861D01*
G01*
X4292291Y5740270D02*
G03*
X4268769Y5740270I-11761J-11761D01*
G01*
X4320130Y5791631D02*
G03*
X4320130Y5768109I11761J-11761D01*
G01*
X6260397Y5735900D02*
G03*
X6260397Y5696530I0J-19685D01*
G01*
X6276604Y5499680D02*
G03*
X6254045Y5477121I0J-22559D01*
G01*
X4340291Y5838619D02*
G03*
X4340291Y5877989I0J19685D01*
G01*
X4225952Y5789209D02*
G03*
X4265322Y5789209I19685J0D01*
G01*
X4281955Y5838619D02*
G03*
X4265322Y5821986I0J-16633D01*
G01*
X4225952D02*
G03*
X4209320Y5838619I-16633J0D01*
G01*
X6454644Y6211436D02*
G03*
X6426860Y6211439I-13894J-13893D01*
G01*
X6523140Y6305225D02*
G03*
X6491246Y6337118I-15938J15956D01*
G01*
X6493538Y6172543D02*
G03*
X6522093Y6201100I14312J14244D01*
G01*
X6482943Y6265027D02*
G03*
X6482942Y6240251I12388J-12388D01*
G01*
X6294637Y5735900D02*
G03*
X6313680Y5754943I0J19043D01*
G01*
X6297093Y5578420D02*
G03*
X6297093Y5617790I0J19685D01*
G01*
Y5657160D02*
G03*
X6297093Y5696530I0J19685D01*
G01*
Y5499680D02*
G03*
X6297093Y5539050I0J19685D01*
G01*
X6276604Y5578420D02*
G03*
X6276604Y5539050I0J-19685D01*
G01*
X5628952Y5017726D02*
G03*
X5648637Y4998041I19685J0D01*
G01*
X5550212Y5014934D02*
G03*
X5589582Y5014934I19685J0D01*
G01*
X5628952Y5043567D02*
G03*
X5589582Y5043567I-19685J0D01*
G01*
X4776532Y5017726D02*
G03*
X4796217Y4998041I19685J0D01*
G01*
X4087557D02*
G03*
X4107242Y5017726I0J19685D01*
G01*
X4382832Y5016767D02*
G03*
X4422202Y5016767I19685J0D01*
G01*
X4461572Y5032546D02*
G03*
X4422202Y5032546I-19685J0D01*
G01*
X4225352Y5016767D02*
G03*
X4264722Y5016767I19685J0D01*
G01*
X4304092D02*
G03*
X4343462Y5016767I19685J0D01*
G01*
X4225352Y5032546D02*
G03*
X4185982Y5032546I-19685J0D01*
G01*
X4540312D02*
G03*
X4500942Y5032546I-19685J0D01*
G01*
X4304092D02*
G03*
X4264722Y5032546I-19685J0D01*
G01*
X4619052Y5016767D02*
G03*
X4658422Y5016767I19685J0D01*
G01*
X4382832Y5032546D02*
G03*
X4343462Y5032546I-19685J0D01*
G01*
X4146612Y5016767D02*
G03*
X4185982Y5016767I19685J0D01*
G01*
X4461572D02*
G03*
X4500942Y5016767I19685J0D01*
G01*
X4619052Y5032546D02*
G03*
X4579682Y5032546I-19685J0D01*
G01*
X4540312Y5016767D02*
G03*
X4579682Y5016767I19685J0D01*
G01*
X4776532Y5032546D02*
G03*
X4737162Y5032546I-19685J0D01*
G01*
X4697792Y5016767D02*
G03*
X4737162Y5016767I19685J0D01*
G01*
X4697792Y5032546D02*
G03*
X4658422Y5032546I-19685J0D01*
G01*
X4146612D02*
G03*
X4107242Y5032546I-19685J0D01*
G01*
X3915379Y6045500D02*
G03*
X3915379Y6006130I0J-19685D01*
G01*
X3996124Y6045500D02*
G03*
X3996124Y6084870I0J19685D01*
G01*
X4081012Y6084081D02*
G03*
X4081012Y6044711I0J-19685D01*
G01*
X4159049Y6025026D02*
G03*
X4139364Y6044711I-19685J0D01*
G01*
Y6084081D02*
G03*
X4159049Y6103766I0J19685D01*
G01*
X3974806Y5966760D02*
G03*
X3974806Y6006130I0J19685D01*
G01*
X3915285Y5966760D02*
G03*
X3895600Y5947075I0J-19685D01*
G01*
Y6104555D02*
G03*
X3915285Y6084870I19685J0D01*
G01*
X5055072Y5605578D02*
G03*
X5055072Y5575098I0J-15240D01*
G01*
X5066175Y5544618D02*
G03*
X5050935Y5529378I0J-15240D01*
G01*
X5072193Y5544618D02*
G03*
X5072193Y5575098I0J15240D01*
G01*
X5050935Y5712258D02*
G03*
X5066175Y5697018I15240J0D01*
G01*
X5072193Y5666538D02*
G03*
X5072193Y5697018I0J15240D01*
G01*
X5069324Y5605578D02*
G03*
X5069324Y5636058I0J15240D01*
G01*
X1500773Y7469292D02*
G03*
X1521745Y7448320I20971J0D01*
G01*
X4504623Y7123760D02*
G03*
X4492378Y7094196I29563J-29563D01*
G01*
X4430093Y6938138D02*
G03*
X4492378Y7000423I0J62285D01*
G01*
X4651063Y6858620D02*
G03*
X4630406Y6867177I-20657J-20657D01*
G01*
X4310445Y6938138D02*
G03*
X4275873Y6903566I0J-34572D01*
G01*
X4360806Y6873131D02*
G03*
X4317655Y6872402I-21582J26D01*
G01*
X4275872Y6839571D02*
G03*
X4317655Y6839570I20891J-73D01*
G01*
X4360806Y6823910D02*
G03*
X4400052Y6823909I19623J-71D01*
G01*
X4417335Y6861024D02*
G03*
X4400052Y6843741I0J-17282D01*
G01*
X4504208Y6861024D02*
G03*
X4532623Y6889438I0J28414D01*
G01*
X4571993Y6889194D02*
G03*
X4594010Y6867177I22018J0D01*
G01*
X4571993Y6918538D02*
G03*
X4532623Y6918538I-19685J0D01*
G01*
X1502603Y7147763D02*
G03*
X1519882Y7140606I17279J17280D01*
G01*
X1569041Y6573163D02*
G03*
X1539137Y6546659I-15752J-12350D01*
G01*
X1569041Y6573163D02*
G03*
X1581714Y6567914I12672J12673D01*
G01*
X1538421Y6491698D02*
G03*
X1566260Y6519537I13978J13861D01*
G01*
X1482645Y6436117D02*
G03*
X1510484Y6463957I14001J13838D01*
G01*
X1458108Y6460656D02*
G03*
X1430269Y6432817I-13875J-13964D01*
G01*
X1511117Y6519001D02*
G03*
X1483279Y6491163I-13875J-13964D01*
G01*
X1432982Y6402266D02*
G03*
X1432982Y6430105I-13919J13919D01*
G01*
X1906256Y6347473D02*
G03*
X1946079Y6347471I19912J-102D01*
G01*
X1985898Y6461102D02*
G03*
X1946079Y6461102I-19910J0D01*
G01*
X1459311Y6362760D02*
G03*
X1431472Y6334921I-13875J-13964D01*
G01*
X1592992Y6451789D02*
G03*
X1565154Y6423950I-13875J-13964D01*
G01*
X1537315Y6396111D02*
G03*
X1509476Y6368273I-13875J-13964D01*
G01*
X1592992Y6451789D02*
G03*
X1565154Y6423950I-13875J-13964D01*
G01*
X1537315Y6396111D02*
G03*
X1509476Y6368273I-13875J-13964D01*
G01*
X4791999Y6966198D02*
G03*
X4768979Y6966198I-11510J-11510D01*
G01*
X4747427Y6987750D02*
G03*
X4747427Y7006429I-9340J9340D01*
G01*
X4721150Y6961473D02*
G03*
X4742702Y6939921I10729J-10823D01*
G01*
X4487700Y6455225D02*
G03*
X4487700Y6487249I0J16012D01*
G01*
X2064085Y5847195D02*
G03*
X2024715Y5847195I-19685J0D01*
G01*
X2064085Y5839272D02*
G03*
X2103455Y5839272I19685J0D01*
G01*
X2048352Y5909802D02*
G03*
X2064309Y5925759I0J15957D01*
G01*
X2083940Y5778726D02*
G03*
X2064886Y5759671I0J-19054D01*
G01*
X2005030Y5909802D02*
G03*
X1985345Y5890117I0J-19685D01*
G01*
X2123140Y5778726D02*
G03*
X2142825Y5798411I0J19685D01*
G01*
X2115194Y6580300D02*
G03*
X2115194Y6622568I0J21134D01*
G01*
X2087428Y6642253D02*
G03*
X2107113Y6622568I19685J0D01*
G01*
X2087428Y6663469D02*
G03*
X2048058Y6663469I-19685J0D01*
G01*
X2008688Y6639355D02*
G03*
X2048058Y6639355I19685J0D01*
G01*
X1929948Y6636458D02*
G03*
X1969318Y6636458I19685J0D01*
G01*
X2008688Y6660571D02*
G03*
X1969318Y6660571I-19685J0D01*
G01*
X2027416Y6444239D02*
G03*
X2047101Y6424554I19685J0D01*
G01*
X2068859Y6385184D02*
G03*
X2068859Y6424554I0J19685D01*
G01*
X2042567Y6385184D02*
G03*
X2042567Y6345814I0J-19685D01*
G01*
X2047101Y6306444D02*
G03*
X2027416Y6286759I0J-19685D01*
G01*
X1906256Y6418281D02*
G03*
X1862093Y6418281I-22082J-75D01*
G01*
X1749748Y6376037D02*
G03*
X1783353Y6389956I13919J13919D01*
G01*
X1822723Y6417571D02*
G03*
X1783353Y6417571I-19685J0D01*
G01*
X1608728Y6436054D02*
G03*
X1622647Y6430288I13919J13919D01*
G01*
X1548563Y6301347D02*
G03*
X1548563Y6329186I-13919J13919D01*
G01*
X1576401Y6357025D02*
G03*
X1604240Y6357025I13919J13919D01*
G01*
X1421810Y6297060D02*
G03*
X1435729Y6330665I0J19685D01*
G01*
X1604240Y6357025D02*
G03*
X1604240Y6384864I-13919J13919D01*
G01*
X1520724Y6301347D02*
G03*
X1548563Y6301347I13919J13919D01*
G01*
X1220545Y6418197D02*
G03*
X1192794Y6418197I-13875J-13964D01*
G01*
X1248456Y6390286D02*
G03*
X1276222Y6390270I13892J13947D01*
G01*
X1248502Y6445918D02*
G03*
X1276222Y6445947I13845J13993D01*
G01*
X1106196Y6743131D02*
G03*
X1145566Y6743131I19685J0D01*
G01*
X1263676Y6794837D02*
G03*
X1224306Y6794837I-19685J0D01*
G01*
X1184936Y6791188D02*
G03*
X1145566Y6791188I-19685J0D01*
G01*
X1267471Y6856345D02*
G03*
X1306841Y6856345I19685J0D01*
G01*
X1188731D02*
G03*
X1228101Y6856345I19685J0D01*
G01*
X1326526Y6904842D02*
G03*
X1306841Y6885157I0J-19685D01*
G01*
X1467723Y6964623D02*
G03*
X1467767Y6936829I13964J-13875D01*
G01*
X1623283Y7089762D02*
G03*
X1617494Y7075819I13895J-13944D01*
G01*
X1454540Y5993105D02*
G03*
X1426702Y5965266I-13875J-13964D01*
G01*
X1409955Y6069372D02*
G03*
X1409955Y6030002I0J-19685D01*
G01*
X1422058Y6148112D02*
G03*
X1422058Y6108742I0J-19685D01*
G01*
X1552398Y6205212D02*
G03*
X1532713Y6185527I0J-19685D01*
G01*
X1525728Y6069372D02*
G03*
X1525728Y6108742I0J19685D01*
G01*
X1513028Y6148112D02*
G03*
X1532713Y6167797I0J19685D01*
G01*
Y6010317D02*
G03*
X1513028Y6030002I-19685J0D01*
G01*
X1591768Y6205212D02*
G03*
X1611453Y6224897I0J19685D01*
G01*
X1513028Y5983646D02*
G03*
X1532713Y6003331I0J19685D01*
G01*
X1441971Y5949997D02*
G03*
X1455846Y5944276I13875J13963D01*
G01*
X1425676Y5910615D02*
G03*
X1439539Y5904906I13863J13976D01*
G01*
X1458279Y5989367D02*
G03*
X1472154Y5983646I13875J13963D01*
G01*
X1549882Y5904906D02*
G03*
X1563757Y5910627I0J19685D01*
G01*
X1605732Y5952602D02*
G03*
X1611453Y5966477I-13963J13875D01*
G01*
X1533575Y5944276D02*
G03*
X1547450Y5949997I0J19685D01*
G01*
X1566362Y5968909D02*
G03*
X1572083Y5982784I-13963J13875D01*
G01*
X1500773Y7634122D02*
G03*
X1460133Y7634122I-20320J0D01*
G01*
X1596086Y7533044D02*
G03*
X1596086Y7573684I0J20320D01*
G01*
X1338213Y7555208D02*
G03*
X1297573Y7555208I-20320J0D01*
G01*
X1521093Y7533044D02*
G03*
X1500773Y7512724I0J-20320D01*
G01*
Y7594004D02*
G03*
X1521093Y7573684I20320J0D01*
G01*
X1419493Y7341953D02*
G03*
X1460133Y7341953I20320J0D01*
G01*
X1419493Y7563283D02*
G03*
X1378853Y7563283I-20320J0D01*
G01*
X1338213Y7398032D02*
G03*
X1378853Y7398032I20320J0D01*
G01*
X1237633Y7079565D02*
G03*
X1237633Y7120205I0J20320D01*
G01*
X1096914Y7079565D02*
G03*
X1096914Y7038925I0J-20320D01*
G01*
Y7323405D02*
G03*
X1096914Y7282765I0J-20320D01*
G01*
Y7160845D02*
G03*
X1096914Y7120205I0J-20320D01*
G01*
X1292246Y7323405D02*
G03*
X1292246Y7364045I0J20320D01*
G01*
X1274653Y7028764D02*
G03*
X1250124Y7038925I-24530J-24527D01*
G01*
X1211348Y7384365D02*
G03*
X1231668Y7364045I20320J0D01*
G01*
X1228222Y7242125D02*
G03*
X1228222Y7282765I0J20320D01*
G01*
Y7160845D02*
G03*
X1228222Y7201485I0J20320D01*
G01*
X1096914Y7242125D02*
G03*
X1096914Y7201485I0J-20320D01*
G01*
X1277253Y7444143D02*
G03*
X1297573Y7464463I0J20320D01*
G01*
X4361434Y4583757D02*
G03*
X4400804Y4583757I19685J0D01*
G01*
X3967734D02*
G03*
X4007104Y4583757I19685J0D01*
G01*
X4518914D02*
G03*
X4558284Y4583757I19685J0D01*
G01*
X4203954D02*
G03*
X4243324Y4583757I19685J0D01*
G01*
X3751199Y4568200D02*
G03*
X3770884Y4587885I0J19685D01*
G01*
X3888994Y4583757D02*
G03*
X3928364Y4583757I19685J0D01*
G01*
X4440174D02*
G03*
X4479544Y4583757I19685J0D01*
G01*
X4676394Y4588095D02*
G03*
X4637024Y4588095I-19685J0D01*
G01*
X4125214Y4583757D02*
G03*
X4164584Y4583757I19685J0D01*
G01*
X4676394Y4587885D02*
G03*
X4696079Y4568200I19685J0D01*
G01*
X4361434Y4588095D02*
G03*
X4322064Y4588095I-19685J0D01*
G01*
X4282694D02*
G03*
X4243324Y4588095I-19685J0D01*
G01*
X4046474Y4583757D02*
G03*
X4085844Y4583757I19685J0D01*
G01*
X4440174Y4588095D02*
G03*
X4400804Y4588095I-19685J0D01*
G01*
X4282694Y4583757D02*
G03*
X4322064Y4583757I19685J0D01*
G01*
X4597654Y4588095D02*
G03*
X4558284Y4588095I-19685J0D01*
G01*
X4597654Y4583757D02*
G03*
X4637024Y4583757I19685J0D01*
G01*
X4203954Y4588095D02*
G03*
X4164584Y4588095I-19685J0D01*
G01*
X4046474D02*
G03*
X4007104Y4588095I-19685J0D01*
G01*
X4518914D02*
G03*
X4479544Y4588095I-19685J0D01*
G01*
X3888994D02*
G03*
X3849624Y4588095I-19685J0D01*
G01*
X3810254D02*
G03*
X3770884Y4588095I-19685J0D01*
G01*
X3967734D02*
G03*
X3928364Y4588095I-19685J0D01*
G01*
X3810254Y4583909D02*
G03*
X3849624Y4583909I19685J0D01*
G01*
X4125214Y4588095D02*
G03*
X4085844Y4588095I-19685J0D01*
G01*
X1321255Y6282744D02*
G03*
X1281885Y6282744I-19685J0D01*
G01*
X1163775Y6238337D02*
G03*
X1203145Y6238337I19685J0D01*
G01*
X1106533Y6248254D02*
G03*
X1124405Y6266126I0J17872D01*
G01*
X1182548Y6161029D02*
G03*
X1143178Y6161029I-19685J0D01*
G01*
X1241603Y6158959D02*
G03*
X1221918Y6139274I0J-19685D01*
G01*
X1103808D02*
G03*
X1084123Y6158959I-19685J0D01*
G01*
X1242515Y6254497D02*
G03*
X1281885Y6254497I19685J0D01*
G01*
X1321255Y6266126D02*
G03*
X1340940Y6246441I19685J0D01*
G01*
X1598963Y6935146D02*
G03*
X1598963Y6907307I13919J-13919D01*
G01*
X1416270Y6700257D02*
G03*
X1388431Y6700257I-13919J-13919D01*
G01*
X2536768Y6329217D02*
G03*
X2556453Y6348902I0J19685D01*
G01*
X2753303Y6382945D02*
G03*
X2713933Y6382945I-19685J0D01*
G01*
X2674563Y6400376D02*
G03*
X2635193Y6400376I-19685J0D01*
G01*
X2753303Y6348902D02*
G03*
X2772988Y6329217I19685J0D01*
G01*
X2900109Y6627515D02*
G03*
X2860739Y6627515I-19685J0D01*
G01*
X2742629Y6519447D02*
G03*
X2781999Y6519447I19685J0D01*
G01*
X2585149Y6627515D02*
G03*
X2545779Y6627515I-19685J0D01*
G01*
X2506409Y6519447D02*
G03*
X2545779Y6519447I19685J0D01*
G01*
X2742629Y6627515D02*
G03*
X2703259Y6627515I-19685J0D01*
G01*
X2585149Y6519447D02*
G03*
X2624519Y6519447I19685J0D01*
G01*
X2663889D02*
G03*
X2703259Y6519447I19685J0D01*
G01*
X2973083Y6544740D02*
G03*
X2939479Y6530820I-13919J-13919D01*
G01*
X2821369Y6627515D02*
G03*
X2781999Y6627515I-19685J0D01*
G01*
X2663889D02*
G03*
X2624519Y6627515I-19685J0D01*
G01*
X2821369Y6519447D02*
G03*
X2860739Y6519447I19685J0D01*
G01*
X2900109D02*
G03*
X2939479Y6519447I19685J0D01*
G01*
X4865618Y5682180D02*
G03*
X4865618Y5651700I0J-15240D01*
G01*
X4867762Y5743140D02*
G03*
X4867762Y5712660I0J-15240D01*
G01*
X4899518Y5682180D02*
G03*
X4899518Y5712660I0J15240D01*
G01*
X4875694Y5743140D02*
G03*
X4890934Y5758380I0J15240D01*
G01*
Y5636460D02*
G03*
X4875694Y5651700I-15240J0D01*
G01*
X4939455Y5404083D02*
G03*
X4961007Y5404083I10776J10776D01*
G01*
X4998364Y5419888D02*
G03*
X4976812Y5419888I-10776J-10776D01*
G01*
X4982560Y5382531D02*
G03*
X4982560Y5360978I10776J-10776D01*
G01*
X4998364Y5398335D02*
G03*
X4998364Y5419888I-10776J10776D01*
G01*
X4946764Y5287545D02*
G03*
X4968316Y5287545I10776J10776D01*
G01*
X4908519Y5357063D02*
G03*
X4908519Y5378616I-10776J10776D01*
G01*
X4946764Y5309097D02*
G03*
X4946764Y5287545I10776J-10776D01*
G01*
X4952116Y5314450D02*
G03*
X4952116Y5336003I-10776J10776D01*
G01*
X4994729Y5292405D02*
G03*
X4973176Y5292405I-10776J-10776D01*
G01*
X4903658Y5352203D02*
G03*
X4903658Y5330651I10776J-10776D01*
G01*
X4903658Y5330650D02*
G03*
X4925211Y5330650I10776J10776D01*
G01*
X4952116Y5336003D02*
G03*
X4930563Y5336003I-10776J-10776D01*
G01*
X5057096Y5666538D02*
G03*
X5057096Y5636058I0J-15240D01*
G01*
X1662822Y5861670D02*
X1729017D01*
X1592091Y5790939D02*
X1662822Y5861670D01*
X1784991Y5824305D02*
X1785264Y5824579D01*
X1812210Y5853311D02*
X1839197Y5826324D01*
X1785264Y5824579D02*
X1811359Y5798485D01*
X1812211Y5879816D02*
X1901580Y5969184D01*
X1741274Y5873927D02*
Y5896722D01*
X1729017Y5861670D02*
X1741274Y5873927D01*
X1720701Y5917294D02*
X1741274Y5896722D01*
X1622739Y5760293D02*
X1686751Y5824305D01*
X1784991D01*
X1929870Y5969184D02*
X1952646Y5946408D01*
X1962148Y6580300D02*
X2115194D01*
X1962148Y6540939D02*
X2008929D01*
X2125915Y6265363D02*
Y6423953D01*
X2025038Y6164487D02*
X2125915Y6265363D01*
X2008929Y6540939D02*
X2125915Y6423953D01*
X1906503Y6117226D02*
X1927968Y6095761D01*
X2138012Y6150785D02*
X2148854Y6139943D01*
X2097983Y6135137D02*
X2121016Y6112104D01*
X2070144Y6107298D02*
X2091173Y6086269D01*
X2046847Y6074917D02*
X2063334Y6058430D01*
X2019008Y6047079D02*
X2035896Y6030191D01*
X1990233Y6020177D02*
X2008057Y6002352D01*
X1962394Y5992338D02*
X1980484Y5974247D01*
X1878665Y6089387D02*
X1903068Y6064984D01*
X1849753Y6062621D02*
X1875229Y6037145D01*
X1821914Y6034782D02*
X1848059Y6008637D01*
X1795908Y6005111D02*
X1820220Y5980799D01*
X1768069Y5977272D02*
X1793182Y5952159D01*
X1746536Y5943128D02*
X1765343Y5924321D01*
X2070144Y6107298D02*
X2070144Y6107298D01*
X2097983Y6135137D02*
X2097983Y6135137D01*
X2138012Y6178624D02*
X2171155Y6211767D01*
Y6581888D01*
X1955124Y6152122D02*
X1967488Y6164487D01*
X2025038D01*
X1929948Y6636458D02*
Y6660571D01*
X1881859Y6674526D02*
X1915993D01*
X1929948Y6660571D01*
X1049607Y6413591D02*
X1094496Y6458480D01*
X1077446Y6385752D02*
X1121737Y6430044D01*
X1061155Y6566485D02*
X1184936Y6690266D01*
X1061155Y6519343D02*
Y6566485D01*
Y6519343D02*
X1094496Y6486002D01*
X1276222Y6390270D02*
X1338050Y6452098D01*
X1276222Y6445947D02*
X1310211Y6479936D01*
X1538754Y7046525D02*
Y7061997D01*
X1578124Y7029622D02*
Y7061997D01*
X1108128Y6558538D02*
X1193869Y6644278D01*
X1217372D02*
X1231227Y6630423D01*
X1224306Y6693022D02*
X1259066Y6658261D01*
X1224306Y6693022D02*
Y6794837D01*
X1467767Y6936829D02*
X1491260Y6913336D01*
X1448885Y6843930D02*
X1491261Y6886306D01*
X1448885Y6820065D02*
Y6843930D01*
X1408576Y6820065D02*
Y6878985D01*
X1382719Y6904842D02*
X1408576Y6878985D01*
X1476535Y7205212D02*
X1528077Y7256754D01*
X1502603Y7175602D02*
X1555916Y7228915D01*
X1149662Y6430043D02*
X1161593Y6418112D01*
X1431610Y7218914D02*
X1445313Y7205211D01*
X1101998Y6874719D02*
Y6989293D01*
X1072969Y6706197D02*
Y6845690D01*
X1101998Y6874719D01*
X1071376Y6704604D02*
X1072969Y6706197D01*
X1106196Y6813180D02*
X1149361Y6856345D01*
X1106196Y6743131D02*
Y6813180D01*
X1403692Y7190997D02*
X1501316Y7093373D01*
X1572083Y5982784D02*
Y6140500D01*
X1611453Y5966477D02*
Y6140500D01*
X1525297Y6966520D02*
X1570912Y7012135D01*
X1553136Y6938681D02*
X1611010Y6996555D01*
X1267471Y6856345D02*
Y6902876D01*
X1228101Y6856345D02*
Y6902876D01*
X1149361Y6856345D02*
Y6898349D01*
X1188731Y6856345D02*
Y6898349D01*
X1263676Y6755505D02*
Y6794837D01*
X1303046Y6755505D02*
Y6758006D01*
X1165121Y6501879D02*
X1169192Y6505950D01*
X1137028Y6529463D02*
X1141353Y6533788D01*
X1573533Y6877059D02*
X1587094Y6863498D01*
X1598963Y6907307D02*
X1614933Y6891337D01*
X1545695Y6849220D02*
X1590463Y6804452D01*
X1518914Y6820323D02*
X1562624Y6776613D01*
X1491076Y6792484D02*
X1540420Y6743140D01*
X1433244Y6738960D02*
X1481942Y6690262D01*
X1461083Y6766800D02*
X1512581Y6715302D01*
X1416269Y6700257D02*
X1454103Y6662424D01*
X1862093Y6286048D02*
Y6418281D01*
X1822723Y6286048D02*
Y6417571D01*
X2042567Y6345814D02*
X2073029D01*
X2047101Y6306444D02*
X2073029D01*
X1985898Y6231775D02*
Y6461102D01*
X2027416Y6233292D02*
Y6286759D01*
X2103455Y5839272D02*
Y5873257D01*
X2142825Y5798411D02*
Y5873257D01*
X1985345Y5817291D02*
Y5890117D01*
X2024715Y5817291D02*
Y5847195D01*
X1242515Y6254497D02*
Y6321569D01*
X1203145Y6238337D02*
Y6321569D01*
X1124405Y6266126D02*
Y6307036D01*
X1163775Y6238337D02*
Y6307036D01*
X1048500Y6180572D02*
X1070112Y6158959D01*
X1048500Y6229437D02*
X1067316Y6248254D01*
X1048500Y6180572D02*
Y6229437D01*
X1103808Y6113470D02*
Y6139274D01*
X1143178Y6113470D02*
Y6161029D01*
X1182548Y6110349D02*
Y6161029D01*
X1221918Y6110349D02*
Y6139274D01*
X1067316Y6248254D02*
X1106533D01*
X1070112Y6158959D02*
X1084123D01*
X4250119Y7920598D02*
X4281229Y7951708D01*
X4448117D01*
X4250119Y7809447D02*
Y7920598D01*
X3475980Y7330611D02*
Y7408322D01*
X3454476Y7310926D02*
X3456295D01*
X3454476Y7271556D02*
X3456295D01*
X3475980Y7244885D02*
Y7251871D01*
Y6943669D02*
Y7244885D01*
Y7408322D02*
Y7441290D01*
Y6943669D02*
X3577474Y6842175D01*
X1617494Y7012277D02*
Y7075819D01*
X1467723Y6964623D02*
X1531125Y7028025D01*
X3019485Y5504989D02*
X3038934D01*
X3018315Y5583729D02*
X3039592D01*
X3019485Y5544359D02*
X3039592D01*
X3018315Y5623099D02*
X3039592D01*
X3020655Y5701839D02*
X3038934D01*
X3020655Y5662469D02*
X3039592D01*
X2464462Y6360347D02*
X2495593Y6329217D01*
X2536768D01*
X2464462Y6360347D02*
Y6627515D01*
X2556453Y6348902D02*
Y6421251D01*
X2595823Y6316703D02*
Y6421251D01*
X2635193Y6316703D02*
Y6400376D01*
X2674563Y6314574D02*
Y6400376D01*
X2713933Y6314574D02*
Y6382945D01*
X2810516Y6329217D02*
X2890223Y6249509D01*
X2772988Y6329217D02*
X2810516D01*
X2956015Y5784300D02*
Y5892532D01*
X2891308Y5957239D02*
X2956015Y5892532D01*
X2956735Y5256113D02*
X3056892Y5155956D01*
X2956735Y5256113D02*
Y5703124D01*
X3058619Y5721524D02*
Y5768516D01*
Y5478317D02*
Y5485304D01*
Y5449706D02*
X3091302Y5417023D01*
X3058619Y5449706D02*
Y5478317D01*
Y5768516D02*
Y5775350D01*
X3080431Y5797162D01*
X3108223Y5646589D02*
X3138396D01*
X3108223Y5607219D02*
X3138396D01*
X3108223Y5567849D02*
X3140965D01*
X3108223Y5528479D02*
X3140965D01*
X3108223Y5370999D02*
X3184877D01*
X3155289Y5410369D02*
X3184877D01*
X3135604Y5430054D02*
Y5469424D01*
X3108223Y5685959D02*
X3115919D01*
X3135604Y5207882D02*
Y5311944D01*
X3108223Y5331629D02*
X3115919D01*
X3108223Y5489109D02*
X3115919D01*
X3135604Y5705644D02*
Y5783182D01*
X3199565Y5237013D02*
Y5269566D01*
X3186644Y5177958D02*
X3220341D01*
X3219250Y5020478D02*
X3220341D01*
X3219250Y5217328D02*
X3220341D01*
X3186644Y5099218D02*
X3220341D01*
X3199565Y4954437D02*
Y5000793D01*
X3186644Y5059848D02*
X3220341D01*
X3186644Y5138588D02*
X3220341D01*
X3199565Y5269566D02*
Y5271238D01*
Y4938128D02*
Y4954437D01*
X3207974Y5469297D02*
X3255159D01*
X3207974Y5587407D02*
X3227993D01*
X3198774Y5664149D02*
X3241912Y5621011D01*
X3207974Y5548037D02*
X3267859D01*
X3207974Y5508667D02*
X3267859D01*
X3274844Y5403400D02*
Y5449612D01*
X3241912Y5621011D02*
X3241912Y5621011D01*
X3291868Y5265605D02*
X3311947D01*
X3291868Y5304975D02*
X3311947D01*
X3274844Y4934468D02*
Y5009700D01*
X3291868Y5068755D02*
X3311947D01*
X3291868Y5226235D02*
X3311947D01*
X3294529Y5029385D02*
X3311947D01*
X3291868Y5108125D02*
X3311947D01*
X3291868Y5186865D02*
X3311947D01*
X3294529Y5383715D02*
X3311947D01*
X3291868Y5344345D02*
X3311947D01*
X3291868Y5147495D02*
X3311947D01*
X3257353Y4916977D02*
X3274844Y4934468D01*
X3080431Y5797162D02*
X3121623D01*
X3135604Y5783182D01*
X3199565Y4938128D02*
X3220716Y4916977D01*
X3257353D01*
X3996160Y6819847D02*
Y7087646D01*
Y6819847D02*
X4009884Y6806123D01*
X3887305Y6484035D02*
X4009884Y6606613D01*
X3887305Y6195946D02*
Y6484035D01*
X4009884Y6606613D02*
Y6806123D01*
X3862714Y5903188D02*
Y6502274D01*
X3978311Y6617870D02*
Y6765727D01*
X3862714Y6502274D02*
X3978311Y6617870D01*
X3944648Y6799389D02*
X3978311Y6765727D01*
X4040746Y6700248D02*
X4095898Y6755400D01*
X3923829Y6473074D02*
X4040746Y6589991D01*
Y6700248D01*
X3629395Y5669869D02*
X3862714Y5903188D01*
X4814003Y8113235D02*
X4895600Y8031638D01*
Y8002398D02*
Y8031638D01*
X4523147Y8113235D02*
X4814003D01*
X4444403Y8113240D02*
X4444407Y8113235D01*
X4314164Y8113240D02*
X4444403D01*
X4464092Y8058523D02*
Y8093550D01*
X4503462Y8058523D02*
Y8093550D01*
X4107049Y7906125D02*
X4314164Y8113240D01*
X4984500Y7913498D02*
X5127890D01*
X4895600Y8002398D02*
X4984500Y7913498D01*
X4096913Y7906125D02*
X4107049D01*
X4776696Y8190017D02*
X4936208Y8030505D01*
X4293909Y8190017D02*
X4776696D01*
X4936208Y8030505D02*
X5243652D01*
X4779406Y8233920D02*
X4939621Y8073705D01*
X4251245Y8233920D02*
X4779406D01*
X4939621Y8073705D02*
X5039740D01*
X3843149Y7474317D02*
X3847028D01*
X3827316Y7513687D02*
X3847028D01*
X3823464Y7690852D02*
Y7697838D01*
X3827316Y7553057D02*
X3847028D01*
X3843149Y7671167D02*
X3847028D01*
X3827316Y7592427D02*
X3847028D01*
X3827316Y7631797D02*
X3847028D01*
X3823464Y7303081D02*
Y7454632D01*
Y7697838D02*
Y7806139D01*
Y6752199D02*
Y7303081D01*
X3992076Y7920029D02*
X3992077Y7920030D01*
X4066070Y7957391D02*
X4066070Y7957391D01*
X4245970Y8111556D02*
X4245971Y8111556D01*
X4038231Y7929552D02*
X4038231Y7929552D01*
X4244629Y8140737D02*
X4274536Y8170644D01*
X4190293Y8028040D02*
X4190293Y8028040D01*
X4106777Y7972362D02*
X4106777Y7972362D01*
X4047754Y7975707D02*
X4066070Y7957391D01*
X4075593Y8003546D02*
X4106777Y7972362D01*
X4134615Y8000201D02*
X4134616Y8000201D01*
X3994079Y7918026D02*
X3994080Y7918027D01*
X4162454Y8028040D02*
X4162454Y8028040D01*
X3992076Y7947868D02*
X3992077Y7947869D01*
X3933462Y7829570D02*
X3994080Y7890188D01*
X4134616Y7972362D02*
X4134616Y7972362D01*
X4170813Y8075359D02*
X4190293Y8055878D01*
X4075593Y8003546D02*
X4075593Y8003546D01*
X4190293Y8055878D02*
X4190293Y8055878D01*
X4142974Y8047520D02*
X4162454Y8028040D01*
X4245971Y8083717D02*
X4245971Y8083717D01*
X4019915Y7947868D02*
X4038231Y7929552D01*
X3992077Y7920030D02*
X3994080Y7918027D01*
X4019915Y7947868D02*
X4019915Y7947868D01*
X4218132Y8083717D02*
X4218132Y8083717D01*
X4115136Y8019681D02*
X4134616Y8000201D01*
X4142974Y8047520D02*
X4142974Y8047520D01*
X4244629Y8112898D02*
X4245971Y8111556D01*
X4198652Y8103197D02*
X4218132Y8083717D01*
X4198652Y8103197D02*
X4198652Y8103197D01*
X4170813Y8075358D02*
X4170813Y8075359D01*
X4115135Y8019681D02*
X4115136Y8019681D01*
X4047754Y7975707D02*
X4047754Y7975707D01*
X3911340Y7443192D02*
Y7491125D01*
Y7807448D02*
X3933462Y7829570D01*
X3951634Y7939755D02*
X4049643Y8037764D01*
X3911340Y7727345D02*
Y7807448D01*
X4274536Y8170644D02*
X4293909Y8190017D01*
X4216745Y8199421D02*
X4251245Y8233920D01*
X3931025Y7510810D02*
X3953261D01*
X3931025Y7707660D02*
X3953261D01*
X3918325Y7668290D02*
X3953261D01*
X3918325Y7589550D02*
X3953261D01*
X3918325Y7628920D02*
X3953261D01*
X3918325Y7550180D02*
X3953261D01*
X4784434Y8274219D02*
X4945430Y8113222D01*
X5000935D01*
X4184315Y8274219D02*
X4784434D01*
X3882298Y6913619D02*
X3890911D01*
X3882298Y6952989D02*
X3890911D01*
X3888548Y6874249D02*
X3890911D01*
X3882298Y6992359D02*
X3890911D01*
X3882298Y7189209D02*
X3905968D01*
X3882298Y7228579D02*
X3905968D01*
X3882298Y7149839D02*
X3905968D01*
X3882298Y7307319D02*
X3905968D01*
X3882298Y7267949D02*
X3905968D01*
X3882298Y7110469D02*
X3905968D01*
X3882298Y7386059D02*
X3905968D01*
X3882298Y7346689D02*
X3905968D01*
X3718079Y7750320D02*
X3754032D01*
X3718079Y7671580D02*
X3754032D01*
X3718079Y7514100D02*
X3754032D01*
X3718079Y7553470D02*
X3754032D01*
X3718079Y7632210D02*
X3754032D01*
X3718079Y7474730D02*
X3754032D01*
X3718079Y7592840D02*
X3754032D01*
X3718079Y7435360D02*
X3758530D01*
X3718079Y7710950D02*
X3754032D01*
X3718079Y7789690D02*
X3758530D01*
X5212787Y8073705D02*
X5250233Y8111151D01*
X5098795Y8078524D02*
Y8101292D01*
X5197220Y8073705D02*
X5212787D01*
X5138165Y8078524D02*
Y8100033D01*
X5059425Y8093390D02*
Y8101292D01*
X5177535Y8093390D02*
Y8100033D01*
X5250233Y8111151D02*
X5483006D01*
X3873250Y7884293D02*
X3873250Y7884293D01*
X3845675Y7856190D02*
X3845676Y7856190D01*
X3845411Y7856454D02*
X3845676Y7856190D01*
X3901088Y7912132D02*
X3901088Y7912132D01*
X3917462Y7895759D01*
X3845411Y7856454D02*
X3845411Y7856454D01*
X3928927Y7939971D02*
X3928927Y7939971D01*
X3917462Y7867920D02*
X3917462Y7867920D01*
X3889623Y7867920D02*
X3889623Y7867920D01*
X3823464Y7806139D02*
X3845676Y7828351D01*
X3873250Y7884293D02*
X3889623Y7867920D01*
X3917462Y7895758D02*
X3917462Y7895759D01*
X3856336Y6719326D02*
X3856337Y6719326D01*
X3854142Y6633614D02*
Y6633615D01*
X3826303Y6661454D02*
X3856337Y6691487D01*
X3912014Y6663648D02*
X3912015Y6663648D01*
X3854142Y6633615D02*
X3884176Y6663648D01*
X3912015D02*
X3942194Y6633469D01*
X3823510Y6752153D02*
X3856337Y6719326D01*
X3822627Y6752153D02*
X3823510D01*
X3778215Y7868119D02*
X4184315Y8274219D01*
X4613252Y7361880D02*
X4828849D01*
X4812032Y7401250D02*
X4828849D01*
X4706986Y7728415D02*
X4781138Y7802567D01*
X4591875Y7440620D02*
X4700374D01*
X4591875Y7401250D02*
X4731957D01*
X4613252Y7322510D02*
X4686036D01*
X4791680Y7421603D02*
Y7447348D01*
X4752310Y7421603D02*
Y7447348D01*
X4696495Y7479990D02*
X4700374D01*
X4616212Y7558730D02*
X4700374D01*
X4696495Y7519360D02*
X4700374D01*
X4616212Y7598100D02*
X4726997D01*
X4684410Y7637470D02*
X4726997D01*
X4416460Y7313796D02*
Y7446586D01*
X4466343Y7318346D02*
Y7461212D01*
X4588411Y7296209D02*
X4625401Y7259218D01*
X4526804Y7296209D02*
X4588411D01*
X4705721Y7295839D02*
Y7302825D01*
Y7727151D02*
X4706986Y7728415D01*
X4684410Y7676840D02*
X4686036D01*
X4705721Y7696525D02*
Y7727151D01*
Y7259218D02*
Y7295839D01*
X4478357Y7512259D02*
X4636039Y7669942D01*
X4538474Y7628262D02*
X4608097Y7697884D01*
X4179418Y7319618D02*
X4196881Y7302155D01*
X4179418Y7319618D02*
Y7361676D01*
X4196881Y7302155D02*
X4275860D01*
X4200533Y7382791D02*
X4235924D01*
X4337720Y7399908D02*
Y7444371D01*
X4298350Y7324644D02*
Y7444371D01*
X4505713Y7317300D02*
Y7461212D01*
X4447386Y7543231D02*
X4477604Y7573450D01*
X4356130Y7730110D02*
X4477604Y7608636D01*
X4510635Y7656101D02*
X4536913Y7682379D01*
X4555342Y7768023D02*
Y7805868D01*
X4484306Y7685449D02*
X4509075Y7710217D01*
X4451528Y7690389D02*
X4456468Y7685449D01*
X4398576Y7743342D02*
X4451528Y7690389D01*
X4426415Y7771180D02*
X4442432Y7755163D01*
X4260587Y7658620D02*
X4350582Y7568625D01*
X4288425Y7686460D02*
X4346363Y7628522D01*
X4191687Y7688877D02*
X4260976Y7758166D01*
X4134368Y7688877D02*
X4191687D01*
X4260976Y7758166D02*
X4328032D01*
X4370308Y7800442D01*
X4328292Y7702271D02*
X4374202Y7656360D01*
X4180858Y7626994D02*
X4289393Y7518459D01*
X4197419Y7554756D02*
X4263702Y7488472D01*
X4208697Y7654833D02*
X4322743Y7540787D01*
X4216358Y7422161D02*
X4235924D01*
X4196673Y7441846D02*
Y7497194D01*
X4275860Y7302155D02*
X4298350Y7324644D01*
X4377090Y7399908D02*
Y7446586D01*
X4169580Y7526916D02*
X4169580Y7526917D01*
X4456351Y7749398D02*
X4536717D01*
X4197419Y7554755D02*
X4197419Y7554756D01*
X4169580Y7526917D02*
X4197988Y7498509D01*
X4595772Y7769083D02*
Y7805868D01*
X4615457Y7749398D02*
X4659742D01*
X4646541Y7865203D02*
X4646541Y7865203D01*
X4659742Y7749398D02*
X4683205Y7772861D01*
X4683205Y7800700D02*
X4683205Y7800700D01*
X4646541Y7837364D02*
X4646541Y7837364D01*
X4674380Y7865202D02*
X4674380Y7865203D01*
X4646541Y7837364D02*
X4683205Y7800700D01*
X4674380Y7865203D02*
X4711044Y7828539D01*
X4738883D02*
X4783072Y7872728D01*
X4115583Y7580164D02*
X4117853D01*
X4054266Y7540794D02*
X4117853D01*
X4054266Y7501424D02*
X4117853D01*
X4054266Y7462054D02*
X4117853D01*
X4115583Y7383314D02*
X4117853D01*
X4054266Y7422684D02*
X4117853D01*
X4095898Y7599849D02*
Y7650407D01*
Y7240704D02*
Y7363629D01*
Y7650407D02*
X4134368Y7688877D01*
X4143205Y7891887D02*
X4324540Y8073222D01*
X4400935D01*
X4143205Y7865003D02*
X4165185Y7843022D01*
X4115366Y7837164D02*
X4137347Y7815183D01*
X4075446Y7784407D02*
X4125242Y7734611D01*
X4175282D01*
X4075446Y7784407D02*
Y7825084D01*
X4087527Y7837164D01*
X4175282Y7734611D02*
X4250119Y7809447D01*
X4115365Y7837164D02*
X4115366Y7837164D01*
X3923829Y6433887D02*
Y6473074D01*
X3941234Y6335462D02*
X3970781D01*
X3943514Y6296092D02*
X3970781D01*
X3941234Y6374832D02*
X3970781D01*
X3943514Y6414202D02*
X3970781D01*
X3923829Y6210446D02*
Y6276407D01*
X4050149Y6945429D02*
X4142381D01*
X4092754Y7024169D02*
X4142381D01*
X4092754Y6984799D02*
X4142381D01*
X4115583Y6787949D02*
X4142381D01*
X4050149Y6906059D02*
X4142381D01*
X4050149Y6827319D02*
X4142381D01*
X4115583Y7221019D02*
X4225744D01*
X4073163Y7102909D02*
X4147176D01*
X4095898Y6755400D02*
Y6768264D01*
X4050149Y7142279D02*
X4147176D01*
X4050149Y6866689D02*
X4142381D01*
X4073163Y7063539D02*
X4142381D01*
X4050149Y7181649D02*
X4225744D01*
X3979029Y7181762D02*
X3984078D01*
X3979029Y7221132D02*
X3984078D01*
X4000845Y7398297D02*
Y7810057D01*
X3979029Y7378612D02*
X3981160D01*
X3979029Y7142392D02*
X3984078D01*
X3979029Y7260502D02*
X3984078D01*
X3979029Y7299872D02*
X3984078D01*
X3979029Y7339242D02*
X3984078D01*
X4000845Y7810057D02*
X4029738Y7838949D01*
X3882298Y7071099D02*
X3886634D01*
X3868863Y6785600D02*
Y6854564D01*
X3882298Y7031729D02*
X3886634D01*
X3882298Y7425429D02*
X3890911D01*
X4104999Y8116295D02*
X4104999Y8116295D01*
X4049322Y8060617D02*
X4049322Y8060617D01*
X4104999Y8116295D02*
X4114371Y8106924D01*
X4188516Y8199811D02*
X4188907Y8199421D01*
X4170048Y8162601D02*
X4170048Y8162601D01*
X4132838Y8144133D02*
X4132838Y8144134D01*
X4142209Y8134762D02*
X4142209Y8134762D01*
X4160677Y8171972D02*
X4160677Y8171972D01*
X4049322Y8088456D02*
X4049322Y8088456D01*
X4114370Y8106923D02*
X4114371Y8106924D01*
X4160677Y8171972D02*
X4170048Y8162601D01*
X4077161Y8088456D02*
X4086532Y8079085D01*
X4077160Y8088456D02*
X4077161Y8088456D01*
X4104999Y8144134D02*
X4104999Y8144134D01*
X4188516Y8199811D02*
X4188516Y8199811D01*
X4086532Y8079084D02*
X4086532Y8079085D01*
X4132838Y8144134D02*
X4142209Y8134762D01*
X3778215Y7329948D02*
Y7415675D01*
Y7809375D02*
Y7868119D01*
Y6055047D02*
Y7329948D01*
X3868863Y6785600D02*
X3941870Y6712593D01*
X3778215Y6055047D02*
X3818459Y6014803D01*
X3738002Y5928421D02*
Y7332468D01*
X3566274Y5756693D02*
X3738002Y5928421D01*
X3633687Y7436783D02*
X3738002Y7332468D01*
X3669337Y7309279D02*
X3700792Y7277823D01*
X3535070Y5771258D02*
X3700792Y5936980D01*
Y7277823D01*
X3661916Y5945900D02*
Y7102763D01*
X3503830Y5787815D02*
X3661916Y5945900D01*
X3631436Y7133243D02*
X3661916Y7102763D01*
X3616324Y6654794D02*
Y6888669D01*
X3520367Y6984626D02*
X3616324Y6888669D01*
X3816416Y5171839D02*
X4028664Y4959592D01*
X4921415D01*
X6647099Y5361822D02*
Y5414329D01*
X6606322Y5321045D02*
X6647099Y5361822D01*
X6638232Y5291946D02*
X6693455Y5347169D01*
X6531084Y5291946D02*
X6638232D01*
X6233107Y4993969D02*
X6531084Y5291946D01*
X6570444Y5335907D02*
Y5348691D01*
X6197771Y4995396D02*
X6525966Y5323591D01*
X6531074Y5335921D02*
Y5348691D01*
X6540635Y5492888D02*
X6568540D01*
X6647099Y5414329D01*
X6569326Y5565587D02*
X6569358Y5565620D01*
X6569326Y5545747D02*
Y5565587D01*
X6540635Y5532258D02*
X6555838D01*
X6511495Y5700573D02*
X6569358Y5642710D01*
Y5632273D02*
Y5642710D01*
X6540667Y5618785D02*
X6555870D01*
X6540667Y5579415D02*
X6555563D01*
X6487839Y5897579D02*
X6511495Y5873923D01*
Y5700573D02*
Y5873923D01*
X6263412Y5617790D02*
X6297093D01*
X6263412Y5657160D02*
X6297093D01*
X4923312Y5030748D02*
X5488664D01*
X4890605Y4998041D02*
X4923312Y5030748D01*
X4796217Y4998041D02*
X4890605D01*
X5488664Y5030748D02*
X5515755Y5057840D01*
X5059484Y4976578D02*
Y4981778D01*
X5098854Y4976578D02*
Y4981778D01*
X5216964Y4976578D02*
Y4981778D01*
X5374444Y4976578D02*
Y4981778D01*
X5453184Y4979691D02*
Y4981778D01*
X5020114Y4976578D02*
Y4981778D01*
X5177594Y4976578D02*
Y4981778D01*
X5335074Y4976578D02*
Y4981778D01*
X5138224Y4976578D02*
Y4981778D01*
X5472869Y4960006D02*
X5597965D01*
X4980744Y4976578D02*
Y4981778D01*
X5295704Y4976578D02*
Y4981778D01*
X5256334Y4976578D02*
Y4981778D01*
X5413814Y4976578D02*
Y4981778D01*
X5597965Y4960006D02*
X5671780D01*
X5794328Y4837458D01*
X4490927Y5724745D02*
Y5760797D01*
X4436994Y5704207D02*
X4470389D01*
X4436994Y5664837D02*
X4484430D01*
X4537915Y5611352D01*
X4449056Y5802668D02*
X4490927Y5760797D01*
X4437345Y5830945D02*
Y5863064D01*
X4397975Y5817915D02*
Y5863064D01*
X4329627Y5801283D02*
X4381342D01*
X4320130Y5768109D02*
X4338889Y5749349D01*
X4292291Y5740270D02*
X4311051Y5721510D01*
X4320130Y5791631D02*
X4329627Y5801128D01*
Y5801283D01*
X4263502Y5735157D02*
X4268614Y5740270D01*
X4268769D01*
X3816416Y5577233D02*
X3974340Y5735157D01*
X4263502D01*
X6260397Y5735900D02*
X6294637D01*
X6260397Y5696530D02*
X6297093D01*
X6050382Y5024559D02*
X6254045Y5228222D01*
Y5477121D01*
X4281955Y5838619D02*
X4340291D01*
X4174586Y5877989D02*
X4340291D01*
X3982939Y5810862D02*
X4040599Y5868522D01*
X4115040D01*
X4144943Y5838619D01*
X4110573Y5834217D02*
X4169627Y5775163D01*
X3994014Y5773713D02*
X4054519Y5834217D01*
X4110573D01*
X4172058Y5880517D02*
X4174586Y5877989D01*
X4225952Y5789209D02*
Y5821986D01*
X4265322Y5789209D02*
Y5821986D01*
X4144943Y5838619D02*
X4209320D01*
X3958877Y5773713D02*
X3994014D01*
X3785246Y5600082D02*
X3958877Y5773713D01*
X3950598Y5810862D02*
X3982939D01*
X3785246Y5146625D02*
Y5600082D01*
X3754076Y5614339D02*
X3950598Y5810862D01*
X3754076Y5125711D02*
Y5614339D01*
X6371649Y6122859D02*
X6426639Y6067869D01*
X6371649Y6122859D02*
Y6156228D01*
X6426639Y6067869D02*
X6437092D01*
X6371649Y6156228D02*
X6426860Y6211439D01*
X6320113Y6111882D02*
Y6165986D01*
Y6111882D02*
X6442537Y5989458D01*
X6320113Y6165986D02*
X6491246Y6337118D01*
X6482943Y6265027D02*
X6523140Y6305225D01*
X6482943Y6240251D02*
X6522093Y6201100D01*
X6454645Y6211437D02*
X6493538Y6172544D01*
X6421726Y5892073D02*
X6483169Y5953516D01*
X6445301Y6167087D02*
X6483169Y6129219D01*
Y5953516D02*
Y6129219D01*
X6283220Y5825825D02*
Y6183746D01*
X6464137Y6364663D01*
X6245397Y6194658D02*
X6431833Y6381094D01*
X6245397Y6033183D02*
Y6194658D01*
X6431833Y6381094D02*
Y6636687D01*
X6464137Y6364663D02*
Y6617261D01*
X6384548Y5271849D02*
Y5906199D01*
X6442537Y5964188D01*
Y5989458D01*
X6421726Y5431629D02*
Y5892073D01*
X6315489Y6063321D02*
X6319463Y6059347D01*
X6313733Y6063321D02*
X6315489D01*
X6439136Y6167087D02*
X6445301D01*
X6313680Y6063269D02*
X6313733Y6063321D01*
X6313680Y5754943D02*
Y6063269D01*
X6276604Y5499680D02*
X6297093D01*
X6276604Y5539050D02*
X6297093D01*
X6276604Y5578420D02*
X6297093D01*
X5589582Y5014934D02*
Y5043567D01*
X5550212Y5014934D02*
Y5043567D01*
X5648637Y4998041D02*
X5694993D01*
X5628952Y5017726D02*
Y5043567D01*
X4185982Y5016767D02*
Y5032546D01*
X4225352Y5016767D02*
Y5032546D01*
X4107242Y5017726D02*
Y5032546D01*
X4146612Y5016767D02*
Y5032546D01*
X4776532Y5017726D02*
Y5032546D01*
X4500942Y5016767D02*
Y5032546D01*
X4422202Y5016767D02*
Y5032546D01*
X4304092Y5016767D02*
Y5032546D01*
X4461572Y5016767D02*
Y5032546D01*
X4658422Y5016767D02*
Y5032546D01*
X4264722Y5016767D02*
Y5032546D01*
X4343462Y5016767D02*
Y5032546D01*
X4382832Y5016767D02*
Y5032546D01*
X4697792Y5016767D02*
Y5032546D01*
X4737162Y5016767D02*
Y5032546D01*
X4057424Y4998041D02*
X4087557D01*
X4540312Y5016767D02*
Y5032546D01*
X4579682Y5016767D02*
Y5032546D01*
X4619052Y5016767D02*
Y5032546D01*
X3847767Y5207699D02*
X4057424Y4998041D01*
X4332817Y5978798D02*
X4468888D01*
X4488058Y5926385D02*
Y5959628D01*
X4468888Y5978798D02*
X4488058Y5959628D01*
X4517164Y5897279D02*
X4629144D01*
X4488058Y5926385D02*
X4517164Y5897279D01*
X4159049Y5978745D02*
Y6025026D01*
Y5978745D02*
X4187298Y5950497D01*
X4304516D01*
X4629144Y5897279D02*
X4650582Y5918716D01*
Y6035820D01*
X4577116Y6064931D02*
X4621471D01*
X4650582Y6035820D01*
X3915379Y6045500D02*
X3996124D01*
X3915379Y6006130D02*
X3974806D01*
X3915285Y6084870D02*
X3996124D01*
X4081012Y6044711D02*
X4139364D01*
X4081012Y6084081D02*
X4139364D01*
X4530934Y6018749D02*
X4577116Y6064931D01*
X4304516Y5950497D02*
X4332817Y5978798D01*
X4159049Y6103766D02*
Y6117909D01*
X4434559Y5922374D02*
X4450934Y5938749D01*
X3961396Y5922374D02*
X4434559D01*
X3691736Y5652713D02*
X3961396Y5922374D01*
X4136164Y6140793D02*
X4159049Y6117909D01*
X3916148Y6140793D02*
X4136164D01*
X3895600Y6120246D02*
X3916148Y6140793D01*
X3895600Y6104555D02*
Y6120246D01*
X3915285Y5966760D02*
X3974806D01*
X3895600Y5895433D02*
Y5947075D01*
X3660565Y5660399D02*
X3895600Y5895433D01*
X6470197Y5309116D02*
Y5383158D01*
X6421726Y5431629D02*
X6470197Y5383158D01*
X6125501Y5012802D02*
X6384548Y5271849D01*
X6350122Y6001963D02*
X6363241Y6015082D01*
X6295266Y5362562D02*
X6350122Y5417418D01*
Y6001963D01*
X6164751Y5003670D02*
X6470197Y5309116D01*
X3598225Y5006145D02*
X3910612Y4693757D01*
X5538427D01*
X3598225Y5006145D02*
Y5681594D01*
X3927547Y4731793D02*
X5559576D01*
X3629395Y5029944D02*
X3927547Y4731793D01*
X3629395Y5029944D02*
Y5669869D01*
X5656801Y4634568D02*
X6033653D01*
X6233107Y4834022D01*
Y4993969D01*
X3577474Y6566038D02*
X3582269Y6561244D01*
X3577474Y6566038D02*
Y6842175D01*
X5055072Y5575098D02*
X5072193D01*
X5055072Y5605578D02*
X5069324D01*
X5066175Y5544618D02*
X5072193D01*
X5057096Y5666538D02*
X5072193D01*
X5066175Y5697018D02*
X5072193D01*
X5057096Y5636058D02*
X5069324D01*
X5483006Y8111151D02*
X5520935Y8073222D01*
X4290935Y6418749D02*
X4330788Y6378895D01*
X5078403D02*
X5150762Y6451255D01*
X4330788Y6378895D02*
X5078403D01*
X5128496Y6339673D02*
X5151014Y6362192D01*
X5099353Y6294831D02*
X5128496Y6323974D01*
Y6339673D01*
X4711257Y6296046D02*
X4712472Y6294831D01*
X5099353D01*
X4713897Y6124695D02*
X4733791Y6144589D01*
X5232766D02*
X5306925Y6218749D01*
X4713897Y6124474D02*
Y6124695D01*
X4690934Y6101512D02*
X4713897Y6124474D01*
X4690934Y5938749D02*
Y6101512D01*
X5306925Y6218749D02*
X5610934D01*
X5150762Y6451255D02*
X5365805D01*
X5453953Y6539403D01*
X5278188Y6362192D02*
X5330934Y6414939D01*
X5151014Y6362192D02*
X5278188D01*
X4598099Y7136916D02*
X4625401Y7164218D01*
X4598099Y6965887D02*
Y7136916D01*
Y6965887D02*
X4730934Y6833052D01*
X5243652Y8030505D02*
X5280935Y7993222D01*
X3247510Y6811290D02*
X3324600Y6888380D01*
Y7108338D01*
X3361517Y6746786D02*
Y7140199D01*
Y6746786D02*
X3385913Y6722390D01*
X3361517Y7140199D02*
X3397297Y7175979D01*
X3942194Y7029088D02*
X3944648Y7026633D01*
Y6799389D02*
Y7026633D01*
X4222931Y6589492D02*
X4253744Y6558678D01*
X4551005D01*
X4610935Y6498749D01*
X4158955Y6589492D02*
X4222931D01*
X6923707Y7514535D02*
X7068023Y7658852D01*
Y7714675D01*
X7023551Y7836274D02*
X7028891Y7830934D01*
X6887525Y7538927D02*
X7028891Y7680294D01*
Y7830934D01*
X6746447Y7221212D02*
X6788871Y7263636D01*
X6746447Y6999200D02*
Y7221212D01*
Y6999200D02*
X6771738Y6973910D01*
X6843784Y7220822D02*
X6887525Y7264563D01*
X6843784Y6876499D02*
Y7220822D01*
X6783694Y6816409D02*
X6843784Y6876499D01*
X6867689Y6845617D02*
Y7195434D01*
X6774981Y6752909D02*
X6867689Y6845617D01*
Y7195434D02*
X6923707Y7251452D01*
X6774981Y6408404D02*
Y6752909D01*
X6974929Y6616582D02*
X7023128Y6568383D01*
Y6275437D02*
Y6568383D01*
X6970280Y6616582D02*
X6974929D01*
X3484392Y4503050D02*
X3651370Y4336073D01*
X3484392Y4503050D02*
Y4716345D01*
X3651370Y4149210D02*
Y4336073D01*
X3784896Y4496821D02*
X3789310Y4492407D01*
X4936846D01*
X5070027Y4625588D01*
X3784153Y4496077D02*
X3784896Y4496821D01*
X3473545Y4794228D02*
Y5584258D01*
X3416548Y5641255D02*
Y5744753D01*
Y5641255D02*
X3473545Y5584258D01*
X3691736Y5071842D02*
Y5652713D01*
X3590032Y5991275D02*
Y6220838D01*
X3316139Y6494731D02*
X3590032Y6220838D01*
X3510239Y5911482D02*
X3590032Y5991275D01*
X5657324Y6348301D02*
X5791712D01*
X5794268Y6343693D02*
Y6345745D01*
X5607771Y6298749D02*
X5657324Y6348301D01*
X5791712D02*
X5794268Y6345745D01*
X5245186Y5464336D02*
X5532571D01*
X5169506Y5540016D02*
X5245186Y5464336D01*
X3847767Y5562893D02*
X3929949Y5645075D01*
X3847767Y5207699D02*
Y5562893D01*
X1500773Y7469292D02*
Y7512724D01*
X1521745Y7448320D02*
X1621977D01*
X1622995Y7449338D01*
X4504623Y7123760D02*
X4545082Y7164218D01*
X4492378Y7000423D02*
Y7094197D01*
X4310445Y6938138D02*
X4430093D01*
X4594010Y6867177D02*
X4630406D01*
X4651063Y6858620D02*
X4690934Y6818749D01*
X4360806Y6823910D02*
Y6873131D01*
X4317655Y6839570D02*
Y6872403D01*
X4275873Y6839571D02*
Y6903566D01*
X4400052Y6823910D02*
Y6843741D01*
X4417335Y6861024D02*
X4504208D01*
X4532623Y6889438D02*
Y6918538D01*
X4571993Y6889194D02*
Y6918538D01*
X1519882Y7140606D02*
X1592743D01*
X1662200Y7210064D01*
X1396643Y7086691D02*
X1443890Y7039443D01*
X1424482Y7114530D02*
X1473477Y7065534D01*
X1345340Y7082316D02*
X1416052Y7011604D01*
X1317502Y7054477D02*
X1351022Y7020957D01*
X1239793Y6956276D02*
X1314180D01*
X1180738Y6969219D02*
Y6989293D01*
X1141368Y6969219D02*
Y6989293D01*
X1220108Y6975961D02*
Y6989293D01*
X1314180Y6956276D02*
X1351022Y6993118D01*
X1581714Y6567914D02*
X1661131D01*
X1539137Y6546659D02*
X1566260Y6519537D01*
X1511118Y6519001D02*
X1538421Y6491698D01*
X1458108Y6460656D02*
X1482646Y6436118D01*
X1483279Y6491163D02*
X1510485Y6463957D01*
X1430269Y6432817D02*
X1432982Y6430105D01*
X1378160Y6347445D02*
X1432982Y6402266D01*
X1305973Y6347445D02*
X1378160D01*
X1361515Y6430937D02*
X1589619Y6659040D01*
X1361515Y6397060D02*
Y6430937D01*
X1589619Y6659040D02*
X1661131D01*
X1946079Y6347472D02*
Y6461102D01*
X1906256Y6347473D02*
Y6418281D01*
X1459311Y6362760D02*
X1520724Y6301347D01*
X1431472Y6334922D02*
X1435729Y6330665D01*
X1592992Y6451789D02*
X1608728Y6436054D01*
X1565154Y6423950D02*
X1604240Y6384864D01*
X1537315Y6396111D02*
X1576401Y6357025D01*
X1565154Y6423950D02*
X1604240Y6384864D01*
X1509476Y6368273D02*
X1548563Y6329186D01*
X1592992Y6451789D02*
X1608728Y6436054D01*
X1509476Y6368273D02*
X1548563Y6329186D01*
X1537315Y6396111D02*
X1576401Y6357025D01*
X3632361Y7435456D02*
X3633687Y7436783D01*
X4791999Y6966198D02*
X4809419Y6948778D01*
Y6864697D02*
Y6948778D01*
X4736153Y7017703D02*
Y7068223D01*
Y7017703D02*
X4747427Y7006429D01*
X4721150Y6961473D02*
X4747427Y6987750D01*
X4742702Y6939921D02*
X4768979Y6966198D01*
X4833794Y6840078D02*
X4850934Y6822938D01*
X4833794Y6840078D02*
Y6840322D01*
X4809419Y6864697D02*
X4833794Y6840322D01*
X4270110Y6487249D02*
X4487700D01*
X4235966Y6453105D02*
X4270110Y6487249D01*
X4407411Y6455225D02*
X4487700D01*
X4370935Y6418749D02*
X4407411Y6455225D01*
X2064085Y5839272D02*
Y5847195D01*
X2005030Y5909802D02*
X2048352D01*
X2064309Y5925759D02*
Y5954454D01*
X2083940Y5778726D02*
X2123140D01*
X2064886Y5727054D02*
Y5759671D01*
X2107113Y6622568D02*
X2115194D01*
X2048058Y6639355D02*
Y6663469D01*
X2087428Y6642253D02*
Y6663469D01*
X2208374Y5807480D02*
Y6492293D01*
X2237390Y6521310D01*
X1944726Y5543832D02*
X2208374Y5807480D01*
X2171155Y6581888D02*
X2193190Y6603923D01*
X1992441Y6512572D02*
X2027416Y6477597D01*
Y6451225D02*
Y6477597D01*
X1664662Y6512572D02*
X1992441D01*
X2008688Y6639355D02*
Y6660571D01*
X1969318Y6636458D02*
Y6660571D01*
X2287577Y6495325D02*
Y6659250D01*
X2228913Y6717914D02*
X2287577Y6659250D01*
X1661131Y6717914D02*
X2228913D01*
X2047101Y6424554D02*
X2068859D01*
X2042567Y6385184D02*
X2068859D01*
X2027416Y6444239D02*
Y6451225D01*
X1783353Y6389956D02*
Y6417571D01*
X1695497Y6430288D02*
X1749748Y6376037D01*
X1576401Y6357025D02*
X1576401Y6357025D01*
X1520724Y6301347D02*
X1520724Y6301347D01*
X1361515Y6297060D02*
X1421810D01*
X1622647Y6430288D02*
X1695497D01*
X1661131Y6509041D02*
X1664662Y6512572D01*
X1184936Y6690266D02*
Y6791188D01*
X1220545Y6418197D02*
X1248455Y6390286D01*
X1220633Y6473786D02*
X1248502Y6445917D01*
X1336650Y6771925D02*
X1361515Y6747060D01*
X1145566Y6743131D02*
Y6791188D01*
X1336650Y6771925D02*
X1336650Y6771925D01*
X1306841Y6856345D02*
Y6885157D01*
X1326526Y6904842D02*
X1382719D01*
X1623283Y7089762D02*
X1626909Y7093388D01*
X1660235Y7126714D01*
X1297859Y6996038D02*
Y7005559D01*
X1274653Y7028764D02*
X1297859Y7005559D01*
X1454541Y5993105D02*
X1458279Y5989367D01*
X1426702Y5965266D02*
X1441971Y5949997D01*
X1409955Y6030002D02*
X1513028D01*
X1409955Y6069372D02*
X1525728D01*
X1422058Y6108742D02*
X1525728D01*
X1422058Y6148112D02*
X1513028D01*
X1532713Y6167797D02*
Y6185527D01*
Y6003331D02*
Y6010317D01*
X1455846Y5944276D02*
X1533575D01*
X1361515Y5974777D02*
X1366454Y5969838D01*
X1439539Y5904906D02*
X1549882D01*
X1552398Y6205212D02*
X1591768D01*
X1547450Y5949997D02*
X1566362Y5968909D01*
X1611453Y6224897D02*
Y6238837D01*
X1366454Y5969838D02*
X1425676Y5910615D01*
X1563757Y5910627D02*
X1605732Y5952602D01*
X1472154Y5983646D02*
X1513028D01*
X1611453Y6238837D02*
X1661131Y6288514D01*
X1361515Y5974777D02*
Y6147060D01*
X1460133Y7341953D02*
Y7634122D01*
X1500773Y7594004D02*
Y7634122D01*
X1521093Y7573684D02*
X1596086D01*
X1521093Y7533044D02*
X1596086D01*
X1297573Y7464463D02*
Y7555208D01*
X1338213Y7398032D02*
Y7555208D01*
X1211348Y7427314D02*
X1228177Y7444143D01*
X1211348Y7384365D02*
Y7427314D01*
X1228177Y7444143D02*
X1277253D01*
X1419493Y7341953D02*
Y7563283D01*
X1378853Y7398032D02*
Y7563283D01*
X1096914Y7120205D02*
X1237633D01*
X1096914Y7323405D02*
X1292246D01*
X1096914Y7160845D02*
X1228222D01*
X1096914Y7201485D02*
X1228222D01*
X1096914Y7038925D02*
X1250124D01*
X1096914Y7242125D02*
X1228222D01*
X1096914Y7079565D02*
X1237633D01*
X1231668Y7364045D02*
X1292246D01*
X1096914Y7282765D02*
X1228222D01*
X3967734Y4583757D02*
Y4588095D01*
X4518914Y4583757D02*
Y4588095D01*
X4243324Y4583757D02*
Y4588095D01*
X4637024Y4583757D02*
Y4588095D01*
X4125214Y4583757D02*
Y4588095D01*
X4479544Y4583757D02*
Y4588095D01*
X4361434Y4583757D02*
Y4588095D01*
X3849624Y4583909D02*
Y4588095D01*
X4696079Y4568200D02*
X4724364D01*
X4007104Y4583757D02*
Y4588095D01*
X4597654Y4583757D02*
Y4588095D01*
X4203954Y4583757D02*
Y4588095D01*
X4282694Y4583757D02*
Y4588095D01*
X3810254Y4583909D02*
Y4588095D01*
X4440174Y4583757D02*
Y4588095D01*
X3770884Y4587885D02*
Y4588095D01*
X4322064Y4583757D02*
Y4588095D01*
X4164584Y4583757D02*
Y4588095D01*
X3928364Y4583757D02*
Y4588095D01*
X4676394Y4587885D02*
Y4588095D01*
X4085844Y4583757D02*
Y4588095D01*
X3744213Y4568200D02*
X3751199D01*
X4046474Y4583757D02*
Y4588095D01*
X4400804Y4583757D02*
Y4588095D01*
X3888994Y4583757D02*
Y4588095D01*
X4558284Y4583757D02*
Y4588095D01*
X3695956Y4568200D02*
X3744213D01*
X4724364D02*
X4875280D01*
X1281885Y6254497D02*
Y6282744D01*
X1321255Y6266126D02*
Y6282744D01*
X1241603Y6158959D02*
X1248589D01*
X1267488D01*
X1340940Y6246441D02*
X1527931D01*
X1267488Y6158959D02*
X1305973Y6197445D01*
X1527931Y6246441D02*
X1661131Y6379640D01*
X1261792Y6591950D02*
X1464640D01*
X1661131Y6788441D01*
X1216902Y6547060D02*
X1261792Y6591950D01*
X1416269Y6700257D02*
X1416270Y6700257D01*
X1336888Y6648715D02*
X1388431Y6700257D01*
X1598963Y6935146D02*
X1661131Y6997314D01*
X2248993Y6456741D02*
X2287577Y6495325D01*
X2248993Y5390998D02*
Y6456741D01*
Y5390998D02*
X2347096Y5292895D01*
X2237390Y6521310D02*
Y6649033D01*
X3566274Y4901147D02*
Y5756693D01*
X3660565Y5053073D02*
Y5660399D01*
X5854887Y5377172D02*
Y5397492D01*
X6283220Y5825825D01*
X7023551Y7854907D02*
X7029383Y7860739D01*
X7023551Y7836274D02*
Y7854907D01*
X2753303Y6348902D02*
Y6382945D01*
X2742629Y6519447D02*
Y6627515D01*
X2506409Y6519447D02*
Y6627515D01*
X2900109Y6519447D02*
Y6627515D01*
X2860739Y6519447D02*
Y6627515D01*
X2781999Y6519447D02*
Y6627515D01*
X2663889Y6519447D02*
Y6627515D01*
X2703259Y6519447D02*
Y6627515D01*
X2624519Y6519447D02*
Y6627515D01*
X2973083Y6544740D02*
X2973083Y6544740D01*
X3003024Y6514799D01*
X2821369Y6519447D02*
Y6627515D01*
X2939479Y6519447D02*
Y6530820D01*
X2545779Y6519447D02*
Y6627515D01*
X2585149Y6519447D02*
Y6627515D01*
X3003024Y6428025D02*
Y6514799D01*
X3631489Y7309279D02*
X3669337D01*
X3416548Y5744753D02*
X3624206Y5952411D01*
X3535111Y6456050D02*
X3624206Y6366955D01*
Y5952411D02*
Y6366955D01*
X3535111Y6456050D02*
Y6688873D01*
Y6826630D01*
X3398032Y6963709D02*
X3535111Y6826630D01*
X3687320Y4566546D02*
X3690019Y4569245D01*
X4875280Y4568200D02*
X4932668Y4625588D01*
X3690019Y4569245D02*
X3694912D01*
X3695956Y4568200D01*
X3413004Y4719048D02*
Y5556439D01*
X3314294Y5655149D02*
X3413004Y5556439D01*
X3314294Y5655149D02*
Y6061310D01*
X3379094Y5636349D02*
Y5761594D01*
X3414585Y5797085D01*
X3379094Y5636349D02*
X3442375Y5573069D01*
X3413004Y4719048D02*
X3444195Y4687857D01*
X3442375Y4758363D02*
Y5573069D01*
X3722906Y5099213D02*
Y5630313D01*
X3942194Y5849601D01*
X6764410Y7422827D02*
X6788871Y7398366D01*
Y7263636D02*
Y7398366D01*
X6764410Y7422827D02*
Y7581079D01*
X6862907Y7679576D01*
Y7748213D01*
X6898175Y7783480D02*
X6989984D01*
X6862907Y7748213D02*
X6898175Y7783480D01*
X6887525Y7264563D02*
Y7538927D01*
X6770758Y7035381D02*
Y7199372D01*
X6854094Y7282708D01*
X6770758Y7035381D02*
X6813020Y6993120D01*
X6854094Y7282708D02*
Y7578476D01*
X7067389Y6967947D02*
Y7406632D01*
X7089863Y7429106D01*
X7007962Y6908520D02*
X7067389Y6967947D01*
X7027363Y6984512D02*
Y7427805D01*
X6962636Y6919785D02*
X7027363Y6984512D01*
X7026063Y7429106D02*
X7027363Y7427805D01*
X7007962Y6719214D02*
Y6908520D01*
X6893174Y6604427D02*
X7007962Y6719214D01*
X3600741Y4544698D02*
Y4796776D01*
Y4544698D02*
X3753193Y4392245D01*
X3535070Y4862446D02*
X3600741Y4796776D01*
X3647200Y4552099D02*
X3792594Y4406705D01*
X3647200Y4552099D02*
Y4820221D01*
X3792594Y3897872D02*
Y4406705D01*
X3753193Y3728818D02*
Y4392245D01*
X3562165Y4536042D02*
Y4771274D01*
Y4536042D02*
X3719995Y4378212D01*
Y4094102D02*
Y4378212D01*
X3525353Y4517957D02*
X3647814Y4395496D01*
X3525353Y4517957D02*
Y4742420D01*
X3718231Y3693855D02*
X3753193Y3728818D01*
X3680029Y4054137D02*
X3719995Y4094102D01*
X3612486Y3401098D02*
Y4319235D01*
X3444195Y4487526D02*
X3612486Y4319235D01*
X3444195Y4487526D02*
Y4687857D01*
X3651370Y4149210D02*
X3680740Y4119839D01*
X5242503Y5809403D02*
X5328107Y5723799D01*
X5242503Y5809403D02*
Y5867180D01*
X5328107Y5723799D02*
X5371599D01*
X4810934Y5577056D02*
X4882522Y5505468D01*
X4810934Y5577056D02*
Y5818749D01*
X4882522Y5404612D02*
Y5505468D01*
X3718231Y3356844D02*
Y3693855D01*
X3612193Y3250806D02*
X3718231Y3356844D01*
X5631432Y4600753D02*
X6064748D01*
X6106548Y4642553D01*
X5961856Y4769828D02*
X6164751Y4972723D01*
X5750381Y4769828D02*
X5961856D01*
X6164751Y4972723D02*
Y5003670D01*
X5943436Y4803643D02*
X6125501Y4985707D01*
X5772592Y4803643D02*
X5943436D01*
X6125501Y4985707D02*
Y5012802D01*
X5932048Y4837458D02*
X6090579Y4995989D01*
Y5022368D01*
X5794328Y4837458D02*
X5932048D01*
X5908898Y4868217D02*
X6050382Y5009701D01*
Y5024559D01*
X5824817Y4868217D02*
X5908898D01*
X6022528Y4668383D02*
X6193109Y4838964D01*
Y4880352D01*
X5682328Y4668383D02*
X6022528D01*
X5979316Y4736013D02*
X6197771Y4954467D01*
Y4995396D01*
X5729124Y4736013D02*
X5979316D01*
X5694993Y4998041D02*
X5824817Y4868217D01*
X6923707Y7251452D02*
Y7514535D01*
X6854094Y7578476D02*
X6989984Y7714366D01*
X3442375Y4758363D02*
X3484392Y4716345D01*
X3473545Y4794228D02*
X3525353Y4742420D01*
X3503830Y4829609D02*
X3562165Y4771274D01*
X3566274Y4901147D02*
X3647200Y4820221D01*
X4195503Y6295717D02*
X4493966D01*
X4130796Y6360424D02*
X4195503Y6295717D01*
X4493966D02*
X4530935Y6258749D01*
X6972412Y6224721D02*
X7023128Y6275437D01*
X5086474Y5877011D02*
X5110951Y5901489D01*
Y5939914D01*
X5051849Y5877011D02*
X5086474D01*
X4970934Y5871627D02*
X4995928Y5896620D01*
X5032240D01*
X4970934Y5505976D02*
Y5871627D01*
X5121469Y5274129D02*
Y5355442D01*
Y5210812D02*
Y5274129D01*
X4970934Y5505976D02*
X5121469Y5355442D01*
Y5210812D02*
X5152124Y5180157D01*
X5240719D02*
X5283432Y5222870D01*
X5152124Y5180157D02*
X5240719D01*
X5039076Y5966891D02*
X5083975D01*
X5110951Y5939914D01*
X5032240Y5896620D02*
X5051849Y5877011D01*
X4865618Y5651700D02*
X4875694D01*
X4865618Y5682180D02*
X4899518D01*
X4867762Y5743140D02*
X4875694D01*
X4867762Y5712660D02*
X4899518D01*
X4890934Y5758380D02*
Y5788262D01*
Y5631379D02*
Y5636460D01*
Y5788262D02*
Y5898749D01*
X4921691Y5421847D02*
X4939455Y5404083D01*
X4961007D02*
X4976812Y5419888D01*
X4982560Y5382531D02*
X4998364Y5398335D01*
X4976812Y5419888D02*
Y5419888D01*
X4998364D02*
X4998364Y5419888D01*
X4946764Y5309098D02*
X4952116Y5314450D01*
X4903658Y5352203D02*
X4908519Y5357063D01*
X4994729Y5292405D02*
X4998322Y5288812D01*
X4903658Y5330651D02*
X4903658Y5330650D01*
X4903658Y5352203D02*
Y5352203D01*
X4946763Y5287545D02*
X4946764Y5287545D01*
Y5287545D02*
X4946764Y5287545D01*
X4903658Y5330650D02*
X4903658Y5330651D01*
Y5330650D02*
X4903658Y5330650D01*
X4952116Y5336003D02*
X4952116Y5336003D01*
X4968316Y5287545D02*
X4973176Y5292405D01*
X4908518Y5378615D02*
X4908519Y5378616D01*
X4925211Y5330650D02*
X4930563Y5336003D01*
X4946764Y5309097D02*
Y5309098D01*
X4994729Y5292405D02*
X4994729Y5292405D01*
X4946764Y5287545D02*
X4946764Y5287545D01*
X4889342Y5397793D02*
X4908519Y5378616D01*
X4930563Y5336003D02*
Y5336003D01*
X4882522Y5404612D02*
X4889342Y5397793D01*
X4998322Y5288812D02*
X5019385Y5267749D01*
X5610934Y6138749D02*
X5659661Y6187476D01*
X5793305D01*
X5610934Y6218749D02*
X5650563Y6258377D01*
X4730934Y6778749D02*
Y6833052D01*
X4850934Y6818749D02*
Y6822938D01*
X4785421Y6856366D02*
X4810934Y6830853D01*
X4761813Y6856366D02*
X4785421D01*
X4810934Y6778749D02*
Y6830853D01*
X4675750Y6942430D02*
X4761813Y6856366D01*
X4655495Y7025673D02*
X4675750Y7005418D01*
X4655495Y7025673D02*
Y7115597D01*
X4675750Y6942430D02*
Y7005418D01*
X4810934Y6778749D02*
X4850934Y6738749D01*
X4704117Y7164218D02*
X4705721D01*
X4655495Y7115597D02*
X4704117Y7164218D01*
X6295266Y5227056D02*
Y5362562D01*
X6090579Y5022368D02*
X6295266Y5227056D01*
X3316139Y6796581D02*
X3319211Y6799653D01*
X3316139Y6494731D02*
Y6796581D01*
X3462447Y5911482D02*
X3510239D01*
X3414585Y5863620D02*
X3462447Y5911482D01*
X3414585Y5797085D02*
Y5863620D01*
X3503830Y4829609D02*
Y5787815D01*
X3535070Y4862446D02*
Y5771258D01*
X3816416Y5171839D02*
Y5577233D01*
X3785246Y5146625D02*
X4009901Y4921970D01*
X3754076Y5125711D02*
X3995852Y4883935D01*
X3722906Y5099213D02*
X3976220Y4845899D01*
X3691736Y5071842D02*
X3955713Y4807864D01*
X3660565Y5053073D02*
X3943810Y4769828D01*
X3598225Y5681594D02*
X3816828Y5900196D01*
X5167799Y5226288D02*
Y5359376D01*
X5050935Y5476240D02*
X5167799Y5359376D01*
X5050935Y5476240D02*
Y5493817D01*
Y5746821D02*
Y5818749D01*
Y5493817D02*
Y5529378D01*
Y5712258D02*
Y5746821D01*
X5538427Y4693757D02*
X5631432Y4600753D01*
X5654265Y4921970D02*
X5772592Y4803643D01*
X4009901Y4921970D02*
X5654265D01*
X5636274Y4883935D02*
X5750381Y4769828D01*
X3995852Y4883935D02*
X5636274D01*
X5619238Y4845899D02*
X5729124Y4736013D01*
X3976220Y4845899D02*
X5619238D01*
X5708815Y4702198D02*
X6002749D01*
X5603149Y4807864D02*
X5708815Y4702198D01*
X3955713Y4807864D02*
X5603149D01*
X3943810Y4769828D02*
X5580883D01*
X5682328Y4668383D01*
X5559576Y4731793D02*
X5656801Y4634568D01*
X6002749Y4702198D02*
X6108062Y4807511D01*
X4774529Y7035109D02*
X4988182Y6821457D01*
X5009433D01*
X4699394Y7104982D02*
X4736153Y7068223D01*
X5370934Y5818749D02*
X5939051D01*
X5983842Y5863539D01*
X4508955Y6520729D02*
X4570934Y6458749D01*
X4254004Y6520729D02*
X4508955D01*
X4213535Y6561198D02*
X4254004Y6520729D01*
X4132080Y6561198D02*
X4213535D01*
X4125460Y6567818D02*
X4132080Y6561198D01*
X4109102Y6639345D02*
X4158955Y6589492D01*
X4229641Y6812187D02*
Y7010380D01*
X4250977Y7031716D01*
X4229641Y6812187D02*
X4270209Y6771618D01*
X4483804D01*
X4530935Y6818749D01*
X3818459Y6014803D02*
X3818957Y6015301D01*
X3816628Y5941625D02*
X3816828Y5941426D01*
Y5900196D02*
Y5941426D01*
X4250977Y7031716D02*
X4331911D01*
X5107773Y6857695D02*
X5267956Y6697513D01*
X5346432D02*
X5385196Y6658749D01*
X5267956Y6697513D02*
X5346432D01*
X5074205Y6857695D02*
X5107773D01*
X4866360Y7099767D02*
Y7164218D01*
Y7099767D02*
X5049987Y6916140D01*
Y6881913D02*
Y6916140D01*
Y6881913D02*
X5074205Y6857695D01*
X4448117Y7951708D02*
X4489631Y7993222D01*
X4560935D01*
X5385196Y6658749D02*
X5410935D01*
X4331911Y7031716D02*
X4384443Y7084247D01*
Y7164218D01*
X5019385Y5267749D02*
X5039173D01*
X5080800Y5226121D01*
X5010934Y5938749D02*
X5039076Y5966891D01*
X4921691Y5421847D02*
Y5557544D01*
X4982560Y5360978D02*
X5027144Y5316395D01*
X4890934Y5588301D02*
Y5631379D01*
Y5588301D02*
X4921691Y5557544D01*
X5371599Y5723799D02*
X5532571Y5562826D01*
X5170934Y5938749D02*
X5242503Y5867180D01*
X5330934Y5778749D02*
X5370934Y5818749D01*
X6516969Y6983748D02*
X6520379Y6980339D01*
Y6673503D02*
Y6980339D01*
X5663376Y6031190D02*
X5811378D01*
X5610934Y5978749D02*
X5663376Y6031190D01*
X5664978Y6112793D02*
X5794435D01*
X5614178Y6061993D02*
X5664978Y6112793D01*
X5650563Y6258377D02*
X5792037D01*
X5290935Y6298749D02*
X5607771D01*
X5370934Y5978749D02*
X5610934D01*
X5330934Y5938749D02*
X5370934Y5978749D01*
X5290935Y6138749D02*
X5610934D01*
X5321967Y6061993D02*
X5614178D01*
X5290935Y6030961D02*
X5321967Y6061993D01*
X5290935Y5978749D02*
Y6030961D01*
Y6137433D02*
Y6138749D01*
X5212251Y6058749D02*
X5290935Y6137433D01*
X5273244Y6281058D02*
X5290935Y6298749D01*
X5226121Y6281058D02*
X5273244D01*
X5163812Y6218749D02*
X5226121Y6281058D01*
X3398032Y6963709D02*
Y7108692D01*
X3843658Y4530889D02*
X3844499Y4530047D01*
X4905807D01*
X5001347Y4625588D01*
X3929949Y5645075D02*
X4074249D01*
X3314294Y6061310D02*
X3360355Y6107371D01*
X3499246D01*
X3550561Y6158686D01*
X6771738Y6915653D02*
X6813020Y6956935D01*
Y6993120D01*
X6464137Y6617261D02*
X6520379Y6673503D01*
X6846227Y6486071D02*
X6911096Y6421201D01*
Y6344910D02*
X6972412Y6283594D01*
X6911096Y6344910D02*
Y6421201D01*
X6962636Y6769096D02*
Y6919785D01*
X6893032Y6699492D02*
X6962636Y6769096D01*
X6846227Y6713602D02*
X6891122Y6758497D01*
X6846227Y6486071D02*
Y6713602D01*
X6897039Y5890540D02*
X6945953Y5939455D01*
X6877836Y6191150D02*
X6945953Y6123034D01*
Y5939455D02*
Y6123034D01*
X6903151Y6098520D02*
X6904602D01*
X6834230Y6167441D02*
X6903151Y6098520D01*
X6834230Y6167441D02*
Y6370466D01*
X6810211Y6471497D02*
X6877836Y6403872D01*
X6810211Y6735499D02*
X6891122Y6816409D01*
X6810211Y6471497D02*
Y6735499D01*
X6700546Y5492811D02*
Y5522839D01*
X6874337Y4924089D02*
Y5319020D01*
X6700454Y5522931D02*
X6700546Y5522839D01*
Y5492811D02*
X6874337Y5319020D01*
X6877836Y6191150D02*
Y6403872D01*
X6897039Y5518701D02*
Y5890540D01*
X6360294Y7479284D02*
X6427236D01*
X6474062Y7432459D01*
X4074249Y5645075D02*
X4124744Y5695569D01*
X4169627D01*
X6431833Y6636687D02*
X6486989Y6691843D01*
X6474062Y7383857D02*
Y7432459D01*
X6440135Y7349931D02*
X6474062Y7383857D01*
X6440135Y6976734D02*
Y7349931D01*
Y6976734D02*
X6486989Y6929880D01*
Y6691843D02*
Y6929880D01*
X5531787Y6699601D02*
X5570934Y6738749D01*
X5531787Y6645668D02*
Y6699601D01*
X5370934Y6618749D02*
X5504868D01*
X5531787Y6645668D01*
X4783917Y6527316D02*
X5279502D01*
X5370934Y6618749D01*
X4715350Y6458749D02*
X4783917Y6527316D01*
X4570934Y6458749D02*
X4715350D01*
X5532051Y6603147D02*
X5570934Y6642030D01*
Y6658749D01*
X5532051Y6568554D02*
Y6603147D01*
X5453953Y6539403D02*
X5502900D01*
X5532051Y6568554D01*
X4890934Y6218749D02*
X5163812D01*
X4824020Y6058749D02*
X5212251D01*
X4795557Y6030285D02*
X4824020Y6058749D01*
X4795557Y5963371D02*
Y6030285D01*
X4770934Y5938749D02*
X4795557Y5963371D01*
X4870566Y6198380D02*
X4890934Y6218749D01*
X4745740Y6198380D02*
X4870566D01*
X5250935Y5938749D02*
X5290935Y5978749D01*
X4810934Y5818749D02*
X4850934Y5858749D01*
X2790876Y6831306D02*
Y7211512D01*
Y6831306D02*
X2791984Y6830198D01*
X2790876Y7211512D02*
X2945689Y7366325D01*
X3550561Y6158686D02*
X3552708Y6156538D01*
X3520367Y6984626D02*
Y7755035D01*
X3569562Y7804229D01*
X4730934Y6778749D02*
X4770935Y6738749D01*
X7186485Y5498084D02*
X7187944D01*
X7464028Y5774168D01*
Y5847060D01*
X5010935Y5858749D02*
X5050935Y5818749D01*
X5010935Y5858749D02*
Y5858749D01*
X4890934Y5898749D02*
X4936464Y5944278D01*
Y5946733D01*
X5169506Y5540016D02*
Y5700178D01*
X5090934Y5778749D02*
X5169506Y5700178D01*
X7545613Y7260088D02*
X7608641Y7197060D01*
X7412689Y7260088D02*
X7545613D01*
X7208930Y7463847D02*
X7412689Y7260088D01*
X6700454Y5648031D02*
Y5894178D01*
X7360674Y7522721D02*
X7536334Y7347060D01*
X7208930Y7522721D02*
X7360674D01*
X7208930Y5855769D02*
X7242711D01*
X7464028Y6077086D02*
Y6147060D01*
X7242711Y5855769D02*
X7464028Y6077086D01*
X7208930Y6005769D02*
X7252243D01*
X7467998Y6221525D02*
X7533106D01*
X7252243Y6005769D02*
X7467998Y6221525D01*
X7208930Y5727944D02*
X7267219D01*
X7536334Y5997060D01*
X7208930Y7244895D02*
X7266192D01*
X7464028Y7047060D01*
X7278941Y6897060D02*
X7464028D01*
X7208930Y6967070D02*
X7278941Y6897060D01*
X7478520Y6689245D02*
X7536334Y6747060D01*
X7208930Y6689245D02*
X7478520D01*
X7441821Y6502546D02*
X7536334Y6597059D01*
X7208930Y6502546D02*
X7441821D01*
X7241689Y6224721D02*
X7464028Y6447060D01*
X7208930Y6224721D02*
X7241689D01*
X7533106Y6221525D02*
X7608641Y6297060D01*
X5000935Y8113222D02*
X5040935Y8153222D01*
X5280935Y7993222D02*
X5280935D01*
D13*
X5650051Y6592620D02*
G03*
X5671603Y6614172I10776J10776D01*
G01*
X5714833Y7097418D02*
G03*
X5693281Y7118971I-10776J10776D01*
G01*
X5486824Y7224656D02*
G03*
X5465272Y7203103I-10776J-10776D01*
G01*
X5502740Y7144084D02*
G03*
X5502740Y7165636I-10776J10776D01*
G01*
X5499149Y7140492D02*
G03*
X5499147Y7140490I10827J-10789D01*
G01*
X5524292Y7187189D02*
G03*
X5545845Y7187189I10776J10776D01*
G01*
X5499147Y7140490D02*
G03*
X5520765Y7118877I10829J-10787D01*
G01*
X5611335Y7222439D02*
G03*
X5581096Y7222440I-15120J-15120D01*
G01*
X5608211Y7163218D02*
G03*
X5586659Y7184770I-10776J10776D01*
G01*
X5585453Y7054250D02*
G03*
X5607006Y7032697I10776J-10776D01*
G01*
X5629079Y7011664D02*
G03*
X5650631Y6990111I10776J-10776D01*
G01*
X5542240Y7097247D02*
G03*
X5563793Y7075694I10776J-10776D01*
G01*
X5723447Y7019822D02*
G03*
X5701894Y7041375I-10776J10776D01*
G01*
X5636395Y7105192D02*
G03*
X5614843Y7126744I-10776J10776D01*
G01*
X5682194Y6978569D02*
G03*
X5682194Y6957017I10776J-10776D01*
G01*
X5717329Y6907756D02*
G03*
X5707340Y6931871I-34104J0D01*
G01*
X5695761Y6886188D02*
G03*
X5717329Y6907756I0J21568D01*
G01*
X5650265Y6886188D02*
G03*
X5650265Y6855708I0J-15240D01*
G01*
X5699553Y6825228D02*
G03*
X5699553Y6794748I0J-15240D01*
G01*
X5627726Y6764268D02*
G03*
X5627726Y6733788I0J-15240D01*
G01*
X5699008Y6719629D02*
G03*
X5684849Y6733788I-14159J0D01*
G01*
X5673951Y6654929D02*
G03*
X5699668Y6665582I10653J10653D01*
G01*
X5717949Y6825228D02*
G03*
X5717949Y6855708I0J15240D01*
G01*
Y6764268D02*
G03*
X5717949Y6794748I0J15240D01*
G01*
X5620732Y6708149D02*
G03*
X5599180Y6686596I-10776J-10776D01*
G01*
X5614253Y6628417D02*
G03*
X5592701Y6606864I-10776J-10776D01*
G01*
X5619062Y6558951D02*
G03*
X5619062Y6580503I-10776J10776D01*
G01*
X4733791Y6144589D02*
X5232766D01*
X5599180Y6686596D02*
X5671603Y6614172D01*
X5614254Y6628417D02*
X5650051Y6592620D01*
X5607006Y7032697D02*
X5693280Y7118971D01*
X5629079Y7011664D02*
X5714833Y7097418D01*
X5893704Y4908485D02*
X5972054Y4986835D01*
X5841260Y4960917D02*
X5918938Y5038594D01*
X5683928Y5118213D02*
X5758119Y5192403D01*
X5736372Y5065781D02*
X5814299Y5143708D01*
X5449088Y6456903D02*
X5490934Y6498749D01*
X5449088Y6389299D02*
Y6456903D01*
Y6389299D02*
X5476752Y6361635D01*
X5512442D01*
X5531181Y6380374D01*
Y6471071D01*
X5486825Y7224656D02*
X5524292Y7187189D01*
X5465272Y7203103D02*
X5502740Y7165636D01*
X5499149Y7140492D02*
Y7140492D01*
X5502740Y7144084D01*
X5545845Y7187189D02*
X5581096Y7222440D01*
X5611335Y7222439D02*
X5669556Y7164218D01*
X5531181Y6471071D02*
X5619062Y6558951D01*
X5520765Y7118877D02*
X5586659Y7184770D01*
X5542240Y7097247D02*
X5608211Y7163218D01*
X5585453Y7054250D02*
X5636395Y7105192D01*
X5650631Y6990111D02*
X5701894Y7041375D01*
X5563793Y7075694D02*
X5614843Y7126744D01*
X5682194Y6978569D02*
X5723447Y7019822D01*
X5682194Y6957017D02*
X5707340Y6931871D01*
X5707340Y6931871D01*
X5650265Y6886188D02*
X5695761D01*
X5650265Y6855708D02*
X5717949D01*
X5699553Y6825228D02*
X5717949D01*
X5699553Y6794748D02*
X5717949D01*
X5627726Y6733788D02*
X5684849D01*
X5627726Y6764268D02*
X5717949D01*
X5699008Y6714549D02*
Y6719629D01*
Y6714549D02*
X5699668Y6665582D01*
X5620732Y6708149D02*
X5673951Y6654930D01*
X5592701Y6606864D02*
X5619062Y6580503D01*
X5788816Y5013349D02*
X5865175Y5089707D01*
X6699906Y5894726D02*
X6700454Y5894178D01*
D14*
X4994153Y6637805D02*
G03*
X5024633Y6637805I15240J0D01*
G01*
X5055113Y6636028D02*
G03*
X5070634Y6620508I15520J0D01*
G01*
X4994153Y6688023D02*
G03*
X4963673Y6688023I-15240J0D01*
G01*
X4890185Y6616436D02*
G03*
X4902517Y6628768I0J12332D01*
G01*
X4932997Y6624121D02*
G03*
X4963673Y6624120I15338J-63D01*
G01*
X4932997Y6690307D02*
G03*
X4902517Y6690307I-15240J0D01*
G01*
X5055113Y6695310D02*
G03*
X5024633Y6695310I-15240J0D01*
G01*
X5295737Y7138778D02*
G03*
X5265257Y7138778I-15240J0D01*
G01*
X5234777Y7139038D02*
G03*
X5204297Y7139038I-15240J0D01*
G01*
X5173817Y7138152D02*
G03*
X5143337Y7138152I-15240J0D01*
G01*
X5173817Y7074824D02*
G03*
X5204297Y7074824I15240J0D01*
G01*
X5234777Y7077762D02*
G03*
X5265257Y7077762I15240J0D01*
G01*
X5314383Y6771115D02*
G03*
X5292830Y6792668I-10719J10834D01*
G01*
X5307571Y6850515D02*
G03*
X5286018Y6872067I-10776J10776D01*
G01*
X5240277Y6783220D02*
G03*
X5261830Y6761668I10776J-10776D01*
G01*
X5295054Y6751787D02*
G03*
X5316607Y6730234I10834J-10719D01*
G01*
X5026761Y7000756D02*
G03*
X5048313Y6979203I10776J-10776D01*
G01*
X4982330Y7042537D02*
G03*
X5003883Y7020984I10776J-10776D01*
G01*
X5236550Y6951914D02*
G03*
X5214997Y6973467I-10719J10834D01*
G01*
X5297207Y6926361D02*
G03*
X5275655Y6947913I-10776J10776D01*
G01*
X5164671Y6966246D02*
G03*
X5142916Y6987596I-10969J10581D01*
G01*
X5121630Y7009415D02*
G03*
X5121630Y7030967I-10776J10776D01*
G01*
X5206095Y6813696D02*
G03*
X5227647Y6813696I10776J10776D01*
G01*
X5162989Y6878353D02*
G03*
X5162989Y6856801I10776J-10776D01*
G01*
X5076779Y6964564D02*
G03*
X5076779Y6943012I10776J-10776D01*
G01*
X4991990Y7116853D02*
G03*
X5013542Y7116853I10776J10776D01*
G01*
X5076779Y6943012D02*
G03*
X5098331Y6943012I10776J10776D01*
G01*
X5127953Y6929527D02*
G03*
X5127953Y6907975I10776J-10776D01*
G01*
X5127953Y6907975D02*
G03*
X5149505Y6907975I10776J10776D01*
G01*
X5358384Y6750459D02*
G03*
X5336831Y6750459I-10776J-10776D01*
G01*
X5206094Y6835248D02*
G03*
X5206094Y6813696I10776J-10776D01*
G01*
X5084300Y7079848D02*
G03*
X5062747Y7079848I-10776J-10776D01*
G01*
X5038983Y7099190D02*
G03*
X5038983Y7120742I-10776J10776D01*
G01*
X5084300Y7058296D02*
G03*
X5084300Y7079848I-10776J10776D01*
G01*
X5038983Y7120742D02*
G03*
X5017431Y7120742I-10776J-10776D01*
G01*
X5121630Y7030968D02*
G03*
X5100077Y7030967I-10776J-10776D01*
G01*
X5162990Y6856801D02*
G03*
X5184542Y6856801I10776J10776D01*
G01*
X5112857Y7071008D02*
G03*
X5143337Y7071008I15240J0D01*
G01*
X5356697Y7096431D02*
G03*
X5326217Y7096431I-15240J0D01*
G01*
X5413686Y7027547D02*
G03*
X5387176Y7016475I-10980J-10981D01*
G01*
X5112857Y7106046D02*
G03*
X5097617Y7121286I-15240J0D01*
G01*
X5356697Y7016475D02*
G03*
X5387177Y7016475I15240J0D01*
G01*
X5295737Y7026689D02*
G03*
X5326217Y7026689I15240J0D01*
G01*
X5466279Y6877750D02*
G03*
X5451039Y6862510I0J-15240D01*
G01*
X5455298Y6938710D02*
G03*
X5455298Y6908230I0J-15240D01*
G01*
X5484401Y6938710D02*
G03*
X5484401Y6969190I0J15240D01*
G01*
X5493309Y6877750D02*
G03*
X5493309Y6908230I0J15240D01*
G01*
X5451039Y6984430D02*
G03*
X5466279Y6969190I15240J0D01*
G01*
X4858605Y6695241D02*
X4940389Y6777025D01*
X4834030Y6695241D02*
X4858605D01*
X4940389Y6777025D02*
X5023661D01*
X5055113Y6636028D02*
Y6695310D01*
X5024633Y6637805D02*
Y6695310D01*
X4963673Y6624120D02*
Y6688023D01*
X4902517Y6628768D02*
Y6690307D01*
X5070634Y6620508D02*
X5094630D01*
X4836701Y6616436D02*
X4890185D01*
X4994153Y6637805D02*
Y6688023D01*
X4932997Y6624121D02*
X4932997D01*
X4963673Y6624120D02*
X4963673Y6624120D01*
X4932997Y6624121D02*
Y6690307D01*
X4814824Y6638312D02*
X4836701Y6616436D01*
X5265257Y7077762D02*
Y7138778D01*
X5295737Y7026689D02*
Y7138778D01*
X5234777Y7077762D02*
Y7139038D01*
X5204297Y7074824D02*
Y7139038D01*
X5173817Y7074824D02*
Y7138152D01*
X5143337Y7071008D02*
Y7138152D01*
X5295054Y6751787D02*
X5314383Y6771115D01*
X5261830Y6761668D02*
X5292830Y6792668D01*
X5227647Y6813696D02*
X5286019Y6872067D01*
X5240277Y6783220D02*
X5307572Y6850515D01*
X4819697Y7030135D02*
Y7130562D01*
Y7030135D02*
X4992608Y6857224D01*
X5030427D01*
X4785695Y7164564D02*
X4819697Y7130562D01*
X5316607Y6730234D02*
X5336831Y6750459D01*
X5048313Y6979203D02*
X5100077Y7030968D01*
X5026761Y7000756D02*
X5084300Y7058296D01*
X5003883Y7020984D02*
X5062747Y7079848D01*
X4982330Y7042537D02*
X5038983Y7099190D01*
X5162989Y6878354D02*
X5236550Y6951914D01*
X5149505Y6907975D02*
X5214997Y6973467D01*
X5206094Y6835248D02*
X5297207Y6926361D01*
X5184542Y6856801D02*
X5275655Y6947913D01*
X5127953Y6929527D02*
X5164671Y6966246D01*
X5098331Y6943012D02*
X5142916Y6987596D01*
X5076779Y6964564D02*
Y6964564D01*
X5206094Y6835248D02*
Y6835248D01*
Y6813696D02*
X5206095Y6813696D01*
X5162989Y6856801D02*
X5162990Y6856801D01*
X5127953Y6929527D02*
Y6929527D01*
X5017431Y7120742D02*
Y7120742D01*
X5127953Y6907974D02*
X5127953Y6907975D01*
X5062747Y7079848D02*
Y7079848D01*
X5084300D02*
X5084300Y7079848D01*
X5162989Y6878353D02*
Y6878354D01*
X5206094Y6813696D02*
X5206094Y6813696D01*
X5127953Y6907975D02*
X5127953Y6907975D01*
X5206094Y6813696D02*
X5206095Y6813696D01*
X5162989Y6856801D02*
X5162990Y6856801D01*
X5100077Y7030967D02*
Y7030968D01*
X5358383Y6750458D02*
X5358384Y6750459D01*
X5361977Y6746866D01*
X4960455Y7148387D02*
X4991990Y7116853D01*
X5013542D02*
X5017431Y7120742D01*
X5121630Y7030968D02*
X5121630Y7030967D01*
X5076779Y6964564D02*
X5121630Y7009415D01*
X5127952Y6907975D02*
X5127953Y6907975D01*
X5162989Y6856801D02*
X5162989Y6856801D01*
X4946680Y7162162D02*
X4960455Y7148387D01*
X5361977Y6746866D02*
X5370094Y6738749D01*
X4946680Y7162162D02*
Y7164218D01*
X5370094Y6738749D02*
X5410934D01*
X4814824Y6638312D02*
Y6676034D01*
X5094630Y6620508D02*
X5158171Y6556967D01*
X5030427Y6857224D02*
X5052978Y6834673D01*
X5023661Y6777025D02*
X5053373Y6806737D01*
Y6834673D01*
X5158171Y6556967D02*
X5195605D01*
X5258536Y6619898D01*
X5292685D01*
X4814824Y6676034D02*
X4834030Y6695241D01*
X5292685Y6619898D02*
X5332139Y6659352D01*
X5112857Y7071008D02*
Y7106046D01*
X5356697Y7016475D02*
Y7096431D01*
X5326217Y7026689D02*
Y7096431D01*
X5489380Y6658749D02*
X5490934D01*
X5451039Y6697090D02*
Y6862510D01*
Y6697090D02*
X5489380Y6658749D01*
X5413686Y7027547D02*
X5451039Y6990194D01*
Y6984430D02*
Y6990194D01*
X5046815Y7144403D02*
X5069932Y7121286D01*
X5097617D01*
X5027000Y7164218D02*
X5046815Y7144403D01*
X5455298Y6938710D02*
X5484401D01*
X5455298Y6908230D02*
X5493309D01*
X5466279Y6969190D02*
X5484401D01*
X5466279Y6877750D02*
X5493309D01*
D79*
X3205334Y5718759D02*
Y7078647D01*
X3395171Y7268484D01*
X3205334Y5718759D02*
X3321876Y5602217D01*
X6556041Y5947678D02*
Y6251350D01*
Y5947678D02*
X6602192Y5901527D01*
X6546177Y6261214D02*
X6556041Y6251350D01*
X6561994Y6277031D02*
Y6923524D01*
X6546177Y6261214D02*
X6561994Y6277031D01*
X3321876Y5463847D02*
Y5602217D01*
X6651606Y5023206D02*
X6685475Y5057075D01*
X6352211Y5023206D02*
X6651606D01*
X6338560Y5036857D02*
X6352211Y5023206D01*
X6602192Y5519940D02*
X6774156Y5347976D01*
X6602192Y5519940D02*
Y5901527D01*
X6685475Y5070543D02*
Y5266529D01*
X6766115Y5347169D02*
X6774156D01*
X6685475Y5266529D02*
X6766115Y5347169D01*
X6561994Y7222472D02*
X6708790D01*
X6506029D02*
X6561994D01*
Y6923524D02*
Y7222472D01*
X6563673Y6923524D02*
X6634126D01*
X6473594Y7339230D02*
X6537208Y7402844D01*
X6473594Y7254906D02*
Y7339230D01*
Y7254906D02*
X6506029Y7222472D01*
X5154116Y4406136D02*
X5309543Y4561564D01*
X4406222Y4406136D02*
X5154116D01*
X5309543Y4561564D02*
X6098394D01*
X6362989Y4826158D02*
X6640828D01*
X6098394Y4561564D02*
X6362989Y4826158D01*
X6338560Y5036857D02*
Y5041284D01*
X6338460Y5041384D02*
X6338560Y5041284D01*
X6685475Y5057075D02*
Y5070543D01*
X6686320Y5069698D01*
X6728911D01*
X6774769Y4960100D02*
Y5206093D01*
X6640828Y4826158D02*
X6774769Y4960100D01*
X6730561Y5250302D02*
X6774769Y5206093D01*
X3395171Y7268484D02*
Y7544414D01*
X3473100Y7622342D01*
X3475980D01*
X6708790Y7222472D02*
X6737291Y7250973D01*
Y7323564D01*
X6634126Y6923524D02*
X6634508Y6923906D01*
X6537208Y7402844D02*
Y7447231D01*
D80*
X1912292Y4940568D02*
X1954708Y4898152D01*
X2048471D01*
X2340040D01*
X2434946Y4803246D01*
X2526669D01*
X2527928Y4804504D01*
X2528118Y4804695D01*
Y4896345D01*
X1902838Y3650219D02*
X1986918Y3734299D01*
Y4157689D01*
X2042635Y4213407D01*
X2893808Y3811882D02*
Y4375857D01*
X2947258Y4429307D01*
X2846490Y3764565D02*
X2893808Y3811882D01*
D82*
X6604397Y6557033D02*
X6651200D01*
X6758444Y5967175D02*
Y6315375D01*
X6652130Y6557963D02*
X6696991D01*
X6834230Y5451198D02*
Y5891390D01*
Y5451198D02*
X7081037Y5204391D01*
X6758444Y5967175D02*
X6834230Y5891390D01*
X6650382Y6556216D02*
X6652130Y6557963D01*
X6650382Y6423436D02*
Y6556216D01*
Y6423436D02*
X6758444Y6315375D01*
D85*
X7664229Y4212419D02*
D03*
Y1652419D02*
D03*
D86*
X6689229Y2052419D02*
D03*
Y3812419D02*
D03*
Y2932419D02*
D03*
D87*
X1873048Y3188020D02*
D03*
Y2468020D02*
D03*
D88*
X1273048Y2153020D02*
D03*
Y3503020D02*
D03*
D89*
X4227389Y4436148D02*
D03*
X4360705Y5606991D02*
D03*
X4520249Y6648631D02*
D03*
X3624400Y6977235D02*
D03*
X3616324Y6654794D02*
D03*
X4304123Y7259218D02*
D03*
X6319463Y6059347D02*
D03*
X6437092Y6167087D02*
D03*
Y6067869D02*
D03*
X5890837Y7091391D02*
D03*
X5363474Y7593222D02*
D03*
X3324905Y7108643D02*
D03*
X4223803Y7259218D02*
D03*
X4901286Y6581656D02*
D03*
X5794268Y6343693D02*
D03*
X2336170Y7049154D02*
D03*
X3632361Y7435456D02*
D03*
X5410934Y6578749D02*
D03*
X5490934Y6498749D02*
D03*
X3572761Y6346672D02*
D03*
X4880180Y5064618D02*
D03*
X2222281Y7312225D02*
D03*
X4738023Y4625588D02*
D03*
X3687320Y4565276D02*
D03*
X6245397Y6025563D02*
D03*
X4960949Y7590551D02*
D03*
X5994288Y6235197D02*
D03*
X4634658Y6991657D02*
D03*
X4557396D02*
D03*
X3816628Y5941625D02*
D03*
X5001297Y8260323D02*
D03*
X5446235Y8152343D02*
D03*
X3189346Y7742164D02*
D03*
X3631489Y7309279D02*
D03*
X4400935Y8073222D02*
D03*
X4320935Y8153222D02*
D03*
X4400935D02*
D03*
X4481051Y7913106D02*
D03*
X3672917Y5809264D02*
D03*
X4331608Y6976150D02*
D03*
X6277295Y6499395D02*
D03*
X5330934Y6258749D02*
D03*
X4625401Y7259218D02*
D03*
X5385791Y5500311D02*
D03*
X5227345Y6211065D02*
D03*
X5166222Y6487488D02*
D03*
X5415358Y5551708D02*
D03*
X4863988Y4625588D02*
D03*
X5701700Y5682213D02*
D03*
X5170935Y5858749D02*
D03*
X5170934Y5938749D02*
D03*
X5330934Y5778749D02*
D03*
Y5858749D02*
D03*
X7134421Y7287918D02*
D03*
X7026063Y7429106D02*
D03*
X3942194Y5849601D02*
D03*
X3453104Y5656978D02*
D03*
Y5707324D02*
D03*
X4130190Y6363210D02*
D03*
X1842053Y6468661D02*
D03*
X3550018Y6049516D02*
D03*
X4235966Y6453105D02*
D03*
X4370935Y6098749D02*
D03*
X6513513Y7323924D02*
D03*
X3824861Y6474051D02*
D03*
X3582269Y6561244D02*
D03*
X4125460Y6567818D02*
D03*
X4175524Y6524835D02*
D03*
X4071228D02*
D03*
X3826211Y6394501D02*
D03*
X4530935Y6258749D02*
D03*
X5968555Y8078976D02*
D03*
X5986925Y5913987D02*
D03*
Y5863539D02*
D03*
X5750969Y7090114D02*
D03*
X5792037Y6260917D02*
D03*
X5794435Y6112793D02*
D03*
X5811378Y6031190D02*
D03*
X5657373Y5625933D02*
D03*
X5793305Y6187476D02*
D03*
X5592024Y6427172D02*
D03*
X5532571Y5562826D02*
D03*
X3398032Y7108692D02*
D03*
X3397297Y7175979D02*
D03*
X3784153Y4492267D02*
D03*
X3843658Y4528349D02*
D03*
X6910954Y7737214D02*
D03*
X6815617D02*
D03*
X5360935Y7993222D02*
D03*
X5440935D02*
D03*
X6807822Y7180523D02*
D03*
Y7089079D02*
D03*
X6708238Y7084946D02*
D03*
X5570935Y6578749D02*
D03*
X5330934Y6898749D02*
D03*
Y6178749D02*
D03*
X5280935Y8153222D02*
D03*
X5200935D02*
D03*
X5200934Y7913222D02*
D03*
X5120934Y7513222D02*
D03*
X5090934Y6658749D02*
D03*
X4850934Y6898749D02*
D03*
X4720935Y8073222D02*
D03*
X4640935Y7513222D02*
D03*
X4480935Y8153222D02*
D03*
X4560935Y8073222D02*
D03*
X4770934Y6898749D02*
D03*
X4443634Y6992623D02*
D03*
X5170935Y6633349D02*
D03*
X5262222Y6570879D02*
D03*
Y6487488D02*
D03*
X5081613Y6582460D02*
D03*
X4981952Y6581185D02*
D03*
X4822377Y6582460D02*
D03*
X4400935Y7913222D02*
D03*
X3145048Y7926183D02*
D03*
X3045228D02*
D03*
X4297211Y7915762D02*
D03*
X4400935Y7513222D02*
D03*
X2947891Y7926183D02*
D03*
X2711184Y7724945D02*
D03*
X2644908Y7654353D02*
D03*
X3194430Y7315681D02*
D03*
X3194921Y7223058D02*
D03*
X2895255Y7466558D02*
D03*
Y7367302D02*
D03*
X2816909Y7466558D02*
D03*
X5262222Y6404096D02*
D03*
X5028559Y6013835D02*
D03*
X4921575D02*
D03*
X5211030D02*
D03*
X5119795D02*
D03*
X4853972Y6338749D02*
D03*
X4709327Y6418749D02*
D03*
X4749772Y6013835D02*
D03*
X4846087D02*
D03*
X5330934Y6978749D02*
D03*
X5410935D02*
D03*
X7089863Y7429106D02*
D03*
X7046921Y7568284D02*
D03*
X5490934Y6818749D02*
D03*
X6910954Y7833214D02*
D03*
X7134421Y7568284D02*
D03*
X6815617Y7833214D02*
D03*
X5440935Y8073222D02*
D03*
X5360935Y8153222D02*
D03*
X5120935D02*
D03*
X5360935Y8073222D02*
D03*
X5440935Y7593222D02*
D03*
X5126994Y7987163D02*
D03*
X5120934Y7593222D02*
D03*
X6708238Y7180946D02*
D03*
X7134421Y7012633D02*
D03*
X6903822Y7089079D02*
D03*
X7046921Y6734808D02*
D03*
X7134421D02*
D03*
X6570759Y7323884D02*
D03*
X5321357Y7433222D02*
D03*
X5241357D02*
D03*
X5642165Y6939199D02*
D03*
X5170934Y6738749D02*
D03*
X7134421Y6456983D02*
D03*
Y6179158D02*
D03*
Y5901332D02*
D03*
Y5623507D02*
D03*
X5490934Y6578749D02*
D03*
Y6418749D02*
D03*
X7046921Y6179158D02*
D03*
Y5901332D02*
D03*
X5166222Y6404096D02*
D03*
Y6320704D02*
D03*
X5410934Y6178749D02*
D03*
X5211030Y6109835D02*
D03*
X5410935Y5938749D02*
D03*
X5119795Y6109835D02*
D03*
X7046921Y5623507D02*
D03*
X5330934Y5618749D02*
D03*
X5090934Y6898749D02*
D03*
Y6818749D02*
D03*
X5010934Y6898749D02*
D03*
X4800935Y7513222D02*
D03*
X5090934Y6738749D02*
D03*
X5010934D02*
D03*
X5081613Y6484788D02*
D03*
X4995624D02*
D03*
X4909636D02*
D03*
X4823647D02*
D03*
X4720935Y8153222D02*
D03*
X4560935D02*
D03*
X4640935Y8073222D02*
D03*
X4560934Y7513222D02*
D03*
X4400935Y7993222D02*
D03*
Y7593222D02*
D03*
X4536786Y7088539D02*
D03*
X4770935Y6818749D02*
D03*
X4450934Y6898749D02*
D03*
X4443634Y7088539D02*
D03*
X5090934Y6338749D02*
D03*
X5010935D02*
D03*
X4930935D02*
D03*
X5090935Y6178749D02*
D03*
X5028559Y6109835D02*
D03*
X4930935Y6178749D02*
D03*
X4937323Y6109835D02*
D03*
X4850935Y6418749D02*
D03*
X4930934Y6258749D02*
D03*
X4450934Y6338749D02*
D03*
X4846087Y6109835D02*
D03*
X4610935Y6178749D02*
D03*
X4749772Y6109835D02*
D03*
X3145048Y8022183D02*
D03*
X4293401Y7807639D02*
D03*
X3045228Y8022183D02*
D03*
X2947891D02*
D03*
X3193361Y7464751D02*
D03*
X3290430Y7315681D02*
D03*
X2996355Y7464406D02*
D03*
X2845942Y7918635D02*
D03*
X2795719Y7621723D02*
D03*
X2895255Y7567461D02*
D03*
X2795719Y7570041D02*
D03*
X2792423Y7367302D02*
D03*
X2738323Y7466558D02*
D03*
X1724210Y7451677D02*
D03*
X3290922Y7223058D02*
D03*
X2893958Y7170717D02*
D03*
X4370935Y6018749D02*
D03*
X1724210Y6613477D02*
D03*
Y7172277D02*
D03*
Y6892877D02*
D03*
Y6334077D02*
D03*
Y6054677D02*
D03*
X5010934Y5778749D02*
D03*
Y5698749D02*
D03*
X4770935Y5778749D02*
D03*
X4690934Y5698749D02*
D03*
X5008929Y5613442D02*
D03*
X4695135Y5601342D02*
D03*
X4370935Y5698749D02*
D03*
X4469002Y5573760D02*
D03*
X4255947Y5607852D02*
D03*
X1724210Y5775277D02*
D03*
Y5495877D02*
D03*
X6737291Y7323884D02*
D03*
X6681780D02*
D03*
X6626270D02*
D03*
X5250934Y6658749D02*
D03*
X6694217Y7263884D02*
D03*
X6240722Y6898179D02*
D03*
X4774529Y7035109D02*
D03*
X5172163Y7024949D02*
D03*
X5250538D02*
D03*
X6278956Y6958348D02*
D03*
X5410934Y6898749D02*
D03*
X6328721Y6334034D02*
D03*
X6363241Y6015082D02*
D03*
X6328184Y6498660D02*
D03*
X4690934Y5938749D02*
D03*
X6521993Y7263884D02*
D03*
X5570934Y6738749D02*
D03*
X6328184Y6414947D02*
D03*
X5570934Y6661289D02*
D03*
X5330934Y6498749D02*
D03*
Y6414939D02*
D03*
X4783072Y7873126D02*
D03*
X4781138Y7802567D02*
D03*
X4960934Y7993222D02*
D03*
X5200935Y7593222D02*
D03*
X4770934Y5938749D02*
D03*
X4705721Y7259218D02*
D03*
X4384443Y7164218D02*
D03*
X4317091Y7089818D02*
D03*
X4290935Y6418749D02*
D03*
X5532571Y5464336D02*
D03*
X1848491Y6197428D02*
D03*
X2301655Y6984833D02*
D03*
X4930934Y5778749D02*
D03*
Y5618749D02*
D03*
X4370935Y6418749D02*
D03*
X4450934Y6258749D02*
D03*
X4039116Y6210446D02*
D03*
X4610935Y6738749D02*
D03*
X4212047Y6210446D02*
D03*
X5276066Y4625588D02*
D03*
X5070027D02*
D03*
X5138707D02*
D03*
X5207386D02*
D03*
X5001347D02*
D03*
X4932668D02*
D03*
X5410934Y5858749D02*
D03*
X4341222Y4406136D02*
D03*
X4406222D02*
D03*
X5490934Y6178749D02*
D03*
X5410934Y6018749D02*
D03*
X3942194Y6712593D02*
D03*
X4096760Y6210446D02*
D03*
X3118978Y6520574D02*
D03*
X4610935Y6258749D02*
D03*
X4745740Y6198380D02*
D03*
X4711257Y6296046D02*
D03*
X4530935Y6338749D02*
D03*
X3319211Y6813790D02*
D03*
X4273846Y6734594D02*
D03*
X4108663Y6638906D02*
D03*
X3981472Y6210446D02*
D03*
X4610934Y6418749D02*
D03*
X4530935D02*
D03*
X3513738Y6407230D02*
D03*
X3552708Y6156538D02*
D03*
X4370935Y6338749D02*
D03*
X3923829Y6210446D02*
D03*
X4530934Y5938749D02*
D03*
X4720935Y7993222D02*
D03*
X4154404Y6210446D02*
D03*
X4269691D02*
D03*
X3631436Y7133243D02*
D03*
X4264408Y7088539D02*
D03*
X4625401Y7164218D02*
D03*
X4545082D02*
D03*
X4850934Y6818749D02*
D03*
X4699394Y7106252D02*
D03*
Y7036339D02*
D03*
X5010934Y6818749D02*
D03*
X4774529Y7104982D02*
D03*
X4705721Y7164218D02*
D03*
X4786041D02*
D03*
X4690934Y6498749D02*
D03*
X4711082Y6549591D02*
D03*
X4850934Y6738749D02*
D03*
X4930934Y6818749D02*
D03*
X4610935Y6498749D02*
D03*
Y6338749D02*
D03*
X4770935Y6658749D02*
D03*
X4450934D02*
D03*
X4690934D02*
D03*
Y6738749D02*
D03*
X4450934Y6418749D02*
D03*
X2920622Y7725079D02*
D03*
X2987129D02*
D03*
X2851575D02*
D03*
X2945689Y7366325D02*
D03*
X2996355Y7559406D02*
D03*
X5330934Y6018749D02*
D03*
Y6098749D02*
D03*
X5250935Y5938749D02*
D03*
X5903098Y6888017D02*
D03*
Y5990389D02*
D03*
Y6071991D02*
D03*
X5994288Y5990389D02*
D03*
Y6071991D02*
D03*
Y6153594D02*
D03*
X5903098D02*
D03*
Y6235197D02*
D03*
Y6316799D02*
D03*
Y6398402D02*
D03*
X5010935Y5858749D02*
D03*
X5010934Y5938749D02*
D03*
X5207659Y5622598D02*
D03*
X5121268Y5615326D02*
D03*
X3942194Y7029088D02*
D03*
X5669557Y7164218D02*
D03*
X5508917Y7259218D02*
D03*
X5428598D02*
D03*
X5107319Y7164218D02*
D03*
Y7259218D02*
D03*
X5026457Y7259227D02*
D03*
X5027000Y7164218D02*
D03*
X4866360D02*
D03*
X4946680D02*
D03*
Y7259218D02*
D03*
X4866360D02*
D03*
X4786041D02*
D03*
X4545082D02*
D03*
X4143484D02*
D03*
X4537915Y5611352D02*
D03*
X4610934Y5778749D02*
D03*
Y5858749D02*
D03*
X4450934Y6018749D02*
D03*
X4530934D02*
D03*
X4610934D02*
D03*
X4610935Y5938749D02*
D03*
Y5698749D02*
D03*
X4530935Y5778749D02*
D03*
X4535016Y5696571D02*
D03*
X4770935Y5698749D02*
D03*
X4850934Y5778749D02*
D03*
X4930934Y5858749D02*
D03*
X4936464Y5946733D02*
D03*
X4770935Y5858749D02*
D03*
X4530935Y6098749D02*
D03*
Y6178749D02*
D03*
X3942194Y6633469D02*
D03*
X5040935Y8153222D02*
D03*
X5001252Y7433222D02*
D03*
X4037194Y7029088D02*
D03*
X4450934Y5938749D02*
D03*
X4320935Y7993222D02*
D03*
X4899233Y8212848D02*
D03*
X4560935Y7993222D02*
D03*
X4560934Y7913222D02*
D03*
X4640935D02*
D03*
X5040935Y7593222D02*
D03*
X4880935Y7433222D02*
D03*
X4720935Y7913222D02*
D03*
X5120935Y7913222D02*
D03*
X4770935Y6738749D02*
D03*
X4690934Y6818749D02*
D03*
X5200934Y7993222D02*
D03*
X4800935Y8073222D02*
D03*
Y7993222D02*
D03*
X5520935D02*
D03*
X4960934Y8153222D02*
D03*
X5520935Y8073222D02*
D03*
X4963605Y7513237D02*
D03*
X4800935Y7593222D02*
D03*
X4800935Y7673222D02*
D03*
X4880935Y7593222D02*
D03*
X5360935Y7913222D02*
D03*
X5903098Y6969622D02*
D03*
X6277295Y6415682D02*
D03*
Y6331534D02*
D03*
Y6750365D02*
D03*
Y6666709D02*
D03*
Y6583052D02*
D03*
Y6834022D02*
D03*
X5490934Y6258749D02*
D03*
X5410934Y6418749D02*
D03*
X5280935Y7993222D02*
D03*
X5490934Y6661289D02*
D03*
X5410935D02*
D03*
X5330934D02*
D03*
X5280935Y8073222D02*
D03*
X4880935Y7513222D02*
D03*
X5280935Y7913222D02*
D03*
X5410934Y6338749D02*
D03*
X5330934D02*
D03*
X4640935Y7993222D02*
D03*
X5650934Y6818749D02*
D03*
X5570934D02*
D03*
X4450934D02*
D03*
X5410934D02*
D03*
X4530935D02*
D03*
X5490934Y6738749D02*
D03*
X5410934Y5778749D02*
D03*
X4610935Y6818749D02*
D03*
X5410934Y6738749D02*
D03*
X4530935D02*
D03*
X4690934Y5778749D02*
D03*
X4450934Y6098749D02*
D03*
X5090934Y5778749D02*
D03*
X5330934Y5938749D02*
D03*
X5410934Y6098749D02*
D03*
X4850934Y5858749D02*
D03*
D90*
X1881859Y6674526D02*
D03*
X4287285Y6048713D02*
D03*
X5338564Y6824188D02*
D03*
X4948421Y3331868D02*
D03*
X5048421D02*
D03*
X4948421Y3431868D02*
D03*
Y3531868D02*
D03*
X5048421Y3431868D02*
D03*
Y3531868D02*
D03*
X5148421D02*
D03*
Y3431868D02*
D03*
Y3331868D02*
D03*
X5150501Y2892059D02*
D03*
Y2792059D02*
D03*
Y2692059D02*
D03*
X5050501D02*
D03*
Y2792059D02*
D03*
X4950501Y2692059D02*
D03*
Y2792059D02*
D03*
X5050501Y2892059D02*
D03*
X4950501D02*
D03*
X2748909Y2931430D02*
D03*
X2548909D02*
D03*
X1702517Y3700925D02*
D03*
X1619951D02*
D03*
X1748909Y3531430D02*
D03*
X2843234Y3135715D02*
D03*
X2843233Y3235715D02*
D03*
Y3335715D02*
D03*
X2843234Y3435716D02*
D03*
X2743233D02*
D03*
Y3335715D02*
D03*
Y3235715D02*
D03*
X2643233Y3435716D02*
D03*
Y3335715D02*
D03*
Y3235715D02*
D03*
X2743233Y3135715D02*
D03*
X2643233D02*
D03*
X2543233D02*
D03*
Y3235715D02*
D03*
Y3335715D02*
D03*
Y3435716D02*
D03*
X3203510Y1426513D02*
D03*
Y1526513D02*
D03*
Y1626513D02*
D03*
Y1726513D02*
D03*
X3103510D02*
D03*
X3003510D02*
D03*
X3103510Y1626513D02*
D03*
Y1526513D02*
D03*
Y1426513D02*
D03*
X3003510Y1626513D02*
D03*
Y1526513D02*
D03*
Y1426513D02*
D03*
X2903510D02*
D03*
Y1526513D02*
D03*
Y1626513D02*
D03*
Y1726513D02*
D03*
X2348909Y1718729D02*
D03*
X2248909Y1818729D02*
D03*
Y1918729D02*
D03*
X2648909D02*
D03*
Y1818729D02*
D03*
X2548909D02*
D03*
X2448909Y1918729D02*
D03*
Y1818729D02*
D03*
X2348909D02*
D03*
X2448909Y1618729D02*
D03*
Y1718729D02*
D03*
X2648909Y1518729D02*
D03*
Y1618729D02*
D03*
Y1718729D02*
D03*
X2548909D02*
D03*
Y1518729D02*
D03*
Y1618729D02*
D03*
X5564929Y1321042D02*
D03*
X5664929D02*
D03*
X5564929Y1221042D02*
D03*
Y1121042D02*
D03*
Y1021042D02*
D03*
X5664929Y1221042D02*
D03*
Y1121042D02*
D03*
Y1021042D02*
D03*
X5764929D02*
D03*
Y1121042D02*
D03*
Y1221042D02*
D03*
Y1321042D02*
D03*
X5535867Y2998582D02*
D03*
X5635867D02*
D03*
X5535867Y2898582D02*
D03*
Y2798582D02*
D03*
Y2698582D02*
D03*
X5635867Y2898582D02*
D03*
Y2798582D02*
D03*
Y2698582D02*
D03*
X5735867D02*
D03*
Y2798582D02*
D03*
Y2898582D02*
D03*
Y2998582D02*
D03*
Y3568570D02*
D03*
Y3468570D02*
D03*
Y3368570D02*
D03*
Y3268570D02*
D03*
X5635867D02*
D03*
Y3368570D02*
D03*
Y3468570D02*
D03*
X5535867Y3268570D02*
D03*
Y3368570D02*
D03*
Y3468570D02*
D03*
X5635867Y3568570D02*
D03*
X6180576Y3421067D02*
D03*
X6980576Y3621067D02*
D03*
X6180576Y3821067D02*
D03*
X5980576D02*
D03*
Y4021067D02*
D03*
X6180576D02*
D03*
X6380576D02*
D03*
Y3621067D02*
D03*
Y3821067D02*
D03*
X6580576Y3421067D02*
D03*
X6380576D02*
D03*
X6780576D02*
D03*
X6980576D02*
D03*
X6180576Y3221067D02*
D03*
X5980576D02*
D03*
Y3421067D02*
D03*
X5983126Y935176D02*
D03*
X6183127D02*
D03*
X6383127D02*
D03*
X6983127Y1935176D02*
D03*
X5983126Y1135176D02*
D03*
X6783127D02*
D03*
X6183127D02*
D03*
X6583127D02*
D03*
X6383127D02*
D03*
X6783127Y1335176D02*
D03*
X6583127D02*
D03*
X6383127D02*
D03*
X6983127D02*
D03*
Y1735176D02*
D03*
Y1535176D02*
D03*
X5983126Y1935176D02*
D03*
X6383127D02*
D03*
X6183127D02*
D03*
X6383127Y1535176D02*
D03*
X6183127Y1735176D02*
D03*
X6583127Y1535176D02*
D03*
Y1735176D02*
D03*
X6383127D02*
D03*
X6183127Y1535176D02*
D03*
X5983126D02*
D03*
Y1735176D02*
D03*
X6783127D02*
D03*
Y1535176D02*
D03*
X6380576Y3013378D02*
D03*
X6980576Y2613378D02*
D03*
X6780576Y2413378D02*
D03*
Y2613378D02*
D03*
X6180576Y2813378D02*
D03*
X5980576D02*
D03*
Y2613378D02*
D03*
Y2413378D02*
D03*
Y2213378D02*
D03*
X6180576D02*
D03*
X6380576Y2813378D02*
D03*
X6180576Y2413378D02*
D03*
X6380576Y2613378D02*
D03*
X6580576D02*
D03*
Y2413378D02*
D03*
X6180576Y2613378D02*
D03*
X6380576Y2413378D02*
D03*
X3416936Y977419D02*
D03*
Y1177419D02*
D03*
Y1377419D02*
D03*
Y777419D02*
D03*
X4221799Y2908993D02*
D03*
X4271799D02*
D03*
X4225504Y2768819D02*
D03*
X3754226Y2503278D02*
D03*
X3616936Y1177419D02*
D03*
X3216935D02*
D03*
X3616936Y1377419D02*
D03*
X3816936Y1177419D02*
D03*
X3416936Y1577419D02*
D03*
X3016935Y1177419D02*
D03*
X3216935Y977419D02*
D03*
X3016935D02*
D03*
X3216935Y777419D02*
D03*
X5816937D02*
D03*
X3909136Y1533402D02*
D03*
X4016936Y977419D02*
D03*
X3616936Y777419D02*
D03*
X4016936D02*
D03*
X3816936Y977419D02*
D03*
Y777419D02*
D03*
X3616936Y977419D02*
D03*
X5616937Y777419D02*
D03*
X5416937D02*
D03*
X5216936D02*
D03*
X5016936D02*
D03*
X4416936D02*
D03*
X4816936D02*
D03*
X4216936Y977419D02*
D03*
X4616936Y777419D02*
D03*
Y977419D02*
D03*
X5216936D02*
D03*
X4816936D02*
D03*
X4416936D02*
D03*
X4216936Y777419D02*
D03*
X5416937Y977419D02*
D03*
X5016936D02*
D03*
X5535867Y3568570D02*
D03*
X7012594Y8353967D02*
D03*
X7213364Y8503755D02*
D03*
X3213362Y609675D02*
D03*
X2932940Y811004D02*
D03*
X4013362Y609675D02*
D03*
X4213362D02*
D03*
X3813362D02*
D03*
X3413362D02*
D03*
X3613362D02*
D03*
X4413363D02*
D03*
X4613363D02*
D03*
X4813363D02*
D03*
X5013363D02*
D03*
X6213363D02*
D03*
X6413364D02*
D03*
X5813363D02*
D03*
X6013363D02*
D03*
X5213363D02*
D03*
X6613364D02*
D03*
X6813364D02*
D03*
X7013364D02*
D03*
X5413363D02*
D03*
X5613363D02*
D03*
X7213364D02*
D03*
X7861023Y2213493D02*
D03*
X1675088Y609675D02*
D03*
X1091899Y3877589D02*
D03*
X1091495Y4235439D02*
D03*
X1165929Y4056312D02*
D03*
X3812367Y8153561D02*
D03*
X3991495Y8227995D02*
D03*
X3633644Y8227591D02*
D03*
X7860404Y1856716D02*
D03*
Y1656715D02*
D03*
Y1456715D02*
D03*
Y1256715D02*
D03*
Y2056715D02*
D03*
Y1056715D02*
D03*
X7413364Y609675D02*
D03*
X7789478Y817494D02*
D03*
X7623155Y662729D02*
D03*
X1791939Y709069D02*
D03*
X1413364Y609675D02*
D03*
X966324Y1056715D02*
D03*
X1174143Y680601D02*
D03*
X1019378Y846924D02*
D03*
X965731Y2908794D02*
D03*
Y3108794D02*
D03*
Y3308794D02*
D03*
Y3508794D02*
D03*
Y3708794D02*
D03*
Y1308793D02*
D03*
Y1508793D02*
D03*
Y1708793D02*
D03*
Y1908793D02*
D03*
Y2108793D02*
D03*
Y2308793D02*
D03*
Y2508793D02*
D03*
Y2708793D02*
D03*
Y6303222D02*
D03*
Y6503222D02*
D03*
Y6703222D02*
D03*
Y7703223D02*
D03*
Y7503222D02*
D03*
Y7303222D02*
D03*
Y6903222D02*
D03*
Y7103222D02*
D03*
Y5503221D02*
D03*
Y5903222D02*
D03*
Y6103222D02*
D03*
Y5703222D02*
D03*
Y7879820D02*
D03*
Y4903221D02*
D03*
Y5103221D02*
D03*
Y5303221D02*
D03*
Y4703221D02*
D03*
Y4503221D02*
D03*
Y8056718D02*
D03*
X1412771Y8503758D02*
D03*
X1036658Y8295940D02*
D03*
X1202980Y8450705D02*
D03*
X7807350Y8266506D02*
D03*
X7652585Y8432828D02*
D03*
X7860404Y8056715D02*
D03*
X7413364Y8503755D02*
D03*
X1681366D02*
D03*
X2743100Y811004D02*
D03*
X2543100D02*
D03*
X2343100D02*
D03*
X2143100D02*
D03*
X1943099D02*
D03*
X7859284Y2402895D02*
D03*
Y2602895D02*
D03*
Y2802895D02*
D03*
Y4402896D02*
D03*
Y4602896D02*
D03*
Y4802896D02*
D03*
Y5002896D02*
D03*
Y3002895D02*
D03*
Y3202895D02*
D03*
Y3402895D02*
D03*
Y3602896D02*
D03*
Y3802896D02*
D03*
Y4002896D02*
D03*
Y4202896D02*
D03*
Y6602897D02*
D03*
Y6802897D02*
D03*
Y7002897D02*
D03*
Y7202897D02*
D03*
Y5202896D02*
D03*
Y5402896D02*
D03*
Y5602896D02*
D03*
Y5802897D02*
D03*
Y6002897D02*
D03*
Y6202897D02*
D03*
Y6402897D02*
D03*
Y7602898D02*
D03*
Y7402898D02*
D03*
Y7802898D02*
D03*
X5812593Y8353967D02*
D03*
X6012593D02*
D03*
X6212593D02*
D03*
X6412593D02*
D03*
X6612593D02*
D03*
X6812593D02*
D03*
X4412592D02*
D03*
X4612592D02*
D03*
X4812592D02*
D03*
X5012592D02*
D03*
X5212593D02*
D03*
X5412593D02*
D03*
X5612593D02*
D03*
X4212592D02*
D03*
X3480592D02*
D03*
X3280592D02*
D03*
X3080592D02*
D03*
X2880592D02*
D03*
X2680592D02*
D03*
X2480592D02*
D03*
X2280592D02*
D03*
X1880592D02*
D03*
X2080592D02*
D03*
X4025808Y1650074D02*
D03*
X4274289Y1403439D02*
D03*
X2148909Y1918729D02*
D03*
X2748909D02*
D03*
X2548909D02*
D03*
X2348909D02*
D03*
X1748909Y2931430D02*
D03*
X1948909D02*
D03*
X3673266Y3048098D02*
D03*
X2948910Y2731430D02*
D03*
X2748909D02*
D03*
X2548909D02*
D03*
X2148909Y2931430D02*
D03*
Y3131430D02*
D03*
Y2731430D02*
D03*
X2348909D02*
D03*
Y2931430D02*
D03*
X6546177Y6261214D02*
D03*
X6982249Y5518185D02*
D03*
Y5581567D02*
D03*
X2894368Y7623232D02*
D03*
X4374553Y7341848D02*
D03*
X1560072Y7399926D02*
D03*
X1622995Y7449338D02*
D03*
X2032516Y7222199D02*
D03*
X1992181Y7121437D02*
D03*
X1954162Y6943068D02*
D03*
X2114885Y6491313D02*
D03*
X1361515Y5747060D02*
D03*
X1661131Y5729714D02*
D03*
X1305973Y5697445D02*
D03*
X1661131Y5670841D02*
D03*
Y6157895D02*
D03*
X1078907Y6047527D02*
D03*
X6360294Y7591903D02*
D03*
X1071376Y6704604D02*
D03*
X1297859Y6996038D02*
D03*
X1305973Y6197445D02*
D03*
X1661131Y6379640D02*
D03*
X1954162Y7010237D02*
D03*
X1661131Y6997314D02*
D03*
X1336888Y6648715D02*
D03*
X2617389Y6251149D02*
D03*
X2717389D02*
D03*
X2617389Y6151149D02*
D03*
X2717389D02*
D03*
X2617389Y6051149D02*
D03*
X2717389D02*
D03*
X2517389Y6251149D02*
D03*
X2417389D02*
D03*
Y6151149D02*
D03*
X2517389Y6051149D02*
D03*
Y6151149D02*
D03*
X2417389Y5951149D02*
D03*
X2317389Y6051149D02*
D03*
X2417389D02*
D03*
X2317389Y6251149D02*
D03*
Y6151149D02*
D03*
X2717389Y5951149D02*
D03*
X2617389D02*
D03*
X2517389D02*
D03*
Y5851149D02*
D03*
X2717389D02*
D03*
X2617389D02*
D03*
X2417389D02*
D03*
X2317389D02*
D03*
Y5951149D02*
D03*
X3198774Y5664149D02*
D03*
X2454083Y5664228D02*
D03*
X3199565Y5271238D02*
D03*
X2264546Y6760598D02*
D03*
X7029383Y7860739D02*
D03*
X2890223Y6249509D02*
D03*
X3371567Y5514368D02*
D03*
X3369783Y5416873D02*
D03*
X3321876Y5463847D02*
D03*
X6274718Y4976622D02*
D03*
X6507464Y7097410D02*
D03*
X2164397Y7351528D02*
D03*
X1305973Y6097445D02*
D03*
X1661131Y6229641D02*
D03*
Y6288514D02*
D03*
X1361515Y6147060D02*
D03*
Y6297060D02*
D03*
X1305973Y6347445D02*
D03*
X1661131Y6567914D02*
D03*
Y6509041D02*
D03*
X1361515Y6747060D02*
D03*
X1305973Y6697445D02*
D03*
X1660235Y7126714D02*
D03*
Y7067841D02*
D03*
X1662200Y7210064D02*
D03*
X2434946Y4803246D02*
D03*
X2527928Y4804504D02*
D03*
X2528118Y4896345D02*
D03*
X2048471Y4898152D02*
D03*
X1912292Y4940568D02*
D03*
X5854887Y5377172D02*
D03*
X4917567Y5131121D02*
D03*
X6435378Y5141192D02*
D03*
X6387202Y5083487D02*
D03*
X6338460Y5041384D02*
D03*
X1361921Y6947423D02*
D03*
X1662005Y7500733D02*
D03*
X3003024Y6428025D02*
D03*
X3091302Y5417023D02*
D03*
X2347096Y5292895D02*
D03*
X3818957Y6015301D02*
D03*
X1610567Y7346215D02*
D03*
X7463321Y5513848D02*
D03*
X1581018Y5647397D02*
D03*
Y7197397D02*
D03*
X1560219Y7347445D02*
D03*
X7463951Y5440920D02*
D03*
X5770128Y4419331D02*
D03*
X6109397Y4519363D02*
D03*
X4406222Y4181136D02*
D03*
X3193452Y4580284D02*
D03*
Y4497718D02*
D03*
X3286190Y4580284D02*
D03*
X3378928D02*
D03*
Y4497717D02*
D03*
X3286190D02*
D03*
X2421432Y4395750D02*
D03*
X2514170D02*
D03*
Y4478316D02*
D03*
X2421432D02*
D03*
X2328693Y4395750D02*
D03*
Y4478317D02*
D03*
X1662005Y7271333D02*
D03*
X4837221Y5131121D02*
D03*
X3566900Y6998510D02*
D03*
Y7175392D02*
D03*
Y7352273D02*
D03*
Y7536775D02*
D03*
Y7717342D02*
D03*
X2527928Y4708504D02*
D03*
X7208930Y7242355D02*
D03*
Y7333481D02*
D03*
Y7392355D02*
D03*
Y7183482D02*
D03*
X6971215Y7160898D02*
D03*
Y7239282D02*
D03*
Y7333481D02*
D03*
Y7392355D02*
D03*
X6516969Y6983748D02*
D03*
X6464454Y5711639D02*
D03*
X6560454D02*
D03*
X6745419D02*
D03*
X6649419D02*
D03*
X4037194Y5686440D02*
D03*
X2136806Y5476679D02*
D03*
X1879446Y7072002D02*
D03*
X1944425Y6287479D02*
D03*
X4037929Y6012298D02*
D03*
X4203984Y6048713D02*
D03*
X5283432Y5222870D02*
D03*
X5198201Y5400146D02*
D03*
X3162274Y6251149D02*
D03*
X3462275D02*
D03*
X3362274D02*
D03*
X3262274Y6151149D02*
D03*
Y6251149D02*
D03*
X3162274Y6151149D02*
D03*
X3062274Y6251149D02*
D03*
X3462275Y6151149D02*
D03*
X3362274D02*
D03*
Y6051149D02*
D03*
X3462275D02*
D03*
Y5951149D02*
D03*
X3262274D02*
D03*
X3362274D02*
D03*
X3062274Y6051149D02*
D03*
Y6151149D02*
D03*
X3162274Y6051149D02*
D03*
X3262274D02*
D03*
X3062274Y5951149D02*
D03*
X3162274D02*
D03*
X3362274Y5851149D02*
D03*
X3262274D02*
D03*
X3462275D02*
D03*
X3162274D02*
D03*
X3062274D02*
D03*
X3006039Y5418048D02*
D03*
X2474708Y3757335D02*
D03*
X3673266Y2979796D02*
D03*
X4471799Y2936493D02*
D03*
X3612193Y3400805D02*
D03*
X3830791Y3818949D02*
D03*
Y3731449D02*
D03*
X3971799Y3591493D02*
D03*
X4465222Y3480804D02*
D03*
X4471799Y3591493D02*
D03*
X3840541Y4181136D02*
D03*
X4276222D02*
D03*
X1619951Y3793664D02*
D03*
X1702517D02*
D03*
X1619951Y3886402D02*
D03*
X1702517D02*
D03*
X3981257Y2602603D02*
D03*
X4016257Y2652604D02*
D03*
X6481629Y7979750D02*
D03*
X6092358Y7979067D02*
D03*
X6352358Y8074067D02*
D03*
X6092358Y7884067D02*
D03*
X1493260Y4271402D02*
D03*
X1398100D02*
D03*
X6107916Y4642553D02*
D03*
X5983597Y4519363D02*
D03*
X6463690Y4569549D02*
D03*
X6550441Y4574374D02*
D03*
X6367373Y4482381D02*
D03*
X6367690Y4569549D02*
D03*
X6473360Y4766329D02*
D03*
X6398032Y4766450D02*
D03*
X1717978Y1509512D02*
D03*
X2111427Y1665423D02*
D03*
X2190382D02*
D03*
X1855980Y1655848D02*
D03*
X1777025D02*
D03*
X3436252Y3457788D02*
D03*
Y3402462D02*
D03*
X3360909Y3457789D02*
D03*
Y3402462D02*
D03*
X3256454Y3213451D02*
D03*
X3201127D02*
D03*
X3201060Y3474840D02*
D03*
X3201127Y3288795D02*
D03*
X3256387Y3474840D02*
D03*
X3201060Y3399497D02*
D03*
X3256387D02*
D03*
X3256454Y3288794D02*
D03*
X3016127Y3213451D02*
D03*
X3016060Y3399497D02*
D03*
X3016127Y3288795D02*
D03*
X3071454Y3288794D02*
D03*
X3071454Y3213451D02*
D03*
X3071387Y3399497D02*
D03*
X3016060Y3474840D02*
D03*
X3071387Y3474840D02*
D03*
X1398100Y3799707D02*
D03*
X1322757Y3799707D02*
D03*
X1398100Y3855034D02*
D03*
X1322757D02*
D03*
X1322756Y4135034D02*
D03*
X1398100Y4135034D02*
D03*
X1322756Y4079707D02*
D03*
X1398100D02*
D03*
X5702698Y4327038D02*
D03*
X6243597Y4329363D02*
D03*
X6243597Y4519363D02*
D03*
X5859329Y4328863D02*
D03*
X5764329D02*
D03*
X6193109Y4880352D02*
D03*
X2308471Y4803152D02*
D03*
X2433117Y4896345D02*
D03*
X1915791Y4759094D02*
D03*
X1912292Y4845568D02*
D03*
X1915791Y4663094D02*
D03*
X2048471Y4708152D02*
D03*
X1702517Y4271402D02*
D03*
X1619951D02*
D03*
X1702517Y4178664D02*
D03*
Y4085925D02*
D03*
X1619951D02*
D03*
Y4178664D02*
D03*
X2151199Y4155499D02*
D03*
Y4338083D02*
D03*
X2151198Y4262740D02*
D03*
X2846490Y3896218D02*
D03*
X2830690Y4105990D02*
D03*
X3042719Y2882929D02*
D03*
X4655634Y1175602D02*
D03*
X3585012Y2361627D02*
D03*
X3365404Y2315872D02*
D03*
X3440747Y2260545D02*
D03*
X3365404D02*
D03*
X3440747Y2315871D02*
D03*
X3441866Y2452144D02*
D03*
X2040545Y4080156D02*
D03*
Y4155499D02*
D03*
X2095872Y4080156D02*
D03*
X2095872Y4155499D02*
D03*
X2040545Y4262740D02*
D03*
Y4338083D02*
D03*
X2095872Y4262740D02*
D03*
X2095872Y4338083D02*
D03*
X1855545Y4080156D02*
D03*
Y4155499D02*
D03*
X1910872Y4080156D02*
D03*
X1910872Y4155499D02*
D03*
X1855545Y4262740D02*
D03*
Y4338083D02*
D03*
X1910872Y4262740D02*
D03*
X1910872Y4338083D02*
D03*
X1902838Y3650219D02*
D03*
Y3787887D02*
D03*
X2269977Y3476200D02*
D03*
X2345320D02*
D03*
X2269977Y3420874D02*
D03*
X2345320Y3420873D02*
D03*
X3455814Y3851530D02*
D03*
X3444053Y3765255D02*
D03*
X3385670Y3706872D02*
D03*
X2650557Y3544661D02*
D03*
X2567991D02*
D03*
X2485425D02*
D03*
X2402858D02*
D03*
X2320292D02*
D03*
X2345321Y3235873D02*
D03*
X2269978Y3235874D02*
D03*
X2345321Y3291200D02*
D03*
X2269978D02*
D03*
X2930932Y2053295D02*
D03*
X1817516Y1952399D02*
D03*
X1817516Y2027743D02*
D03*
X1872843Y1952399D02*
D03*
Y2027743D02*
D03*
X3152697Y2413339D02*
D03*
X3059958D02*
D03*
X3245435Y2330773D02*
D03*
Y2413339D02*
D03*
X3059958Y2330773D02*
D03*
X3152697D02*
D03*
X3358582Y3596502D02*
D03*
X3193582D02*
D03*
X2886828Y3648505D02*
D03*
X2616411Y3652782D02*
D03*
X2133803Y3382608D02*
D03*
X3274243Y2976604D02*
D03*
X3331257D02*
D03*
X3217330Y3826865D02*
D03*
X3267330Y3876865D02*
D03*
X3317330Y3826865D02*
D03*
X3217330Y3926865D02*
D03*
X3317330D02*
D03*
X2284708Y3732335D02*
D03*
X2384708D02*
D03*
X2334708Y3782335D02*
D03*
X2284708Y3832335D02*
D03*
X2384708D02*
D03*
X2815045Y4304020D02*
D03*
X2762258D02*
D03*
X2846490Y3764565D02*
D03*
X3455814Y3926738D02*
D03*
X2947258Y4304020D02*
D03*
X3000045D02*
D03*
X2947258Y4366663D02*
D03*
X3000045D02*
D03*
X2616411Y3817782D02*
D03*
X2759718Y4491950D02*
D03*
X2762258Y4554594D02*
D03*
Y4429307D02*
D03*
Y4366663D02*
D03*
X2815045Y4554594D02*
D03*
Y4491950D02*
D03*
Y4429307D02*
D03*
Y4366663D02*
D03*
X2944718Y4491950D02*
D03*
X2947258Y4554594D02*
D03*
Y4429307D02*
D03*
X3000045Y4491950D02*
D03*
Y4554594D02*
D03*
Y4429307D02*
D03*
X3052832D02*
D03*
Y4491950D02*
D03*
Y4554594D02*
D03*
X3771863Y2630424D02*
D03*
X3721863Y2595424D02*
D03*
X4644978Y2714691D02*
D03*
X4678883Y2531401D02*
D03*
X4582794Y2391924D02*
D03*
X5124070Y1366119D02*
D03*
X5035170Y1366119D02*
D03*
X4946270D02*
D03*
Y1277219D02*
D03*
X5035170D02*
D03*
X5124070Y1277219D02*
D03*
Y1188319D02*
D03*
X5035170Y1188319D02*
D03*
X4651756Y2641917D02*
D03*
X4738266Y3719560D02*
D03*
X5451320Y1539170D02*
D03*
X5383719D02*
D03*
X5451320Y1916305D02*
D03*
X5385175Y1916305D02*
D03*
Y2473593D02*
D03*
X5451320Y2473593D02*
D03*
X5383719Y2096458D02*
D03*
X5451320D02*
D03*
X5978852Y1362879D02*
D03*
X6051532D02*
D03*
X6052170Y3034743D02*
D03*
X5979489D02*
D03*
Y3604731D02*
D03*
X6052170D02*
D03*
X6125830Y5610242D02*
D03*
X6774156Y5347169D02*
D03*
X5111829Y5493768D02*
D03*
X3792594Y3897872D02*
D03*
X3647814Y4395496D02*
D03*
X6621239Y7756994D02*
D03*
X6523313D02*
D03*
X6809691Y7447165D02*
D03*
X6419771Y7604725D02*
D03*
X6618297Y7169617D02*
D03*
X7464028Y5697060D02*
D03*
X7608641D02*
D03*
X7473627Y2807919D02*
D03*
X7388011D02*
D03*
X6708238Y6992201D02*
D03*
X6649419Y5806842D02*
D03*
X6700454Y5587931D02*
D03*
X6560454Y5806842D02*
D03*
X6480454Y5587931D02*
D03*
X6916037Y5154391D02*
D03*
X6816929Y5155302D02*
D03*
X6965481Y5056681D02*
D03*
X6636906Y5067576D02*
D03*
X6636886Y4977891D02*
D03*
X6424255Y5343670D02*
D03*
X6344554D02*
D03*
X6454532Y4977892D02*
D03*
X6368178D02*
D03*
X2990812Y7654910D02*
D03*
X3476833Y6817390D02*
D03*
X2971693Y6720842D02*
D03*
X3152510D02*
D03*
X2610059D02*
D03*
X2790876D02*
D03*
X1361515Y7147830D02*
D03*
X1287552Y7145775D02*
D03*
X4819205Y5476825D02*
D03*
X4400647Y5468319D02*
D03*
X4494476Y5365240D02*
D03*
X4398718Y5374961D02*
D03*
X4064318Y5364354D02*
D03*
X3960594Y5468319D02*
D03*
X3960979Y5374075D02*
D03*
X2805558Y6441005D02*
D03*
X2709160Y5636618D02*
D03*
Y5689584D02*
D03*
X2705844Y5511268D02*
D03*
X3679915Y3118551D02*
D03*
X3667752Y3579929D02*
D03*
Y3496280D02*
D03*
X6771738Y6973910D02*
D03*
X6989984Y7783480D02*
D03*
X6771738Y6915653D02*
D03*
X6989984Y7714366D02*
D03*
X6615152Y6847218D02*
D03*
X7067954Y7714744D02*
D03*
X6656568Y7474615D02*
D03*
X6893032Y6699492D02*
D03*
X6696991Y6650839D02*
D03*
Y6746839D02*
D03*
Y6557963D02*
D03*
X7081037Y5204391D02*
D03*
X6604397Y6650839D02*
D03*
Y6557033D02*
D03*
X6904602Y6098520D02*
D03*
X6972412Y7058196D02*
D03*
X6893174Y6604427D02*
D03*
X6717239Y7756994D02*
D03*
X6427313D02*
D03*
X7464028Y7197060D02*
D03*
X6737506Y7382053D02*
D03*
X6425540Y7399725D02*
D03*
X6708238Y6896201D02*
D03*
X6604397Y6746839D02*
D03*
X7464028Y6297060D02*
D03*
Y5997060D02*
D03*
X7536334Y5697060D02*
D03*
X7678011Y3435259D02*
D03*
X7608641Y5547060D02*
D03*
X7678011Y2430579D02*
D03*
X7473627Y2682919D02*
D03*
X7081037Y5405730D02*
D03*
X7388011Y2682919D02*
D03*
X6696991Y6461963D02*
D03*
X6604397Y6461033D02*
D03*
X6621349Y6369036D02*
D03*
X6745419Y5806842D02*
D03*
X6602174Y6167744D02*
D03*
Y6015344D02*
D03*
X6464454Y5806842D02*
D03*
X6728911Y5165698D02*
D03*
X6636906Y5163576D02*
D03*
X6546486Y5408790D02*
D03*
X6480454Y5522931D02*
D03*
X6965481Y4960681D02*
D03*
X6732886Y4977891D02*
D03*
X6550532Y4977892D02*
D03*
X6822145Y4774359D02*
D03*
X6909645D02*
D03*
X6535780Y4914193D02*
D03*
X6294961Y4907605D02*
D03*
X1361515Y7247830D02*
D03*
X1287552Y7245775D02*
D03*
X3138944Y6428984D02*
D03*
X3071774Y6427989D02*
D03*
X4203984Y6137223D02*
D03*
X2393143Y6441005D02*
D03*
X2327542D02*
D03*
X4764016Y5508816D02*
D03*
Y5386120D02*
D03*
Y5263424D02*
D03*
X4563588Y5535050D02*
D03*
X4136185Y5546795D02*
D03*
X3887923Y5545525D02*
D03*
X4496647Y5468319D02*
D03*
X4332163Y5508816D02*
D03*
Y5386120D02*
D03*
Y5263424D02*
D03*
X4056594Y5468319D02*
D03*
X3887923Y5427314D02*
D03*
Y5309103D02*
D03*
X4679476Y5220240D02*
D03*
X4764016Y5140728D02*
D03*
X4616678D02*
D03*
X4545214Y4285995D02*
D03*
X4528796Y4056731D02*
D03*
X4474421Y5140728D02*
D03*
X4249318Y5219354D02*
D03*
X4332163Y5140728D02*
D03*
X4528796Y3969231D02*
D03*
X4398048Y3810238D02*
D03*
Y3722738D02*
D03*
X4466799Y3263993D02*
D03*
Y3153993D02*
D03*
Y3373994D02*
D03*
X4356799D02*
D03*
Y3483994D02*
D03*
X4246799Y3263993D02*
D03*
Y3483994D02*
D03*
Y3373994D02*
D03*
X4356799Y3153993D02*
D03*
Y3263993D02*
D03*
Y3043993D02*
D03*
X4246799Y3153993D02*
D03*
Y3043993D02*
D03*
X4184061Y5140728D02*
D03*
X4045956D02*
D03*
X4060659Y4055500D02*
D03*
Y3968000D02*
D03*
X4136799Y3483994D02*
D03*
X4027200Y3824439D02*
D03*
X3939556Y5192162D02*
D03*
X4136799Y3263993D02*
D03*
Y3373994D02*
D03*
X4026799Y3263993D02*
D03*
Y3373994D02*
D03*
X4136799Y3153993D02*
D03*
X4026799D02*
D03*
X4136799Y3043993D02*
D03*
X3774202Y3300806D02*
D03*
X2609844Y5511268D02*
D03*
X1361515Y5647060D02*
D03*
X6644741Y7404384D02*
D03*
X6634508Y6923906D02*
D03*
X6972412Y6996628D02*
D03*
X6893032Y6816409D02*
D03*
X6897039Y5519070D02*
D03*
X6874337Y4924089D02*
D03*
X6700454Y5522931D02*
D03*
X6970280Y6616582D02*
D03*
X7047728Y6877914D02*
D03*
X6700349Y6811329D02*
D03*
X6783694Y6816409D02*
D03*
X6624139Y7613678D02*
D03*
X6303895Y7591903D02*
D03*
X6360294Y7535658D02*
D03*
Y7479284D02*
D03*
X6518603Y6576101D02*
D03*
Y6522211D02*
D03*
X6712870Y7641247D02*
D03*
X6672787Y6306267D02*
D03*
X6441834Y6770463D02*
D03*
X4822546Y5385621D02*
D03*
X6200262Y5610242D02*
D03*
Y5534578D02*
D03*
Y5458913D02*
D03*
Y5357849D02*
D03*
Y5292344D02*
D03*
X3681456Y4054137D02*
D03*
X3680740Y4119839D02*
D03*
X4052548Y7334077D02*
D03*
X4676051Y3748747D02*
D03*
X5385175Y4145458D02*
D03*
X5451320Y4145457D02*
D03*
X5383719Y3768323D02*
D03*
X5451320D02*
D03*
X1661131Y6717914D02*
D03*
X2065435Y5302951D02*
D03*
Y5359141D02*
D03*
Y5471521D02*
D03*
Y5415331D02*
D03*
X2064085Y5726253D02*
D03*
Y5954677D02*
D03*
X1895913Y7551392D02*
D03*
Y7480267D02*
D03*
X2237390Y6649033D02*
D03*
X1944726Y5543832D02*
D03*
X2193190Y6603923D02*
D03*
X2421408Y7041173D02*
D03*
X2148755Y7272277D02*
D03*
X2310266Y6718469D02*
D03*
X2111715Y6842877D02*
D03*
X2072075Y7401677D02*
D03*
X2421408Y7288288D02*
D03*
X1912937Y5874045D02*
D03*
X1661131Y6659040D02*
D03*
Y6938440D02*
D03*
Y6788441D02*
D03*
Y6847314D02*
D03*
X1361515Y6547060D02*
D03*
X1216902D02*
D03*
X1289208D02*
D03*
X1361515Y6397060D02*
D03*
Y6847060D02*
D03*
X3056892Y5155956D02*
D03*
X3135604Y5207882D02*
D03*
X4997914Y5226121D02*
D03*
X4917567D02*
D03*
X6125830Y5292344D02*
D03*
Y5357849D02*
D03*
X5893704Y4908485D02*
D03*
X6107916Y4809054D02*
D03*
X5708257Y5194118D02*
D03*
X5683928Y5118213D02*
D03*
X6125830Y5534578D02*
D03*
Y5458913D02*
D03*
X5764582Y5145567D02*
D03*
X5814545Y5092377D02*
D03*
X5918883Y4986963D02*
D03*
X5865014Y5037970D02*
D03*
X5736372Y5065781D02*
D03*
X5788816Y5013349D02*
D03*
X5841260Y4960917D02*
D03*
X2888594Y6441005D02*
D03*
X2887842Y6831608D02*
D03*
X2791984Y6830198D02*
D03*
X2705059Y6811290D02*
D03*
X3247510D02*
D03*
X3391290Y6475221D02*
D03*
X2707889Y6441005D02*
D03*
X4468043Y7803937D02*
D03*
X4373043D02*
D03*
X4029738Y7838949D02*
D03*
X4096913Y7906125D02*
D03*
X4287285Y6137223D02*
D03*
X3475980Y7622342D02*
D03*
X3385913Y6722390D02*
D03*
X3569562Y7804229D02*
D03*
X3475980Y7441775D02*
D03*
X4172058Y5880517D02*
D03*
X3612193Y3250806D02*
D03*
X3882534Y3897652D02*
D03*
X4252281Y4059652D02*
D03*
X2888949Y5956672D02*
D03*
X3475980Y7717342D02*
D03*
Y7536775D02*
D03*
X3474562Y7804229D02*
D03*
X4574299Y3038993D02*
D03*
Y3388993D02*
D03*
X3762752Y3496280D02*
D03*
X3841289Y3351081D02*
D03*
X6537208Y7447231D02*
D03*
X6728911Y5069698D02*
D03*
X7186485Y5498084D02*
D03*
X7081037Y5274243D02*
D03*
X7429117Y2932419D02*
D03*
Y3057419D02*
D03*
Y3182419D02*
D03*
X6487839Y5897579D02*
D03*
X5027144Y5316395D02*
D03*
X5167799Y5226288D02*
D03*
X4837221Y5226121D02*
D03*
X5378432Y5222870D02*
D03*
Y5311908D02*
D03*
X5379702Y5386163D02*
D03*
X6730561Y5250302D02*
D03*
X5080800Y5147631D02*
D03*
Y5226121D02*
D03*
X5275856Y5506102D02*
D03*
X4169627Y5775163D02*
D03*
Y5695569D02*
D03*
X2903943Y5513007D02*
D03*
X6774981Y6408404D02*
D03*
X7208930Y7613847D02*
D03*
X7464028Y7347060D02*
D03*
X7608641Y7197060D02*
D03*
X7208930Y7463847D02*
D03*
X6536806Y7505420D02*
D03*
X6535595Y7559568D02*
D03*
X6699906Y5894726D02*
D03*
X6700454Y5648031D02*
D03*
X6570590Y5188777D02*
D03*
X6693455Y5347169D02*
D03*
X6893032Y6757950D02*
D03*
X7536334Y7347060D02*
D03*
X7208930Y7522721D02*
D03*
Y7058196D02*
D03*
X7608641Y6897060D02*
D03*
X6834230Y6370466D02*
D03*
X6555078Y5250302D02*
D03*
X6972412Y6502546D02*
D03*
Y6561419D02*
D03*
Y6352546D02*
D03*
Y6411420D02*
D03*
Y6224721D02*
D03*
Y6283594D02*
D03*
X7608641Y6747060D02*
D03*
X7536334D02*
D03*
X7608641Y6597059D02*
D03*
X7536334D02*
D03*
X7608641Y6447060D02*
D03*
X7536334D02*
D03*
X7608641Y6297060D02*
D03*
X7536334D02*
D03*
X7608641Y6147060D02*
D03*
X7536334D02*
D03*
X7208930Y5946895D02*
D03*
Y6005769D02*
D03*
Y5796896D02*
D03*
Y5855769D02*
D03*
Y5669070D02*
D03*
Y5727944D02*
D03*
Y5577944D02*
D03*
Y7672720D02*
D03*
Y6908196D02*
D03*
Y6967070D02*
D03*
Y6630371D02*
D03*
Y6689245D02*
D03*
Y6502546D02*
D03*
Y6561419D02*
D03*
Y6352546D02*
D03*
Y6411420D02*
D03*
Y6224721D02*
D03*
Y6283594D02*
D03*
Y6133595D02*
D03*
Y6074721D02*
D03*
X7608641Y7347060D02*
D03*
X7536334Y7197060D02*
D03*
X7464028Y7047060D02*
D03*
X7536334D02*
D03*
X7608641D02*
D03*
X7464028Y6897060D02*
D03*
X7536334D02*
D03*
X7464028Y6747060D02*
D03*
Y6597060D02*
D03*
Y6447060D02*
D03*
Y6147060D02*
D03*
X7536334Y5997060D02*
D03*
X7608641D02*
D03*
Y5847060D02*
D03*
X7464028D02*
D03*
X4037194Y5604860D02*
D03*
D91*
X7779925Y2196109D02*
D03*
X7679925Y1996109D02*
D03*
X7779925Y1796109D02*
D03*
Y1396108D02*
D03*
X7579925Y2196109D02*
D03*
X7479925Y1996109D02*
D03*
X7579925Y1796109D02*
D03*
X7479925Y1596109D02*
D03*
X7579925Y1396108D02*
D03*
X7379925Y2196109D02*
D03*
X7279925Y1996109D02*
D03*
X7379925Y1796109D02*
D03*
X7279925Y1596109D02*
D03*
X6679925Y796108D02*
D03*
X6479925D02*
D03*
X6279924D02*
D03*
X6079924D02*
D03*
X5279924Y1996109D02*
D03*
X4679924Y1596109D02*
D03*
X4479923D02*
D03*
X4279923D02*
D03*
X3879923Y2396109D02*
D03*
X3979923Y2196109D02*
D03*
X3479923Y2796109D02*
D03*
X3279923D02*
D03*
X3179923Y2596109D02*
D03*
X2579922Y996108D02*
D03*
X2379922D02*
D03*
X2179922D02*
D03*
X1979922Y2196109D02*
D03*
Y1796109D02*
D03*
Y996108D02*
D03*
X1779922Y2196109D02*
D03*
Y996108D02*
D03*
X1679922Y796108D02*
D03*
X1579922Y1396108D02*
D03*
X1279922Y3196109D02*
D03*
X1379922Y2996109D02*
D03*
X1279922Y2796109D02*
D03*
X1379922Y2596109D02*
D03*
X1279922Y2396109D02*
D03*
Y1996109D02*
D03*
X1379922Y1796109D02*
D03*
X1179922Y3796110D02*
D03*
X1079922Y3596110D02*
D03*
Y3196109D02*
D03*
X1179922Y2996109D02*
D03*
X1079922Y2796109D02*
D03*
X1179922Y2596109D02*
D03*
X1079922Y2396109D02*
D03*
Y1996109D02*
D03*
X1179922Y1796109D02*
D03*
Y1396108D02*
D03*
X1079922Y1196108D02*
D03*
X1779922Y7596112D02*
D03*
X1379922Y4396110D02*
D03*
X2279922Y7396112D02*
D03*
X7579925Y3596110D02*
D03*
X1079922Y4596110D02*
D03*
X1179922Y5596111D02*
D03*
X1779922Y4396110D02*
D03*
X2679923Y8196112D02*
D03*
X1179922Y4396110D02*
D03*
X7579925Y3196109D02*
D03*
X1579922Y4396110D02*
D03*
X7479925Y3796110D02*
D03*
X1979922Y4396110D02*
D03*
X2179922Y7996112D02*
D03*
X6279924Y4596110D02*
D03*
X1079922Y4996110D02*
D03*
X1779922Y4796110D02*
D03*
X6579925Y7996112D02*
D03*
X7379925Y4396110D02*
D03*
X2379922Y7596112D02*
D03*
X7679925Y2596109D02*
D03*
X6279924Y8196112D02*
D03*
X1079922Y5396111D02*
D03*
X1879922Y4596110D02*
D03*
X1979922Y3596110D02*
D03*
Y7996112D02*
D03*
X2079922Y4596110D02*
D03*
Y4996110D02*
D03*
X1079922Y7396112D02*
D03*
X2379922Y7996112D02*
D03*
X7179925Y5196111D02*
D03*
X7479925Y4196110D02*
D03*
X7679925Y4996110D02*
D03*
X2279922Y7796112D02*
D03*
X7079925Y8196112D02*
D03*
X7679925Y6196111D02*
D03*
Y7396112D02*
D03*
X7279925Y5396111D02*
D03*
X6779925Y7996112D02*
D03*
X2179922Y3996110D02*
D03*
X6479925Y8196112D02*
D03*
X6979925Y7996112D02*
D03*
X7679925Y5796111D02*
D03*
X1779922Y7996112D02*
D03*
X7679925Y3796110D02*
D03*
Y7796112D02*
D03*
X2479922Y4196110D02*
D03*
X7579925Y4396110D02*
D03*
X7679925Y6596111D02*
D03*
X7179925Y4396110D02*
D03*
X2079922Y7796112D02*
D03*
X1279922Y5796111D02*
D03*
X1579922Y5196111D02*
D03*
X1879922Y8196112D02*
D03*
X7479925Y2596109D02*
D03*
X1979922Y7596112D02*
D03*
X2379922Y5596111D02*
D03*
X2279922Y8196112D02*
D03*
X7279925Y2996109D02*
D03*
X1079922Y5796111D02*
D03*
X6679925Y8196112D02*
D03*
X1379922Y5196111D02*
D03*
X1679922Y4996110D02*
D03*
X2179922Y7596112D02*
D03*
X2579922Y7996112D02*
D03*
X3679923Y3796110D02*
D03*
X2479922Y8196112D02*
D03*
X2079922D02*
D03*
X7479925Y3396110D02*
D03*
X7579925Y3996110D02*
D03*
X7679925Y6996111D02*
D03*
X7579925Y2796109D02*
D03*
Y6796111D02*
D03*
X7679925Y2996109D02*
D03*
X7279925Y2596109D02*
D03*
X6879925Y8196112D02*
D03*
X1679922Y7796112D02*
D03*
X1479922Y5396111D02*
D03*
D100*
X4163099Y6717747D02*
G03*
X4142486Y6738341I-10338J10266D01*
G01*
X4335519Y6631535D02*
G03*
X4313966Y6653088I-10834J10718D01*
G01*
X4171162Y6639599D02*
G03*
X4192715Y6618047I10776J-10776D01*
G01*
X4241537Y6623764D02*
G03*
X4262985Y6602107I10724J-10829D01*
G01*
X4206203Y6674641D02*
G03*
X4184651Y6696194I-10806J10747D01*
G01*
X5836361Y7151086D02*
G03*
X5857913Y7129533I10776J-10776D01*
G01*
X5850264Y7164989D02*
G03*
X5828711Y7186541I-10776J10776D01*
G01*
X6163318Y7716303D02*
G03*
X6141765Y7737855I-10776J10776D01*
G01*
X6118793Y7664934D02*
G03*
X6118793Y7634454I0J-15240D01*
G01*
X4169871Y6438368D02*
G03*
X4139391Y6438368I-15240J0D01*
G01*
X4108911Y6438701D02*
G03*
X4078431Y6438701I-15240J0D01*
G01*
X4230831Y6333297D02*
G03*
X4245848Y6318280I15016J0D01*
G01*
D02*
G03*
X4261311Y6333744I0J15464D01*
G01*
X4108911Y6413275D02*
G03*
X4139391Y6413275I15240J0D01*
G01*
X5119999Y7637988D02*
G03*
X5109485Y7650911I-10514J2184D01*
G01*
X5109879Y7627868D02*
G03*
X5119999Y7637988I0J10120D01*
G01*
X5327747Y7582046D02*
G03*
X5297267Y7582046I-15240J0D01*
G01*
X5327747Y7483210D02*
G03*
X5358227Y7483210I15240J0D01*
G01*
X5062134Y7875796D02*
G03*
X5045953Y7851241I16J-17620D01*
G01*
X5055215Y7841979D02*
G03*
X5061738Y7840561I6935J16198D01*
G01*
X5449000Y7876312D02*
G03*
X5479480Y7876312I15240J0D01*
G01*
X5566456Y7891106D02*
G03*
X5540440Y7880329I-10776J-10776D01*
G01*
X5509960Y7876312D02*
G03*
X5540440Y7876312I15240J0D01*
G01*
X4460858Y6592922D02*
G03*
X4460858Y6623402I0J15240D01*
G01*
X4131923Y6686571D02*
G03*
X4153476Y6665018I10834J-10719D01*
G01*
X5812309Y5309959D02*
G03*
X5841087Y5309959I14389J14389D01*
G01*
X5472703Y7305269D02*
G03*
X5503183Y7305269I15240J0D01*
G01*
X5411743Y7309678D02*
G03*
X5442223Y7309678I15240J0D01*
G01*
X5891294Y7139873D02*
G03*
X5868254Y7139873I-11520J-11520D01*
G01*
X5904813Y7035526D02*
G03*
X5904813Y7005046I0J-15240D01*
G01*
X5952062Y6913606D02*
G03*
X5952062Y6883126I0J-15240D01*
G01*
X5952066Y6974566D02*
G03*
X5952066Y6944086I0J-15240D01*
G01*
X5797876Y5324392D02*
G03*
X5771834Y5298349I-13021J-13021D01*
G01*
X5745233Y5272863D02*
G03*
X5719439Y5246572I-13010J-13035D01*
G01*
X5761047Y5257051D02*
G03*
X5787089Y5283094I13021J13021D01*
G01*
X5734181Y5205788D02*
G03*
X5734181Y5231831I-13021J13021D01*
G01*
X5575627Y7493368D02*
G03*
X5541107Y7495138I-18247J-18357D01*
G01*
X5894727Y5746042D02*
G03*
X5922494Y5746043I13883J13884D01*
G01*
X5550855Y5362193D02*
G03*
X5579809Y5362193I14476J14476D01*
G01*
X5959043Y6445775D02*
G03*
X5948412Y6456406I-10631J0D01*
G01*
X5388707Y7435580D02*
G03*
X5419187Y7435580I15240J0D01*
G01*
X5449667Y7431552D02*
G03*
X5480147Y7431552I15240J0D01*
G01*
X5030269Y7494629D02*
G03*
X5050464Y7494629I10098J10098D01*
G01*
X5030269Y7517540D02*
G03*
X5030269Y7494630I11455J-11455D01*
G01*
X5575964Y7429705D02*
G03*
X5545484Y7429705I-15240J0D01*
G01*
X6342238Y6724712D02*
G03*
X6357380Y6739854I0J15142D01*
G01*
X6137136Y7930369D02*
G03*
X6137136Y7899889I0J-15240D01*
G01*
X5966295Y8142433D02*
G03*
X5987848Y8120880I10776J-10776D01*
G01*
X6010457Y8100384D02*
G03*
X6032010Y8078831I10776J-10776D01*
G01*
X6038322Y8042038D02*
G03*
X6059875Y8020486I10823J-10729D01*
G01*
X6147694Y7869409D02*
G03*
X6147694Y7838929I0J-15240D01*
G01*
X6036456Y8126384D02*
G03*
X6014904Y8147936I-10776J10776D01*
G01*
X6079375Y8083092D02*
G03*
X6057822Y8104644I-10776J10776D01*
G01*
X6188155Y7808449D02*
G03*
X6188155Y7838929I0J15240D01*
G01*
X6188033Y7869409D02*
G03*
X6188033Y7899889I0J15240D01*
G01*
X6357478Y6678992D02*
G03*
X6342238Y6694232I-15240J0D01*
G01*
X6320560Y6724712D02*
G03*
X6320560Y6694232I0J-15240D01*
G01*
X5981403Y8157540D02*
G03*
X5981403Y8179093I-10776J10776D01*
G01*
X6110719Y8049777D02*
G03*
X6089166Y8049777I-10776J-10776D01*
G01*
X6163552Y7808449D02*
G03*
X6163552Y7777969I0J-15240D01*
G01*
X6179296Y7930369D02*
G03*
X6194536Y7945609I0J15240D01*
G01*
Y7762729D02*
G03*
X6179296Y7777969I-15240J0D01*
G01*
X5744988Y5637150D02*
G03*
X5723436Y5615597I-10751J-10802D01*
G01*
X5875277Y5765492D02*
G03*
X5853725Y5743940I-10776J-10776D01*
G01*
X5830957Y5723602D02*
G03*
X5809405Y5702050I-10776J-10776D01*
G01*
X5787852Y5680497D02*
G03*
X5766299Y5658945I-10776J-10776D01*
G01*
X5611875Y5511632D02*
G03*
X5590323Y5490080I-10776J-10776D01*
G01*
X5657569Y5552149D02*
G03*
X5636016Y5530596I-10776J-10776D01*
G01*
X5854143Y5700416D02*
G03*
X5875696Y5721969I10776J10776D01*
G01*
X5638617Y5484890D02*
G03*
X5660170Y5506443I10776J10776D01*
G01*
X5811038Y5657311D02*
G03*
X5832591Y5678864I10776J10776D01*
G01*
X5746821Y5571542D02*
G03*
X5746821Y5592212I-10336J10335D01*
G01*
X5681722Y5527996D02*
G03*
X5703275Y5549548I10776J10776D01*
G01*
X5724387Y5571541D02*
G03*
X5746821Y5571542I11217J11217D01*
G01*
X5767933Y5614206D02*
G03*
X5789485Y5635758I10776J10776D01*
G01*
X5535535Y5377515D02*
G03*
X5513983Y5377515I-10776J-10776D01*
G01*
D02*
G03*
X5513983Y5355962I10776J-10776D01*
G01*
X5529304Y5319089D02*
G03*
X5529304Y5340642I-10776J10776D01*
G01*
X5492621Y5311908D02*
G03*
X5477381Y5296668I0J-15240D01*
G01*
X5446901Y5291535D02*
G03*
X5477381Y5291535I15240J0D01*
G01*
X5401181Y5311908D02*
G03*
X5416421Y5327148I0J15240D01*
G01*
X5446901Y5330025D02*
G03*
X5416421Y5330025I-15240J0D01*
G01*
X4814308Y7327294D02*
G03*
X4814308Y7296632I0J-15331D01*
G01*
X4940091D02*
G03*
X4954543Y7311083I0J14452D01*
G01*
X4866010Y7327294D02*
G03*
X4881250Y7342534I0J15240D01*
G01*
X4985023Y7325642D02*
G03*
X4954543Y7325642I-15240J0D01*
G01*
X4985023Y7304094D02*
G03*
X5015503Y7304094I15240J0D01*
G01*
X5045983Y7343396D02*
G03*
X5015503Y7343396I-15240J0D01*
G01*
X5045983Y7299027D02*
G03*
X5076463Y7299027I15240J0D01*
G01*
X5106943Y7308386D02*
G03*
X5137423Y7308386I15240J0D01*
G01*
X5167903Y7265018D02*
G03*
X5198383Y7265018I15240J0D01*
G01*
X5228863D02*
G03*
X5259343Y7265018I15240J0D01*
G01*
X5289823D02*
G03*
X5320303Y7265018I15240J0D01*
G01*
X5350783D02*
G03*
X5381263Y7265018I15240J0D01*
G01*
X5411743Y7321174D02*
G03*
X5381263Y7321174I-15240J0D01*
G01*
X5167903D02*
G03*
X5137423Y7321174I-15240J0D01*
G01*
X5289823D02*
G03*
X5259343Y7321174I-15240J0D01*
G01*
X5472703D02*
G03*
X5442223Y7321174I-15240J0D01*
G01*
X5533663D02*
G03*
X5503183Y7321174I-15240J0D01*
G01*
X5350783D02*
G03*
X5320303Y7321174I-15240J0D01*
G01*
X5228863D02*
G03*
X5198383Y7321174I-15240J0D01*
G01*
X5388707Y7535980D02*
G03*
X5358227Y7535980I-15240J0D01*
G01*
X5100956Y7430173D02*
G03*
X5129836Y7418210I28880J28880D01*
G01*
X5205827Y7538484D02*
G03*
X5174395Y7538486I-15716J-62D01*
G01*
X5449667Y7534846D02*
G03*
X5419187Y7534846I-15240J0D01*
G01*
X5510627Y7550260D02*
G03*
X5480147Y7550260I-15240J0D01*
G01*
X5040922Y7528193D02*
G03*
X5040922Y7549745I-10776J10776D01*
G01*
X5082650Y7483710D02*
G03*
X5082650Y7505262I-10776J10776D01*
G01*
X5266787Y7567210D02*
G03*
X5236307Y7567210I-15240J0D01*
G01*
X4989600Y7541528D02*
G03*
X5011153Y7541528I10776J10776D01*
G01*
X5040922Y7549746D02*
G03*
X5019370Y7549745I-10776J-10776D01*
G01*
X5082649Y7505262D02*
G03*
X5061097Y7505262I-10776J-10776D01*
G01*
X5075811Y7476870D02*
G03*
X5075811Y7455318I10776J-10776D01*
G01*
X5152709Y7418210D02*
G03*
X5174395Y7439896I0J21686D01*
G01*
X5510627Y7495138D02*
G03*
X5541107Y7495138I15240J0D01*
G01*
X5205827Y7483634D02*
G03*
X5236307Y7483634I15240J0D01*
G01*
X5266787Y7480447D02*
G03*
X5297267Y7480447I15240J0D01*
G01*
X5807158Y7208094D02*
G03*
X5785606Y7229646I-10776J10776D01*
G01*
X5720948Y7294305D02*
G03*
X5699395Y7315857I-10776J10776D01*
G01*
X5807158Y7208094D02*
G03*
X5785606Y7229646I-10776J10776D01*
G01*
X5850264Y7164989D02*
G03*
X5828711Y7186541I-10776J10776D01*
G01*
X5764053Y7251199D02*
G03*
X5742501Y7272752I-10776J10776D01*
G01*
X5764053Y7251199D02*
G03*
X5742501Y7272752I-10776J10776D01*
G01*
X5720948Y7294305D02*
G03*
X5699395Y7315857I-10776J10776D01*
G01*
X5707045Y7280401D02*
G03*
X5728597Y7258849I10776J-10776D01*
G01*
X5663940Y7323507D02*
G03*
X5685492Y7301954I10776J-10776D01*
G01*
X5751354Y7238499D02*
G03*
X5751353Y7214540I11979J-11980D01*
G01*
X5793255Y7194191D02*
G03*
X5814808Y7172638I10776J-10776D01*
G01*
X5751353Y7214541D02*
G03*
X5770500Y7214541I9573J9573D01*
G01*
X5674280Y7333847D02*
G03*
X5674280Y7355400I-10776J10776D01*
G01*
X5911190Y6547846D02*
G03*
X5911190Y6517366I0J-15240D01*
G01*
Y6669766D02*
G03*
X5911190Y6639286I0J-15240D01*
G01*
Y6791686D02*
G03*
X5911190Y6761206I0J-15240D01*
G01*
Y6852646D02*
G03*
X5911190Y6822166I0J-15240D01*
G01*
Y6730726D02*
G03*
X5911190Y6700246I0J-15240D01*
G01*
Y6486886D02*
G03*
X5911190Y6456406I0J-15240D01*
G01*
Y6608806D02*
G03*
X5911190Y6578326I0J-15240D01*
G01*
X5959506Y6913606D02*
G03*
X5959506Y6944086I0J15240D01*
G01*
Y6791686D02*
G03*
X5959506Y6822166I0J15240D01*
G01*
Y6974566D02*
G03*
X5959506Y7005046I0J15240D01*
G01*
Y6730726D02*
G03*
X5959506Y6761206I0J15240D01*
G01*
Y6852646D02*
G03*
X5959506Y6883126I0J15240D01*
G01*
Y6669766D02*
G03*
X5959506Y6700246I0J15240D01*
G01*
Y6486886D02*
G03*
X5959506Y6517366I0J15240D01*
G01*
Y6547846D02*
G03*
X5959506Y6578326I0J15240D01*
G01*
Y6608806D02*
G03*
X5959506Y6639286I0J15240D01*
G01*
X5862897Y6391274D02*
G03*
X5844993Y6409179I-17904J0D01*
G01*
X5812418Y6622539D02*
G03*
X5812418Y6592059I0J-15240D01*
G01*
X5751722Y6561579D02*
G03*
X5751722Y6531099I0J-15240D01*
G01*
X5697610Y6500619D02*
G03*
X5697610Y6470139I0J-15240D01*
G01*
X5687381Y6439659D02*
G03*
X5687381Y6409179I0J-15240D01*
G01*
X5852863Y6744459D02*
G03*
X5852863Y6774939I0J15240D01*
G01*
X5854521Y6683499D02*
G03*
X5854521Y6713979I0J15240D01*
G01*
X5852440Y6622539D02*
G03*
X5852440Y6653019I0J15240D01*
G01*
X5825004Y6683499D02*
G03*
X5825004Y6653019I0J-15240D01*
G01*
X5825061Y6805419D02*
G03*
X5825061Y6774939I0J-15240D01*
G01*
X5826378Y6744459D02*
G03*
X5826378Y6713979I0J-15240D01*
G01*
X5854106Y6805419D02*
G03*
X5854106Y6835899I0J15240D01*
G01*
X5848497Y6866379D02*
G03*
X5848497Y6896859I0J15240D01*
G01*
X5852883Y6927339D02*
G03*
X5852883Y6957819I0J15240D01*
G01*
X5852444Y6988299D02*
G03*
X5852444Y7018779I0J15240D01*
G01*
X5824752Y7049259D02*
G03*
X5824752Y7018779I0J-15240D01*
G01*
X5823919Y6988299D02*
G03*
X5823919Y6957819I0J-15240D01*
G01*
X5825004Y6866379D02*
G03*
X5825004Y6835899I0J-15240D01*
G01*
X5825581Y6927339D02*
G03*
X5825581Y6896859I0J-15240D01*
G01*
X5847645Y6561579D02*
G03*
X5847645Y6592059I0J15240D01*
G01*
X5845897Y6500619D02*
G03*
X5845897Y6531099I0J15240D01*
G01*
X5842016Y6439659D02*
G03*
X5842016Y6470139I0J15240D01*
G01*
X5948412Y7035526D02*
G03*
X5963652Y7050766I0J15240D01*
G01*
X5530244Y7389242D02*
G03*
X5545484Y7404482I0J15240D01*
G01*
X5575964D02*
G03*
X5591204Y7389242I15240J0D01*
G01*
X5106943Y7323434D02*
G03*
X5076463Y7323434I-15240J0D01*
G01*
X5533663Y7311083D02*
G03*
X5548903Y7295843I15240J0D01*
G01*
X5614544Y5444307D02*
G03*
X5614544Y5465859I-10776J10776D01*
G01*
X5706986Y5588943D02*
G03*
X5685433Y5588943I-10776J-10776D01*
G01*
X5685433Y5588943D02*
G03*
X5685433Y5567390I10776J-10776D01*
G01*
X4366538Y6733170D02*
G03*
X4336058Y6733170I-15240J0D01*
G01*
X4360020Y6699142D02*
G03*
X4360031Y6676228I11551J-11451D01*
G01*
X4312846Y6608862D02*
G03*
X4334398Y6587309I10776J-10776D01*
G01*
X4382027Y6613480D02*
G03*
X4360558Y6613469I-10729J-10823D01*
G01*
X4270861Y6674547D02*
G03*
X4292320Y6674546I10729J10823D01*
G01*
X4249262Y6653042D02*
G03*
X4227756Y6653089I-10776J-10776D01*
G01*
X4362122Y6701243D02*
G03*
X4366538Y6711973I-10823J10729D01*
G01*
X4249297Y6631524D02*
G03*
X4249262Y6653042I-10811J10741D01*
G01*
X4331642Y6713868D02*
G03*
X4336058Y6724598I-10823J10729D01*
G01*
X4124151Y6278808D02*
G03*
X4124151Y6309288I0J15240D01*
G01*
X4200351Y6467511D02*
G03*
X4185111Y6482751I-15240J0D01*
G01*
X4169871Y6385488D02*
G03*
X4185111Y6370248I15240J0D01*
G01*
X4047951Y6294048D02*
G03*
X4063191Y6278808I15240J0D01*
G01*
X4261311Y6385488D02*
G03*
X4246071Y6400728I-15240J0D01*
G01*
X4200351Y6415968D02*
G03*
X4215591Y6400728I15240J0D01*
G01*
X4230831Y6355008D02*
G03*
X4215591Y6370248I-15240J0D01*
G01*
X4047951Y6437031D02*
G03*
X4032711Y6452271I-15240J0D01*
G01*
D02*
G03*
X4017471Y6437031I0J-15240D01*
G01*
X4078431Y6324528D02*
G03*
X4093671Y6309288I15240J0D01*
G01*
X4017471Y6497991D02*
G03*
X4032711Y6482751I15240J0D01*
G01*
X5927374Y8017709D02*
G03*
X5948926Y8039263I10776J10777D01*
G01*
X5988612Y7972649D02*
G03*
X5967059Y7994201I-10719J10834D01*
G01*
X5914716Y8109952D02*
G03*
X5893163Y8131504I-10776J10776D01*
G01*
X5907253Y8102489D02*
G03*
X5907253Y8080936I10776J-10776D01*
G01*
X5864148Y8124041D02*
G03*
X5885700Y8124041I10776J10776D01*
G01*
X5820405Y8167552D02*
G03*
X5797278Y8169262I-12293J-9009D01*
G01*
X5821043Y8167146D02*
G03*
X5842595Y8167146I10776J10776D01*
G01*
X5864148Y8145594D02*
G03*
X5864148Y8124041I10776J-10776D01*
G01*
X5871611Y8153057D02*
G03*
X5850058Y8174609I-10776J10776D01*
G01*
X5748147Y8164797D02*
G03*
X5726595Y8143245I-10776J-10776D01*
G01*
X5818865Y8126220D02*
G03*
X5797312Y8126220I-10776J-10776D01*
G01*
X5734559Y8106543D02*
G03*
X5734560Y8106544I-10775J10777D01*
G01*
X5759704Y8153240D02*
G03*
X5781257Y8153240I10776J10776D01*
G01*
X5738152Y8110135D02*
G03*
X5738152Y8131688I-10776J10776D01*
G01*
X5713007Y8106544D02*
G03*
X5734559Y8106543I10776J10776D01*
G01*
X5728441Y8057320D02*
G03*
X5749994Y8035767I10834J-10719D01*
G01*
X5696919Y8162260D02*
G03*
X5666439Y8162260I-15240J0D01*
G01*
X5635959Y8145878D02*
G03*
X5666439Y8145878I15240J0D01*
G01*
X5635959Y8162487D02*
G03*
X5605479Y8162487I-15240J0D01*
G01*
X5574999Y8162715D02*
G03*
X5544519Y8162715I-15240J0D01*
G01*
X6135685Y7664934D02*
G03*
X6150925Y7680174I0J15240D01*
G01*
Y7619214D02*
G03*
X6135685Y7634454I-15240J0D01*
G01*
X5574999Y8146105D02*
G03*
X5605479Y8146105I15240J0D01*
G01*
X5514039D02*
G03*
X5544519Y8146105I15240J0D01*
G01*
X5514039Y8162487D02*
G03*
X5498799Y8177727I-15240J0D01*
G01*
X5970565Y7868391D02*
G03*
X5970565Y7846839I10776J-10776D01*
G01*
X6099881Y7717523D02*
G03*
X6121433Y7717523I10776J10776D01*
G01*
X5816361Y8080582D02*
G03*
X5794809Y8080582I-10776J-10776D01*
G01*
X5988782Y7908161D02*
G03*
X5967229Y7908161I-10776J-10776D01*
G01*
X5988782Y7886608D02*
G03*
X5988782Y7908161I-10776J10776D01*
G01*
X6031887Y7865056D02*
G03*
X6010335Y7865055I-10776J-10776D01*
G01*
X5927460Y7889944D02*
G03*
X5949012Y7889944I10776J10776D01*
G01*
X5902571Y7994371D02*
G03*
X5881019Y7994371I-10776J-10776D01*
G01*
X5884354Y7954601D02*
G03*
X5884354Y7933049I10776J-10776D01*
G01*
X5970565Y7846839D02*
G03*
X5992118Y7846839I10776J10776D01*
G01*
X5902572Y7972819D02*
G03*
X5902572Y7994371I-10776J10776D01*
G01*
X6074992Y7800398D02*
G03*
X6074992Y7821950I-10776J10776D01*
G01*
X5841249Y7997707D02*
G03*
X5841249Y7976154I10776J-10776D01*
G01*
X5927460Y7911496D02*
G03*
X5927460Y7889944I10776J-10776D01*
G01*
X6031887Y7843503D02*
G03*
X6031887Y7865055I-10776J10776D01*
G01*
X5798144Y8019259D02*
G03*
X5819697Y8019259I10776J10776D01*
G01*
X6118098Y7757293D02*
G03*
X6118098Y7778845I-10776J10776D01*
G01*
X6056776Y7760628D02*
G03*
X6078328Y7760628I10776J10776D01*
G01*
X6118097Y7778845D02*
G03*
X6096545Y7778845I-10776J-10776D01*
G01*
X6056775Y7782181D02*
G03*
X6056775Y7760628I10776J-10776D01*
G01*
X6099881Y7739075D02*
G03*
X6099881Y7717523I10776J-10776D01*
G01*
X6013670Y7825286D02*
G03*
X6013670Y7803733I10776J-10776D01*
G01*
X5884355Y7933049D02*
G03*
X5905907Y7933049I10776J10776D01*
G01*
X5859466Y8015924D02*
G03*
X5859466Y8037476I-10776J10776D01*
G01*
D02*
G03*
X5837914Y8037476I-10776J-10776D01*
G01*
X5816361Y8059029D02*
G03*
X5816361Y8080582I-10776J10776D01*
G01*
X5841249Y7976154D02*
G03*
X5862802Y7976154I10776J10776D01*
G01*
X5798144Y8040812D02*
G03*
X5798144Y8019260I10776J-10776D01*
G01*
X6074992Y7821950D02*
G03*
X6053440Y7821950I-10776J-10776D01*
G01*
X6013670Y7803733D02*
G03*
X6035223Y7803733I10776J10776D01*
G01*
X5672801Y8063702D02*
G03*
X5672801Y8094182I0J15240D01*
G01*
X5611392Y8063702D02*
G03*
X5611392Y8033222I0J-15240D01*
G01*
X5954699Y7643392D02*
G03*
X5976251Y7643392I10776J10776D01*
G01*
X5975224Y7709077D02*
G03*
X5953671Y7709077I-10776J-10776D01*
G01*
X5910519Y7709030D02*
G03*
X5910496Y7687595I10823J-10729D01*
G01*
X5975271Y7773783D02*
G03*
X5975246Y7795266I-10823J10729D01*
G01*
X6018289Y7752222D02*
G03*
X5996729Y7730677I-10737J-10816D01*
G01*
X5976251Y7643392D02*
G03*
X5976251Y7664945I-10776J10776D01*
G01*
X5953672Y7709077D02*
G03*
X5953672Y7687525I10776J-10776D01*
G01*
X5997804Y7686497D02*
G03*
X6019357Y7686497I10776J10776D01*
G01*
D02*
G03*
X6019357Y7708050I-10776J10776D01*
G01*
X5863166Y7734924D02*
G03*
X5884718Y7734924I10776J10776D01*
G01*
X5883691Y7800609D02*
G03*
X5862138Y7800609I-10776J-10776D01*
G01*
X5818986Y7800563D02*
G03*
X5818963Y7779128I10823J-10729D01*
G01*
X5883738Y7865315D02*
G03*
X5883713Y7886798I-10823J10729D01*
G01*
X5926756Y7843755D02*
G03*
X5905196Y7822210I-10737J-10816D01*
G01*
X5884718Y7734924D02*
G03*
X5884718Y7756477I-10776J10776D01*
G01*
X5862139Y7800609D02*
G03*
X5862139Y7779057I10776J-10776D01*
G01*
X5906271Y7778030D02*
G03*
X5927824Y7778029I10776J10776D01*
G01*
D02*
G03*
X5927824Y7799582I-10776J10776D01*
G01*
X5836291Y7869562D02*
G03*
X5836291Y7891114I-10776J10776D01*
G01*
X5814738Y7869562D02*
G03*
X5836291Y7869562I10776J10776D01*
G01*
X5770606Y7892142D02*
G03*
X5770606Y7870589I10776J-10776D01*
G01*
X5793186Y7826456D02*
G03*
X5793186Y7848009I-10776J10776D01*
G01*
X5835224Y7935287D02*
G03*
X5813664Y7913742I-10737J-10816D01*
G01*
X5792205Y7956847D02*
G03*
X5792180Y7978330I-10823J10729D01*
G01*
X5727453Y7892095D02*
G03*
X5727430Y7870660I10823J-10729D01*
G01*
X5792158Y7892141D02*
G03*
X5770605Y7892141I-10776J-10776D01*
G01*
X5771633Y7826457D02*
G03*
X5793186Y7826456I10776J10776D01*
G01*
X5671249Y8002742D02*
G03*
X5671249Y8033222I0J15240D01*
G01*
X5578891Y8094182D02*
G03*
X5563651Y8078942I0J-15240D01*
G01*
X5686489Y7957022D02*
G03*
X5671249Y7972262I-15240J0D01*
G01*
X5601986Y7987502D02*
G03*
X5617226Y7972262I15240J0D01*
G01*
Y8002742D02*
G03*
X5601986Y7987502I0J-15240D01*
G01*
X5548411Y8033222D02*
G03*
X5563651Y8048462I0J15240D01*
G01*
X5686489Y7926542D02*
G03*
X5716969Y7926542I15240J0D01*
G01*
X6064979Y7524508D02*
G03*
X6080219Y7539748I0J15240D01*
G01*
X6110699Y7586078D02*
G03*
X6095459Y7601318I-15240J0D01*
G01*
X6004019Y7631798D02*
G03*
X6004019Y7601318I0J-15240D01*
G01*
X6049739Y7539748D02*
G03*
X6064979Y7524508I15240J0D01*
G01*
X6049739Y7586078D02*
G03*
X6034499Y7601318I-15240J0D01*
G01*
X6095459D02*
G03*
X6080219Y7586078I0J-15240D01*
G01*
X5845036Y7049259D02*
G03*
X5855812Y7075275I0J15240D01*
G01*
X6203416Y6294819D02*
G03*
X6241327Y6256908I37911J0D01*
G01*
D02*
G03*
X6277295Y6292876I0J35968D01*
G01*
X5317450Y7896320D02*
G03*
X5322229Y7870375I6677J-12183D01*
G01*
X5404909D02*
G03*
X5418520Y7883689I294J13314D01*
G01*
X5449000Y7920202D02*
G03*
X5418520Y7920202I-15240J0D01*
G01*
X5509960D02*
G03*
X5479480Y7920202I-15240J0D01*
G01*
X5263725Y7875796D02*
G03*
X5280935Y7893006I0J17209D01*
G01*
X6263441Y7650947D02*
Y7988154D01*
Y7502583D02*
Y7650947D01*
Y7988154D02*
Y8021361D01*
X6023734Y8261068D02*
X6263441Y8021361D01*
X5002784Y8261068D02*
X6023734D01*
X3887305Y6195946D02*
X3908142Y6175110D01*
X4017471Y6522200D02*
X4068405Y6573134D01*
Y6664261D02*
X4142486Y6738341D01*
X4068405Y6573134D02*
Y6664261D01*
X5529377Y6877870D02*
X5529504Y6877997D01*
X5529377Y6908109D02*
X5529504Y6907982D01*
X5490934Y6738749D02*
X5529377Y6777191D01*
Y6877870D01*
X5314322Y7175504D02*
X5529377Y6960450D01*
X5529504Y6877997D02*
Y6907982D01*
X5529377Y6908109D02*
Y6960450D01*
X5007536Y8199823D02*
X5960673D01*
X5981403Y8179093D01*
X5001935Y8194223D02*
X5007536Y8199823D01*
X4800935Y8061219D02*
X5045383Y7816771D01*
X4800935Y8061219D02*
Y8073222D01*
X5045383Y7816771D02*
X5549014D01*
X4312846Y6608862D02*
X4335519Y6631535D01*
X4262985Y6602107D02*
X4313966Y6653088D01*
X4171162Y6639600D02*
X4206203Y6674641D01*
X4241537Y6623764D02*
X4249297Y6631524D01*
X4153476Y6665018D02*
X4184651Y6696194D01*
X4371405Y7200461D02*
X5337272D01*
X4306235Y7135291D02*
X4371405Y7200461D01*
X4306235Y7089818D02*
Y7135291D01*
X5836361Y7151086D02*
X5850264Y7164989D01*
X5836361Y7151086D02*
X5850264Y7164989D01*
X5857914Y7129533D02*
X5868254Y7139873D01*
X6150925Y7703909D02*
X6163318Y7716302D01*
X6121433Y7717523D02*
X6141765Y7737855D01*
X6118793Y7664934D02*
X6135685D01*
X6118793Y7634454D02*
X6135685D01*
X4139391Y6413275D02*
Y6438368D01*
X4169871Y6385488D02*
Y6438368D01*
X4078431Y6324528D02*
Y6438701D01*
X4108911Y6413275D02*
Y6438701D01*
X4230831Y6333297D02*
Y6355008D01*
X4261311Y6333744D02*
Y6385488D01*
X5407774Y5414236D02*
X5584472D01*
X5379702Y5386163D02*
X5407774Y5414236D01*
X5584472D02*
X5614544Y5444307D01*
X4926344Y7603545D02*
Y7604885D01*
X4946616Y7625156D01*
X4947956D01*
X4950667Y7627868D01*
X5109879D01*
X4931428Y7650911D02*
X5109485D01*
X5119999Y7637988D02*
X5119999D01*
X4880935Y7600417D02*
X4931428Y7650911D01*
X4920541Y7597741D02*
X4926344Y7603545D01*
X4920541Y7493045D02*
Y7597741D01*
X5327747Y7483210D02*
Y7582046D01*
X4880935Y7593222D02*
Y7600417D01*
X4840935Y7603508D02*
X4913254Y7675827D01*
X5477992D01*
X4840935Y7553222D02*
Y7603508D01*
X5045953Y7851241D02*
X5055215Y7841979D01*
X5569980Y7840561D02*
X6203313Y7207229D01*
X5061738Y7840561D02*
X5569980D01*
X5544007Y7957219D02*
X6254557Y7246669D01*
X5200934Y7993222D02*
X5236938Y7957219D01*
X5544007D01*
X5479480Y7876312D02*
Y7920202D01*
X5449000Y7876312D02*
Y7920202D01*
X5509960Y7876312D02*
Y7920202D01*
X5540440Y7876312D02*
Y7880329D01*
X4987885Y8225378D02*
X5999500D01*
X6229250Y7995627D01*
X4975356Y8212848D02*
X4987885Y8225378D01*
X4402585Y6592922D02*
X4460858D01*
X4412858Y6623402D02*
X4460858D01*
X4131923Y6686571D02*
X4163099Y6717747D01*
X4382027Y6613480D02*
X4402585Y6592922D01*
X4360031Y6676228D02*
X4412858Y6623402D01*
X5605593Y6864090D02*
Y6980371D01*
Y6864090D02*
X5650934Y6818749D01*
X5362460Y7223504D02*
X5605593Y6980371D01*
X6244104Y6980956D02*
X6254557Y6991409D01*
X6244104Y6943905D02*
X6277506Y6910503D01*
X6244104Y6943905D02*
Y6980956D01*
X6277506Y6884383D02*
Y6910503D01*
X6109456Y5573114D02*
X6155513D01*
X5950907Y5385191D02*
Y5414565D01*
X6109456Y5573114D01*
X5841087Y5309959D02*
X5921179Y5390051D01*
Y5417877D01*
X5118605Y7175504D02*
X5314322D01*
X5107319Y7164218D02*
X5118605Y7175504D01*
X4358351Y7223504D02*
X5362460D01*
X4266948Y7132101D02*
X4358351Y7223504D01*
X5337272Y7200461D02*
X5570934Y6966798D01*
X5472703Y7305269D02*
Y7321174D01*
X5503183Y7305269D02*
Y7321174D01*
X5442223Y7309678D02*
Y7321174D01*
X5411743Y7309678D02*
Y7321174D01*
X5963652Y7050766D02*
Y7067516D01*
X5891294Y7139873D02*
X5963652Y7067516D01*
X5904813Y7035526D02*
X5948412D01*
X5904813Y7005046D02*
X5959506D01*
X5952062Y6883126D02*
X5959506D01*
X5952062Y6913606D02*
X5959506D01*
X5952066Y6974566D02*
X5959506D01*
X5952066Y6944086D02*
X5959506D01*
X5755238Y6645936D02*
Y7085846D01*
X5556898Y6447597D02*
X5755238Y6645936D01*
X5750969Y7090114D02*
X5755238Y7085846D01*
X5556898Y6361668D02*
Y6447597D01*
X5522513Y6327282D02*
X5556898Y6361668D01*
X5918883Y4986963D02*
X6162999Y5231079D01*
Y5320586D01*
X5797877Y5324392D02*
X5812310Y5309959D01*
X5771834Y5298349D02*
X5787089Y5283094D01*
X5745234Y5272864D02*
X5761047Y5257051D01*
X5719440Y5246572D02*
X5734181Y5231831D01*
X5722511Y5194118D02*
X5734181Y5205788D01*
X5708257Y5194118D02*
X5722511D01*
X5575627Y7493368D02*
X5998098Y7070897D01*
Y6235197D02*
Y7070897D01*
X6263441Y7502583D02*
X6404214Y7361810D01*
X5437014Y5145666D02*
X6105415Y5814067D01*
X5095345Y5145666D02*
X5437014D01*
X6105415Y5814067D02*
Y7127652D01*
X6129890Y5798328D02*
Y7147312D01*
X5440473Y5108911D02*
X6129890Y5798328D01*
X4939777Y5108911D02*
X5440473D01*
X4910235Y5084527D02*
X5457355D01*
X6154364Y5781537D02*
Y7164669D01*
X5457355Y5084527D02*
X6154364Y5781537D01*
X4893109Y5060672D02*
X5475301D01*
X6178839Y5764209D01*
Y7186947D01*
X6030456Y5854005D02*
Y7081045D01*
X5922494Y5746043D02*
X6030456Y5854005D01*
X5478272Y5222870D02*
X6079976Y5824574D01*
Y7113890D01*
X5579809Y5362193D02*
X6054681Y5837066D01*
Y7099138D01*
X5378432Y5222870D02*
X5478272D01*
X5548903Y7295843D02*
X5596758D01*
X5785693Y6638511D02*
Y7106908D01*
X5596758Y7295843D02*
X5785693Y7106908D01*
X5922609Y6276019D02*
X5938378Y6260251D01*
Y6131712D02*
X5998098Y6071991D01*
X5938378Y6131712D02*
Y6260251D01*
X5876995Y6276019D02*
X5922609D01*
X5959043Y6190842D02*
Y6445775D01*
Y6190842D02*
X5999326Y6150559D01*
X5490566Y7703300D02*
X6079976Y7113890D01*
X5477992Y7675827D02*
X6054681Y7099138D01*
X5479528Y7631973D02*
X6030456Y7081045D01*
X4891219Y5062561D02*
X4893109Y5060672D01*
X4837221Y5131121D02*
X4863641D01*
X4910235Y5084527D01*
X4888709Y5065072D02*
X4891219Y5062561D01*
X4876501Y5065072D02*
X4888709D01*
X5388707Y7435580D02*
Y7535980D01*
X5419187Y7435580D02*
Y7534846D01*
X5480147Y7431552D02*
Y7550260D01*
X5449667Y7431552D02*
Y7534846D01*
X4963605Y7513237D02*
X5000228Y7476614D01*
X5012797D01*
X5100170Y7389242D01*
X5530244D01*
X5050464Y7494629D02*
X5061097Y7505262D01*
X5030269Y7494629D02*
X5030269Y7494630D01*
X5030269Y7517539D02*
X5040922Y7528193D01*
X5545484Y7404482D02*
Y7429705D01*
X5575964Y7404482D02*
Y7429705D01*
X5549014Y7816771D02*
X6178839Y7186947D01*
X5530791Y7788241D02*
X6154364Y7164669D01*
X5519437Y7757766D02*
X6129890Y7147312D01*
X5503831Y7729236D02*
X6105415Y7127652D01*
X4076115Y6252476D02*
X4444662D01*
X4450934Y6258749D01*
X4034085Y6210446D02*
X4076115Y6252476D01*
X3908142Y6175110D02*
X4454574D01*
X4530935Y6098749D01*
X6277295Y6499395D02*
X6404214Y6626314D01*
Y7361810D01*
X6162999Y5320586D02*
X6200262Y5357849D01*
X5865014Y5037970D02*
X6088616Y5261572D01*
Y5320635D01*
X6125830Y5357849D01*
X5972054Y4986835D02*
X6197722Y5212503D01*
X5918938Y5038594D02*
X6125830Y5245486D01*
X5758119Y5192403D02*
X5950907Y5385191D01*
X5814299Y5143708D02*
X6008307Y5337715D01*
X4890305Y7703300D02*
X5490566D01*
X6229250Y7492293D02*
X6382167Y7339377D01*
Y6652707D02*
Y7339377D01*
X6312512Y6583052D02*
X6382167Y6652707D01*
X6277295Y6583052D02*
X6312512D01*
X6194536Y7483092D02*
X6357380Y7320248D01*
Y6739854D02*
Y7320248D01*
X4955091Y8147379D02*
X5001935Y8194223D01*
X6137136Y7930369D02*
X6179296D01*
X6137136Y7899889D02*
X6188033D01*
X5987848Y8120880D02*
X6014904Y8147936D01*
X5966295Y8142433D02*
X5981403Y8157540D01*
X6010457Y8100384D02*
X6036457Y8126384D01*
X6032010Y8078831D02*
X6057823Y8104644D01*
X6059875Y8020486D02*
X6089166Y8049777D01*
X6038322Y8042038D02*
X6079375Y8083091D01*
X6147694Y7869409D02*
X6188033D01*
X6147694Y7838929D02*
X6188155D01*
X6163552Y7808449D02*
X6188155D01*
X6357478Y6668211D02*
Y6678992D01*
X6314997Y6625730D02*
X6357478Y6668211D01*
X6320560Y6694232D02*
X6342238D01*
X6320560Y6724712D02*
X6342238D01*
X6110718Y8049777D02*
X6110719Y8049777D01*
X6194536Y7965960D01*
Y7945609D02*
Y7965960D01*
X6163552Y7777969D02*
X6179296D01*
X6194536Y7483092D02*
Y7762729D01*
X5744989Y5637150D02*
X5767933Y5614206D01*
X5723436Y5615598D02*
X5746821Y5592212D01*
X5853725Y5743940D02*
X5875696Y5721969D01*
X5875278Y5765493D02*
X5894727Y5746043D01*
X5830957Y5723602D02*
X5854143Y5700416D01*
X5809405Y5702050D02*
X5832591Y5678864D01*
X5766299Y5658945D02*
X5789485Y5635759D01*
X5787852Y5680497D02*
X5811038Y5657311D01*
X5590323Y5490080D02*
X5614544Y5465859D01*
X5611875Y5511632D02*
X5638617Y5484890D01*
X5657569Y5552149D02*
X5681722Y5527996D01*
X5636016Y5530596D02*
X5660170Y5506443D01*
X5685433Y5567390D02*
X5703275Y5549548D01*
X5706986Y5588943D02*
X5724387Y5571541D01*
X5522123Y5311908D02*
X5529304Y5319089D01*
X5492621Y5311908D02*
X5522123D01*
X5535535Y5377515D02*
X5550856Y5362194D01*
X5513983Y5355962D02*
X5529304Y5340642D01*
X5378432Y5311908D02*
X5401181D01*
X5477381Y5291535D02*
Y5296668D01*
X5416421Y5327148D02*
Y5330025D01*
X5446901Y5291535D02*
Y5330025D01*
X4857256Y7729236D02*
X5503831D01*
X5638060Y6490879D02*
X5785693Y6638511D01*
X5638060Y6411757D02*
Y6490879D01*
X4814308Y7296632D02*
X4940091D01*
X4814308Y7327294D02*
X4866010D01*
X4881071Y7340205D02*
Y7433085D01*
X4954543Y7311083D02*
Y7325642D01*
X4985023Y7304094D02*
Y7325642D01*
X5015503Y7304094D02*
Y7343396D01*
X5045983Y7299027D02*
Y7343396D01*
X5076463Y7299027D02*
Y7323434D01*
X5106943Y7308386D02*
Y7323434D01*
X5137423Y7308386D02*
Y7321174D01*
X5198383Y7265018D02*
Y7321174D01*
X5167903Y7265018D02*
Y7321174D01*
X5289823Y7265018D02*
Y7321174D01*
X5228863Y7265018D02*
Y7321174D01*
X5381263Y7265018D02*
Y7321174D01*
X5350783Y7265018D02*
Y7321174D01*
X5320303Y7265018D02*
Y7321174D01*
X5259343Y7265018D02*
Y7321174D01*
X5533663Y7311083D02*
Y7321174D01*
X4957223Y7757766D02*
X5519437D01*
X5005915Y7788241D02*
X5530791D01*
X4917567Y5131121D02*
X4939777Y5108911D01*
X4960949Y7570179D02*
Y7581665D01*
X5129836Y7418210D02*
X5152709D01*
X5174395Y7439896D02*
Y7538486D01*
X4960949Y7570179D02*
X4989600Y7541528D01*
X5236307Y7483634D02*
Y7567210D01*
X5297267Y7480447D02*
Y7582046D01*
X5011153Y7541528D02*
X5019370Y7549746D01*
X5082649Y7505262D02*
X5082650Y7505262D01*
X5266787Y7480447D02*
Y7567210D01*
X5040922Y7549746D02*
X5040922Y7549745D01*
X5075811Y7455318D02*
X5100956Y7430173D01*
X5205827Y7483634D02*
Y7538484D01*
X5358227Y7483210D02*
Y7535980D01*
X5510627Y7495138D02*
Y7550260D01*
X5541107Y7495138D02*
Y7495138D01*
X5061097Y7505262D02*
Y7505262D01*
X5075811Y7476870D02*
X5082650Y7483710D01*
X5019370Y7549745D02*
Y7549746D01*
X5751354Y7238499D02*
X5764054Y7251199D01*
X5728598Y7258849D02*
X5742501Y7272752D01*
X5685493Y7301954D02*
X5699396Y7315857D01*
X5685493Y7301954D02*
X5699396Y7315857D01*
X5770500Y7214541D02*
X5785606Y7229646D01*
X5707045Y7280401D02*
X5720948Y7294304D01*
X5728598Y7258849D02*
X5742501Y7272752D01*
X5793256Y7194191D02*
X5807159Y7208094D01*
X5707045Y7280401D02*
X5720948Y7294304D01*
X5814808Y7172638D02*
X5828711Y7186541D01*
X5793256Y7194191D02*
X5807159Y7208094D01*
X5770500Y7214541D02*
X5785606Y7229646D01*
X5814808Y7172638D02*
X5828711Y7186541D01*
X5751354Y7238499D02*
X5764054Y7251199D01*
X5663940Y7323507D02*
X5674280Y7333847D01*
X5663940Y7323507D02*
X5674280Y7333847D01*
X5674280Y7355399D02*
X5674280Y7355400D01*
X5911190Y6639286D02*
X5959506D01*
X5911190Y6517366D02*
X5959506D01*
X5911190Y6822166D02*
X5959506D01*
X5911190Y6700246D02*
X5959506D01*
X5911190Y6547846D02*
X5959506D01*
X5911190Y6791686D02*
X5959506D01*
X5911190Y6761206D02*
X5959506D01*
X5911190Y6852646D02*
X5959506D01*
X5911190Y6669766D02*
X5959506D01*
X5911190Y6730726D02*
X5959506D01*
X5911190Y6578326D02*
X5959506D01*
X5911190Y6486886D02*
X5959506D01*
X5911190Y6456406D02*
X5948412D01*
X5911190Y6608806D02*
X5959506D01*
X5862897Y6290117D02*
Y6391274D01*
Y6290117D02*
X5876995Y6276019D01*
X5687381Y6409179D02*
X5844993D01*
X5569846Y7361241D02*
X5838647Y7092440D01*
X5091981Y7361241D02*
X5569846D01*
X5049796Y7403425D02*
X5091981Y7361241D01*
X5838647Y7092440D02*
X5855812Y7075275D01*
X5812418Y6622539D02*
X5852440D01*
X5812418Y6592059D02*
X5847645D01*
X5751722Y6531099D02*
X5845897D01*
X5751722Y6561579D02*
X5847645D01*
X5697610Y6500619D02*
X5845897D01*
X5697610Y6470139D02*
X5842016D01*
X5687381Y6439659D02*
X5842016D01*
X5825061Y6774939D02*
X5852863D01*
X5826378Y6744459D02*
X5852863D01*
X5825004Y6683499D02*
X5854521D01*
X5826378Y6713979D02*
X5854521D01*
X5825004Y6653019D02*
X5852440D01*
X5825061Y6805419D02*
X5854106D01*
X5825004Y6835899D02*
X5854106D01*
X5825581Y6896859D02*
X5848497D01*
X5825004Y6866379D02*
X5848497D01*
X5823919Y6957819D02*
X5852883D01*
X5825581Y6927339D02*
X5852883D01*
X5823919Y6988299D02*
X5852444D01*
X5824752Y7018779D02*
X5852444D01*
X5824752Y7049259D02*
X5845036D01*
X5062134Y7875796D02*
X5263725D01*
X5640438Y7389242D02*
X5674280Y7355400D01*
X5591204Y7389242D02*
X5640438D01*
X4374553Y7280239D02*
Y7339308D01*
X4183656Y7089343D02*
X4374553Y7280239D01*
X6239829Y6453148D02*
X6277295Y6415682D01*
X6239829Y6453148D02*
Y6846706D01*
X5471396Y6327282D02*
X5522513D01*
X5410934Y6387744D02*
X5471396Y6327282D01*
X5410934Y6387744D02*
Y6418749D01*
X5685433Y5567390D02*
X5685433Y5567390D01*
X5706986Y5588943D02*
X5706986Y5588943D01*
X5685433Y5588943D02*
X5685433Y5588943D01*
X4800935Y7993222D02*
X5005915Y7788241D01*
X4183656Y6761752D02*
Y7089343D01*
Y6761752D02*
X4270861Y6674546D01*
X4366538Y6711973D02*
Y6733170D01*
X4336058Y6724598D02*
Y6733170D01*
X4360020Y6699142D02*
X4362122Y6701243D01*
X4334398Y6587309D02*
X4360558Y6613469D01*
X4292320Y6674546D02*
X4331642Y6713868D01*
X4192715Y6618047D02*
X4227756Y6653089D01*
X4215591Y6400728D02*
X4246071D01*
X4200351Y6415968D02*
Y6467511D01*
X4093671Y6309288D02*
X4124151D01*
X4032711Y6482751D02*
X4185111D01*
Y6370248D02*
X4215591D01*
X4017471Y6246445D02*
Y6437031D01*
X4063191Y6278808D02*
X4124151D01*
X4047951Y6294048D02*
Y6437031D01*
X4017471Y6497991D02*
Y6522200D01*
X4680935Y7953222D02*
X4720935Y7993222D01*
X4623367Y7953222D02*
X4680935D01*
X3981472Y6210446D02*
X4017471Y6246445D01*
X5818864Y8126220D02*
X5927374Y8017710D01*
X5907253Y8080936D02*
X5948927Y8039263D01*
X5905907Y7933049D02*
X5967059Y7994201D01*
X5927460Y7911496D02*
X5988612Y7972649D01*
X5907253Y8102489D02*
X5914716Y8109952D01*
X5885700Y8124041D02*
X5893163Y8131504D01*
X5781257Y8153240D02*
X5797278Y8169262D01*
X5842595Y8167146D02*
X5850058Y8174609D01*
X5864148Y8145594D02*
X5871611Y8153057D01*
X5748147Y8164797D02*
X5759704Y8153240D01*
X5726595Y8143245D02*
X5738152Y8131688D01*
X5728441Y8057320D02*
X5797327Y8126205D01*
X5734560Y8106544D02*
X5738152Y8110135D01*
X5749994Y8035767D02*
X5794809Y8080582D01*
X5696919Y8122632D02*
X5713007Y8106544D01*
X5696919Y8122632D02*
Y8162260D01*
X5666439Y8145878D02*
Y8162260D01*
X5635959Y8145878D02*
Y8162487D01*
X5574999Y8146105D02*
Y8162715D01*
X5544519Y8146105D02*
Y8162715D01*
X6150925Y7482706D02*
Y7619214D01*
Y7680174D02*
Y7703909D01*
X5498535Y8177991D02*
X5498799Y8177727D01*
X5471883Y8177991D02*
X5498535D01*
X5605479Y8146105D02*
Y8162487D01*
X5514039Y8146105D02*
Y8162487D01*
X5446235Y8152343D02*
X5471883Y8177991D01*
X5884354Y7933049D02*
X5884355Y7933049D01*
X6053440Y7821950D02*
Y7821950D01*
X5837914Y8037476D02*
Y8037476D01*
X5881019Y7994371D02*
Y7994371D01*
X5841249Y7976154D02*
X5841249Y7976154D01*
X5970565Y7846838D02*
X5970565Y7846839D01*
X5798144Y8040812D02*
X5816361Y8059029D01*
X5988782Y7908161D02*
X5988782Y7908161D01*
X6013670Y7825286D02*
Y7825286D01*
X6099881Y7739075D02*
Y7739075D01*
X5862802Y7976154D02*
X5881019Y7994371D01*
X5884354Y7954602D02*
X5902572Y7972819D01*
X5970565Y7846839D02*
X5970565Y7846839D01*
X5992118Y7846839D02*
X6010335Y7865056D01*
X5798144Y8019259D02*
X5798144Y8019259D01*
X5970565Y7846839D02*
X5970565Y7846839D01*
X6013670Y7825286D02*
X6031887Y7843503D01*
X5884354Y7933049D02*
X5884355Y7933049D01*
X6078328Y7760628D02*
X6096545Y7778845D01*
Y7778845D02*
Y7778845D01*
X5794809Y8080582D02*
Y8080582D01*
X6056775Y7760628D02*
X6056776Y7760628D01*
X5970565Y7868391D02*
X5988782Y7886608D01*
X6099881Y7717523D02*
X6099881Y7717523D01*
X5967229Y7908161D02*
Y7908161D01*
X6099881Y7739075D02*
X6118098Y7757293D01*
X5841249Y7997707D02*
X5859466Y8015924D01*
X5841249Y7976154D02*
X5841249Y7976154D01*
X6056775Y7760628D02*
X6056776Y7760628D01*
X6099880Y7717523D02*
X6099881Y7717523D01*
X5819697Y8019259D02*
X5837914Y8037476D01*
X5841249Y7976154D02*
X5841249Y7976154D01*
X6035223Y7803733D02*
X6053440Y7821950D01*
X6013670Y7803733D02*
X6013670Y7803733D01*
X6056775Y7760628D02*
X6056775Y7760628D01*
Y7782181D02*
Y7782181D01*
X5798144Y8019259D02*
X5798144Y8019260D01*
X6013670Y7803733D02*
X6013670Y7803733D01*
X6118097Y7778845D02*
X6118098Y7778845D01*
X5884354Y7954601D02*
Y7954602D01*
X5816361Y8080582D02*
X5816361Y8080582D01*
X6056775Y7782181D02*
X6074992Y7800398D01*
X5884354Y7933049D02*
X5884354Y7933049D01*
X5798144Y8040812D02*
Y8040812D01*
X5949012Y7889944D02*
X5967229Y7908161D01*
X5841249Y7997707D02*
Y7997707D01*
X5902571Y7994371D02*
X5902572Y7994371D01*
X5798144Y8019260D02*
X5798144Y8019259D01*
X5970565Y7868391D02*
Y7868391D01*
X6013670Y7803733D02*
X6013670Y7803733D01*
X6099881Y7717523D02*
X6099881Y7717523D01*
X5001297Y8260323D02*
X5001668Y8259951D01*
X5002784Y8261068D01*
X5611392Y8063702D02*
X5672801D01*
X5578891Y8094182D02*
X5672801D01*
X6018289Y7752222D02*
X6083040Y7687472D01*
Y7654617D02*
Y7687472D01*
X6060221Y7631798D02*
X6083040Y7654617D01*
X6004019Y7631798D02*
X6060221D01*
X5716969Y7926542D02*
Y7988131D01*
X5734946Y8006108D01*
X5764402D01*
X5792158Y7978353D01*
X5611392Y8033222D02*
X5671249D01*
X5320934D02*
X5548411D01*
X5280935Y8073222D02*
X5320934Y8033222D01*
X5953671Y7709077D02*
X5953672Y7709077D01*
X5997804Y7686497D02*
X5997804Y7686497D01*
X6019357Y7708050D02*
X6019357Y7708050D01*
X5910495Y7687595D02*
X5954699Y7643392D01*
X5953671Y7687525D02*
X5953672Y7687525D01*
X5910519Y7709030D02*
X5975271Y7773783D01*
X5975224Y7709077D02*
X5975224Y7709077D01*
X5953672Y7687525D02*
X5976252Y7664945D01*
X5976251Y7664945D02*
X5976252Y7664945D01*
X5975224Y7709077D02*
X5997804Y7686497D01*
X5996729Y7730677D02*
X6019357Y7708050D01*
X5954699Y7643392D02*
X5954699Y7643392D01*
X5862138Y7800609D02*
X5862139Y7800609D01*
X5906271Y7778029D02*
X5906271Y7778030D01*
X5927824Y7799582D02*
X5927824Y7799582D01*
X5818962Y7779128D02*
X5863166Y7734924D01*
X5862138Y7779057D02*
X5862139Y7779057D01*
X5818986Y7800563D02*
X5883738Y7865315D01*
X5883691Y7800609D02*
X5883691Y7800609D01*
X5862139Y7779057D02*
X5884719Y7756477D01*
X5884718Y7756477D02*
X5884719Y7756477D01*
X5883691Y7800609D02*
X5906271Y7778029D01*
X5926756Y7843754D02*
X5975246Y7795266D01*
X5905196Y7822210D02*
X5927824Y7799582D01*
X5863166Y7734924D02*
X5863166Y7734924D01*
X5771633Y7826456D02*
X5771633Y7826457D01*
X5813663Y7913742D02*
X5836291Y7891115D01*
X5835223Y7935287D02*
X5883713Y7886798D01*
X5792158Y7892142D02*
X5814738Y7869562D01*
X5793186Y7848009D02*
X5793186Y7848009D01*
X5770606Y7870589D02*
X5793186Y7848009D01*
X5792158Y7892141D02*
X5792158Y7892142D01*
X5727453Y7892095D02*
X5792205Y7956847D01*
X5770605Y7870589D02*
X5770606Y7870589D01*
X5727429Y7870660D02*
X5771633Y7826457D01*
X5792158Y7978353D02*
X5792180Y7978330D01*
X5836291Y7891114D02*
X5836291Y7891115D01*
X5814738Y7869562D02*
X5814738Y7869562D01*
X5770605Y7892141D02*
X5770606Y7892142D01*
X5686489Y7926542D02*
Y7957022D01*
X5617226Y7972262D02*
X5671249D01*
X5617226Y8002742D02*
X5671249D01*
X5563651Y8048462D02*
Y8078942D01*
X6049739Y7539748D02*
Y7586078D01*
X6080219Y7539748D02*
Y7586078D01*
X6110699Y7484165D02*
Y7586078D01*
X6004019Y7601318D02*
X6034499D01*
X6110699Y7484165D02*
X6303544Y7291320D01*
X6277295Y6750365D02*
X6334727Y6807798D01*
Y7010867D01*
X6150925Y7482706D02*
X6328489Y7305142D01*
X4468043Y7803937D02*
X4535026Y7870919D01*
X4571545D01*
X4599391Y7898766D01*
Y7929246D01*
X4623367Y7953222D01*
X6229250Y7492293D02*
Y7995627D01*
X5855812Y7075275D02*
X5855812Y7075275D01*
X6277295Y6292876D02*
Y6331534D01*
X6203416Y6294819D02*
Y6364106D01*
X6203313D02*
Y7207229D01*
X6328489Y7017106D02*
X6334727Y7010867D01*
X6328489Y7017106D02*
Y7305142D01*
X5317450Y7896320D02*
X5360935Y7913222D01*
X5322229Y7870375D02*
X5404909D01*
X5418520Y7883689D02*
Y7920202D01*
X5566456Y7891106D02*
X5566456Y7891106D01*
X6230709Y7226853D01*
X5280935Y7893006D02*
Y7913222D01*
X4801766D02*
X4957223Y7757766D01*
X4810835Y7682815D02*
X4857256Y7729236D01*
X4800935Y7613930D02*
X4890305Y7703300D01*
X4899233Y8212848D02*
X4975356D01*
X4880935Y7433222D02*
X4881071Y7433085D01*
X6313680Y6624413D02*
X6314997Y6625730D01*
X6290857Y6624413D02*
X6313680D01*
X6277295Y6637975D02*
X6290857Y6624413D01*
X6277295Y6637975D02*
Y6666709D01*
X4800935Y7593222D02*
Y7613930D01*
X4920541Y7493045D02*
X4961933Y7451653D01*
X4928165Y7405400D02*
X4946591D01*
X4961933Y7420742D01*
Y7451653D01*
X4910600Y7387836D02*
X4928165Y7405400D01*
X4910600Y7365756D02*
Y7387836D01*
Y7365756D02*
X4925320Y7351036D01*
X4940475D01*
X4958661Y7369223D01*
X4997192D01*
X5031395Y7403425D01*
X5049796D01*
X5671332Y6378485D02*
X5809980D01*
X5638060Y6411757D02*
X5671332Y6378485D01*
X5809980D02*
X5828873Y6359591D01*
Y6150604D02*
Y6359591D01*
X5954008Y6034479D02*
Y6071572D01*
X5911783Y6113796D02*
X5954008Y6071572D01*
X5865681Y6113796D02*
X5911783D01*
X5828873Y6150604D02*
X5865681Y6113796D01*
X5954008Y6034479D02*
X5999303Y5989184D01*
X6118624Y5615322D02*
X6125830D01*
X4266948Y7088539D02*
Y7132101D01*
X5570934Y6818749D02*
Y6966798D01*
X5554086Y7993222D02*
X6278956Y7268351D01*
X6303544Y6990076D02*
Y7291320D01*
X6278956Y6968040D02*
Y7268351D01*
X5520935Y7993222D02*
X5554086D01*
X6254557Y6991409D02*
Y7246669D01*
X6230709Y6999443D02*
Y7226853D01*
X5239685Y7631973D02*
X5479528D01*
X4720935Y7913222D02*
X4801766D01*
X6239829Y6846706D02*
X6277506Y6884383D01*
X6234934Y6897218D02*
X6243262D01*
Y6898179D01*
X6223723Y6908428D02*
X6234934Y6897218D01*
X6303544Y6990076D02*
X6313684Y6979936D01*
Y6870411D02*
Y6979936D01*
X6277295Y6834022D02*
X6313684Y6870411D01*
X6223723Y6992457D02*
X6230709Y6999443D01*
X6223723Y6908428D02*
Y6992457D01*
X6274110Y6963194D02*
X6278956Y6968040D01*
X6274110Y6963194D02*
X6278956Y6958348D01*
X5921179Y5417877D02*
X6118624Y5615322D01*
X6118383Y5539658D02*
X6125830D01*
X5983931Y5405205D02*
X6118383Y5539658D01*
X5983931Y5364214D02*
Y5405205D01*
X6155513Y5573114D02*
X6197722Y5615322D01*
X6008307Y5395757D02*
X6109610Y5497060D01*
X6155124D02*
X6197722Y5539658D01*
X6109610Y5497060D02*
X6155124D01*
X6008307Y5337715D02*
Y5395757D01*
X6036206Y5314038D02*
Y5369290D01*
X6125830Y5458913D01*
X5200935Y7593222D02*
X5239685Y7631973D01*
X4306235Y7089818D02*
X4314551D01*
X6197722Y5284435D02*
X6212478D01*
X6197722Y5212503D02*
Y5284435D01*
X5814545Y5092377D02*
X6036206Y5314038D01*
X6125830Y5245486D02*
Y5297424D01*
X6212478Y5284435D02*
Y5287203D01*
X5765284Y5145567D02*
X5983931Y5364214D01*
X4840935Y7553222D02*
X4880935Y7513222D01*
X4810406Y7681452D02*
X4810835Y7681880D01*
Y7682815D01*
%TF.MD5,bf7d482ffaacb7ba829065ce92f7b699*%
M02*
