%TF.GenerationSoftware,Altium Limited,Altium Designer,26.3.0 (6)*%
G04 Layer_Color=16711935*
%FSLAX45Y45*%
%MOMM*%
%TF.SameCoordinates,8A8B7967-9E6A-41B8-963D-BB03FE958A55*%
%TF.FilePolarity,Negative*%
%TF.FileFunction,Soldermask,Bot*%
%TF.Part,Single*%
G01*
G75*
%TA.AperFunction,Conductor*%
%ADD10C,0.63500*%
%TA.AperFunction,SMDPad,CuDef*%
%ADD15R,1.45000X1.05000*%
%ADD18R,0.58000X0.62000*%
%ADD19R,0.80000X0.95000*%
%ADD22R,0.95000X0.80000*%
%ADD28R,0.55000X0.55000*%
%ADD29R,0.55000X0.55000*%
%ADD39R,0.62000X0.58000*%
%ADD41R,0.40000X0.50000*%
%ADD43R,0.90000X0.75000*%
%TA.AperFunction,BGAPad,CuDef*%
%ADD76C,0.76200*%
%TA.AperFunction,SMDPad,CuDef*%
%ADD78C,1.00000*%
%TA.AperFunction,ComponentPad*%
%ADD85C,2.50000*%
%ADD86C,6.00000*%
%ADD87C,4.25000*%
%ADD88O,3.00000X1.75000*%
%TA.AperFunction,SMDPad,CuDef*%
G04:AMPARAMS|DCode=101|XSize=8.2mm|YSize=3.2mm|CornerRadius=0.16mm|HoleSize=0mm|Usage=FLASHONLY|Rotation=90.000|XOffset=0mm|YOffset=0mm|HoleType=Round|Shape=RoundedRectangle|*
%AMROUNDEDRECTD101*
21,1,8.20000,2.88000,0,0,90.0*
21,1,7.88000,3.20000,0,0,90.0*
1,1,0.32000,1.44000,3.94000*
1,1,0.32000,1.44000,-3.94000*
1,1,0.32000,-1.44000,-3.94000*
1,1,0.32000,-1.44000,3.94000*
%
%ADD101ROUNDEDRECTD101*%
G04:AMPARAMS|DCode=102|XSize=6.2mm|YSize=3.2mm|CornerRadius=0.16mm|HoleSize=0mm|Usage=FLASHONLY|Rotation=90.000|XOffset=0mm|YOffset=0mm|HoleType=Round|Shape=RoundedRectangle|*
%AMROUNDEDRECTD102*
21,1,6.20000,2.88000,0,0,90.0*
21,1,5.88000,3.20000,0,0,90.0*
1,1,0.32000,1.44000,2.94000*
1,1,0.32000,1.44000,-2.94000*
1,1,0.32000,-1.44000,-2.94000*
1,1,0.32000,-1.44000,2.94000*
%
%ADD102ROUNDEDRECTD102*%
G04:AMPARAMS|DCode=103|XSize=20.2mm|YSize=3.2mm|CornerRadius=0.16mm|HoleSize=0mm|Usage=FLASHONLY|Rotation=90.000|XOffset=0mm|YOffset=0mm|HoleType=Round|Shape=RoundedRectangle|*
%AMROUNDEDRECTD103*
21,1,20.20000,2.88000,0,0,90.0*
21,1,19.88000,3.20000,0,0,90.0*
1,1,0.32000,1.44000,9.94000*
1,1,0.32000,1.44000,-9.94000*
1,1,0.32000,-1.44000,-9.94000*
1,1,0.32000,-1.44000,9.94000*
%
%ADD103ROUNDEDRECTD103*%
G04:AMPARAMS|DCode=104|XSize=18.2mm|YSize=3.2mm|CornerRadius=0.16mm|HoleSize=0mm|Usage=FLASHONLY|Rotation=0.000|XOffset=0mm|YOffset=0mm|HoleType=Round|Shape=RoundedRectangle|*
%AMROUNDEDRECTD104*
21,1,18.20000,2.88000,0,0,0.0*
21,1,17.88000,3.20000,0,0,0.0*
1,1,0.32000,8.94000,-1.44000*
1,1,0.32000,-8.94000,-1.44000*
1,1,0.32000,-8.94000,1.44000*
1,1,0.32000,8.94000,1.44000*
%
%ADD104ROUNDEDRECTD104*%
G04:AMPARAMS|DCode=105|XSize=10.2mm|YSize=3.2mm|CornerRadius=0.16mm|HoleSize=0mm|Usage=FLASHONLY|Rotation=180.000|XOffset=0mm|YOffset=0mm|HoleType=Round|Shape=RoundedRectangle|*
%AMROUNDEDRECTD105*
21,1,10.20000,2.88000,0,0,180.0*
21,1,9.88000,3.20000,0,0,180.0*
1,1,0.32000,-4.94000,1.44000*
1,1,0.32000,4.94000,1.44000*
1,1,0.32000,4.94000,-1.44000*
1,1,0.32000,-4.94000,-1.44000*
%
%ADD105ROUNDEDRECTD105*%
%ADD106R,1.20000X1.20000*%
G04:AMPARAMS|DCode=107|XSize=0.8mm|YSize=1.6mm|CornerRadius=0.2mm|HoleSize=0mm|Usage=FLASHONLY|Rotation=90.000|XOffset=0mm|YOffset=0mm|HoleType=Round|Shape=RoundedRectangle|*
%AMROUNDEDRECTD107*
21,1,0.80000,1.20000,0,0,90.0*
21,1,0.40000,1.60000,0,0,90.0*
1,1,0.40000,0.60000,0.20000*
1,1,0.40000,0.60000,-0.20000*
1,1,0.40000,-0.60000,-0.20000*
1,1,0.40000,-0.60000,0.20000*
%
%ADD107ROUNDEDRECTD107*%
G04:AMPARAMS|DCode=108|XSize=0.62mm|YSize=0.58mm|CornerRadius=0mm|HoleSize=0mm|Usage=FLASHONLY|Rotation=225.000|XOffset=0mm|YOffset=0mm|HoleType=Round|Shape=Rectangle|*
%AMROTATEDRECTD108*
4,1,4,0.01414,0.42426,0.42426,0.01414,-0.01414,-0.42426,-0.42426,-0.01414,0.01414,0.42426,0.0*
%
%ADD108ROTATEDRECTD108*%

G04:AMPARAMS|DCode=109|XSize=2.1mm|YSize=3mm|CornerRadius=0.21mm|HoleSize=0mm|Usage=FLASHONLY|Rotation=90.000|XOffset=0mm|YOffset=0mm|HoleType=Round|Shape=RoundedRectangle|*
%AMROUNDEDRECTD109*
21,1,2.10000,2.58000,0,0,90.0*
21,1,1.68000,3.00000,0,0,90.0*
1,1,0.42000,1.29000,0.84000*
1,1,0.42000,1.29000,-0.84000*
1,1,0.42000,-1.29000,-0.84000*
1,1,0.42000,-1.29000,0.84000*
%
%ADD109ROUNDEDRECTD109*%
%TA.AperFunction,OtherPad,Free Pad (76.01mm,76.015mm)*%
%ADD115C,3.00000*%
%TA.AperFunction,OtherPad,Free Pad (12.149mm,16.083mm)*%
%ADD116C,3.00000*%
%TA.AperFunction,NonConductor*%
%ADD117R,5.33400X5.33400*%
%TA.AperFunction,ViaPad*%
%ADD118C,0.65320*%
D10*
X7413364Y609675D02*
G03*
X7860404Y1056715I0J447040D01*
G01*
X966324D02*
G03*
X1413364Y609675I447040J0D01*
G01*
X965877Y3809603D02*
G03*
X1091496Y3877992I-53105J247111D01*
G01*
X7860404Y8056715D02*
G03*
X7413364Y8503755I-447040J0D01*
G01*
X1412771Y8503758D02*
G03*
X965731Y8056718I0J-447040D01*
G01*
X3565658Y8353613D02*
G03*
X4060009Y8354217I247111J53105D01*
G01*
X1165522Y4056313D02*
G03*
X965875Y4303829I-252753J405D01*
G01*
X4212592Y8353966D02*
X7017674D01*
X7213364Y8503755D02*
X7413364D01*
X7017674D02*
X7213364D01*
X2743100Y811004D02*
X2932940D01*
X3134269Y609675D01*
X3213362D01*
X3413362D01*
X4413363D02*
X4613363D01*
X3413362D02*
X3613362D01*
X3813362D01*
X4013362D01*
X4213362D02*
X4413363D01*
X4013362D02*
X4213362D01*
X4613363D02*
X4813363D01*
X5013363D01*
X5213363D01*
X5413363D01*
X6413364D02*
X6613364D01*
X6013363D02*
X6213363D01*
X5413363D02*
X5613363D01*
X5813363D01*
X6013363D01*
X6213363D02*
X6413364D01*
X6813364D02*
X7013364D01*
X6613364D02*
X6813364D01*
X7013364D02*
X7213364D01*
X7413364D01*
X965731Y3708794D02*
Y3809603D01*
X7017674Y8353966D02*
Y8503755D01*
X965731Y4503221D02*
Y4703221D01*
X7861023Y2057334D02*
Y2213493D01*
X7860404Y2056715D02*
X7861023Y2057334D01*
X7860404Y1056715D02*
Y1256715D01*
Y1456715D01*
Y1656715D01*
Y1856716D01*
Y2056715D01*
X965731Y1056715D02*
X966324D01*
X965731D02*
Y1308793D01*
Y2708793D02*
Y2908794D01*
Y2508793D02*
Y2708793D01*
Y2308793D02*
Y2508793D01*
Y2108793D02*
Y2308793D01*
Y1908793D02*
Y2108793D01*
Y1308793D02*
Y1508793D01*
Y3308794D02*
Y3508794D01*
Y3108794D02*
Y3308794D01*
Y2908794D02*
Y3108794D01*
Y1708793D02*
Y1908793D01*
Y1508793D02*
Y1708793D01*
X1413364Y609675D02*
X1675088D01*
X1891333Y811004D02*
X1943099D01*
X1791939Y709069D02*
X1891333Y808464D01*
X2143100Y811004D02*
X2343100D01*
X1943099D02*
X2143100D01*
X2343100D02*
X2543100D01*
X2743100D01*
X965731Y3508794D02*
Y3708794D01*
X1692544Y609675D02*
X1791939Y709069D01*
X1675088Y609675D02*
X1692544D01*
X7859284Y2602895D02*
Y2802895D01*
Y7802898D02*
Y8056715D01*
Y7602898D02*
Y7802898D01*
Y7402898D02*
Y7602898D01*
Y7002897D02*
Y7202897D01*
Y6402897D02*
Y6602897D01*
Y5802897D02*
Y6002897D01*
Y5602896D02*
Y5802897D01*
Y5402896D02*
Y5602896D01*
Y3802896D02*
Y4002896D01*
Y3002895D02*
Y3202895D01*
Y2802895D02*
Y3002895D01*
Y7202897D02*
Y7402898D01*
Y6602897D02*
Y6802897D01*
Y6202897D02*
Y6402897D01*
Y6002897D02*
Y6202897D01*
Y4402896D02*
Y4602896D01*
Y4202896D02*
Y4402896D01*
Y4002896D02*
Y4202896D01*
Y3202895D02*
Y3402895D01*
Y6802897D02*
Y7002897D01*
Y5202896D02*
Y5402896D01*
Y5002896D02*
Y5202896D01*
Y4802896D02*
Y5002896D01*
Y4602896D02*
Y4802896D01*
Y3602896D02*
Y3802896D01*
Y3402895D02*
Y3602896D01*
Y2402895D02*
Y2602895D01*
X1412771Y8503755D02*
X1681366D01*
X3280592Y8353967D02*
X3480592D01*
X2080592D02*
X2280592D01*
X2480592D02*
X2680592D01*
X2280592D02*
X2480592D01*
X2680592D02*
X2880592D01*
X3080592D01*
X3280592D01*
X1811022D02*
X1880592D01*
X1811022D02*
Y8503755D01*
X1880592Y8353967D02*
X2080592D01*
X1681366Y8503755D02*
X1811022D01*
X965731Y4303972D02*
Y4503221D01*
Y6703222D02*
Y6903222D01*
Y6303222D02*
Y6503222D01*
Y6103222D02*
Y6303222D01*
Y5903222D02*
Y6103222D01*
Y5703222D02*
Y5903222D01*
Y5503221D02*
Y5703222D01*
Y4703221D02*
Y4903221D01*
Y7103222D02*
Y7303222D01*
Y6903222D02*
Y7103222D01*
Y6503222D02*
Y6703222D01*
Y5303221D02*
Y5503221D01*
Y4903221D02*
Y5103221D01*
Y7703223D02*
Y7879820D01*
Y7503222D02*
Y7703223D01*
Y7303222D02*
Y7503222D01*
Y5103221D02*
Y5303221D01*
Y7879820D02*
Y8056718D01*
X3480592Y8353967D02*
X3565305D01*
X3565658Y8353613D01*
X4061189Y8353967D02*
X4212592D01*
X4059615Y8352392D02*
X4061189Y8353967D01*
X965731Y4303972D02*
X965875Y4303829D01*
D15*
X5263859Y5314048D02*
D03*
Y5499048D02*
D03*
D18*
X5285630Y8161127D02*
D03*
X5352434Y7602947D02*
D03*
X5583310Y6579567D02*
D03*
X5324153Y6173618D02*
D03*
X5199913Y8161127D02*
D03*
X4484689Y8163667D02*
D03*
X4540569Y8066265D02*
D03*
X4637191Y7511448D02*
D03*
X5262222Y6487488D02*
D03*
Y6570879D02*
D03*
X2990812Y7654910D02*
D03*
X2704799Y7654911D02*
D03*
X2705303Y7555655D02*
D03*
X3194430Y7315681D02*
D03*
X3194921Y7223058D02*
D03*
X2885826Y7367687D02*
D03*
X2801669Y7456398D02*
D03*
X5262222Y6404096D02*
D03*
Y6325784D02*
D03*
X4709327Y6398536D02*
D03*
X4807257Y6296046D02*
D03*
X4351947Y5602772D02*
D03*
X4287285Y6041093D02*
D03*
X5381630Y8161127D02*
D03*
X5448434Y7602947D02*
D03*
X5487310Y6579567D02*
D03*
X5494113Y6416501D02*
D03*
X5166222Y6404096D02*
D03*
Y6487488D02*
D03*
Y6570879D02*
D03*
Y6325784D02*
D03*
X5420153Y6173618D02*
D03*
X5323979Y5625138D02*
D03*
X5103913Y8161127D02*
D03*
X4580689Y8163667D02*
D03*
X4636569Y8066265D02*
D03*
X4541191Y7511448D02*
D03*
X4805327Y6398536D02*
D03*
X4841740Y6198380D02*
D03*
X3290430Y7315681D02*
D03*
X2894812Y7654910D02*
D03*
X2800799Y7654911D02*
D03*
X2801303Y7555655D02*
D03*
X2789826Y7367687D02*
D03*
X2705669Y7456398D02*
D03*
X3290922Y7223058D02*
D03*
X4191284Y6041093D02*
D03*
Y6137223D02*
D03*
X5019089Y5622598D02*
D03*
X4255947Y5602772D02*
D03*
X4711257Y6296046D02*
D03*
X5115089Y5622598D02*
D03*
X5227979Y5625138D02*
D03*
X5590114Y6416501D02*
D03*
X4745740Y6198380D02*
D03*
X4287285Y6137223D02*
D03*
X4473799Y2936493D02*
D03*
X4569799D02*
D03*
D19*
X4888597Y6901019D02*
D03*
X5227345Y6211066D02*
D03*
X5053597Y6901019D02*
D03*
X5062345Y6211066D02*
D03*
D22*
X5111829Y5328768D02*
D03*
Y5493768D02*
D03*
D28*
X4668658Y6076135D02*
D03*
X4590024Y6174988D02*
D03*
X2996355Y7464406D02*
D03*
X4668658Y6171135D02*
D03*
X4590024Y6269988D02*
D03*
X4621953Y7081683D02*
D03*
Y6986682D02*
D03*
X2996355Y7559406D02*
D03*
D29*
X4468043Y7803937D02*
D03*
X4373043D02*
D03*
X4268163Y5881961D02*
D03*
X4173163D02*
D03*
X4169627Y5775163D02*
D03*
X4264627D02*
D03*
X4169627Y5695569D02*
D03*
X4264627D02*
D03*
X4537915Y5611352D02*
D03*
X4632915D02*
D03*
D39*
X5445089Y7984965D02*
D03*
X5357709D02*
D03*
X5177585Y6921580D02*
D03*
X5121607Y7509448D02*
D03*
X5090237Y6658313D02*
D03*
X5179011D02*
D03*
X5001675Y6658270D02*
D03*
X4722624Y8064265D02*
D03*
X4788489Y6896775D02*
D03*
X4440774Y6987459D02*
D03*
X5081612Y6580788D02*
D03*
X4910431D02*
D03*
X4996022D02*
D03*
X4824840D02*
D03*
X4293401Y7903639D02*
D03*
X3046470Y7926183D02*
D03*
X3145048D02*
D03*
X4404291Y7888445D02*
D03*
X4401097Y7504639D02*
D03*
X2947891Y7926183D02*
D03*
X2899123Y7460762D02*
D03*
X5211030Y6013835D02*
D03*
X4846087D02*
D03*
X4754852D02*
D03*
X4937323D02*
D03*
X5119795D02*
D03*
X5028559D02*
D03*
X4472030Y3592060D02*
D03*
X3969817D02*
D03*
X5445089Y8080965D02*
D03*
X5357709D02*
D03*
X5121607Y7605448D02*
D03*
X5177585Y6825579D02*
D03*
X5179011Y6754313D02*
D03*
X5211030Y6109835D02*
D03*
X5119795D02*
D03*
X5090237Y6754313D02*
D03*
X5001675Y6754270D02*
D03*
X4996022Y6484788D02*
D03*
X5081612D02*
D03*
X4910431D02*
D03*
X4824840D02*
D03*
X4722624Y8160265D02*
D03*
X4404291Y7984445D02*
D03*
X4401097Y7600639D02*
D03*
X4788489Y6800775D02*
D03*
X4533737Y7083459D02*
D03*
X4440774D02*
D03*
X5028559Y6109835D02*
D03*
X4937323D02*
D03*
X4846087D02*
D03*
X4754852D02*
D03*
X3145048Y8022183D02*
D03*
X4293401Y7807639D02*
D03*
X3046470Y8022183D02*
D03*
X2947891D02*
D03*
X2899123Y7556762D02*
D03*
X4472030Y3496060D02*
D03*
X3969817D02*
D03*
X4533737Y6987459D02*
D03*
X4570122Y3384764D02*
D03*
Y3288764D02*
D03*
Y3042908D02*
D03*
Y3138908D02*
D03*
D41*
X5230866Y7792724D02*
D03*
X5321026D02*
D03*
X5792454Y3960038D02*
D03*
X5702294Y3960038D02*
D03*
D43*
X5246502Y2154872D02*
D03*
Y2319872D02*
D03*
Y3991736D02*
D03*
Y3826736D02*
D03*
X6186192Y2922880D02*
D03*
Y2757880D02*
D03*
Y3501758D02*
D03*
Y3336758D02*
D03*
Y1251015D02*
D03*
Y1086015D02*
D03*
X5246502Y1762583D02*
D03*
Y1597584D02*
D03*
D76*
X7413364Y4512511D02*
D03*
X7233759Y4946116D02*
D03*
X7413364Y5020511D02*
D03*
X7592969Y4946116D02*
D03*
X7667364Y4766511D02*
D03*
X7592969Y4586906D02*
D03*
X7233759D02*
D03*
X7159364Y4766511D02*
D03*
X1413364Y4512511D02*
D03*
X1233759Y4946116D02*
D03*
X1413364Y5020511D02*
D03*
X1592969Y4946116D02*
D03*
X1667364Y4766511D02*
D03*
X1592969Y4586906D02*
D03*
X1233759D02*
D03*
X1159364Y4766511D02*
D03*
X1158771Y8056718D02*
D03*
X1233166Y7877113D02*
D03*
X1592377D02*
D03*
X1666771Y8056718D02*
D03*
X1592377Y8236324D02*
D03*
X1412771Y8310718D02*
D03*
X1233166Y8236324D02*
D03*
X1412771Y7802718D02*
D03*
X7159364Y8056715D02*
D03*
X7233759Y7877110D02*
D03*
X7592969D02*
D03*
X7667364Y8056715D02*
D03*
X7592969Y8236320D02*
D03*
X7413364Y8310715D02*
D03*
X7233759Y8236320D02*
D03*
X7413364Y7802715D02*
D03*
Y802715D02*
D03*
X7233759Y1236320D02*
D03*
X7413364Y1310715D02*
D03*
X7592969Y1236320D02*
D03*
X7667364Y1056715D02*
D03*
X7592969Y877110D02*
D03*
X7233759D02*
D03*
X7159364Y1056715D02*
D03*
X1413364Y802715D02*
D03*
X1233759Y1236320D02*
D03*
X1413364Y1310715D02*
D03*
X1592969Y1236320D02*
D03*
X1667364Y1056715D02*
D03*
X1592969Y877110D02*
D03*
X1233759D02*
D03*
X1159364Y1056715D02*
D03*
D78*
X7601033Y7601549D02*
D03*
X1214896Y1608295D02*
D03*
D85*
X7664229Y4212419D02*
D03*
Y1652419D02*
D03*
D86*
X6689229Y2052419D02*
D03*
Y3812419D02*
D03*
Y2932419D02*
D03*
D87*
X1873048Y3188020D02*
D03*
Y2468020D02*
D03*
D88*
X1273048Y2153020D02*
D03*
Y3503020D02*
D03*
D101*
X3417651Y1116629D02*
D03*
X5713844D02*
D03*
D102*
X3020125Y1457773D02*
D03*
D103*
X5713844Y2607158D02*
D03*
X4947387Y2653719D02*
D03*
D104*
X4558079Y866629D02*
D03*
X3021523Y2193150D02*
D03*
D105*
X4597387Y1360692D02*
D03*
X4139745Y1803719D02*
D03*
D106*
X5415646Y1880924D02*
D03*
Y1575764D02*
D03*
Y2133052D02*
D03*
Y2438212D02*
D03*
X6016789Y1021015D02*
D03*
Y1326175D02*
D03*
Y3568028D02*
D03*
Y3262868D02*
D03*
Y2998040D02*
D03*
Y2692880D02*
D03*
X5415646Y4110076D02*
D03*
Y3804916D02*
D03*
D107*
X7429117Y2807419D02*
D03*
Y2682419D02*
D03*
Y3182419D02*
D03*
Y2932419D02*
D03*
Y3057419D02*
D03*
D108*
X5194876Y7919281D02*
D03*
X5126994Y7987163D02*
D03*
D109*
X7719118Y3434759D02*
D03*
Y2430078D02*
D03*
D115*
X7601033Y7601549D02*
D03*
D116*
X1214896Y1608295D02*
D03*
D117*
X4064293Y4826309D02*
D03*
D118*
X4466799Y3263993D02*
D03*
Y3153993D02*
D03*
Y3373994D02*
D03*
X4356799D02*
D03*
Y3483994D02*
D03*
X4246799Y3263993D02*
D03*
Y3483994D02*
D03*
Y3373994D02*
D03*
X4356799Y3153993D02*
D03*
Y3263993D02*
D03*
Y3043993D02*
D03*
X4246799Y3153993D02*
D03*
Y3043993D02*
D03*
X4136799Y3483994D02*
D03*
Y3263993D02*
D03*
Y3373994D02*
D03*
X4026799Y3263993D02*
D03*
Y3373994D02*
D03*
X4136799Y3153993D02*
D03*
X4026799D02*
D03*
X4136799Y3043993D02*
D03*
%TF.MD5,b99516341b01ecb6bed71f5a7ee95aab*%
M02*
