M48
;Layer_Color=9474304
;FILE_FORMAT=2:5
INCH,LZ
;TYPE=PLATED
T01F00S00C0.01181
T03F00S00C0.11417
;TYPE=NON_PLATED
T04F00S00C0.06299
T05F00S00C0.12598
T06F00S00C0.17323
%
T01
X0046226Y0026795
X0055644Y0024003
X0065948
X0066139Y0031343
X0070549Y0027916
X0070076Y0039217
X0067637Y005943
X0069962Y0065191
X0062202Y0054965
X0046454
X0042517Y0047091
X0038021Y0051527
Y0059401
Y0067275
Y0075149
Y0083023
Y0090897
Y0098771
Y0106645
Y0114519
Y0122394
X0046454Y0117957
X0054328
X0050391Y0110083
X0042517
X0046454Y0102209
X0054328
X0050391Y0094335
X0042517
Y0078587
X0050391
X0054328Y0070713
X0046454
X0038044Y0041603
X0040133Y0033343
X0070076Y0086461
X0068855Y0115411
X0076729
X0084603
Y0107537
X0092477
X0100351
Y0115411
X0108225
Y0107537
X0116099
X0119792Y0113501
X0129131Y0110083
X0128907Y0117189
X0131152
X0137005Y0110083
X0144617Y0117315
Y0120004
X0144879Y0122778
X0162866Y0119842
X0167197
X0171528
X0168181Y0114527
X0166213
X0166358Y0109009
X015812Y0104433
X0156742Y0102465
X0148498Y010356
X014653Y0102182
X0147804Y0098554
X0152753Y0094335
X015669Y0086461
X0141142Y0092977
X0135462Y0091176
Y0088998
X0132496
Y0091176
X0127773Y0091763
Y0095013
X0124122
Y0091763
X0120471
Y0095013
X0125194Y0102209
X0135506Y0096541
X0134525Y0062103
Y0054229
Y0046355
Y0038481
Y0030607
X0134384Y0024003
X012651
X0126651Y0030607
Y0038481
Y0046355
X0118777
Y0038481
X011547Y0031929
X0107996
X0100122
X0092248
X0084374
X00765
X007795Y0039217
X0085824
X0093698
X0101572
X0100351Y0059793
X0104288
Y006373
Y0067667
Y0071604
Y0075541
X0108225
X0100351
Y0071604
X0096414
Y0075541
X0092477
X008854
Y0071604
X0092477
Y0067667
X0096414
Y006373
X0100351
Y0067667
X0114311Y0067973
X0118248
X0122185
X0126122
Y0064036
Y0060099
Y0056162
X0122185
Y0060099
Y0064036
X0118248
Y0060099
Y0056162
X0114311
Y0060099
Y0064036
X0115391Y0080838
X0084603Y0075541
X0083127Y0065568
X0086235
X007795Y0070713
X0073734Y0076866
X0071556
X0071556Y0079832
X0073734
X007795Y0086461
X007307Y0065191
X0092477Y0115411
X0176055Y011561
X018009Y0119645
X0182873Y0106878
X018314Y0104013
X0184208Y0099661
X0180425Y009417
X0194902Y0105987
X0198839
X0202776
Y0109924
Y0113861
X0198839
Y0109924
X0194902
Y0113861
X0217948Y0114117
Y0118054
X0221884
Y0114117
Y011018
X0217948
Y0106243
X0221884
X0225821
Y011018
Y0114117
Y0118054
X0214619Y0097386
X0212015Y0097386
X0211957Y0082538
X0214619
Y0075445
X0212015Y0075445
X0207871Y0078587
X0211957Y0060597
X0214619
X0219092Y0052009
X0223029
Y0048072
X0219092
Y0044135
Y0040198
X0223029
Y0044135
X0226966
Y0040198
Y0048072
Y0052009
X0201735Y0050284
Y0053784
X0198235Y0053784
Y0050284
Y0046784
X0201735Y0046784
X0194735Y0050284
Y0053784
X0197517Y0038481
Y0030607
X0197377Y0024003
X0189503
X0189643Y0030607
X0181769
X0181628Y0024003
X0173754
X0173895Y0030607
Y0038481
X0166021
X0158147
Y0030607
X0158006Y0024003
X016588
X0166021Y0030607
X0150273
X0150132Y0024003
X0142258
X0142399Y0030607
Y0038481
Y0046355
Y0054229
X0150273Y0046355
Y0038481
X0153903Y006037
X0158496Y0064964
X0168501Y0062839
X0168279Y0055253
X0176375Y0062839
X0184249
X0183293Y0046284
X0181769Y0038481
X0189643
X0205391
Y0030607
X0205251Y0024003
X0213124
X0213265Y0030607
X0221139
X0220999Y0024003
X0213265Y0038481
X0229013Y0030607
X0228873Y0024003
X0236747
X0244621
X0252495
X0260369
X0268243
X0276117
X0283991
X0291865
X0300124Y0026092
X0306672Y0032185
X0309465Y0041603
Y0049477
Y0057351
X0306296Y0054965
X0298422
X0294485Y0062839
X0286611
X0290548Y0070713
X0298422
X0306296
X0309465Y0073099
Y0080973
X0309489Y0087145
X0306296Y0086461
X0298422
X0290548
X0294485Y0078587
X0302359
X0286611
X0274926Y0076188
Y0068314
Y006044
Y0052566
X0267052
Y0044692
X0259178
X0251304
Y0036818
X024343
X0235556
Y0044692
X024343
X0238249Y0053657
X0235388
X0235556Y006044
X024343
X0251304
Y0052566
X0259178
Y006044
Y0068314
X0251304
Y0076188
X024343
X0235556
Y0068314
X024343
X024333Y0087141
X0235456
Y0095015
Y0102889
Y0110763
X024333
X0251204
Y0118637
X0238274Y0119478
X0235413
X024333Y0102889
Y0095015
X0251204
Y0102889
X0259078
X0266952
X0274826
X0286611Y0102209
X0290867Y0105627
X0294237
X0294485Y0102209
X0302359
X0302284Y0095692
X0309421Y0094602
Y0102476
Y011035
Y0118224
X0302359Y0117957
X0298422Y0110083
X0294237Y0110548
X0290867
X0292485Y011545
Y0120371
X0286611Y0117957
X0266952Y0095015
X0259078
X0267052Y0068314
Y006044
X0262989Y0031343
X0255115
X0247241
X0239367
X0309465Y0065225
X0309421Y0126098
Y0133972
Y0141846
Y014972
X0302359Y0149453
X0294485
X0298422Y0141579
X0302284Y0135246
X0294485Y0133705
X0292485Y0125292
X0298422Y0125831
Y0157327
X0309421Y0157594
Y0165468
Y0173342
Y0181216
Y018909
Y0196964
X0302359Y0196697
X0309421Y0204838
Y0212713
Y0220586
Y0228461
X0302359Y0228193
X0299553Y0230199
X0293859
Y0224294
X0296706
X0299553
Y0218388
X0293831Y0217081
X0293856Y0214209
X0286611Y0212445
X0282932Y021646
X0283816Y0219604
Y0223192
Y022551
Y0228224
Y0230542
Y023413
Y0236448
Y0239162
Y024148
Y0245068
Y0247386
Y02501
Y0252418
Y0256006
Y0258324
Y0261038
Y0263356
X0280883Y026515
X0277438
X027747Y0270784
X0283816Y0271976
Y0274294
Y0277882
X0280883Y0276088
X0274504Y0275458
Y0277882
X0271804Y0279098
X0268024
X0264104Y0278935
Y0275284
X0266604Y0274563
Y027227
X0264104Y0271504
X0263793Y0268163
X0263661Y0265624
X0260016
Y0261844
X0263661
Y0258188
X0260016Y0258151
Y0254371
X0263661Y0254408
X0266732Y0252299
X0269064Y0250806
X0274504Y02501
Y0252418
Y0256006
Y0258324
X027442Y0260495
X0271385Y0260017
X0271379Y0263759
Y0266061
Y0268363
X0267075
X0260439Y0269576
X0261201Y0272595
X0256574Y0274951
X0247203Y0273951
X0245698Y0271582
X0247138Y0269056
Y0265762
Y0262469
Y0259175
Y0255882
X0249141Y0255853
Y0252557
X0247138Y0252586
Y0249273
X0249162Y0249371
X0253429Y0242799
Y0238893
X0248798Y0238557
X0250521Y0236814
X0245882Y0237227
X0235996Y0235842
Y0239055
Y0242267
Y024548
X0232405
Y0242267
Y0239055
Y0235842
X0228794Y0237448
X0228127Y0240661
X0228083Y0243601
X0228033Y0246493
X0228121Y0249752
X0232405Y0248693
Y0251906
Y0271182
Y0274395
X0231923Y0279189
X0253615Y0266554
X0256638Y0258902
Y025678
X0260683Y0250749
X0262708Y0248278
X0257723Y0246504
X0259928Y0242825
Y0236825
X0263776Y0232076
X0265568Y0228616
Y0224868
X0261788
X0258286
Y0228616
X0261788
X0254506
Y0224868
X0255136Y0219997
Y0217438
X0257736Y0212945
X0258074Y0206705
X0258685Y0204283
X0261296Y020329
X0264918Y0203374
X0264983Y0206705
X0263522Y0210519
X0266699
X0268383Y0202965
X0272285Y0202929
X0274232Y0199082
Y0195302
X0270643Y0193862
X0272033Y0187967
X0268588
X0265074Y019598
X0264918Y0199594
X0261296Y0199511
X0261295Y019598
X0257895Y019598
X0257314Y0193472
X0254115Y019598
X0250716
X0249546Y019848
X0251465Y0200137
X0253361Y0202409
X0252923Y0210381
X0249786
X0244105Y0210939
Y020836
X0241174
Y0210939
Y0214918
X0244105
Y0217897
X0241174
Y0220876
X0244105
X0235706Y0230848
Y0232834
X0255427Y0232188
X0263797Y0222363
Y0219997
Y0217438
X0271537Y0217286
X0274892Y0217251
Y0219747
X0277438Y0221398
X0280883
X0278781Y0212824
Y0207647
Y0204897
X0282674Y0204571
X0280883Y0232336
X0277438
Y0243274
X0280883
X0274504Y0245068
Y0247386
X0271835Y0240099
X0280883Y0254212
X0293859Y0253821
X0296706
X0299553
Y0259727
X0302359Y0259689
X0296706Y0259727
X0293859Y0259727
Y0265632
X0296706
X0299553
X0298422Y0267563
X0299553Y0271538
X0296706
X0293859
Y0277443
X0296706
X0299553
X0302359Y0275437
X0309421Y0275705
Y0267831
Y0259957
Y0252083
Y0244209
X0302359Y0243941
X0299553Y024201
X0296706
X0293859Y024201
Y0247916
X0296706Y0247916
X0299553
Y0236105
X0296706
X0293859
X0309421Y0236334
X0298422Y0173075
X0290548
X0282674
X0294485Y0165201
X0274826Y0142562
Y0134688
X0266952
X0259078
X0251204
X024333
Y0126814
X0235456
Y0134688
X0235413Y0141919
X0238274
X0235456Y0150436
X024333
Y015831
X0235456
X0251204
Y0150436
Y0142562
X0245811Y0170447
X0245811Y0177928
X0247241Y0180949
X0250696Y0179903
X0250684Y0176472
X0254476Y0179903
X0257891Y0180094
X0254857Y0187651
X0251891Y0187655
X0247833Y0193213
X0247036Y019593
X0243823Y019214
X0240469Y0189333
Y0182778
X0240527Y0177928
X0235575Y0177928
X0230682Y0170428
X0232036Y0193247
X0233027Y0196337
X0229971Y0195312
X0230906Y0198345
X0227906Y0197376
X0228919Y0200487
X0230507Y02117
X0226952Y0202581
X0224734Y0204493
X0223777Y0201504
X0225841Y019944
X0211749Y0205625
Y020913
X0211799Y0212054
X0212039Y0216548
X0213203Y0218571
X0217818Y0219009
Y0215131
X0222731Y0221493
X0224476Y0223709
X0213029Y022751
X0209879
Y0230659
X0213029Y0230659
X0213029Y0233809
X0213029Y0236959
X0209879
Y0240108
Y0243258
Y0246407
Y0249557
Y0252557
X0207174Y025213
Y0255413
X0209879Y0255856
X0207174Y0258696
X020673Y0262156
X0209879Y0262256
X0213029
X0213029Y0265305
Y0268455
X021018Y0268669
X0209879Y0271604
Y0274754
X0213029
X0213029Y0271604
X0216178Y0268455
X0219328
Y0265305
Y0262256
X0216178
Y0265305
Y0259006
X0213029
Y0252707
X0216178
Y0255856
X0219328Y0259006
X0220158Y0253038
X0216178Y0246407
Y0243258
X0213029
Y0240108
X0205159Y0240545
X0201567
X0197975
X0194383
X0194131Y0243258
X0194131Y0246407
X0194131Y0249557
X0191101
X0190982Y0252707
X0189907Y0255307
X0193293
X0196678
X0200063
X0203395Y0255413
Y025213
Y0248847
X020043Y0249557
X0197281
X020043Y0243258
X0205801Y024453
X0205159Y0236765
X0201567
X0197975
X0197281Y0233809
X0197281Y0230659
X0197281Y022751
Y022436
X0197202Y0221002
X0194131Y0221211
Y022751
X0190982
X0187832Y022751
Y0230659
X0190982
X0194131Y0230659
X0194349Y0234123
X0193763Y0236765
X0190791
Y0240545
X0186999
X018684Y0244031
X0185483Y0247876
X0185407Y0252707
X0181533
X0178383
Y0249557
Y0246407
Y0243258
X0181533
Y0246407
Y0249557
Y0255856
X0184683
X0185476Y0257858
X0184683Y0262156
Y0265305
X0181533
Y0268455
X0184683
X0187832
X0190982
X0194131
X0197281
Y0265305
X020043
X020358
X020358Y0261156
X020043Y0262156
X0200063Y0259152
X019614Y0259102
X0192964Y025912
X0189857Y0259152
X0187832Y0262156
Y0265305
X0190982
Y0271604
X0187832
X0187974Y0276973
X0185015Y0277021
X0182467Y0275262
X0179425
X0174946Y02753
Y0279076
X0178614
X0169964Y0279127
X016789Y0279076
X0170536Y0274652
X0175234Y0271604
Y0268455
X0178383
Y0265305
X0177963Y0261757
X0175234Y0262156
Y0252707
Y0249557
Y0246407
X0172084Y0249557
Y0252707
X0168934
X016677Y0254059
X0164391Y0256883
X016242Y0258576
X0161758Y0261374
X0160285Y0256883
X0162606Y025052
X0163559Y0244506
X0165829
X0168098
X0168791Y0241623
X0165511
Y0238138
X0168791
X0172084Y0236959
X0175234
X0178383
Y0233809
X0175234Y0233809
Y0240108
X0172084
X0178383Y0240108
X0181533Y0236959
X0181533Y0233809
X0184683Y0233809
X0187832
X0186999Y0236765
X0181533Y0230659
Y022751
X0178383
X0178544Y0224274
X0181533Y022436
X0184683
Y022751
X0187832Y022436
X0184848Y0220525
X018756Y0216882
X0189733Y0215623
X0189864Y0212032
X018756Y0212052
Y0207221
X0190442Y0205753
X0193605
X0196768
X0200031
Y0202663
X0203457Y0205759
X0208009Y0205625
X0204654Y0212604
X0201253Y021629
X0201625Y0221076
X0205026Y0221362
X0209879Y0221211
X0207711Y0216776
X0197919Y0209307
X0193605Y0202013
X0190442
X018756Y0202391
X0181759
X0176158
X0170558
Y0207221
Y0212052
X0173178Y0211613
X0173254Y0215288
X0177033
X0176948Y021123
X0175945Y0219439
X0178658Y0220919
X0179669Y0217915
X0170558Y0216882
X0171681Y0220748
X0172084Y022436
X0164159Y0224235
Y0227369
X0164254Y0231516
X0155204Y0230299
X0150261Y0233922
X0150353Y0236823
X0158974Y0236705
X015902Y0244506
X016129
X0156751
X0154481
X0150638Y0251752
X0150585Y0254884
X0155204Y026116
Y0264275
Y0276736
X0158945
X0142693Y0274694
X0140429Y0275532
X0136883Y0268401
X0130678Y026826
X0127855Y0268161
X0124115Y02646
X0116996
X0109877
X0109921Y0268905
X0113695Y0268961
X0106498Y0268161
X0102758Y02646
X0090955Y0264507
X0089155Y0266165
X0088086Y0261773
X0086346Y0259997
X0083263Y0255563
X0091636Y0253583
X0094218
X0095173Y0246108
X009911
X0103047
X0106984
Y0242171
X0103047
Y0238234
X0106984
Y0234297
X0103047
X009911
Y0238234
Y0242171
X0095173
Y0238234
Y0234297
Y023036
X009911
X0103047
X0106984
X010666Y0223999
Y0221914
X0106529Y0216979
X010275
X0114329Y0217048
X0118348Y0213309
X0121705Y0213269
X0123449Y0205035
X0125967Y0207529
X012035Y020299
X0130782Y0215112
X0132669Y0213263
X0132739Y0217101
X0135949Y0222716
Y0224698
X013631Y023036
Y0234297
Y0238234
X0139764Y023817
X013987Y0242383
X013631Y0242171
Y0246108
X0132373
X0128436
X0124499
Y0242171
X0128436
X0132373
Y0238234
Y0234297
X0128436
Y0238234
X0124499
X0120562
Y0242171
Y0246108
X0113788Y0246044
X0113724Y0253583
X0110455
X010661
X0118229Y0253072
X0120936Y025307
X0123581Y025311
X0122794Y0256715
X0133515Y025493
X0138336Y0252253
X014066Y0249869
X0141034Y0258317
X0142375Y0262
X0133304Y0264661
X0132373Y023036
X0128436
X0124499
Y0234297
X0120562
Y023036
X0113738Y0234515
X0091236Y0234297
Y0238234
Y0242171
Y0246108
Y023036
X0093698Y0220319
X0096617Y0223001
X0081263Y0225443
Y0234436
X0075313Y0231262
X0076564Y0218261
X0081316Y0215414
Y0213202
Y021099
Y0208778
X0084126Y0215617
X0092405Y0208382
X0095792Y019277
X0095864Y0189104
X0099525Y0189154
X0099532Y019277
X0099525Y0185374
X0098983Y0176312
Y0173061
X0095332
Y0176312
X0091681Y0176312
Y0173061
X0084693Y0170791
X0082515
X0080336
Y0167824
X0082515
X0084693
X0084693Y0163602
X0082515
X0080336
Y0160636
X0082515
X0085824Y0157327
X0089949Y0150879
Y0146942
X0093886
X0091918Y0148911
X0093886Y0150879
X009743Y0147927
X0103008Y0150306
Y014381
X0104353Y0139554
X0101102
X0097851
X0094601
X009135
X0092335Y0136858
Y013468
X0089369Y013468
Y0136858
X0089369Y0129575
Y0127397
X0092335Y0127397
Y0129575
X0100127Y0131327
X0104064
X0108001
X0111938
Y012739
X0108001
X0104064
Y0123453
X0108001
X0111938
X0118745Y0126514
X0120923
X0120923Y012948
X0118745Y012948
X0118743Y0133838
X0120921
X0120921Y0136805
X0118743Y0136805
X0126026
X0128204Y0136805
X0128204Y0133838
X0126026
X0126029Y012948
X0128207Y012948
X0128207Y0126514
X0126029
X0132319Y0133955
Y0136133
X0135285Y0136133
Y0133955
X0142212Y013389
Y0127984
X0148591Y0129953
X0151232Y0131932
X0158535Y0132834
X0162866
X0167197
X0171528
X0175858
X0175796Y0137039
X0171528Y0137165
X0167197
X0162866
Y0128504
X0167197
X0171528
X0175858
Y0124173
X0171528
X0167197
X0162866
X0158535
Y0128504
X015637Y0141397
X0150819Y0146907
Y0150352
X0149315Y015346
X0152856Y0153451
X0158551Y0150568
X0159869Y015622
Y0159665
X0167413Y0159829
X0168355Y0164612
X0173473
Y017347
X0170914
X0168347Y0171857
X0178945Y016874
X0178299Y0159714
Y0156269
X0173152Y0150009
Y0146564
X0176055Y0141397
X018009Y0133425
X019482Y0135113
Y0131176
X0198757
Y0135113
Y013905
X019482
X0202694
Y0135113
Y0131176
X0217948Y0132621
X0221884
X0225821
Y0136558
Y0140495
X0221884
Y0136558
X0217948
Y0140495
X0214619Y0148359
X0211957
X0212015Y0163207
X0214619Y0163207
X0224516Y0170356
X0226942Y0170428
X022717Y0173989
X0207719Y018211
X0205015
X0202311
X0199607
X0196903
X01942
X0191496
X0186536
X0192133Y0199394
X0184231Y0205521
X0167296Y0205486
X0164727Y0202391
X015929
X0155101Y0204416
X0153068Y020902
Y0213674
X0155929Y0215288
X0155944Y0211578
X0160012Y0211195
X0159708Y0215288
X0158945Y0220664
Y0223876
X0162842Y0218378
X0167557Y0220782
X0153068Y0218328
X0144603Y0228711
X0125936Y0222998
X0125726Y0180326
Y0177076
X0129378Y0177076
Y0180326
X0133029
Y0177076
X012019Y0176848
X0118112
X0115934
X0116034Y0179315
X0118112
X012019
Y0174382
X0118112
X0116034
Y0171916
X0118112
Y016945
X0116034
X0110828
X010875
Y0171916
X0110828
Y0174382
X010875
X010865Y0176848
X0110828
Y0179315
X010875
X0111444Y0161653
X0112067Y0153394
Y0148211
X0113655Y0143642
X0111938Y0135264
X0108001
X0104064
X0100127
Y012739
Y0123453
X0084603Y0123285
X0084008Y0133174
X007795Y0141579
X0074915Y0143709
Y0149129
X0075231Y0160636
X0073053
Y0163602
X0075231
X0075231Y0167824
X0073053
Y0170791
X0075231
X007795Y0173075
X0074013Y0180949
X0075425Y0183586
Y0187366
X0075287Y019077
Y0194511
X0080648Y0192841
X0081887Y0196697
X0080648Y018536
X0081887Y0180949
X0090885Y0189101
X0097635Y0165201
X0126666Y0154601
Y0150664
X0128635Y0152632
X0130604Y0150664
Y0154601
X0136056Y0154596
Y0151635
X0135593Y0148238
X0133294Y014594
X0132228Y0141595
X0125732
X01444Y0140942
Y0137649
X014814
X0144879Y0149453
X0144939Y0159612
X0144911Y0162198
X0151202Y0164612
X0151325Y0178281
X0148982Y0176861
X014517Y0179735
X0143615Y0173051
X0184097Y0147589
X0186546Y0146439
X0217948Y0128684
X0221884
X0225821
X0209879Y0233809
X020673Y0233809
X020358
X020358Y0230659
X020043Y022751
X0213029Y0249557
X0222478Y0268455
X0222132Y0273197
X0226416Y0279138
X0206714Y0276573
X0203628
X020043Y0271604
Y0268455
X0197281Y0271604
X0168262Y0265142
X0095331Y0277211
X0091975Y0277526
X0090616Y0274993
X0083138Y0269405
X0076935Y0273349
Y0275994
X0073994Y0278425
X0074089Y0262777
X0072522Y0254672
X0072775Y0243993
X0076552Y0247539
X0067882Y0249373
X0065399Y0251167
Y0247579
Y0245261
Y0242437
X0067882Y0238373
Y0227373
X0065399Y0225579
Y0223261
X0062245Y0222339
X0053603Y0222325
Y0226262
X0051416Y0224309
X0050391Y0228193
X0042517
X0038021Y0224536
Y023241
Y0240284
X0042477Y0238092
X0051416Y0240057
Y0243994
X0053603Y024201
Y0247916
Y0251853
X0051416Y0249899
X0050756Y0257758
X0053603
X0052633Y026176
X0051416Y0263679
X0053603Y0265632
Y0269569
X0053619Y0273521
X0051097Y0275435
X0065399Y0275485
Y0273167
Y0269579
Y0267261
Y0264485
Y0262167
Y0258579
Y0256261
X0067882Y0260373
Y0271373
X0065364Y0278261
X0038021Y027178
Y0263906
X004218Y0263961
X004791Y0257758
X0038021Y0256032
Y0248158
Y0216662
Y0208788
Y0200914
Y019304
Y0185166
Y0177292
X0042517Y0180949
X0046454Y0173075
X0054328
X0055043Y0168165
X005879
X0063778
X0067028
Y0164514
X0063778
Y0160863
X0067028
Y0153008
X0063778
Y0149357
X0067028
Y0145706
X0063778
X0068855Y0139033
X0055043Y0149595
Y0151773
X0052077
Y0149595
X0046454Y0149453
X0042988Y0152661
X0045903Y0159697
X0052077Y0160618
Y0162797
X0055043Y0162797
Y0160618
X0042972Y016675
X0062202Y0173075
X0070076
Y0188823
X0066139Y0196697
X0062202Y0204571
X0054328
X0058265Y0212445
X0067882Y0216373
X0046454Y0220319
X0042517Y0212445
Y0196697
Y0141579
X0038021Y0138142
Y0146016
Y0130268
X0042517Y0125831
X0050391
X0050691Y028133
X0053603Y0281411
Y0285348
X0050691Y0285267
X0062245Y0283362
X0065441Y0283861
X0065433Y0286273
X0063408Y0289221
X0061426Y0289269
X006142Y0291336
X0063898Y0293281
X0065433Y0295304
X0067882Y0293373
X0070076Y029906
X0066139Y0306933
X0070076Y0314808
X0066195Y0334793
X0055621Y0334794
X0047361Y0332705
X0040813Y0326612
X0038021Y0317194
Y0310229
Y0303276
Y0295403
Y0287528
Y0279654
X0042517Y0291185
X0065364Y0280579
X0067882Y0282373
X0078432Y0280371
X008002Y0284339
X0084597Y028631
X0085212Y028943
X0087491Y0287883
X0089761Y0291185
X0081578Y0291405
X0074642Y0294499
Y0297299
X007795Y029906
X0085824
X0093698
X0089761Y0306933
X0081887
X0085824Y0314808
X007795
X0074013Y0322682
X0074039Y0328896
X0081913
X0081887Y0322682
X0089761
X0089787Y0328896
X0097661
X0097635Y0322682
X0105509
X0105535Y0328896
X0113409
X0121283
X0129157
X0137031
X0143057Y0323921
X0150093Y0321006
X0157146Y0323937
X016585Y0328896
X0173724
X0181598
X0189472
X0197346
X0196901Y032521
X0198462Y0320993
X0201612Y0320993
X0204761
X0207911
X021106
Y0317843
Y0314694
Y0311544
X0207911
X0204761
Y0314694
X020185Y0314455
X0201612Y0311544
X0195312Y0314694
X0189013
X0185864
Y0311544
X0182714
X0179564
X0176419Y031154
X0173265Y0311544
Y0314694
Y0317843
Y0320993
X0176415
X0179564
Y0317843
X0182714
X0185864
Y0320993
X0189013Y0317843
X018831Y0309966
X0188234Y0307188
X0189013Y0302095
X0189013Y0298946
X0192163
Y0295796
Y0292647
X01969
X0195417Y0295797
X0195313Y0298841
X0198462Y0298946
X0201612
Y0295796
X0204761Y0298946
X021116
X021421
X0209502Y0292647
X0206353
X0201076Y0285796
X0197892Y0285796
X0194751Y0285796
X0191589
X0188427
X0185265
X0182102
X017894
Y0282056
X0182102
X0185265
X0185015Y0279774
X0187974Y0279724
X0188427Y0282056
X0191589
X0194751
X0197913
X0201076
X0213724Y0285796
X0216886
X0223211Y0282056
X021736Y0314694
X021421
Y0317843
X021736
X0214419Y0320958
X0213094Y0328896
X020522
X0207911Y0317843
X0207911Y0314694
X0195312Y0320993
X0192883Y0323341
X0182714Y0314694
X0179564
X0170115
X0169182Y0311644
X0169032Y0307387
X0172167Y0307242
X0175907
X0173265Y0298946
Y0295796
X0179564Y0295796
X0182714
X0189013
X0172227Y0289049
X0169454Y0285796
X0166291
X0163129
X0159549Y0288743
X0142972Y0287767
X0140429Y028946
X0143006Y0292735
X013685Y0292983
Y0296723
Y0300092
Y0303832
X0136794Y0307253
X0140534
X0140429Y0303832
Y0296723
Y0282496
X014297Y0280836
X0133781Y027987
X0133752Y0282519
X0130902Y0279868
X0129564Y0284372
X0129544Y0288019
X0125765
X0125784Y0284372
X0125723Y0293888
X0117967Y0293874
Y0297614
X0117748Y0301374
X0117604Y0304137
X0114985
X0112267
X0106739Y0304132
X010413Y0301353
X0110068Y0300068
Y0298033
X0113986Y0297932
X0113952Y0300127
X0113986Y0293959
X0110902
X0107808
X0109938Y0290051
X0113986
X0115972Y0290013
X0113935Y0282312
X0095331Y0286941
X0093698Y0314808
X0101572
X0112045Y0311757
X0116059Y0312054
Y0315834
X0119891
Y0312054
X0123821
Y0315834
X0125565Y030481
X0158651Y030862
X0161296Y0311265
X0170115Y0320993
X0172616Y0282056
X0220968Y0328896
X0228842
X0236716
X024459
X0252464
X0260338
X0268212
X0276086
X0278737Y0322682
X0270863
X0262989
X0255115
X0247241
X0250093Y0317877
X0255182Y0314163
X0259052Y0314808
X0266926
X0268331Y0308394
X0272085
Y0304615
X0268331
X0264458Y0305394
X0260679
X0256823
X0253044
X0252747Y0299399
X0250405Y0298894
Y0296679
Y029446
X0252974Y0291328
X025737Y0293198
X0257355Y0295489
X0257307Y0297621
X0260793Y0299751
X0264286Y0300836
X026207Y0294276
X0261604Y0291511
X0260877Y0288342
X0258691
X0256437Y0288344
X0256771Y028598
X0263552
X0263062Y0288342
X0265248
X0265256Y0290632
X0268098Y0293196
X0274457Y0291038
Y028872
Y0285011
Y0281925
X0268024Y0282698
X0264104Y0282714
X0260563Y0282268
X0256199Y0279426
X0248185Y0298894
X0239857Y0310396
Y0314137
X0234982Y031807
X02748Y0314808
X0276747Y0309478
X0275196Y0306436
Y0303715
X0278266Y030373
X0277438Y0297964
X0280883
X0283816Y0299758
Y0302076
Y029617
Y0293852
Y0291038
Y028872
Y0285132
Y0282814
X0280883Y0286926
X0279129Y0292484
X0276617
X0293859Y0289254
X0296706
X0299553
X0302359Y0291185
X0309421Y0291453
Y0283579
X0299553Y0283349
X0296706
X0293859
X0309421Y0299327
Y0307201
X0302359Y0306933
X0309465Y0317194
X0307376Y0325453
X0301283Y0332001
X0291865Y0334793
X0283991
T03
X0073742Y0097166
Y0125513
T04
X0301741Y0065056
Y0165843
T05
X0055644Y0041603
X0291865
Y0187658
X0055644
X0055621Y0317194
X0291865Y0317194
T06
X0263355Y0080804
Y011545
Y0150095
M30
